<svg width="32" height="32" viewBox="0 0 32 32" fill="none" xmlns="http://www.w3.org/2000/svg">
<path d="M28.0001 5.79008C28.0001 7.25048 26.8164 8.43436 25.356 8.43436C23.8956 8.43436 22.7119 7.25048 22.7119 5.79008C22.7119 4.32987 23.8956 3.146 25.356 3.146C26.8164 3.146 28.0001 4.32987 28.0001 5.79008Z" fill="#EDEEF6"/>
<path d="M26.6337 27.7035C25.7146 28.397 24.4647 28.457 23.4837 27.8543L14.6517 22.4691C14.805 22.4604 14.9554 22.4251 15.0964 22.3646L21.2969 19.6059C21.9817 19.302 22.4431 18.6452 22.4965 17.8979C22.55 17.1506 22.187 16.4347 21.5526 16.0364L18.2297 13.6918C18.1214 13.6232 18.0482 13.5105 18.0297 13.3836C18.0111 13.2566 18.0486 13.1277 18.1329 13.0309L18.7762 12.7091L18.4985 12.5151C18.1315 12.2606 17.8748 11.8764 17.7802 11.4399L17.6128 10.6554C17.5118 10.1989 17.5975 9.72086 17.8508 9.32789C18.1041 8.93472 18.5039 8.65898 18.9613 8.56218L19.8559 8.36817C19.9704 8.34338 20.0902 8.3652 20.1886 8.42907C20.287 8.49275 20.356 8.59293 20.3804 8.70758C20.4062 8.82105 20.3854 8.94027 20.3223 9.03807C20.2592 9.13607 20.1595 9.2043 20.0454 9.22771L19.1507 9.42152C18.675 9.52566 18.3721 9.99382 18.4721 10.4703L18.6441 11.2549C18.6893 11.4733 18.8173 11.6659 19.001 11.7924L19.6709 12.2596L19.6796 12.2552L22.8085 14.4365C23.2657 14.7553 23.8676 14.7759 24.3457 14.4895C24.3847 14.5329 24.432 14.5684 24.4845 14.5938L26.2681 15.4415C26.4101 15.5091 26.5777 15.4958 26.7073 15.4066C26.837 15.3173 26.9094 15.1655 26.8969 15.0086C26.8844 14.8515 26.7892 14.7133 26.647 14.6454L24.8759 13.8019C25.061 13.2495 24.8598 12.6413 24.3818 12.308L22.7954 11.2019C22.723 11.1519 22.6875 11.0636 22.7047 10.9775C22.722 10.8914 22.7887 10.8236 22.8747 10.8054L23.5004 10.673C23.7375 10.6205 23.8872 10.3858 23.8355 10.1487L23.5754 8.92797C23.4425 8.31679 23.1364 7.75699 22.694 7.31502C21.5768 6.19681 19.7948 6.10536 18.5691 7.10356L17.41 8.04661L15.6628 9.46774C15.6223 9.41577 15.5705 9.37332 15.5116 9.34396L10.3232 6.87345L10.5486 6.42791C10.6573 6.2101 10.5688 5.94528 10.351 5.83657C10.1332 5.72766 9.86839 5.81614 9.75968 6.03395L9.52739 6.49536L8.138 5.83439C7.99458 5.75266 7.81763 5.75801 7.67937 5.84807C7.5411 5.93833 7.46493 6.09802 7.48159 6.26207C7.49845 6.42613 7.60538 6.56717 7.75891 6.62747L9.13303 7.2819L8.87614 7.79528C8.76723 8.01329 8.8557 8.27791 9.07352 8.38682C9.29133 8.49553 9.55615 8.40725 9.66486 8.18944L9.92929 7.66059L14.9457 10.0492L14.0123 10.8097C13.79 10.9873 13.6019 11.2037 13.4571 11.4487C13.2976 11.7688 13.2161 12.1221 13.2191 12.48C13.2143 13.3026 13.6231 14.0725 14.3075 14.5292L18.4941 17.2129C18.629 17.3012 18.705 17.4561 18.6921 17.6168C18.6794 17.7777 18.5796 17.9185 18.4324 17.9842L14.0917 19.9189C13.4256 20.1978 13.0901 20.9457 13.3248 21.6286C13.3309 21.6449 13.3413 21.6586 13.3482 21.6727L7.29671 17.9846C7.16222 17.9007 6.99301 17.8955 6.85375 17.9709C6.71429 18.0463 6.62602 18.1907 6.62265 18.3492C6.61947 18.5077 6.7014 18.6557 6.83748 18.7368L23.0249 28.6083C24.3133 29.4008 25.9558 29.3221 27.1625 28.4101C27.3573 28.2639 27.3968 27.9878 27.2508 27.793C27.1046 27.5984 26.8285 27.5589 26.6337 27.7049V27.7035Z" fill="#EDEEF6"/>
<path d="M7.94848 15.0447C8.14526 15.0449 8.31824 14.9147 8.37259 14.7257C8.42695 14.5366 8.34938 14.3345 8.18255 14.2303L4.65691 12.0268C4.45021 11.8979 4.17785 11.961 4.04891 12.1679C3.91977 12.3748 3.98305 12.647 4.18995 12.7761L7.71539 14.9794C7.78542 15.0224 7.86635 15.0451 7.94848 15.0447Z" fill="#EDEEF6"/>
<path d="M7.27385 12.7741L10.7995 14.9774C11.0064 15.1066 11.2786 15.0433 11.4077 14.8366C11.5366 14.6297 11.4735 14.3573 11.2666 14.2284L7.74101 12.0249C7.53411 11.896 7.26194 11.959 7.13281 12.1659C7.00386 12.3728 7.06695 12.645 7.27385 12.7741Z" fill="#EDEEF6"/>
</svg>
