<svg width="32" height="32" viewBox="0 0 32 32" fill="none" xmlns="http://www.w3.org/2000/svg">
<path d="M6.92514 18.1092C7.06686 17.6898 7.22441 17.2745 7.39787 16.8634C7.7653 15.9935 8.20157 15.1544 8.7026 14.3541C10.1377 12.0695 12.0694 10.138 14.3539 8.70273C15.1544 8.20163 15.9937 7.76531 16.8638 7.398C17.2739 7.22439 17.6891 7.06678 18.1091 6.92526C19.9389 6.30938 21.8569 5.99684 23.7873 6.00002C24.3743 5.99989 24.9371 6.2329 25.3521 6.64793C25.767 7.06286 26.0001 7.62577 26 8.21261C26.0032 10.1431 25.6906 12.061 25.0747 13.8905C24.9334 14.3103 24.7759 14.7256 24.602 15.1363C24.2348 16.0062 23.7984 16.8454 23.2973 17.6456C21.8624 19.9303 19.9307 21.8622 17.6459 23.2973C16.8455 23.7982 16.0064 24.2344 15.1366 24.602C14.7261 24.7756 14.3108 24.9332 13.8909 25.0747C12.0613 25.6906 10.1435 26.0032 8.21301 26C7.62602 26.0002 7.063 25.7672 6.64792 25.3521C6.23285 24.937 5.99977 24.374 6.00002 23.787C5.99685 21.8565 6.30938 19.9386 6.92526 18.1091L6.92514 18.1092ZM22.051 9.94901C22.9126 10.8094 23.6892 11.7509 24.3702 12.7603C24.7835 11.2798 24.9923 9.74977 24.9906 8.21261C24.9907 7.89343 24.8639 7.58732 24.6382 7.36168C24.4125 7.13598 24.1064 7.00921 23.7872 7.00928C22.2518 7.00806 20.7235 7.21821 19.2454 7.63375C20.2528 8.31359 21.1923 9.08892 22.051 9.94884L22.051 9.94901ZM14.3659 19.9263C14.4416 19.8507 14.4843 19.748 14.4843 19.6409C14.4843 19.5338 14.4416 19.4312 14.3659 19.3555L13.7906 18.7802L14.6097 17.9612L15.1849 18.5364C15.2869 18.6382 15.4355 18.6778 15.5746 18.6405C15.7138 18.6032 15.8225 18.4945 15.8598 18.3553C15.8972 18.2161 15.8575 18.0676 15.7558 17.9656L15.1809 17.3904L16 16.5708L16.5753 17.1461C16.6773 17.2479 16.8257 17.2876 16.965 17.2502C17.1041 17.2128 17.2128 17.1041 17.2502 16.965C17.2875 16.8258 17.2479 16.6773 17.1461 16.5753L16.5708 16L17.3899 15.1809L17.9652 15.7562C18.0673 15.8572 18.2155 15.8963 18.3541 15.8589C18.4929 15.8214 18.6012 15.7131 18.6387 15.5744C18.6761 15.4357 18.637 15.2875 18.536 15.1854L17.9607 14.6101L18.7798 13.7911L19.355 14.3663V14.3663C19.4572 14.4671 19.6053 14.506 19.7438 14.4685C19.8824 14.431 19.9906 14.3228 20.0281 14.1843C20.0656 14.0457 20.0267 13.8977 19.9258 13.7955L18.2045 12.0738C18.1025 11.9718 17.9538 11.9321 17.8145 11.9695C17.6752 12.0068 17.5665 12.1157 17.5292 12.255C17.4919 12.3944 17.5317 12.543 17.6337 12.645L18.2089 13.2203L17.3898 14.0394L16.8145 13.4641L16.8146 13.464C16.7125 13.3631 16.5643 13.3239 16.4256 13.3614C16.2869 13.3988 16.1786 13.5071 16.1411 13.6459C16.1036 13.7846 16.1428 13.9327 16.2438 14.0348L16.8191 14.6101L16 15.4292L15.4247 14.854C15.3492 14.7775 15.2463 14.7344 15.1388 14.7341C15.0314 14.7338 14.9283 14.7764 14.8523 14.8523C14.7763 14.9283 14.7338 15.0315 14.734 15.1389C14.7344 15.2464 14.7775 15.3492 14.8539 15.4248L15.4288 16L14.6096 16.8191L14.0344 16.2439H14.0344C13.9324 16.142 13.7837 16.1022 13.6444 16.1396C13.5051 16.177 13.3964 16.2858 13.3591 16.4251C13.3218 16.5645 13.3616 16.7131 13.4636 16.8151L14.0388 17.3904L13.2198 18.2094L12.6445 17.6341V17.6342C12.5689 17.558 12.4661 17.515 12.3588 17.5148C12.2514 17.5146 12.1484 17.5571 12.0725 17.6331C11.9967 17.7089 11.9541 17.8119 11.9543 17.9193C11.9545 18.0265 11.9975 18.1294 12.0737 18.2049L13.795 19.9263C13.8707 20.0021 13.9733 20.0447 14.0804 20.0447C14.1875 20.0447 14.2902 20.0021 14.3659 19.9263L14.3659 19.9263ZM7.36227 24.6377C7.58723 24.8641 7.89327 24.9913 8.21245 24.991C9.74965 24.9926 11.2798 24.7838 12.7605 24.3705C11.751 23.6894 10.8094 22.9127 9.94868 22.0512C9.08888 21.1925 8.31376 20.2528 7.63394 19.2457C7.21805 20.7237 7.00776 22.2521 7.00906 23.7875C7.00873 24.1067 7.1359 24.4127 7.36229 24.6377L7.36227 24.6377Z" fill="#EDEEF6"/>
</svg>
