<svg width="32" height="32" viewBox="0 0 32 32" fill="none" xmlns="http://www.w3.org/2000/svg">
<path d="M26.4659 15.6354L23.1411 13.6406L22.4879 10.3758C22.4454 10.1627 22.3407 9.9671 22.1871 9.81351C22.0335 9.65992 21.8379 9.55525 21.6248 9.51261L18.3596 8.86004L16.3647 5.53491C16.2677 5.36405 16.1249 5.22369 15.9525 5.1295C15.7802 5.03531 15.5849 4.99096 15.3888 5.00153C15.1933 5.00737 15.003 5.06522 14.8373 5.16904C14.6716 5.27286 14.5366 5.41896 14.4462 5.59231L8.00263 17.9509L6.25219 19.7023C5.45044 20.504 5 21.5913 5 22.7251C5 23.859 5.45038 24.9462 6.2521 25.748C7.05384 26.5497 8.14125 27 9.27508 27C10.4089 27.0001 11.4963 26.5496 12.2981 25.748L14.0495 23.9971L26.4086 17.5539C26.6408 17.4328 26.8222 17.2329 26.9202 16.99C27.0181 16.7471 27.0262 16.4773 26.9429 16.229C26.8598 15.9807 26.6907 15.7702 26.4661 15.6354L26.4659 15.6354ZM15.4887 8.35125L16.3526 9.79065L12.6213 15.0192L12.3015 14.4645L15.4887 8.35125ZM13.5985 21.7508L10.249 18.4014L11.0961 16.7776L11.5704 17.6006L11.5805 17.6128C11.5981 17.6423 11.6262 17.6644 11.6465 17.6925V17.6924C11.705 17.7758 11.7748 17.8506 11.854 17.9146C11.8659 17.9239 11.8715 17.9378 11.8838 17.9465C11.9324 17.9758 11.9833 18.001 12.0359 18.0222C12.0666 18.0426 12.0984 18.0614 12.1309 18.0786L13.427 18.5737L13.9221 19.8697C13.9474 19.9216 13.9769 19.9715 14.0101 20.0187C14.0231 20.0521 14.0378 20.0848 14.0541 20.1166C14.0619 20.1276 14.075 20.1309 14.0831 20.1415L14.083 20.1415C14.1685 20.2579 14.2763 20.3561 14.4001 20.4304L15.2231 20.9046L13.5985 21.7508ZM15.3064 17.3295C15.1948 17.0369 14.9636 16.8057 14.671 16.6941L14.2454 16.5315L18.1494 11.061L20.4747 11.5261L20.9399 13.8513L15.4691 17.7551L15.3064 17.3295ZM17.5362 19.6984L16.9814 19.3787L22.2098 15.6475L23.6493 16.5111L17.5362 19.6984Z" fill="#EDEEF6"/>
</svg>
