<svg width="32" height="32" viewBox="0 0 32 32" fill="none" xmlns="http://www.w3.org/2000/svg">
<path d="M18.2508 18.0698L18.0532 14.8488L18.8142 14.01L19.8911 12.8247L20.0889 16.0462L18.2508 18.0698ZM5.09424 21.087C5.22194 20.4844 5.4892 19.9184 5.88316 19.4242C7.0891 17.9136 8.80358 19.6292 7.80409 20.7283C7.20943 21.383 7.19188 22.3415 7.72593 23.0128C8.45198 23.9305 9.84086 23.8861 10.5496 23.1064L15.1949 17.9941L15.3924 21.2158L12.2989 24.6206C9.47398 27.7295 4.23401 25.1642 5.09424 21.0867L5.09424 21.087ZM15.8863 17.2324L17.3615 15.6088L17.5593 18.8307L16.0842 20.4547L15.8863 17.2324ZM27 8.43761L20.7805 15.2848L20.5825 12.0636L27 5L27 8.43761Z" fill="#EDEEF6"/>
<path d="M26 22.9999C26 25.2061 24.2063 27 21.9999 27C19.7938 27 18 25.2062 18 22.9999C18 20.7936 19.7937 19 21.9999 19C24.2061 18.9999 26 20.7937 26 22.9999Z" fill="#EDEEF6"/>
</svg>
