<svg width="32" height="32" viewBox="0 0 32 32" fill="none" xmlns="http://www.w3.org/2000/svg">
<path d="M9.09999 24V20.5499L11.6 19.0999L15.4501 21.3499V24.2499L12.4501 25.9999C11.2501 25.5499 10.1001 24.8499 9.10026 23.9999L9.09999 24ZM5.39999 16C5.39999 15.35 5.44999 14.7 5.59999 14.05L8.59999 12.3L11.1 13.75V18.2001L8.59999 19.6501L5.59999 17.9001C5.49999 17.3001 5.39999 16.6501 5.39999 16.0001V16ZM22.9 7.99999V11.4501L20.4 12.9001L16.5 10.6501V7.75013L19.5 6.00013C20.75 6.45013 21.9 7.15013 22.9 8.00013V7.99999ZM16 20.4501L12.1499 18.2001V13.75L16 11.5L19.8501 13.75V18.2001L16 20.4501ZM15.5 10.6501L11.6499 12.9001L9.14986 11.4501V7.99999C10.1499 7.14999 11.2999 6.49999 12.5499 6.04999L15.5499 7.79999V10.6501H15.5ZM16.5 21.3501L20.3501 19.1001L22.8501 20.5501V24.0003C21.8501 24.8503 20.7001 25.5003 19.4501 25.9503L16.4501 24.2003V21.3501H16.5ZM23.4 19.7001L20.9 18.2501V13.8L23.4 12.35L26.4 14.1C26.5 14.75 26.6 15.4 26.6 16.05C26.6 16.7 26.55 17.35 26.4 18L23.4 19.7001ZM26.05 12.65L23.95 11.4V8.99999C24.85 10.05 25.6 11.3 26.05 12.6501V12.65ZM18.15 5.64999L16 6.84999L13.85 5.59999C14.55 5.44999 15.25 5.39999 16 5.39999C16.75 5.39999 17.45 5.49999 18.15 5.64999ZM8.09986 8.99986V11.4499L5.99986 12.6999C6.39986 11.2999 7.14986 10.0499 8.09986 8.99986ZM5.94986 19.3497L8.04986 20.5997V22.9997C7.14986 21.9497 6.39986 20.6997 5.94986 19.3496V19.3497ZM13.8499 26.3497L15.9999 25.0997L18.1499 26.3497C17.4499 26.4997 16.7499 26.5497 15.9999 26.5497C15.2499 26.5997 14.5499 26.4997 13.8499 26.3497ZM23.9 22.9999V20.5499L26 19.2999C25.6 20.6999 24.85 21.9499 23.9 22.9999Z" fill="#EDEEF6"/>
</svg>
