<svg width="32" height="32" viewBox="0 0 32 32" fill="none" xmlns="http://www.w3.org/2000/svg">
<g clip-path="url(#clip0_58_842)">
<path d="M30.5547 25.1828C30.5375 25.0872 30.513 25.0454 30.4788 24.9811L24.5437 13.8308C24.6869 13.7672 24.829 13.6998 24.9693 13.6286L25.0355 13.5946C25.7419 13.2359 26.0237 12.3724 25.6651 11.6661C25.3064 10.9596 24.443 10.6778 23.7367 11.0364L23.6709 11.0698C22.1524 11.8405 20.3855 11.967 18.7832 11.4538C18.5255 10.8654 18.0088 10.3979 17.3377 10.2288C16.1864 9.93878 15.016 10.6373 14.7258 11.7896L13.4192 16.9761C13.229 17.4832 13.2439 18.0332 13.4353 18.5191C12.2153 20.211 10.7518 21.6996 9.07039 22.956L7.63601 24.0306C7.25934 24.312 7.06207 24.7046 7.06169 25.1827H3.82075C3.38508 25.1827 3 25.5299 3 25.9657V26.163C3 26.5986 3.38508 26.9997 3.82075 26.9997H9.86313H24.5297H30.5719C31.4434 26.9997 32.1657 26.2455 32.1657 25.3741V25.1828H30.5547ZM16.0279 19.824C16.6304 20.1516 17.1314 20.6393 17.4816 21.2541C17.9959 22.1575 18.1118 23.2017 17.8077 24.1958L17.6356 24.7605C17.5929 24.9002 17.5729 24.9916 17.5728 25.1828H10.8884C12.8853 23.6528 14.6102 21.8737 16.0279 19.824ZM20.5072 25.1828L20.5509 25.0372C21.0883 23.2801 20.8836 21.4316 19.9746 19.8349C19.4193 18.8597 18.6489 18.0632 17.7273 17.4915L18.5162 14.3594C19.2506 14.5403 20.003 14.6315 20.7557 14.6315C21.4538 14.6315 22.1517 14.5558 22.8352 14.4003L28.5738 25.1829H26.1075H20.5072V25.1828ZM9.91534 12.8937L13.575 3.42258C13.7065 3.08235 14.0889 2.91309 14.4291 3.04458C14.7694 3.17606 14.9386 3.55847 14.8071 3.8987L12.7485 9.22618C13.4291 9.48915 13.7675 10.254 13.5046 10.9345L13.0565 12.0943C13.697 12.3418 14.0157 13.0616 13.7682 13.7021L12.4098 17.2175C12.1517 17.8854 11.3954 18.2139 10.7294 17.9425C10.0756 17.6761 9.77869 16.9122 10.0331 16.2536L10.9001 14.01L10.3082 13.7813C9.95464 13.6447 9.77869 13.2473 9.91534 12.8937ZM16.5628 7.11267C16.5628 5.64214 17.7549 4.45008 19.2254 4.45008C20.6959 4.45008 21.888 5.64214 21.888 7.11267C21.888 8.5832 20.6959 9.77526 19.2254 9.77526C17.7549 9.77526 16.5628 8.5831 16.5628 7.11267Z" fill="#EDEEF6"/>
</g>
<defs>
<clipPath id="clip0_58_842">
<rect width="32" height="32" rx="2" fill="white"/>
</clipPath>
</defs>
</svg>
