<svg width="32" height="32" viewBox="0 0 32 32" fill="none" xmlns="http://www.w3.org/2000/svg">
<path d="M14.8182 4C11.6409 4 8 4.5455 8 8.77273C8 11.3227 9.69091 14.9091 13.4545 14.9091C15.35 14.9091 16.5909 14.05 17.3818 13.0818C16.5885 12.5263 16.1818 11.6646 16.1818 10.8182C16.1818 9.31823 17.4091 8.09091 18.9091 8.09091H20.2727C20.75 8.09091 21.1863 8.18636 21.609 8.33636C21.3636 4.51818 17.8727 4 14.8182 4Z" fill="#EDEEF6"/>
<path d="M23 15.2637C23 15.1231 23 12.0418 23 12.1819C23 10.7445 21.8243 9.45459 20.2727 9.45459H18.9091C18.1591 9.45459 17.5455 10.0682 17.5455 10.8182C17.5455 11.5643 18.216 12.1814 18.9091 12.1814H19.5364C19.3318 12.645 19.0727 13.1091 18.7455 13.5319C17.6409 15.0728 15.8954 16.2728 13.4545 16.2728C11.0272 16.2728 9.1455 15.0318 8 13.2864V15.2637C8 17.0687 8.82886 18.8911 9.61509 20.4546H20.7682C21.7535 18.8695 23 17.1117 23 15.2637Z" fill="#EDEEF6"/>
<path d="M10.7272 27.2727H19.5909C19.9677 27.2727 20.2727 26.9677 20.2727 26.5908V21.8181H10.0454V26.5908C10.0454 26.9677 10.3504 27.2727 10.7272 27.2727ZM13.4545 23.8636H16.8636C17.2405 23.8636 17.5454 24.1685 17.5454 24.5454C17.5454 24.9223 17.2405 25.2272 16.8636 25.2272H13.4545C13.0776 25.2272 12.7727 24.9223 12.7727 24.5454C12.7727 24.1685 13.0776 23.8636 13.4545 23.8636Z" fill="#EDEEF6"/>
</svg>
