<svg width="32" height="32" viewBox="0 0 32 32" fill="none" xmlns="http://www.w3.org/2000/svg">
<path fill-rule="evenodd" clip-rule="evenodd" d="M13.5765 19.5522C14.1752 19.8482 14.9012 20.0889 15.619 20.0092L20.9649 14.6639L21.5337 14.0924L16.8001 9.35746L16.2287 9.92778L10.8828 15.2731C10.803 15.9908 11.039 16.7173 11.3375 17.3133L5.89111 22.7597C4.42767 24.2232 6.66516 26.4648 8.13276 24.9998L13.5765 19.5522ZM24.3627 19.1648V21.4496C24.3627 24.3339 19.9645 24.3312 19.9645 21.4496V19.1648C21.46 18.3896 22.8733 18.3934 24.3627 19.1648ZM26.5858 23.0091C26.5858 25.4555 24.6094 27.4342 22.1628 27.4342C19.716 27.4342 17.7399 25.4555 17.7399 23.0091C17.7399 21.6239 18.277 20.8804 18.9603 19.7843V21.4496C18.9603 25.6376 25.3662 25.6339 25.3662 21.4496V19.7843C26.0495 20.8803 26.5855 21.6238 26.5855 23.0091H26.5858ZM22.4223 13.2062L23.8159 11.8103L19.0823 7.07538L17.6861 8.46893L22.4223 13.2062ZM24.7029 10.9244L26.3119 9.31701C26.4937 7.6468 24.9659 5.92634 24.9659 5.92634C24.9659 5.92634 23.2455 4.39906 21.5742 4.58082L19.9683 6.18935L24.7029 10.9244Z" fill="#EDEEF6"/>
</svg>
