<svg width="32" height="32" viewBox="0 0 32 32" fill="none" xmlns="http://www.w3.org/2000/svg">
<path d="M23.5208 14.1178L22.0421 9.76052H23.2838C23.7804 9.76052 24.1868 9.3644 24.1868 8.88026C24.1868 8.39612 23.7804 8 23.2838 8H20.7948C20.1796 8 19.7451 8.58867 19.937 9.15534L20.823 11.7686L20.1796 12.5663H12.4701L11.4824 10.9709H11.7082C12.2048 10.9709 12.6112 10.5748 12.6112 10.0906C12.6112 9.60647 12.2048 9.21036 11.7082 9.21036H8.88624C8.38958 9.21036 7.98322 9.60647 7.98322 10.0906C7.98322 10.5748 8.38958 10.9709 8.88624 10.9709H9.37161L14.1294 18.6731H13.1361C12.4362 14.4259 6.97861 12.4398 3.64872 15.6858C1.45325 17.8259 1.44761 21.2534 3.64872 23.3935C6.89395 26.557 12.3911 24.7744 13.1304 20.4337H15.721C15.9975 20.4337 16.2628 20.3071 16.4321 20.0981L21.5003 13.7822L21.7994 14.668C19.999 15.5812 18.763 17.4188 18.763 19.5259C18.763 22.5463 21.2802 25 24.3787 25C27.4772 25 30 22.5463 30 19.5259C30 16.1919 26.941 13.6006 23.5208 14.1178ZM9.99809 18.6731C9.63688 17.6994 8.67742 17.0061 7.55429 17.0061C6.12074 17.0061 4.95246 18.1395 4.95246 19.5424C4.95246 20.9398 6.1151 22.0786 7.55429 22.0786C8.66613 22.0786 9.6143 21.3964 9.9868 20.4392H11.2962C10.8842 22.0456 9.38855 23.245 7.61072 23.245C5.51684 23.245 3.81239 21.5835 3.81239 19.5424C3.81239 17.5013 5.51684 15.8398 7.61072 15.8398C9.39983 15.8398 10.9011 17.0502 11.3018 18.6731H9.99809ZM15.8282 17.9964L13.5594 14.3269H18.7687L15.8282 17.9964ZM24.3843 23.2395C22.2848 23.2395 20.5747 21.5725 20.5747 19.5259C20.5747 18.1945 21.2971 17.0227 22.3808 16.368L22.7815 17.5453C22.1776 18.0074 21.7882 18.7282 21.7882 19.5369C21.7882 20.9343 22.9508 22.0731 24.39 22.0731C25.8292 22.0731 26.9918 20.9398 26.9918 19.5369C26.9918 18.1725 25.8913 17.0612 24.5029 17.0061L24.1021 15.8233C26.3315 15.6583 28.1996 17.3858 28.1996 19.5259C28.194 21.5725 26.4839 23.2395 24.3843 23.2395Z" fill="#EDEEF6"/>
</svg>
