<svg width="32" height="32" viewBox="0 0 32 32" fill="none" xmlns="http://www.w3.org/2000/svg">
<path d="M25.8438 14.5789C25.6229 14.5789 25.4049 14.5932 25.191 14.6204L23.3781 8.89474H25.8438C26.1021 8.89474 26.3125 9.1073 26.3125 9.36842C26.3125 9.62954 26.1021 9.84211 25.8438 9.84211H25.375C24.857 9.84211 24.4375 10.2661 24.4375 10.7895C24.4375 11.3129 24.857 11.7368 25.375 11.7368H25.8438C27.1363 11.7368 28.1875 10.6746 28.1875 9.36842C28.1875 8.06224 27.1363 7 25.8438 7H22.0938C21.7943 7 21.5131 7.14447 21.3367 7.38901C21.1604 7.63355 21.11 7.94796 21.2008 8.23632L21.7094 9.84211H13.6562C13.6182 9.84211 13.5813 9.84507 13.5437 9.84921L13.1658 8.89474H14.125C14.643 8.89474 15.0625 8.47079 15.0625 7.94737C15.0625 7.42395 14.643 7 14.125 7H10.375C9.85703 7 9.4375 7.42395 9.4375 7.94737C9.4375 8.47079 9.85703 8.89474 10.375 8.89474H11.1467L12.0689 11.2241L8.70449 15.2611C7.95273 14.827 7.08262 14.5789 6.15625 14.5789C3.31328 14.5789 1 16.9166 1 19.7895C1 22.6624 3.31328 25 6.15625 25C8.6793 25 10.7846 23.1591 11.227 20.7368H13.8174C14.2041 21.8393 15.2465 22.6316 16.4688 22.6316C18.0197 22.6316 19.2812 21.3568 19.2812 19.7895C19.2812 19.3513 19.1822 18.9357 19.0064 18.565L23.1467 14.3812L23.4057 15.1995C21.7891 16.0799 20.6875 17.8071 20.6875 19.7895C20.6875 22.6624 23.0008 25 25.8438 25C28.6867 25 31 22.6624 31 19.7895C31 16.9166 28.6867 14.5789 25.8438 14.5789ZM14.6143 17.6555C14.2568 17.9729 13.9797 18.3803 13.8174 18.8421H11.227C11.0652 17.9575 10.6826 17.1505 10.1377 16.4826L12.8576 13.2183L14.6143 17.6555ZM8.89785 17.9705C9.07129 18.237 9.2084 18.5301 9.30039 18.8421H8.17129L8.89785 17.9705ZM6.15625 23.1053C4.34687 23.1053 2.875 21.6179 2.875 19.7895C2.875 17.9611 4.34687 16.4737 6.15625 16.4737C6.6209 16.4737 7.06328 16.5726 7.46406 16.749L5.43906 19.179C5.2041 19.4609 5.15254 19.8546 5.30605 20.1891C5.45957 20.5237 5.79121 20.7368 6.15625 20.7368H9.30039C8.89609 22.1046 7.63984 23.1053 6.15625 23.1053ZM16.4688 20.7368C15.952 20.7368 15.5312 20.3117 15.5312 19.7895C15.5312 19.2672 15.952 18.8421 16.4688 18.8421C16.9855 18.8421 17.4062 19.2672 17.4062 19.7895C17.4062 20.3117 16.9855 20.7368 16.4688 20.7368ZM17.6805 17.2251C17.3131 17.0474 16.9023 16.9474 16.4688 16.9474C16.4307 16.9474 16.3926 16.9486 16.3545 16.9503L14.2908 11.7368H21.983L22.3592 12.4971L17.6805 17.2251ZM25.8438 23.1053C24.0344 23.1053 22.5625 21.6179 22.5625 19.7895C22.5625 18.6544 23.1297 17.6514 23.9928 17.0534L24.9508 20.0784C25.0779 20.4805 25.4465 20.7374 25.8438 20.7374C25.9387 20.7374 26.0348 20.7226 26.1297 20.6924C26.623 20.5332 26.8949 19.9997 26.7367 19.5011L25.7787 16.4755C25.8004 16.4755 25.8221 16.4737 25.8438 16.4737C27.6531 16.4737 29.125 17.9611 29.125 19.7895C29.125 21.6179 27.6531 23.1053 25.8438 23.1053Z" fill="#EDEEF6"/>
</svg>
