<svg width="32" height="32" viewBox="0 0 32 32" fill="none" xmlns="http://www.w3.org/2000/svg">
<path d="M22.9072 13L22.908 12.9992C23.7578 12.149 23.927 10.8873 23.4387 9.86109L27 6.30235L25.6977 5L22.1359 8.55989C21.1099 8.07225 19.85 8.24323 19.0011 9.09231L19 9.09312L22.9072 13Z" fill="#EDEEF6"/>
<path d="M18.0253 10L13.8237 14.2022L8.74829 14.2014C7.79021 14.2022 6.83013 14.5702 6.09812 15.3002C4.63396 16.7643 4.63396 19.137 6.09812 20.6014L8.08575 22.5891L15.1003 15.5746L16.4262 16.8997L9.4107 23.915L11.3983 25.9022C12.8619 27.3654 15.2347 27.3665 16.6999 25.9022C17.4328 25.1696 17.798 24.2102 17.798 23.2512V18.1771L22 13.9749L18.0253 10Z" fill="#EDEEF6"/>
</svg>
