<svg width="32" height="32" viewBox="0 0 32 32" fill="none" xmlns="http://www.w3.org/2000/svg">
<path d="M26.9915 19.8866L26.1911 14.1815C25.6967 10.6573 22.6873 8 19.1912 8H12.809C9.31296 8 6.30341 10.6573 5.80887 14.1815L5.00871 19.8866C4.99669 19.9704 5.00061 20.141 5.00061 20.2336C5.00061 22.3107 6.65969 24 8.69959 24C10.1102 24 11.3781 23.2024 12.0084 21.9179L13.3429 19.2001H18.6568L19.9914 21.9179C20.6219 23.2024 21.8899 24 23.3004 24C25.3403 24 26.9994 22.3107 26.9994 20.2336C26.9994 20.141 27.0033 19.9704 26.9913 19.8866H26.9915ZM20.7142 10.4C21.2927 10.4 21.7617 10.8776 21.7617 11.4667C21.7617 12.0557 21.2927 12.5333 20.7142 12.5333C20.1357 12.5333 19.6666 12.0557 19.6666 11.4667C19.6666 10.8776 20.1357 10.4 20.7142 10.4ZM13.6431 14.4H12.0718V16H10.5005V14.4H8.92912V12.8H10.5005V11.2H12.0718V12.8H13.6431V14.4ZM18.6191 14.6666C18.0405 14.6666 17.5715 14.189 17.5715 13.6C17.5715 13.0109 18.0405 12.5333 18.6191 12.5333C19.1976 12.5333 19.6666 13.0109 19.6666 13.6C19.6666 14.189 19.1976 14.6666 18.6191 14.6666ZM20.7142 16.8C20.1357 16.8 19.6666 16.3224 19.6666 15.7333C19.6666 15.1442 20.1357 14.6666 20.7142 14.6666C21.2927 14.6666 21.7617 15.1442 21.7617 15.7333C21.7617 16.3224 21.2927 16.8 20.7142 16.8ZM22.8093 14.6666C22.2308 14.6666 21.7617 14.189 21.7617 13.6C21.7617 13.0109 22.2308 12.5333 22.8093 12.5333C23.3878 12.5333 23.8569 13.0109 23.8569 13.6C23.8569 14.189 23.3878 14.6666 22.8093 14.6666Z" fill="#EDEEF6"/>
</svg>
