<svg width="32" height="32" viewBox="0 0 32 32" fill="none" xmlns="http://www.w3.org/2000/svg">
<path d="M20 5.74985C20.2 5.44985 20.65 5.34985 20.95 5.54985C21.25 5.74985 21.3 6.09985 21.15 6.39985L14.6001 17.5999L13.3001 17.2999L20 5.74985ZM10.8501 6.39985C10.7001 6.09985 10.7501 5.74985 11.0501 5.54985C11.3501 5.34985 11.8001 5.44985 12.0001 5.74985L15.4001 11.5499L14.6501 12.8499L10.8501 6.39985ZM10.6001 24.3999C10.2501 24.9499 9.60015 25.2499 8.95015 25.0999L3.85014 23.8999C3.70014 23.8499 3.55014 23.7499 3.50014 23.5499L2.85014 20.9999C2.80014 20.7999 2.90014 20.6499 2.95014 20.5999C3.05014 20.4999 3.15014 20.3999 3.30014 20.3999H3.45014L9.90028 22.2499C10.1503 22.2999 10.4003 22.1999 10.5003 21.9999L12.7003 18.1999L14.0003 18.4999L10.6001 24.3999ZM17.4001 14.9497L18.7501 17.2997L17.4501 17.5997L16.6501 16.2497L17.4001 14.9497ZM29.15 20.9999L28.5 23.5999C28.45 23.7499 28.35 23.8999 28.15 23.9499L23.05 25.1499C22.4 25.2999 21.75 24.9999 21.4 24.4499L18 18.5499L19.3 18.2499L21.5 22.0499C21.6 22.2499 21.85 22.3499 22.1 22.2999L28.5501 20.4499C28.8001 20.3999 28.9501 20.4999 29.0001 20.5499C29.1001 20.5999 29.2001 20.7499 29.1501 20.9999H29.15Z" fill="#EDEEF6"/>
<path d="M18.5 23.3H13.5C13.2 23.3 12.95 23.55 12.95 23.85V26C12.95 26.3 13.2 26.55 13.5 26.55H18.5C18.8 26.55 19.05 26.3 19.05 26V23.85C19 23.55 18.75 23.3 18.5 23.3Z" fill="#EDEEF6"/>
</svg>
