<svg width="32" height="32" viewBox="0 0 32 32" fill="none" xmlns="http://www.w3.org/2000/svg">
<path d="M20.6778 11.5479C20.7727 11.4645 20.8267 11.3439 20.8256 11.2176V4.91441C20.8247 4.75494 20.7367 4.60872 20.5961 4.53344C20.4555 4.45816 20.285 4.4659 20.1518 4.55361C16.9654 6.54019 13.7791 1.82804 10.5884 3.28429C10.7421 3.50183 10.8256 3.76124 10.8275 4.02763V10.5786C14.1094 9.38313 17.3958 14.4039 20.6778 11.5479Z" fill="#EDEEF6"/>
<path d="M26.355 23.9586C25.2596 23.4847 22.1862 22.6545 22.4123 21.1721C22.5731 20.1158 24.5858 20.4679 24.6206 19.4333C24.6423 18.7335 23.6468 18.5987 23.0556 18.5639C19.0868 18.1249 14.7398 18.0032 10.8275 18.8161V21.985C12.4577 22.8544 11.6665 24.7367 9.52343 24.7367C7.38036 24.7367 6.5979 22.8327 8.21933 21.985V19.5203C6.26753 20.1723 3.10726 21.5199 3.00294 23.5847C2.88557 25.9799 6.31535 26.9667 8.38452 27.3796L8.52362 27.4101C11.756 28.1083 15.0683 28.3642 18.3696 28.1708C20.9539 28.0223 23.5207 27.6529 26.042 27.0667C27.0244 26.7841 28.7198 26.2668 27.8938 25.041C27.4884 24.5474 26.9565 24.1733 26.355 23.9586ZM20.3909 26.0408C19.4306 26.0408 18.6521 25.2623 18.6521 24.302C18.6521 23.3417 19.4306 22.5632 20.3909 22.5632C21.3512 22.5632 22.1297 23.3417 22.1297 24.302C22.1297 25.2623 21.3512 26.0408 20.3909 26.0408Z" fill="#EDEEF6"/>
<path d="M9.08887 4.02765V22.9979C9.08887 23.238 9.28349 23.4326 9.52357 23.4326C9.76364 23.4326 9.95827 23.238 9.95827 22.9979C9.95827 2.61488 10.0148 3.92767 9.85394 3.74509C9.73565 3.60677 9.5437 3.55678 9.37297 3.61984C9.20223 3.68289 9.08885 3.84564 9.08887 4.02765Z" fill="#EDEEF6"/>
</svg>
