<svg width="32" height="32" viewBox="0 0 32 32" fill="none" xmlns="http://www.w3.org/2000/svg">
<path d="M16.8226 10.8863C18.1696 10.8863 19.2634 9.79251 19.2634 8.44555C19.2634 7.09859 18.1696 6 16.8226 6C15.4756 6 14.3818 7.09859 14.3818 8.44555C14.3818 9.79251 15.4756 10.8863 16.8226 10.8863Z" fill="#EDEEF6"/>
<path d="M8.21515 11.6936C7.556 12.3241 7.26464 13.2364 7.44136 14.1296C7.61332 15.0132 8.21515 15.744 9.05103 16.0784L12.2656 17.3728L11.3676 21.1367C11.2482 21.6239 11.5205 22.1206 11.9933 22.283C12.0984 22.3212 12.2035 22.3355 12.3134 22.3355C12.6955 22.3355 13.0585 22.1063 13.2113 21.7337L14.9261 17.583C15.3273 16.6038 14.9261 15.4909 13.9851 14.9941L11.8787 13.886C12.2608 13.4609 12.7337 13.1218 13.3164 12.859L13.6269 14.1965C13.7797 14.8508 14.372 15.2855 15.0407 15.2329L18.1454 14.9941C18.6469 14.9511 19.0386 14.5308 19.0386 14.0293C19.0386 13.523 18.6613 13.1074 18.155 13.0644L15.6378 12.8495C15.6378 12.8495 15.633 12.8495 15.633 12.8447L15.5279 11.5837C14.4484 11.1395 13.6412 10.146 13.4693 8.9519C11.6303 9.19073 9.86303 10.1126 8.21515 11.6936Z" fill="#EDEEF6"/>
<path d="M5.07738 15.9349C4.9914 16.0639 4.97707 16.2311 5.03439 16.3743C6.35747 19.6558 8.78391 25.1439 10.2407 25.1439H10.2551C10.2885 25.1439 10.3219 25.1391 10.3554 25.1296L14.1813 24.1934C16.923 23.5199 19.2253 21.7908 20.5101 19.4504C21.3651 17.8789 22.5497 17.0383 22.9795 16.7708L25.8311 17.7595C26.409 17.9649 27.1016 17.793 27.5172 17.3344C27.799 17.0239 27.9471 16.6227 27.928 16.1976C27.9041 15.7725 27.7178 15.3808 27.4025 15.099L24.3599 12.3621L24.5176 10.6665C24.5367 10.4897 24.4507 10.3178 24.2978 10.2223C24.1498 10.122 23.9587 10.122 23.8011 10.2079C22.8745 10.7477 22.4398 11.6648 22.2631 12.152C21.4176 12.2905 20.5579 12.5723 19.6933 12.9831C19.8844 13.284 19.9943 13.6422 19.9943 14.0291C19.9943 15.0178 19.2205 15.8585 18.227 15.9445L15.9582 16.1212C16.0967 16.7087 16.0585 17.344 15.8101 17.9458L14.0953 22.0965C13.7992 22.8226 13.0971 23.2907 12.3137 23.2907C12.0844 23.2907 11.8695 23.2524 11.6689 23.1808C10.7375 22.8608 10.2025 21.8816 10.4413 20.9072L11.1435 17.9506L8.69316 16.9666C8.02923 16.6991 7.47038 16.2502 7.07872 15.677L5.46427 15.72C5.31143 15.7247 5.16335 15.8012 5.07738 15.9349Z" fill="#EDEEF6"/>
</svg>
