<svg width="32" height="32" viewBox="0 0 32 32" fill="none" xmlns="http://www.w3.org/2000/svg">
<path d="M18.8721 26.3854V27.0518H13.2681V26.3854C13.2681 25.3846 14.0819 24.5713 15.0821 24.5713H17.0581C18.0583 24.5713 18.8721 25.3846 18.8721 26.3854Z" fill="#EDEEF6"/>
<path d="M22.1664 21.085V24.1214C22.1664 25.576 21.1009 26.7862 19.7093 27.0128V26.3854C19.7093 24.923 18.5199 23.7341 17.058 23.7341H15.0821C13.6202 23.7341 12.4307 24.923 12.4307 26.3854V27.0128C11.0392 26.7862 9.97363 25.576 9.97363 24.1214V21.2385C10.1031 21.2558 10.2354 21.2658 10.3699 21.2664H21.0696C21.4514 21.2664 21.8192 21.2027 22.1664 21.085Z" fill="#EDEEF6"/>
<path d="M24.0001 11.8902V17.0857C24.0001 18.9294 22.6856 20.4292 21.0697 20.4292H10.3717C9.14095 20.4242 8.14014 19.4184 8.14014 18.1876V14.1832C8.14014 13.183 8.95396 12.3692 9.95421 12.3692H10.7329V15.0713C10.7329 15.3024 10.9204 15.4899 11.1515 15.4899C11.3826 15.4899 11.5701 15.3024 11.5701 15.0713V11.9293C15.522 10.276 20.0371 10.2609 24.0001 11.8902Z" fill="#EDEEF6"/>
<path d="M24.0004 8.25477V10.9876C23.1832 10.6706 22.3493 10.4183 21.5015 10.2307V4.51611C22.9672 5.12508 24.0004 6.57131 24.0004 8.25477Z" fill="#EDEEF6"/>
<path d="M20.6636 4.27164V10.0683C20.0189 9.96 19.3669 9.88967 18.71 9.85618V4.20801H19.953C20.1958 4.20801 20.433 4.23089 20.6636 4.27164Z" fill="#EDEEF6"/>
<path d="M17.8731 4.20801V9.83441C17.8251 9.83441 17.7771 9.8333 17.7291 9.8333C16.9315 9.83832 16.1417 9.89916 15.3613 10.0125V4.21694C15.4462 4.21192 15.531 4.20801 15.617 4.20801H17.8731Z" fill="#EDEEF6"/>
<path d="M14.5242 4.35925V10.1565C13.5189 10.3546 12.5326 10.6443 11.5703 11.0244V8.25476C11.5703 6.40217 12.8223 4.83761 14.5242 4.35925Z" fill="#EDEEF6"/>
</svg>
