<svg width="32" height="32" viewBox="0 0 32 32" fill="none" xmlns="http://www.w3.org/2000/svg">
<path d="M22.8098 7.8125C24.4027 8.67751 27.6802 12.1368 27.9303 13.9349C28.1805 15.733 24.5154 13.4683 22.0231 16.9445C20.8231 18.6184 20.667 21.0208 21.353 22.5146H10.9863C10.9863 22.5146 14.5367 20.8305 14.9119 19.2261C15.2872 17.6216 14.7071 14.3445 17.3356 13.8664C19.964 13.3882 24.1974 13.3201 24.334 12.6372C24.4705 11.9543 24.4706 10.6912 21.7737 9.25773C21.9789 8.40429 22.8096 7.81263 22.8096 7.81263L22.8098 7.8125Z" fill="#EDEEF6"/>
<path d="M13.1894 19.9915C13.6189 19.6228 13.918 19.2741 13.9804 19.0075C14.0534 18.6959 14.0861 18.2479 14.1207 17.7736C14.2394 16.1452 14.4377 13.42 17.1655 12.924C18.1389 12.747 19.2909 12.6273 20.4044 12.5121C20.6373 12.4878 20.8949 12.4613 21.1599 12.4324L20.3724 11.5435C19.8061 10.9044 18.958 10.5909 18.1119 10.7076L15.0372 11.1326C14.6366 11.188 14.2862 11.4299 14.0919 11.7845L13.308 13.2177L9.27996 12.1595L8.22172 10.5208L3.54492 10.9646L12.2159 16.0172L13.1894 19.9915Z" fill="#EDEEF6"/>
<path d="M8.41902 20.9714C7.96049 21.7487 7.11756 22.2729 6.15153 22.2729C4.69748 22.2729 3.51444 21.0899 3.51444 19.6358C3.51444 18.1817 4.69745 16.9987 6.15153 16.9987C6.79121 16.9987 7.37777 17.2282 7.83414 17.6089L9.94228 17.1254C9.12822 15.8962 7.73622 15.0841 6.15134 15.0841C3.6374 15.084 1.59961 17.1221 1.59961 19.6356C1.59961 22.1495 3.63732 24.1873 6.15134 24.1873C8.26145 24.1873 10.0287 22.7489 10.5431 20.8006L8.41902 20.9714Z" fill="#EDEEF6"/>
<path d="M26.5252 16.4139C26.4318 16.4139 26.3402 16.4213 26.2484 16.4279L27.0458 18.0721C28.0519 18.3085 28.8039 19.2116 28.8039 20.2888C28.8039 21.5454 27.7815 22.5678 26.5249 22.5678C25.2682 22.5678 24.2458 21.5454 24.2458 20.2888C24.2458 19.9448 24.3246 19.6193 24.4619 19.3265L23.6642 17.682C23.0363 18.3706 22.6504 19.2832 22.6504 20.2888C22.6504 22.4285 24.3851 24.1634 26.5251 24.1634C28.6652 24.1634 30.3997 22.4286 30.3997 20.2888C30.3997 18.1489 28.665 16.4138 26.5251 16.4138L26.5252 16.4139Z" fill="#EDEEF6"/>
<path d="M24.9519 15.9487C24.6572 16.0313 24.3605 16.151 24.0684 16.3209L26.0946 20.4974C26.1775 20.668 26.348 20.7672 26.5256 20.7672C26.5957 20.7672 26.6671 20.7515 26.7343 20.7192C26.972 20.6037 27.0713 20.3176 26.9561 20.0795L24.9519 15.9487Z" fill="#EDEEF6"/>
<path d="M11.6466 17.7168L5.79943 19.0579C5.48775 19.105 5.27015 19.392 5.30922 19.705C5.34662 20.0045 5.60746 20.2257 5.90922 20.2138L12.1359 19.7136L11.6466 17.7168Z" fill="#EDEEF6"/>
</svg>
