<svg width="32" height="32" viewBox="0 0 32 32" fill="none" xmlns="http://www.w3.org/2000/svg">
<path d="M17.2003 26.0999C19.8003 21.2999 20.5502 17.4498 20.7003 14.8999C21.6003 14.8499 22.4503 14.9499 23.1503 15.1499C23.0003 17.9499 22.4503 21.0998 20.0503 25.3499C19.1503 25.6999 18.2003 25.9499 17.2002 26.0999H17.2003ZM11.4505 25.0999C12.0005 24.7999 12.7005 24.3499 13.4505 23.6999C13.5505 23.6499 13.6005 23.5999 13.6505 23.4999C14.4005 22.7999 15.1005 21.8499 15.6505 20.6498C16.2005 19.4496 16.5005 17.9998 16.5005 16.2498C17.6005 15.5998 18.7005 15.1998 19.6503 14.9998C19.4503 17.5498 18.6503 21.3496 15.9503 26.1496C14.3503 26.1496 12.8503 25.7496 11.4503 25.0996L11.4505 25.0999ZM6.65045 11.95C9.50059 16.6002 12.4505 19.2002 14.6003 20.6002C14.2003 21.4002 13.7003 22.1002 13.1503 22.6002C10.8003 21.1002 8.35032 19.0503 5.90019 14.8503C6.00019 13.8503 6.25019 12.9003 6.65019 11.9503L6.65045 11.95ZM23.9006 14.35C23.8506 14.3 23.7506 14.3 23.6506 14.25C22.6506 13.95 21.5006 13.8 20.2005 13.95C18.9003 14.1 17.5005 14.5 16.0005 15.4C14.8505 14.75 14.0005 14.05 13.3505 13.3C15.6505 12.2 19.3505 11 24.8006 10.9C25.5506 12.25 26.0506 13.7502 26.1506 15.3502C25.6006 15.0502 24.8506 14.6502 23.9006 14.3502V14.35ZM24.1506 9.95005C18.7005 10.1 15.0007 11.35 12.7005 12.5C12.2005 11.75 11.8505 10.95 11.6505 10.25C14.1505 9.00005 17.1505 7.85005 22.0003 7.85005C22.8003 8.40005 23.5503 9.15005 24.1503 9.95005H24.1506ZM20.4506 6.85005C16.4506 7.10005 13.7007 8.10005 11.4506 9.20005C11.3006 8.15005 11.3506 7.30005 11.4506 6.90005C12.8006 6.20005 14.3506 5.80005 16.0005 5.80005C17.6005 5.85005 19.1005 6.20005 20.4506 6.85005ZM10.4005 7.55005C10.4005 8.15005 10.4005 9.00005 10.6005 10C10.6005 10.1 10.6005 10.15 10.6505 10.25C10.9005 11.25 11.3505 12.35 12.1005 13.3999C12.1005 13.3999 12.1005 13.4499 12.1505 13.4499V13.4999C12.1505 13.4999 12.1505 13.5499 12.2005 13.5499C12.9505 14.5499 14.0005 15.5499 15.5005 16.3499C15.5005 17.6499 15.3505 18.7499 15.0005 19.6998C12.9005 18.2998 10.0005 15.6496 7.20045 10.9499C8.00045 9.54992 9.10045 8.39992 10.4005 7.54992V7.55005ZM5.85059 16.6999C8.05059 20.0498 10.3007 21.8999 12.4005 23.2999C11.5505 23.9499 10.8005 24.2999 10.4005 24.4499C7.85045 22.7999 6.10045 19.9499 5.85059 16.7V16.6999ZM21.6506 24.4498C23.4506 20.8498 23.9506 17.9996 24.1006 15.4498C25.1006 15.8498 25.8006 16.3498 26.1006 16.5998C25.9506 19.8499 24.2506 22.6998 21.6505 24.4499L21.6506 24.4498Z" fill="#EDEEF6"/>
</svg>
