<svg width="32" height="32" viewBox="0 0 32 32" fill="none" xmlns="http://www.w3.org/2000/svg">
<path d="M24.1311 4.81354C24.8944 4.89257 25.4866 5.18196 26.057 5.75659C26.5132 6.20845 26.7632 6.64718 26.9126 7.24365C27.0178 7.66476 27.0267 8.29646 26.9346 8.73941C26.8556 9.11225 26.5485 9.7485 26.2854 10.0773C26.1494 10.2484 24.4297 11.6479 20.3543 14.9028C17.2001 17.4251 14.5768 19.5135 14.5283 19.5485C14.4493 19.6055 14.3616 19.5265 13.3089 18.4739C12.6859 17.8509 12.1727 17.3245 12.1727 17.3114C12.1727 17.2985 14.2693 14.6621 16.8313 11.4551C20.1126 7.34917 21.5605 5.5769 21.714 5.45837C22.3633 4.96695 23.2713 4.72558 24.1311 4.81343L24.1311 4.81354Z" fill="#EDEEF6"/>
<path d="M12.8954 19.1002L14 20.2051L12.5333 21.3824C11.1842 22.4646 10.9622 22.6638 9.75799 23.8729L8.45413 25.1814L8.44515 25.5392C8.4315 25.9966 8.28228 26.3271 7.96074 26.6169C7.63921 26.9065 7.30879 27.0198 6.87423 26.9972C6.38983 26.9701 6.17716 26.8524 5.64726 26.3271C5.0813 25.7656 5 25.6024 5 25.0139C5 24.638 5.01365 24.5565 5.12227 24.3574C5.1855 24.2307 5.33495 24.0403 5.45266 23.9317C5.75587 23.6511 6.01404 23.5469 6.44422 23.5331L6.80634 23.5241L8.16446 22.1612C9.44104 20.8889 9.59948 20.7123 10.6363 19.4038C11.2475 18.6293 11.7546 18 11.7681 18C11.7817 17.9954 12.2886 18.4936 12.8954 19.1002H12.8954Z" fill="#EDEEF6"/>
<path d="M24.1966 20.6941C24.5433 20.7511 24.9557 20.8915 25.2802 21.0715L25.5566 21.225L25.2058 21.5979C24.7979 22.0278 24.5478 22.4227 24.3898 22.8831C23.9773 24.1026 24.2757 25.3048 25.2451 26.3225L25.5521 26.6516L25.324 26.7832C24.3019 27.3579 23.0251 27.3447 22.0557 26.7437L21.9066 26.6514L22.2312 26.3135C22.7226 25.8046 22.9549 25.423 23.1437 24.8178C23.2928 24.3441 23.2928 23.5368 23.1437 23.0629C22.9552 22.462 22.6568 21.9751 22.1786 21.5101C22.0338 21.3653 21.9243 21.2337 21.9373 21.2118C21.9855 21.1373 22.5733 20.8697 22.8803 20.7818C23.2534 20.6809 23.85 20.6414 24.1966 20.6942L24.1966 20.6941Z" fill="#EDEEF6"/>
<path d="M26.3235 22.1672C26.9044 22.7931 27.1521 23.912 26.9044 24.7824C26.7473 25.327 26.3426 26 26.1713 26C26.0665 26 25.4475 25.3655 25.2855 25.0955C25.095 24.7739 25 24.418 25 24.0279C25 23.3805 25.2286 22.9004 25.8046 22.3474L26.1714 22L26.3235 22.1672Z" fill="#EDEEF6"/>
<path d="M21.1756 22.3303C21.7855 22.8976 22 23.3293 22 23.9979C22 24.6709 21.7428 25.1745 21.1091 25.7291L20.8041 26L20.6517 25.8137C20.4373 25.5511 20.2516 25.2083 20.118 24.8445C19.9607 24.3875 19.9607 23.6085 20.118 23.1513C20.2466 22.7874 20.4991 22.3429 20.6898 22.1397L20.8185 22L21.1756 22.3303Z" fill="#EDEEF6"/>
</svg>
