<svg width="32" height="32" viewBox="0 0 32 32" fill="none" xmlns="http://www.w3.org/2000/svg">
<path d="M5.79255 10.6336C6.1686 7.22958 8.91148 4.48558 12.3144 4.10904C14.0655 3.91353 15.7504 4.323 17.1779 5.25009C14.7693 5.73403 12.6675 7.24113 11.4704 9.42102C10.4294 11.3165 10.1684 13.468 10.6494 15.4685H6.91231C6.01836 14.0668 5.60034 12.3738 5.79231 10.6333L5.79255 10.6336ZM9.63015 18C8.88316 17.5945 8.23119 17.0725 7.68119 16.4685H10.9625C11.2761 17.2985 11.7205 18.089 12.3015 18.806C12.8575 19.4915 13.0075 20.3896 12.6935 21.15L11.4104 24.2518V20.8942C11.4105 19.7048 10.728 18.5953 9.63002 17.9998L9.63015 18ZM19.6483 20.8736C18.3797 21.0136 17.3038 21.7975 16.8392 22.9191L14.8047 27.8391L11.5637 26.4986L13.6176 21.5316C14.0721 20.4327 13.8651 19.1466 13.0781 18.1762C12.5426 17.5156 12.1396 16.7842 11.8617 16.0162L21.9993 20.2082C21.2692 20.5526 20.4772 20.7816 19.6483 20.8737L19.6483 20.8736ZM25.6912 16.3376C25.1412 17.6676 24.2257 18.779 23.0857 19.5757L11.5348 14.7992C11.2442 13.1622 11.5048 11.4378 12.3473 9.90318C13.6573 7.51713 16.2662 6.08265 18.8638 6.08265C19.5448 6.08265 20.2188 6.17764 20.8677 6.36566C22.9408 6.96566 24.5928 8.3567 25.5197 10.2833C26.4343 12.1838 26.4968 14.3902 25.6914 16.3377L25.6912 16.3376Z" fill="#EDEEF6"/>
<path d="M23.6976 25.4229C23.6976 26.8122 22.5714 27.9384 21.1821 27.9384C19.7928 27.9384 18.6666 26.8122 18.6666 25.4229C18.6666 24.0336 19.7928 22.9074 21.1821 22.9074C22.5714 22.9074 23.6976 24.0336 23.6976 25.4229Z" fill="#EDEEF6"/>
</svg>
