<svg width="32" height="32" viewBox="0 0 32 32" fill="none" xmlns="http://www.w3.org/2000/svg">
<path d="M10.0534 23.3972C11.1629 20.9009 12.2882 18.415 13.5584 15.9974C13.937 15.8956 14.3125 15.7039 14.6643 15.3978C16.8992 13.4591 19.2495 11.7383 21.9486 10.498C23.2687 9.89153 23.5748 8.0106 22.8969 6.85432C22.4469 6.08557 21.7501 5.68964 20.9902 5.60353C20.87 5.5694 20.7403 5.54734 20.6011 5.54051C17.3675 5.38928 14.1308 5.38456 10.8935 5.38403C8.87399 5.38403 8.87399 8.51575 10.8935 8.51575C12.1323 8.51575 13.372 8.51943 14.6102 8.52836C11.6371 11.0499 10.0702 14.283 10.5879 14.9341C9.42692 17.1889 8.38039 19.4978 7.34961 21.8166C6.53675 23.6451 9.23473 25.2398 10.0534 23.3972Z" fill="#EDEEF6"/>
<path d="M25.8296 8.16702C27.2564 8.16702 28.4131 7.01035 28.4131 5.58351C28.4131 4.15668 27.2564 3 25.8296 3C24.4028 3 23.2461 4.15668 23.2461 5.58351C23.2461 7.01035 24.4028 8.16702 25.8296 8.16702Z" fill="#EDEEF6"/>
<path d="M23.6184 15.3336C23.9041 15.8813 23.9571 16.3949 23.7801 16.9058C23.3328 18.197 21.5826 18.9978 21.5406 19.0183L4 28.1672L4.43426 29L21.9502 19.8642C21.9659 19.8569 22.0447 19.8212 22.167 19.7571C22.7257 19.4662 24.1892 18.5919 24.6676 17.2177C24.9312 16.4595 24.8582 15.6792 24.4523 14.8999L23.6184 15.3336Z" fill="#EDEEF6"/>
</svg>
