<svg width="32" height="32" viewBox="0 0 32 32" fill="none" xmlns="http://www.w3.org/2000/svg">
<path d="M27.0538 24.122L20.1689 11.9056C19.5334 10.8464 17.9799 10.8464 17.309 11.9056L10.4592 24.122C9.78837 25.2518 10.5652 26.664 11.8716 26.664H25.6061C26.9478 26.664 27.7245 25.2165 27.0537 24.122H27.0538ZM18.7565 14.4831C19.3921 14.4831 19.9217 15.0126 19.9217 15.6482C19.9217 16.2837 19.3921 16.8133 18.7565 16.8133C18.121 16.8133 17.5914 16.2837 17.5914 15.6482C17.5914 15.0127 18.121 14.4831 18.7565 14.4831ZM14.9434 24.934C14.3079 24.934 13.7783 24.4044 13.7783 23.7689C13.7783 23.1333 14.3079 22.6038 14.9434 22.6038C15.5789 22.6038 16.1086 23.1333 16.1086 23.7689C16.1086 24.4043 15.579 24.934 14.9434 24.934ZM15.6496 19.7085C15.6496 19.073 16.1791 18.5434 16.8147 18.5434C17.4502 18.5434 17.9798 19.073 17.9798 19.7085C17.9798 20.344 17.4502 20.8736 16.8147 20.8736C16.1792 20.8736 15.6496 20.3793 15.6496 19.7085ZM18.7566 24.934C18.1211 24.934 17.5915 24.4044 17.5915 23.7689C17.5915 23.1333 18.121 22.6038 18.7566 22.6038C19.3921 22.6038 19.9217 23.1333 19.9217 23.7689C19.9217 24.4043 19.3921 24.934 18.7566 24.934ZM19.498 19.7085C19.498 19.073 20.0276 18.5434 20.6632 18.5434C21.2987 18.5434 21.8283 19.073 21.8283 19.7085C21.8283 20.344 21.2987 20.8736 20.6632 20.8736C20.0276 20.8736 19.498 20.3793 19.498 19.7085ZM22.6051 24.934C21.9695 24.934 21.4399 24.4044 21.4399 23.7689C21.4399 23.1333 21.9695 22.6038 22.6051 22.6038C23.2406 22.6038 23.7702 23.1333 23.7702 23.7689C23.7702 24.4043 23.2406 24.934 22.6051 24.934Z" fill="white"/>
<path d="M8.30656 19.5324L4.8465 24.7579C4.63463 25.0757 4.7053 25.5347 5.02303 25.7465L6.9296 26.9116C7.2474 27.1235 7.67107 26.9822 7.88293 26.6291L10.99 21.1917L8.30656 19.5324Z" fill="white"/>
<path d="M12.0137 19.3205L9.50701 17.767L8.69495 18.9321L11.3076 20.5562L12.0137 19.3205Z" fill="white"/>
<path d="M19.3224 6.53919C19.6049 6.0096 19.4989 5.40933 19.0399 5.12686C18.6163 4.87973 17.9807 4.98566 17.6629 5.51526L9.89539 17.1667L12.4023 18.7202L19.3224 6.53919Z" fill="white"/>
</svg>
