<svg width="32" height="32" viewBox="0 0 32 32" fill="none" xmlns="http://www.w3.org/2000/svg">
<path d="M15.1432 6.42372C15.5319 5.7779 16.4681 5.7779 16.8568 6.42372L19.7315 11.2004C19.8711 11.4324 20.0988 11.5979 20.3626 11.659L25.7939 12.9169C26.5282 13.0869 26.8175 13.9774 26.3234 14.5466L22.6688 18.7567C22.4913 18.9612 22.4043 19.2289 22.4277 19.4987L22.9098 25.0528C22.9749 25.8037 22.2174 26.354 21.5234 26.06L16.3901 23.8853C16.1408 23.7796 15.8592 23.7796 15.6099 23.8853L10.4766 26.06C9.78256 26.354 9.02508 25.8037 9.09025 25.0528L9.57227 19.4987C9.59568 19.2289 9.50869 18.9612 9.33118 18.7567L5.67659 14.5466C5.18248 13.9774 5.47182 13.0869 6.20613 12.9169L11.6374 11.659C11.9012 11.5979 12.1289 11.4324 12.2685 11.2004L15.1432 6.42372Z" fill="#EDEEF6"/>
</svg>
