<svg width="32" height="32" viewBox="0 0 32 32" fill="none" xmlns="http://www.w3.org/2000/svg">
<path d="M10.8408 24.5731C10.6854 24.4789 10.5313 24.3794 10.3799 24.2754C9.98619 24.0078 9.60747 23.7089 9.25333 23.3864C9.08108 23.2283 8.92357 23.0743 8.77216 22.9164C8.67562 22.8147 8.59441 22.7264 8.51733 22.6389L8.49058 22.6094C8.46659 22.5833 8.44201 22.5564 8.41979 22.5296C8.40682 22.4987 8.39403 22.4675 8.38125 22.4364C8.36415 22.3945 8.34704 22.3524 8.32934 22.3111L8.25344 22.3267C8.13566 22.1814 8.01571 22.0256 7.88986 21.8547C6.63159 20.1249 5.96087 17.9789 6.00177 15.8135C6.04424 13.6079 6.83648 11.4399 8.2326 9.70905C8.95307 8.8159 9.85228 8.03483 10.8498 7.43311C10.8484 7.44392 10.8471 7.45454 10.8457 7.46535C10.8396 7.51255 10.8339 7.56033 10.8284 7.60851C10.8237 7.65 10.8187 7.69169 10.8134 7.73338L10.7926 7.89994C10.7509 8.2476 10.7086 8.59428 10.6666 8.94097C10.6247 9.28568 10.5828 9.6304 10.5413 9.97492C10.5413 9.97492 10.5124 10.2132 10.5083 10.2486C10.4866 10.2699 10.4652 10.2913 10.444 10.3126C9.89417 10.8484 9.42539 11.4602 9.05099 12.1311C8.39639 13.3078 8.04914 14.6389 8.04678 15.9806V16.004C8.04678 16.1169 8.04914 16.2313 8.05385 16.344C8.11599 17.7695 8.5541 19.1456 9.32058 20.3237C9.4948 20.5907 9.68986 20.8526 9.91658 21.1244L9.92012 21.1295C9.9685 21.2001 10.0275 21.2622 10.0794 21.3169C10.0977 21.3362 10.1154 21.3549 10.1321 21.3733L10.1335 21.3749C10.2351 21.4854 10.3445 21.5979 10.4676 21.7187C10.4912 21.9033 10.5153 22.0878 10.5395 22.2724C10.5667 22.4795 10.5936 22.6865 10.6201 22.8938C10.6467 23.0954 10.6726 23.2953 10.6986 23.4955C10.7246 23.6953 10.7503 23.8949 10.7769 24.0953L10.7928 24.2154L10.7938 24.2158C10.8003 24.2638 10.8068 24.3124 10.8132 24.3625C10.8211 24.4215 10.8288 24.4809 10.837 24.5411L10.8414 24.5741L10.8408 24.5731Z" fill="white"/>
<path d="M15.9949 26C14.9345 26 13.8959 25.8364 12.908 25.5139C12.6126 25.418 12.3092 25.3023 12.0042 25.1692C12.0009 25.1431 11.9975 25.1169 11.994 25.0907C11.9848 25.0184 11.9753 24.9464 11.9655 24.8742C11.9564 24.8064 11.9478 24.7384 11.9393 24.6701C11.9307 24.6011 11.922 24.5321 11.9126 24.4627C11.9069 24.4212 11.9018 24.3801 11.8967 24.339C11.8914 24.2963 11.8861 24.2536 11.8803 24.2114C11.8284 23.8067 11.7757 23.4022 11.7232 22.9979C11.6798 22.6636 11.6363 22.3295 11.5933 21.996H19.0937C19.3012 21.996 19.5132 21.9977 19.7182 21.9993C19.9241 22.0011 20.1371 22.0029 20.3471 22.0029C20.3662 22.0032 20.3854 22.0036 20.4047 22.004L20.2952 22.8478C20.2606 23.1178 20.2254 23.3878 20.1904 23.658C20.1552 23.9282 20.12 24.1984 20.0856 24.4682C20.0765 24.5352 20.0677 24.6039 20.059 24.6723C20.0504 24.7397 20.0419 24.8072 20.0327 24.8746L20.0323 24.878C20.0277 24.9161 20.0226 24.9545 20.0177 24.9926C20.0124 25.0327 20.0071 25.0728 20.0024 25.113C20 25.1318 19.9977 25.1507 19.9953 25.1696C19.6052 25.3405 19.2074 25.4846 18.8112 25.5991C17.9021 25.8649 16.9547 25.9996 15.9949 25.9996V26Z" fill="white"/>
<path d="M21.1673 24.5319C21.1787 24.443 21.1901 24.3543 21.2015 24.2678L21.2224 24.1007C21.2672 23.7522 21.3128 23.4024 21.3582 23.0526C21.4037 22.7029 21.4493 22.3535 21.4941 22.0045C21.5053 21.9118 21.5175 21.8218 21.5305 21.7276C21.6917 21.5748 21.8376 21.412 21.9495 21.2838C22.3096 20.8757 22.6265 20.438 22.8908 19.9836C23.4318 19.0485 23.7721 18.0128 23.9023 16.9049C23.9344 16.6247 23.9519 16.3333 23.9544 16.0379V16.0064C23.9544 15.7093 23.9361 15.4039 23.9002 15.0985C23.8752 14.8913 23.8469 14.7017 23.8132 14.5182C23.8107 14.5027 23.8083 14.4858 23.8062 14.4681C23.7985 14.4101 23.7893 14.3393 23.7637 14.2732C23.7631 14.2699 23.7625 14.2663 23.7617 14.2626C23.7517 14.2119 23.7393 14.1629 23.7275 14.1153C23.5908 13.5525 23.3865 12.9945 23.1207 12.4578C22.9762 12.1686 22.8163 11.8911 22.6454 11.6325C22.5544 11.497 22.4561 11.3588 22.344 11.2085L22.3406 11.2042C22.3239 11.183 22.307 11.1612 22.2903 11.1393C22.2875 11.1358 22.285 11.1324 22.2822 11.1289C22.2649 11.0929 22.2402 11.0666 22.2262 11.0516C22.2175 11.0424 22.1995 11.0231 22.1941 11.0164L22.1924 11.0141C22.145 10.9549 22.0976 10.8978 22.0516 10.8428L22.0502 10.8412C21.8461 10.6015 21.6679 10.4119 21.4945 10.2505C21.4707 10.0552 21.4471 9.85996 21.4237 9.6645C21.4005 9.471 21.3773 9.27711 21.3535 9.08283C21.3293 8.88559 21.3057 8.68915 21.2821 8.4927C21.2586 8.29625 21.235 8.09981 21.2108 7.90277C21.2015 7.82982 21.1929 7.75784 21.1844 7.68587C21.1758 7.61272 21.1669 7.53957 21.1577 7.46662C21.1561 7.45501 21.1547 7.44361 21.1534 7.43201C21.8378 7.84417 22.4743 8.34148 23.0497 8.9143C23.7165 9.57798 24.2854 10.3272 24.7408 11.1407C24.8532 11.346 24.9502 11.5356 25.0363 11.7184C25.4437 12.5795 25.7261 13.4947 25.8761 14.439C26.0268 15.3886 26.0401 16.3476 25.9157 17.2891L25.9096 17.3358C25.6445 19.2809 24.8234 21.0926 23.5334 22.5785C22.8537 23.3605 22.0575 24.0281 21.163 24.5669C21.1644 24.5563 21.1675 24.5319 21.1675 24.5319H21.1673Z" fill="white"/>
<path d="M12.1974 9.96767C12.08 9.96767 11.9591 9.96531 11.8423 9.96295C11.7721 9.96158 11.7005 9.9602 11.6285 9.95922C11.6407 9.85735 11.6531 9.75549 11.6657 9.65363C11.6871 9.47823 11.7084 9.30282 11.7292 9.12741C11.7615 8.85939 11.8907 7.7924 11.9227 7.52635C11.9227 7.52635 11.9943 6.92442 11.9988 6.88509C12.0012 6.86543 12.0035 6.84576 12.0059 6.8259C12.5057 6.60704 13.0298 6.42849 13.5656 6.29457C14.3517 6.09911 15.1644 6 15.9813 6C17.3522 6 18.7361 6.28553 19.9911 6.82669L20.0261 7.11615L20.0744 7.52359C20.079 7.56449 20.0843 7.60697 20.0896 7.64925C20.0947 7.68976 20.0998 7.73046 20.1043 7.77097L20.1047 7.77412C20.1912 8.49304 20.2807 9.23616 20.371 9.9659C20.31 9.9661 20.2492 9.9663 20.1883 9.96669C20.0532 9.96728 19.9181 9.96787 19.7836 9.96787H12.1974V9.96767Z" fill="white"/>
<path d="M10.416 15.4567C10.2206 15.4567 10.021 15.4552 9.82787 15.4538C9.63399 15.4524 9.43342 15.4508 9.236 15.4508C9.2067 15.4508 9.17799 15.4508 9.14987 15.4508C9.15223 15.4182 9.15498 15.3858 9.15774 15.3539C9.16659 15.2646 9.17583 15.1726 9.18704 15.0831L9.18802 15.0753C9.1892 15.0672 9.19058 15.0564 9.19077 15.0436L9.20926 14.9207C9.26648 14.5642 9.35398 14.2047 9.46921 13.8525C9.58345 13.5011 9.70025 13.2203 9.87231 12.8831C10.2318 12.1836 10.6644 11.6006 11.2301 11.0547H19.8478C19.9497 11.0555 20.0559 11.0574 20.1585 11.0596C20.2879 11.0622 20.4218 11.0649 20.5543 11.0649C20.632 11.0649 20.7036 11.0639 20.7712 11.0622C20.864 11.1526 20.9482 11.2382 21.0271 11.3221C21.0945 11.3937 21.1649 11.4722 21.2428 11.5626C21.2711 11.5953 21.2992 11.6299 21.3291 11.6666C21.3291 11.6666 21.3332 11.6714 21.3334 11.6718V11.6863L21.3788 11.7317C21.3826 11.7366 21.3869 11.7422 21.391 11.7477C21.3944 11.7518 21.3975 11.7561 21.4005 11.7599L21.403 11.7632C21.6264 12.0477 21.8633 12.4107 22.0533 12.7592C22.2434 13.1094 22.3689 13.3979 22.5004 13.7878C22.5506 13.9381 22.5982 14.0962 22.6418 14.2568C22.6485 14.2832 22.6548 14.3111 22.6615 14.3406C22.6713 14.3844 22.6815 14.4299 22.6947 14.4759C22.6977 14.504 22.7034 14.525 22.7097 14.5433V14.5439C22.7148 14.5711 22.7203 14.5974 22.7258 14.624C22.7307 14.647 22.7354 14.6702 22.7397 14.6938C22.7663 14.8334 22.7879 14.9638 22.8044 15.0829C22.805 15.0882 22.8056 15.093 22.8062 15.0967V15.0991C22.8078 15.1156 22.8098 15.1321 22.8119 15.1486C22.8133 15.1598 22.8147 15.1708 22.8156 15.182L22.8306 15.3285L22.832 15.3358C22.839 15.3759 22.8444 15.4164 22.8487 15.4575H10.416V15.4567Z" fill="white"/>
<path d="M12.2181 20.9068C12.0869 20.9068 11.9515 20.9044 11.8207 20.9019C11.6874 20.8995 11.5493 20.8969 11.4131 20.8969C11.3328 20.8969 11.2591 20.8977 11.1893 20.8995C11.0422 20.7548 10.8977 20.6002 10.7492 20.4289C10.7353 20.4116 10.7209 20.3943 10.7066 20.3772C10.693 20.3609 10.6794 20.3446 10.6664 20.3285L10.6643 20.3259C10.6006 20.2488 10.5754 20.2154 10.5203 20.142C10.4303 20.0227 10.3367 19.8884 10.2256 19.7189C10.0402 19.4318 9.87262 19.1248 9.72869 18.8076C9.6111 18.5506 9.50039 18.2511 9.40856 17.9412C9.3126 17.6108 9.23926 17.2758 9.19089 16.9458V16.9391L9.18754 16.9163C9.18636 16.908 9.18479 16.898 9.18381 16.8903V16.8837L9.18184 16.8699C9.17968 16.8553 9.1783 16.8406 9.17673 16.8256C9.17496 16.8091 9.17319 16.7924 9.17103 16.7751C9.16218 16.6937 9.1551 16.616 9.1492 16.5389H21.5852C21.762 16.5397 21.9429 16.5419 22.1179 16.5439C22.3468 16.5464 22.5835 16.5492 22.8175 16.5492C22.8289 16.5492 22.8401 16.5492 22.8516 16.5492C22.8486 16.5873 22.8453 16.6241 22.8413 16.6607L22.8409 16.6656C22.8366 16.7214 22.8301 16.7761 22.8234 16.8343C22.8205 16.8591 22.8177 16.8839 22.815 16.9086C22.812 16.9242 22.8089 16.9464 22.8034 16.9853C22.8016 16.9979 22.8 17.0085 22.7992 17.0132L22.7987 17.0176C22.7953 17.0402 22.7916 17.063 22.7878 17.0856C22.7837 17.1104 22.7796 17.1352 22.776 17.1599C22.7127 17.5277 22.6156 17.9025 22.4872 18.2739C22.3674 18.6198 22.243 18.9012 22.0575 19.2449C21.8932 19.5505 21.703 19.8488 21.4916 20.1326H21.3933V20.2626C21.3624 20.3015 21.3316 20.3385 21.2991 20.3776C21.2346 20.4531 21.1682 20.5312 21.0991 20.6069C20.9953 20.719 20.8999 20.8179 20.8097 20.9068H12.2181Z" fill="white"/>
</svg>
