<svg width="75" height="71" viewBox="0 0 75 71" fill="none" xmlns="http://www.w3.org/2000/svg">
<g clip-path="url(#clip0_4_1694)">
<path d="M8.06978 31.3052C3.7808 31.3052 0.288574 34.587 0.288574 38.6176V62.0177C0.288574 66.0483 3.7808 69.3301 8.06978 69.3301H17.4073C19.1597 69.3301 20.7718 68.7744 22.076 67.85V31.3052H8.06978Z" fill="#DFB504"/>
<path d="M74.9884 42.2739C74.9884 40.516 74.2477 38.8779 72.9622 37.6699C74.4158 36.1753 75.1565 34.1715 74.9541 32.0861C74.59 28.3684 71.0261 25.4551 66.8368 25.4551H47.6109C48.5633 22.7377 50.0884 17.7565 50.0884 13.7551C50.0884 7.4108 44.3521 2.05518 40.7509 2.05518C37.517 2.05518 35.2075 3.7663 35.108 3.8365C34.7407 4.11442 34.526 4.53562 34.526 4.98013V14.8988L25.562 33.1479L25.1885 33.3263V64.6764C27.722 65.7996 30.9278 66.4051 32.9697 66.4051H61.5394C64.9289 66.4051 67.8951 64.2581 68.5922 61.2952C68.9501 59.7712 68.7416 58.2356 68.0289 56.9018C70.329 55.8137 71.876 53.5877 71.876 51.0489C71.876 50.0134 71.6239 49.0218 71.1446 48.1239C73.4447 47.0358 74.9884 44.8098 74.9884 42.2739Z" fill="#DFB504"/>
</g>
<defs>
<clipPath id="clip0_4_1694">
<rect width="74.7" height="70.2" fill="white" transform="translate(0.288086 0.592773)"/>
</clipPath>
</defs>
</svg>
