<svg width="77" height="71" viewBox="0 0 77 71" fill="none" xmlns="http://www.w3.org/2000/svg">
<g clip-path="url(#clip0_4_1683)">
<path d="M20.7111 19.9812C20.7111 15.6564 24.6319 12.1376 29.4513 12.1376C34.2702 12.1376 38.1915 15.6564 38.1915 19.9812V26.3027C40.6192 25.6364 42.391 23.6071 42.391 21.2125V5.91409C42.391 2.97962 39.7306 0.592529 36.4609 0.592529H22.4418C19.1721 0.592529 16.5117 2.97962 16.5117 5.91409V21.2125C16.5117 23.6071 18.2829 25.6364 20.7111 26.3027V19.9812Z" fill="#DFB504"/>
<path d="M65.519 0.592529H51.4993C48.2296 0.592529 45.5698 2.97962 45.5698 5.91409V21.2125C45.5698 24.147 48.2296 26.534 51.4993 26.534H65.519C68.7887 26.534 71.4491 24.147 71.4491 21.2125V5.91409C71.4491 2.97962 68.7887 0.592529 65.519 0.592529Z" fill="#DFB504"/>
<path d="M54.6593 33.6557C52.3385 33.6557 50.4581 35.3439 50.4581 37.4262V35.5056C50.4581 33.4233 48.5771 31.7351 46.2562 31.7351C43.936 31.7351 42.055 33.4227 42.055 35.5056V33.8903C42.055 31.9097 40.3537 30.2874 38.1916 30.1326C38.08 30.1252 37.9678 30.1198 37.8538 30.1198C36.1602 30.1198 34.7017 31.0201 34.0369 32.3157C33.791 32.795 33.6526 33.3279 33.6526 33.8903V19.9812C33.6526 17.8989 31.7716 16.2107 29.4514 16.2107C27.1312 16.2107 25.2502 17.8989 25.2502 19.9812V52.3519L25.0682 52.331L22.48 42.3884C21.9519 40.3607 19.6919 39.1005 17.4326 39.5744C15.0598 39.5744 13.5602 41.2712 14.0997 43.345L17.1008 54.8723C18.6703 63.8915 26.794 70.7925 26.794 70.7925H52.3188C56.5838 64.9707 58.8569 58.156 58.8581 51.188L58.8605 37.4262C58.8605 35.3439 56.9795 33.6557 54.6593 33.6557Z" fill="#DFB504"/>
</g>
<defs>
<clipPath id="clip0_4_1683">
<rect width="75.6" height="70.2" fill="white" transform="translate(0.489746 0.592773)"/>
</clipPath>
</defs>
</svg>
