<svg width="78" height="71" viewBox="0 0 78 71" fill="none" xmlns="http://www.w3.org/2000/svg">
<g clip-path="url(#clip0_4_1673)">
<path d="M26.1885 11.6043C26.1885 7.80936 29.553 4.72194 33.6885 4.72194C34.0554 4.72194 34.4158 4.74741 34.7689 4.79434C33.1552 6.66978 32.1885 9.0347 32.1885 11.6043V21.2396H36.6885V11.6043C36.6885 9.6837 37.5511 7.94522 38.9385 6.69552C40.3258 7.94522 41.1885 9.6837 41.1885 11.6043V21.2396H36.6885V29.4984H32.1885V21.2396H26.1885V70.7925H68.293L65.8384 21.2396H56.9385V29.4984H52.4385V21.2396H45.6885V11.6043C45.6885 9.0347 44.7217 6.66978 43.108 4.79434C43.108 4.79434 43.6162 4.65738 44.8879 4.65738C49.0234 4.65738 52.4385 7.80936 52.4385 11.6043V21.2396H56.9385V11.6043C56.9385 5.53241 51.5553 0.592529 44.9385 0.592529H44.1885C42.3067 0.592529 40.5253 0.993082 38.9385 1.70458C37.3516 0.993082 35.5702 0.592529 33.6885 0.592529C27.0717 0.592529 21.6885 5.53241 21.6885 11.6043V21.2396H26.1885V11.6043Z" fill="#DFB504"/>
<path d="M21.6885 21.2397H12.0386L9.58398 70.7927H21.6885V21.2397Z" fill="#DFB504"/>
</g>
<defs>
<clipPath id="clip0_4_1673">
<rect width="76.5" height="70.2" fill="white" transform="translate(0.687988 0.592773)"/>
</clipPath>
</defs>
</svg>
