<svg width="24" height="25" viewBox="0 0 24 25" fill="none" xmlns="http://www.w3.org/2000/svg">
<g id="Iconly/Bulk/Game">
<g id="Game">
<path id="Game 2" d="M13.3051 6.38243V6.56547C12.8144 6.55584 12.3237 6.55584 11.8331 6.55584V6.39206C11.8331 5.72733 11.2737 5.18784 10.6064 5.18784H9.63482C8.52589 5.18784 7.62305 4.30152 7.62305 3.22254C7.62305 2.82755 7.95671 2.5 8.35906 2.5C8.77123 2.5 9.09508 2.82755 9.09508 3.22254C9.09508 3.51155 9.34042 3.74276 9.63482 3.74276H10.6064C12.0882 3.7524 13.2953 4.93736 13.3051 6.38243" fill="#FFCB34"/>
<path id="Game_2" fill-rule="evenodd" clip-rule="evenodd" d="M15.164 6.58267C15.4791 6.58699 15.7949 6.59132 16.1119 6.59457C19.5172 6.59457 22 9.02229 22 12.3749V16.6812C22 20.0337 19.5172 22.4615 16.1119 22.4615C14.7478 22.4904 13.3837 22.5 12.0098 22.5C10.6359 22.5 9.25221 22.4904 7.88813 22.4615C4.48283 22.4615 2 20.0337 2 16.6812V12.3749C2 9.02229 4.48283 6.59457 7.89794 6.59457C9.18351 6.5753 10.4985 6.55603 11.8332 6.55603C12.3238 6.55603 12.8145 6.55603 13.3052 6.56566C13.9238 6.56566 14.5425 6.57415 15.164 6.58267ZM10.8518 15.2457H9.82139V16.2669C9.82139 16.6619 9.48773 16.9895 9.08538 16.9895C8.67321 16.9895 8.34936 16.6619 8.34936 16.2669V15.2457H7.30913C6.90677 15.2457 6.57311 14.9278 6.57311 14.5232C6.57311 14.1282 6.90677 13.8007 7.30913 13.8007H8.34936V12.7891C8.34936 12.3941 8.67321 12.0666 9.08538 12.0666C9.48773 12.0666 9.82139 12.3941 9.82139 12.7891V13.8007H10.8518C11.2542 13.8007 11.5878 14.1282 11.5878 14.5232C11.5878 14.9278 11.2542 15.2457 10.8518 15.2457ZM15.0226 13.6176H15.1207C15.5231 13.6176 15.8567 13.2997 15.8567 12.8951C15.8567 12.5001 15.5231 12.1725 15.1207 12.1725H15.0226C14.6104 12.1725 14.2866 12.5001 14.2866 12.8951C14.2866 13.2997 14.6104 13.6176 15.0226 13.6176ZM16.7007 16.9317H16.7988C17.2012 16.9317 17.5348 16.6137 17.5348 16.2091C17.5348 15.8141 17.2012 15.4866 16.7988 15.4866H16.7007C16.2885 15.4866 15.9647 15.8141 15.9647 16.2091C15.9647 16.6137 16.2885 16.9317 16.7007 16.9317Z" fill="#130F26"/>
</g>
</g>
</svg>
