<svg width="24" height="25" viewBox="0 0 24 25" fill="none" xmlns="http://www.w3.org/2000/svg">
<g id="Iconly/Bulk/Discovery">
<g id="Discovery">
<path id="Fill 1" d="M21.9999 12.4999C21.9999 18.0229 17.5229 22.4999 11.9999 22.4999C6.47691 22.4999 1.99991 18.0229 1.99991 12.4999C1.99991 6.9779 6.47691 2.4999 11.9999 2.4999C17.5229 2.4999 21.9999 6.9779 21.9999 12.4999" fill="#FFCB34"/>
<path id="Fill 4" d="M15.8598 9.2049L14.2398 14.3249C14.1798 14.5349 14.0098 14.7049 13.7998 14.7659L8.69981 16.3649C8.35981 16.4759 8.02981 16.1449 8.13981 15.8049L9.73981 10.6749C9.79981 10.4649 9.96981 10.3049 10.1798 10.2349L15.2998 8.6349C15.6498 8.5249 15.9698 8.8549 15.8598 9.2049" fill="#130F26"/>
</g>
</g>
</svg>
