<svg width="24" height="25" viewBox="0 0 24 25" fill="none" xmlns="http://www.w3.org/2000/svg">
<g id="Iconly/Bulk/Chart">
<g id="Chart">
<path id="Fill 1" d="M16.6756 2.5H7.33333C3.92889 2.5 2 4.42889 2 7.83333V17.1667C2 20.5711 3.92889 22.5 7.33333 22.5H16.6756C20.08 22.5 22 20.5711 22 17.1667V7.83333C22 4.42889 20.08 2.5 16.6756 2.5" fill="#FFCB34"/>
<path id="Fill 4" d="M7.36872 9.86897C6.91539 9.86897 6.54205 10.2423 6.54205 10.7045V17.5756C6.54205 18.029 6.91539 18.4023 7.36872 18.4023C7.83094 18.4023 8.20428 18.029 8.20428 17.5756V10.7045C8.20428 10.2423 7.83094 9.86897 7.36872 9.86897" fill="#130F26"/>
<path id="Fill 6" d="M12.0354 6.58897C11.582 6.58897 11.2087 6.96231 11.2087 7.42453V17.5756C11.2087 18.029 11.582 18.4023 12.0354 18.4023C12.4976 18.4023 12.8709 18.029 12.8709 17.5756V7.42453C12.8709 6.96231 12.4976 6.58897 12.0354 6.58897" fill="#130F26"/>
<path id="Fill 8" d="M16.6399 13.4957C16.1777 13.4957 15.8044 13.869 15.8044 14.3312V17.5757C15.8044 18.029 16.1777 18.4023 16.631 18.4023C17.0932 18.4023 17.4666 18.029 17.4666 17.5757V14.3312C17.4666 13.869 17.0932 13.4957 16.6399 13.4957" fill="#130F26"/>
</g>
</g>
</svg>
