<svg width="24" height="25" viewBox="0 0 24 25" fill="none" xmlns="http://www.w3.org/2000/svg">
<path d="M16.6567 2H7.34444C3.96667 2 2 3.78 2 6.83V17.16C2 20.26 3.96667 22 7.34444 22H16.6567C20.0889 22 22 20.26 22 17.16V6.83C22 3.78 20.0889 2 16.6567 2" fill="#FFCB34"/>
<path fill-rule="evenodd" clip-rule="evenodd" d="M8.07999 7.15V7.16C7.64899 7.16 7.29999 7.51 7.29999 7.94C7.29999 8.37 7.64899 8.72 8.07999 8.72H11.069C11.5 8.72 11.85 8.37 11.85 7.929C11.85 7.5 11.5 7.15 11.069 7.15H8.07999ZM15.92 13.24H8.07999C7.64899 13.24 7.29999 12.89 7.29999 12.46C7.29999 12.03 7.64899 11.679 8.07999 11.679H15.92C16.35 11.679 16.7 12.03 16.7 12.46C16.7 12.89 16.35 13.24 15.92 13.24ZM15.92 17.81H8.07999C7.77999 17.85 7.48999 17.7 7.32999 17.45C7.16999 17.19 7.16999 16.86 7.32999 16.61C7.48999 16.35 7.77999 16.21 8.07999 16.24H15.92C16.319 16.28 16.62 16.62 16.62 17.03C16.62 17.429 16.319 17.77 15.92 17.81Z" fill="#130F26"/>
</svg>
