<svg width="128" height="30" viewBox="0 0 128 30" fill="none" xmlns="http://www.w3.org/2000/svg">
<path d="M52.0451 22.466H49.2678V12.4056H49.1852L45.138 22.3214H43.1763L39.1291 12.4056H39.0465V22.466H36.2692V7.56126H39.8828L44.1159 18.1279H44.1984L48.4315 7.56126H52.0451V22.466Z" fill="#474747"/>
<path d="M58.2915 20.4622C58.9592 20.4622 59.5236 20.2694 59.9847 19.8838C60.4528 19.4913 60.6868 18.9989 60.6868 18.4067V17.6011L58.3535 17.7457C57.789 17.787 57.352 17.9282 57.0422 18.1692C56.7394 18.4102 56.588 18.7269 56.588 19.1194C56.588 19.5326 56.7428 19.8597 57.0526 20.1007C57.3623 20.3417 57.7753 20.4622 58.2915 20.4622ZM57.3003 22.6416C56.2335 22.6416 55.349 22.3283 54.6469 21.7017C53.9449 21.0751 53.5938 20.2694 53.5938 19.2847C53.5938 18.2793 53.9655 17.4909 54.7089 16.9194C55.4522 16.3478 56.5157 16.0207 57.8992 15.9381L60.6868 15.7728V15.0395C60.6868 14.5299 60.5182 14.1305 60.1809 13.8413C59.8505 13.5521 59.3997 13.4075 58.8284 13.4075C58.2777 13.4075 57.8269 13.5314 57.4759 13.7793C57.1317 14.0272 56.9218 14.3612 56.8461 14.7812H54.0894C54.1445 13.6933 54.6091 12.8187 55.4832 12.1577C56.3574 11.4897 57.5172 11.1558 58.9626 11.1558C60.3805 11.1558 61.5162 11.4932 62.3697 12.168C63.2232 12.8428 63.65 13.738 63.65 14.8535V22.466H60.7384V20.7721H60.6765C60.3736 21.3505 59.9125 21.8084 59.293 22.1458C58.6735 22.4764 58.0093 22.6416 57.3003 22.6416Z" fill="#474747"/>
<path d="M65.6013 22.466V11.3933H68.5129V13.3868H68.5748C68.7675 12.6845 69.091 12.1473 69.5453 11.7755C69.9996 11.4037 70.5537 11.2177 71.2076 11.2177C71.5242 11.2177 71.8098 11.2556 72.0645 11.3314V13.9859C71.7823 13.8688 71.4175 13.8103 70.9701 13.8103C70.2267 13.8103 69.6486 14.0272 69.2356 14.461C68.8226 14.8949 68.6161 15.5008 68.6161 16.279V22.466H65.6013Z" fill="#474747"/>
<path d="M77.3094 20.4622C77.9771 20.4622 78.5415 20.2694 79.0026 19.8838C79.4707 19.4913 79.7047 18.9989 79.7047 18.4067V17.6011L77.3713 17.7457C76.8069 17.787 76.3699 17.9282 76.0601 18.1692C75.7573 18.4102 75.6058 18.7269 75.6058 19.1194C75.6058 19.5326 75.7607 19.8597 76.0704 20.1007C76.3802 20.3417 76.7932 20.4622 77.3094 20.4622ZM76.3182 22.6416C75.2514 22.6416 74.3669 22.3283 73.6648 21.7017C72.9627 21.0751 72.6117 20.2694 72.6117 19.2847C72.6117 18.2793 72.9834 17.4909 73.7268 16.9194C74.4701 16.3478 75.5336 16.0207 76.9171 15.9381L79.7047 15.7728V15.0395C79.7047 14.5299 79.5361 14.1305 79.1988 13.8413C78.8684 13.5521 78.4176 13.4075 77.8463 13.4075C77.2956 13.4075 76.8448 13.5314 76.4938 13.7793C76.1496 14.0272 75.9397 14.3612 75.864 14.7812H73.1073C73.1624 13.6933 73.627 12.8187 74.5011 12.1577C75.3753 11.4897 76.5351 11.1558 77.9805 11.1558C79.3984 11.1558 80.5341 11.4932 81.3876 12.168C82.2411 12.8428 82.6679 13.738 82.6679 14.8535V22.466H79.7563V20.7721H79.6944C79.3915 21.3505 78.9304 21.8084 78.3109 22.1458C77.6914 22.4764 77.0272 22.6416 76.3182 22.6416Z" fill="#474747"/>
<path d="M84.6192 22.466V11.3933H87.5307V13.3662H87.5927C87.8955 12.6638 88.3361 12.1267 88.9142 11.7548C89.4993 11.3761 90.2117 11.1867 91.0514 11.1867C92.2766 11.1867 93.223 11.5517 93.8907 12.2816C94.5583 13.0115 94.8922 14.0272 94.8922 15.3287V22.466H91.8774V15.9588C91.8774 15.2288 91.7053 14.6676 91.3612 14.2751C91.017 13.8826 90.5111 13.6864 89.8434 13.6864C89.1758 13.6864 88.6389 13.9102 88.2328 14.3578C87.8336 14.8053 87.634 15.3907 87.634 16.1137V22.466H84.6192Z" fill="#474747"/>
<path d="M103.658 22.466H97.0603V7.56126H103.544C104.941 7.56126 106.05 7.89523 106.869 8.56317C107.688 9.23112 108.097 10.1366 108.097 11.2797C108.097 12.0923 107.829 12.805 107.292 13.4178C106.762 14.0307 106.098 14.3956 105.299 14.5127V14.5953C106.318 14.6711 107.158 15.0464 107.819 15.7212C108.479 16.396 108.81 17.2223 108.81 18.2002C108.81 19.5154 108.349 20.5552 107.426 21.3195C106.504 22.0839 105.248 22.466 103.658 22.466ZM100.178 9.88529V13.7587H102.419C103.252 13.7587 103.895 13.5865 104.349 13.2422C104.804 12.891 105.031 12.3987 105.031 11.7652C105.031 11.1661 104.831 10.7047 104.432 10.3811C104.033 10.0506 103.468 9.88529 102.739 9.88529H100.178ZM100.178 20.142H102.863C103.764 20.142 104.449 19.9561 104.917 19.5842C105.392 19.2055 105.63 18.6615 105.63 17.9523C105.63 17.2568 105.385 16.7265 104.897 16.3616C104.415 15.9966 103.713 15.8141 102.79 15.8141H100.178V20.142Z" fill="#474747"/>
<path d="M115.294 13.3868C114.64 13.3868 114.092 13.6106 113.652 14.0582C113.218 14.5058 112.974 15.0773 112.919 15.7728H117.617C117.582 15.0636 117.352 14.4886 116.925 14.0479C116.505 13.6072 115.961 13.3868 115.294 13.3868ZM117.658 19.0781H120.425C120.26 20.1661 119.716 21.0441 118.794 21.712C117.878 22.3731 116.739 22.7036 115.376 22.7036C113.676 22.7036 112.341 22.194 111.37 21.1749C110.407 20.1558 109.925 18.7579 109.925 16.9813C109.925 15.2116 110.407 13.8 111.37 12.7464C112.334 11.686 113.631 11.1558 115.263 11.1558C116.866 11.1558 118.143 11.6584 119.093 12.6638C120.043 13.6692 120.518 15.0154 120.518 16.7024V17.6217H112.888V17.8077C112.888 18.5995 113.119 19.2434 113.58 19.7392C114.048 20.2281 114.664 20.4725 115.428 20.4725C115.978 20.4725 116.453 20.3486 116.853 20.1007C117.252 19.8459 117.52 19.5051 117.658 19.0781Z" fill="#474747"/>
<path d="M122.882 8.84206H125.897V11.3933H127.941V13.6657H125.897V18.9645C125.897 19.7977 126.331 20.2143 127.198 20.2143C127.48 20.2143 127.724 20.1971 127.931 20.1627V22.3834C127.58 22.466 127.101 22.5074 126.496 22.5074C125.195 22.5074 124.266 22.2732 123.708 21.805C123.157 21.3367 122.882 20.5621 122.882 19.481V13.6657H121.323V11.3933H122.882V8.84206Z" fill="#474747"/>
<path d="M12.5638 0L11.8717 0.433592L7.41775 3.20924L4.68245 4.91076L2.73861 6.12285L0 7.82436V20.1916L0.00662299 20.1949V22.1723L12.577 30L25.2832 22.0836V7.91962L12.5638 0ZM22.5943 20.5595L12.577 26.7973L2.7353 20.6712V9.32551L4.67914 8.11671V19.8664L7.41444 21.5679V6.4119L9.35827 5.20311V22.78L12.0936 24.4815V3.4983L12.5638 3.20596L13.2327 3.62312V24.291L14.448 23.6143L15.968 22.6683V16.3944H22.591V20.5595H22.5943ZM22.5943 13.6811H15.9713V5.32464L22.5943 9.44702V13.6811Z" fill="#474747"/>
</svg>
