<svg width="24" height="25" viewBox="0 0 24 25" fill="none" xmlns="http://www.w3.org/2000/svg">
<g id="Iconly/Bulk/Work">
<g id="Work">
<path id="Fill 1" d="M2.00021 11.5785C2.05021 13.9165 2.19021 17.9155 2.21021 18.3565C2.28121 19.2995 2.64221 20.2525 3.20421 20.9245C3.98621 21.8675 4.94921 22.2885 6.29221 22.2885C8.14821 22.2985 10.1942 22.2985 12.1812 22.2985C14.1762 22.2985 16.1122 22.2985 17.7472 22.2885C19.0712 22.2885 20.0642 21.8565 20.8362 20.9245C21.3982 20.2525 21.7592 19.2895 21.8102 18.3565C21.8302 17.9855 21.9302 13.6445 21.9902 11.5785H2.00021Z" fill="#FFCB34"/>
<path id="Fill 4" d="M11.2454 15.8842V17.1782C11.2454 17.5922 11.5814 17.9282 11.9954 17.9282C12.4094 17.9282 12.7454 17.5922 12.7454 17.1782V15.8842C12.7454 15.4702 12.4094 15.1342 11.9954 15.1342C11.5814 15.1342 11.2454 15.4702 11.2454 15.8842" fill="#130F26"/>
<path id="Fill 6" fill-rule="evenodd" clip-rule="evenodd" d="M10.2113 15.0564C10.1113 15.4194 9.7623 15.6514 9.38431 15.6014C6.8333 15.2454 4.39531 14.3404 2.33731 12.9814C2.12631 12.8434 2.00031 12.6074 2.00031 12.3554V8.8894C2.00031 6.7894 3.71231 5.0814 5.81731 5.0814H7.78431C7.97231 3.6294 9.20231 2.5004 10.7043 2.5004H13.2863C14.7873 2.5004 16.0183 3.6294 16.2063 5.0814H18.1833C20.2823 5.0814 21.9903 6.7894 21.9903 8.8894V12.3554C21.9903 12.6074 21.8633 12.8424 21.6543 12.9814C19.5923 14.3464 17.1443 15.2554 14.5763 15.6104C14.5413 15.6154 14.5073 15.6174 14.4733 15.6174C14.1343 15.6174 13.8313 15.3884 13.7463 15.0524C13.5443 14.2564 12.8213 13.6994 11.9903 13.6994C11.1483 13.6994 10.4333 14.2444 10.2113 15.0564ZM13.2863 4.0004H10.7043C10.0313 4.0004 9.46931 4.4604 9.30131 5.0814H14.6883C14.5203 4.4604 13.9583 4.0004 13.2863 4.0004Z" fill="#130F26"/>
</g>
</g>
</svg>
