<svg width="24" height="25" viewBox="0 0 24 25" fill="none" xmlns="http://www.w3.org/2000/svg">
<g id="Iconly/Bulk/Filter">
<g id="Filter">
<path id="Fill 1" d="M10.0833 16.458H3.50777C2.67555 16.458 2 17.1217 2 17.9393C2 18.7558 2.67555 19.4206 3.50777 19.4206H10.0833C10.9155 19.4206 11.5911 18.7558 11.5911 17.9393C11.5911 17.1217 10.9155 16.458 10.0833 16.458" fill="#FFCB34"/>
<path id="Fill 4" d="M22 6.87856C22 6.06203 21.3244 5.39832 20.4933 5.39832H13.9178C13.0856 5.39832 12.41 6.06203 12.41 6.87856C12.41 7.69618 13.0856 8.35989 13.9178 8.35989H20.4933C21.3244 8.35989 22 7.69618 22 6.87856" fill="#FFCB34"/>
<path id="Fill 6" d="M8.87774 6.87856C8.87774 8.74523 7.33886 10.2582 5.43887 10.2582C3.53999 10.2582 2 8.74523 2 6.87856C2 5.01298 3.53999 3.5 5.43887 3.5C7.33886 3.5 8.87774 5.01298 8.87774 6.87856" fill="#130F26"/>
<path id="Fill 9" d="M22 17.8992C22 19.7648 20.4611 21.2778 18.5611 21.2778C16.6622 21.2778 15.1223 19.7648 15.1223 17.8992C15.1223 16.0325 16.6622 14.5196 18.5611 14.5196C20.4611 14.5196 22 16.0325 22 17.8992" fill="#130F26"/>
</g>
</g>
</svg>
