<svg width="80" height="80" viewBox="0 0 80 80" fill="none" xmlns="http://www.w3.org/2000/svg">
<g filter="url(#filter0_i_281_990)">
<path d="M13.3281 23.4427C13.3281 22.2321 13.9844 21.1167 15.0426 20.5288L38.376 7.56584C39.3827 7.00654 40.6069 7.00654 41.6136 7.56584L64.9469 20.5288C66.0052 21.1167 66.6615 22.2321 66.6615 23.4427V38.9049C66.6615 51.0105 60.0984 62.1645 49.5162 68.0435L41.6136 72.4338C40.6069 72.9931 39.3827 72.9931 38.376 72.4338L30.4734 68.0435C19.8912 62.1645 13.3281 51.0105 13.3281 38.9049V23.4427Z" fill="url(#paint0_linear_281_990)"/>
</g>
<path d="M13.7448 23.4427C13.7448 22.3834 14.3191 21.4074 15.245 20.893L38.5783 7.93008C39.4592 7.44069 40.5304 7.44069 41.4113 7.93007L64.7446 20.893C65.6705 21.4074 66.2448 22.3834 66.2448 23.4427V38.9049C66.2448 50.8592 59.7638 61.8738 49.3139 67.6793L41.4113 72.0696C40.5304 72.559 39.4592 72.559 38.5783 72.0696L30.6757 67.6793C20.2258 61.8738 13.7448 50.8592 13.7448 38.9049V23.4427Z" stroke="url(#paint1_linear_281_990)" stroke-opacity="0.7" stroke-width="0.833333"/>
<path fill-rule="evenodd" clip-rule="evenodd" d="M40.2534 29.885C34.2888 29.885 29.1 33.198 26.4315 38.0775C25.8614 39.1199 25.8614 40.38 26.4315 41.4224C29.1 46.3021 34.2889 49.6152 40.2535 49.6152C46.2181 49.6152 51.4069 46.3022 54.0755 41.4227C54.6455 40.3803 54.6456 39.1202 54.0755 38.0777C51.407 33.1981 46.2181 29.885 40.2534 29.885ZM40.2517 36.1155C38.2444 36.1155 36.6172 37.7427 36.6172 39.75C36.6172 41.7572 38.2444 43.3844 40.2517 43.3844C41.4355 43.3844 42.4872 42.8184 43.1508 41.9422C41.952 41.9284 40.9844 40.9522 40.9844 39.7501C40.9844 38.5479 41.9521 37.5717 43.151 37.558C42.4874 36.6816 41.4357 36.1155 40.2517 36.1155ZM35.1172 39.75C35.1172 36.9143 37.416 34.6155 40.2517 34.6155C43.0874 34.6155 45.3861 36.9143 45.3861 39.75C45.3861 42.5857 43.0874 44.8844 40.2517 44.8844C37.416 44.8844 35.1172 42.5857 35.1172 39.75Z" fill="#EDEEF6"/>
<defs>
<filter id="filter0_i_281_990" x="13.3281" y="7.14636" width="53.332" height="65.7069" filterUnits="userSpaceOnUse" color-interpolation-filters="sRGB">
<feFlood flood-opacity="0" result="BackgroundImageFix"/>
<feBlend mode="normal" in="SourceGraphic" in2="BackgroundImageFix" result="shape"/>
<feColorMatrix in="SourceAlpha" type="matrix" values="0 0 0 0 0 0 0 0 0 0 0 0 0 0 0 0 0 0 127 0" result="hardAlpha"/>
<feOffset/>
<feGaussianBlur stdDeviation="5"/>
<feComposite in2="hardAlpha" operator="arithmetic" k2="-1" k3="1"/>
<feColorMatrix type="matrix" values="0 0 0 0 0.231373 0 0 0 0 0.407843 0 0 0 0 1 0 0 0 0.38 0"/>
<feBlend mode="normal" in2="shape" result="effect1_innerShadow_281_990"/>
</filter>
<linearGradient id="paint0_linear_281_990" x1="-4.00521" y1="-20.0002" x2="113.385" y2="63.7591" gradientUnits="userSpaceOnUse">
<stop stop-color="#344EA6" stop-opacity="0.26"/>
<stop offset="0.505208" stop-color="#587EFF" stop-opacity="0.12"/>
<stop offset="1" stop-color="#829EFF" stop-opacity="0.04"/>
</linearGradient>
<linearGradient id="paint1_linear_281_990" x1="14.6615" y1="16.6665" x2="69.7235" y2="54.4233" gradientUnits="userSpaceOnUse">
<stop stop-color="white" stop-opacity="0.15"/>
<stop offset="1" stop-color="white" stop-opacity="0.44"/>
</linearGradient>
</defs>
</svg>
