<svg width="94" height="80" viewBox="0 0 94 80" fill="none" xmlns="http://www.w3.org/2000/svg">
<g filter="url(#filter0_bdi_279_913)">
<mask id="path-1-inside-1_279_913" fill="white">
<path fill-rule="evenodd" clip-rule="evenodd" d="M13.6641 26.6666C13.6641 19.3028 19.6336 13.3333 26.9974 13.3333H66.9974C74.3612 13.3333 80.3307 19.3028 80.3307 26.6666V30.7438C80.3307 31.3778 79.8795 31.9133 79.2801 32.12C76.0126 33.2471 73.6654 36.3494 73.6654 39.9998C73.6654 43.6503 76.0126 46.7525 79.2801 47.8797C79.8795 48.0864 80.3307 48.6218 80.3307 49.2559V53.3333C80.3307 60.6971 74.3612 66.6666 66.9974 66.6666H26.9974C19.6336 66.6666 13.6641 60.697 13.6641 53.3333V49.2568C13.6641 48.6226 14.1155 48.087 14.7151 47.8804C17.9838 46.7539 20.332 43.6511 20.332 39.9998C20.332 36.3486 17.9838 33.2458 14.7151 32.1193C14.1155 31.9126 13.6641 31.3771 13.6641 30.7429V26.6666Z"/>
</mask>
<path fill-rule="evenodd" clip-rule="evenodd" d="M13.6641 26.6666C13.6641 19.3028 19.6336 13.3333 26.9974 13.3333H66.9974C74.3612 13.3333 80.3307 19.3028 80.3307 26.6666V30.7438C80.3307 31.3778 79.8795 31.9133 79.2801 32.12C76.0126 33.2471 73.6654 36.3494 73.6654 39.9998C73.6654 43.6503 76.0126 46.7525 79.2801 47.8797C79.8795 48.0864 80.3307 48.6218 80.3307 49.2559V53.3333C80.3307 60.6971 74.3612 66.6666 66.9974 66.6666H26.9974C19.6336 66.6666 13.6641 60.697 13.6641 53.3333V49.2568C13.6641 48.6226 14.1155 48.087 14.7151 47.8804C17.9838 46.7539 20.332 43.6511 20.332 39.9998C20.332 36.3486 17.9838 33.2458 14.7151 32.1193C14.1155 31.9126 13.6641 31.3771 13.6641 30.7429V26.6666Z" fill="url(#paint0_linear_279_913)" shape-rendering="crispEdges"/>
<path d="M14.7151 32.1193L14.9866 31.3314L14.7151 32.1193ZM14.7151 47.8804L14.4436 47.0925L14.7151 47.8804ZM79.2801 47.8797L79.0084 48.6674L79.2801 47.8797ZM26.9974 12.4999C19.1734 12.4999 12.8307 18.8425 12.8307 26.6666H14.4974C14.4974 19.763 20.0938 14.1666 26.9974 14.1666V12.4999ZM66.9974 12.4999H26.9974V14.1666H66.9974V12.4999ZM81.1641 26.6666C81.1641 18.8426 74.8214 12.4999 66.9974 12.4999V14.1666C73.901 14.1666 79.4974 19.763 79.4974 26.6666H81.1641ZM81.1641 30.7438V26.6666H79.4974V30.7438H81.1641ZM74.4987 39.9998C74.4987 36.7157 76.61 33.9226 79.5518 32.9078L79.0084 31.3322C75.4151 32.5717 72.832 35.983 72.832 39.9998H74.4987ZM79.5518 47.0919C76.61 46.0771 74.4987 43.284 74.4987 39.9998H72.832C72.832 44.0166 75.4151 47.428 79.0084 48.6674L79.5518 47.0919ZM81.1641 53.3333V49.2559H79.4974V53.3333H81.1641ZM66.9974 67.4999C74.8214 67.4999 81.1641 61.1573 81.1641 53.3333H79.4974C79.4974 60.2368 73.901 65.8333 66.9974 65.8333V67.4999ZM26.9974 67.4999H66.9974V65.8333H26.9974V67.4999ZM12.8307 53.3333C12.8307 61.1573 19.1734 67.4999 26.9974 67.4999V65.8333C20.0938 65.8333 14.4974 60.2368 14.4974 53.3333H12.8307ZM12.8307 49.2568V53.3333H14.4974V49.2568H12.8307ZM14.9866 48.6683C18.5811 47.4295 21.1654 44.0175 21.1654 39.9998H19.4987C19.4987 43.2847 17.3864 46.0783 14.4436 47.0925L14.9866 48.6683ZM21.1654 39.9998C21.1654 35.9821 18.5811 32.5702 14.9866 31.3314L14.4436 32.9071C17.3864 33.9213 19.4987 36.715 19.4987 39.9998H21.1654ZM12.8307 26.6666V30.7429H14.4974V26.6666H12.8307ZM14.9866 31.3314C14.6611 31.2192 14.4974 30.96 14.4974 30.7429H12.8307C12.8307 31.7942 13.5699 32.606 14.4436 32.9071L14.9866 31.3314ZM14.4974 49.2568C14.4974 49.0397 14.6611 48.7804 14.9866 48.6683L14.4436 47.0925C13.5699 47.3937 12.8307 48.2055 12.8307 49.2568H14.4974ZM79.0084 48.6674C79.3337 48.7797 79.4974 49.0388 79.4974 49.2559H81.1641C81.1641 48.2049 80.4253 47.3931 79.5518 47.0919L79.0084 48.6674ZM79.4974 30.7438C79.4974 30.9608 79.3337 31.22 79.0084 31.3322L79.5518 32.9078C80.4253 32.6065 81.1641 31.7948 81.1641 30.7438H79.4974Z" fill="url(#paint1_linear_279_913)" fill-opacity="0.7" mask="url(#path-1-inside-1_279_913)"/>
</g>
<g filter="url(#filter1_d_279_913)">
<circle cx="39.6602" cy="32.6618" r="2.63846" transform="rotate(45 39.6602 32.6618)" fill="#EDEEF6"/>
<circle cx="54.332" cy="47.3383" r="2.63846" transform="rotate(45 54.332 47.3383)" fill="#EDEEF6"/>
<path d="M39.5395 47.4622L54.4648 32.5369" stroke="#EDEEF6" stroke-width="5" stroke-linecap="round" stroke-linejoin="round"/>
</g>
<defs>
<filter id="filter0_bdi_279_913" x="0.330729" y="-8.10623e-05" width="93.3346" height="80" filterUnits="userSpaceOnUse" color-interpolation-filters="sRGB">
<feFlood flood-opacity="0" result="BackgroundImageFix"/>
<feGaussianBlur in="BackgroundImageFix" stdDeviation="3.33333"/>
<feComposite in2="SourceAlpha" operator="in" result="effect1_backgroundBlur_279_913"/>
<feColorMatrix in="SourceAlpha" type="matrix" values="0 0 0 0 0 0 0 0 0 0 0 0 0 0 0 0 0 0 127 0" result="hardAlpha"/>
<feOffset/>
<feGaussianBlur stdDeviation="6.66667"/>
<feComposite in2="hardAlpha" operator="out"/>
<feColorMatrix type="matrix" values="0 0 0 0 0.231373 0 0 0 0 0.407843 0 0 0 0 1 0 0 0 0.1 0"/>
<feBlend mode="normal" in2="effect1_backgroundBlur_279_913" result="effect2_dropShadow_279_913"/>
<feBlend mode="normal" in="SourceGraphic" in2="effect2_dropShadow_279_913" result="shape"/>
<feColorMatrix in="SourceAlpha" type="matrix" values="0 0 0 0 0 0 0 0 0 0 0 0 0 0 0 0 0 0 127 0" result="hardAlpha"/>
<feOffset/>
<feGaussianBlur stdDeviation="5"/>
<feComposite in2="hardAlpha" operator="arithmetic" k2="-1" k3="1"/>
<feColorMatrix type="matrix" values="0 0 0 0 0.231373 0 0 0 0 0.407843 0 0 0 0 1 0 0 0 0.38 0"/>
<feBlend mode="normal" in2="shape" result="effect3_innerShadow_279_913"/>
</filter>
<filter id="filter1_d_279_913" x="23.6654" y="16.6666" width="46.6654" height="46.6667" filterUnits="userSpaceOnUse" color-interpolation-filters="sRGB">
<feFlood flood-opacity="0" result="BackgroundImageFix"/>
<feColorMatrix in="SourceAlpha" type="matrix" values="0 0 0 0 0 0 0 0 0 0 0 0 0 0 0 0 0 0 127 0" result="hardAlpha"/>
<feOffset/>
<feGaussianBlur stdDeviation="3.33333"/>
<feComposite in2="hardAlpha" operator="out"/>
<feColorMatrix type="matrix" values="0 0 0 0 0.231373 0 0 0 0 0.407843 0 0 0 0 1 0 0 0 0.35 0"/>
<feBlend mode="normal" in2="BackgroundImageFix" result="effect1_dropShadow_279_913"/>
<feBlend mode="normal" in="SourceGraphic" in2="effect1_dropShadow_279_913" result="shape"/>
</filter>
<linearGradient id="paint0_linear_279_913" x1="-8.0026" y1="-8.00008" x2="90.7263" y2="102.069" gradientUnits="userSpaceOnUse">
<stop stop-color="#344EA6" stop-opacity="0.26"/>
<stop offset="0.505208" stop-color="#587EFF" stop-opacity="0.12"/>
<stop offset="1" stop-color="#829EFF" stop-opacity="0.04"/>
</linearGradient>
<linearGradient id="paint1_linear_279_913" x1="15.3307" y1="21.3333" x2="62.4408" y2="71.8083" gradientUnits="userSpaceOnUse">
<stop stop-color="white" stop-opacity="0.15"/>
<stop offset="1" stop-color="white" stop-opacity="0.44"/>
</linearGradient>
</defs>
</svg>
