<svg width="120" height="40" viewBox="0 0 120 40" fill="none" xmlns="http://www.w3.org/2000/svg">
<g clip-path="url(#clip0_80_166)">
<path d="M110.444 0.000129999H9.56144C9.19368 0.000129999 8.8304 0.00013 8.46368 0.00212999C8.15664 0.00412998 7.85207 0.00994 7.54211 0.0148299C6.86874 0.0227318 6.19695 0.0818056 5.53258 0.191539C4.86915 0.303662 4.2265 0.515044 3.62637 0.818536C3.02698 1.1246 2.47929 1.5223 2.00318 1.99719C1.52457 2.47076 1.12562 3.01814 0.821648 3.61828C0.516847 4.21722 0.305496 4.85906 0.194895 5.52159C0.083244 6.1833 0.0231632 6.85263 0.0151926 7.52358C0.00588648 7.83018 0.00490373 8.13784 0 8.44448V31.5586C0.00490373 31.8691 0.00588648 32.1699 0.0151926 32.4806C0.0231657 33.1514 0.0832464 33.8207 0.194895 34.4824C0.30519 35.1454 0.516554 35.7875 0.821648 36.3867C1.12548 36.9849 1.52449 37.5301 2.00318 38.001C2.47748 38.478 3.02552 38.876 3.62637 39.1797C4.2265 39.484 4.86908 39.6966 5.53258 39.8105C6.19706 39.9194 6.86878 39.9785 7.54211 39.9873C7.85207 39.9941 8.15664 39.998 8.46368 39.998C8.8304 40 9.19376 40 9.56144 40H110.444C110.804 40 111.17 40 111.531 39.998C111.837 39.998 112.15 39.9941 112.455 39.9873C113.127 39.979 113.798 39.9198 114.461 39.8105C115.126 39.6958 115.772 39.4833 116.374 39.1797C116.975 38.8758 117.522 38.4778 117.996 38.001C118.474 37.5282 118.874 36.9834 119.182 36.3867C119.484 35.7871 119.694 35.145 119.802 34.4824C119.914 33.8206 119.976 33.1515 119.988 32.4806C119.992 32.1699 119.992 31.8691 119.992 31.5586C120 31.1954 120 30.834 120 30.4648V9.53624C120 9.17 120 8.80672 119.992 8.44448C119.992 8.13784 119.992 7.83018 119.988 7.52354C119.976 6.85253 119.914 6.18334 119.802 5.52155C119.693 4.85939 119.484 4.21762 119.182 3.61824C118.562 2.41532 117.581 1.43615 116.374 0.818448C115.772 0.515696 115.126 0.30437 114.461 0.19145C113.798 0.0812328 113.127 0.0221377 112.455 0.0146899C112.15 0.00981 111.837 0.00394998 111.531 0.00199999C111.17 0 110.804 0 110.444 0V0.000129999Z" fill="#A6A6A6"/>
<path d="M8.46808 39.125C8.16256 39.125 7.86438 39.1211 7.56125 39.1143C6.93327 39.1061 6.30676 39.0516 5.68686 38.9512C5.10883 38.8519 4.54888 38.6672 4.02547 38.4033C3.50686 38.1415 3.03385 37.7983 2.62454 37.3867C2.20933 36.9799 1.86363 36.5083 1.60118 35.9902C1.33582 35.4688 1.15218 34.9099 1.05665 34.333C0.953488 33.7131 0.897664 33.0863 0.88968 32.458C0.88332 32.2471 0.875 31.5449 0.875 31.5449V8.44443C0.875 8.44443 0.883864 7.75303 0.889728 7.5499C0.897376 6.92259 0.952872 6.29676 1.05573 5.67784C1.15143 5.09936 1.33522 4.53886 1.60071 4.01575C1.86221 3.49806 2.20598 3.02598 2.6187 2.6178C3.03096 2.20574 3.50549 1.86072 4.02498 1.59533C4.54718 1.33222 5.10608 1.14886 5.68294 1.05139C6.30488 0.949962 6.93356 0.895122 7.56371 0.88733L8.46856 0.875122H111.526L112.442 0.887826C113.066 0.895226 113.689 0.94957 114.305 1.05041C114.887 1.1491 115.452 1.33374 115.981 1.59826C117.022 2.13311 117.868 2.97928 118.402 4.01819C118.663 4.53769 118.845 5.09362 118.939 5.6671C119.043 6.2911 119.102 6.92184 119.114 7.55431C119.116 7.8375 119.116 8.14171 119.116 8.44443C119.124 8.81947 119.124 9.17635 119.124 9.53619V30.4648C119.124 30.8281 119.124 31.1826 119.116 31.54C119.116 31.8652 119.116 32.1631 119.112 32.4697C119.101 33.0909 119.043 33.7103 118.941 34.3232C118.847 34.9043 118.665 35.4675 118.399 35.9932C118.135 36.5056 117.791 36.9733 117.381 37.3789C116.971 37.7927 116.498 38.138 115.978 38.4014C115.451 38.6674 114.887 38.8527 114.305 38.9512C113.685 39.0522 113.058 39.1067 112.43 39.1143C112.137 39.1211 111.829 39.125 111.53 39.125L110.443 39.127L8.46808 39.125Z" fill="black"/>
<path d="M24.8381 20.3008C24.8489 19.4661 25.0712 18.6477 25.4844 17.9218C25.8975 17.1959 26.4881 16.5859 27.2013 16.1488C26.7482 15.5036 26.1506 14.9726 25.4558 14.5981C24.7611 14.2236 23.9883 14.0157 23.1989 13.9911C21.5149 13.8148 19.8824 14.9959 19.0243 14.9959C18.1496 14.9959 16.8284 14.0086 15.4057 14.0377C14.4854 14.0674 13.5885 14.3343 12.8025 14.8123C12.0164 15.2904 11.3679 15.9633 10.9201 16.7656C8.98079 20.114 10.4273 25.0351 12.2852 27.7416C13.2147 29.067 14.301 30.5475 15.7225 30.4949C17.1134 30.4374 17.6329 29.6104 19.3119 29.6104C20.9753 29.6104 21.4627 30.4949 22.9129 30.4616C24.4055 30.4374 25.3459 29.1304 26.2428 27.7924C26.9106 26.848 27.4245 25.8044 27.7655 24.7C26.8984 24.3342 26.1584 23.722 25.6378 22.9397C25.1172 22.1575 24.8391 21.2396 24.8381 20.3008Z" fill="white"/>
<path d="M22.0994 12.2108C22.9132 11.2366 23.3141 9.98437 23.217 8.72021C21.9737 8.85037 20.8252 9.44293 20.0004 10.3798C19.5972 10.8374 19.2884 11.3699 19.0916 11.9466C18.8948 12.5234 18.8139 13.1332 18.8536 13.7412C19.4754 13.7476 20.0907 13.6131 20.6528 13.3481C21.2151 13.0829 21.7097 12.6941 22.0994 12.2108Z" fill="white"/>
<path d="M42.4206 27.1382H37.6738L36.5339 30.4947H34.5234L39.0194 18.0767H41.1082L45.6042 30.4947H43.5594L42.4206 27.1382ZM38.1654 25.5894H41.928L40.0732 20.1421H40.0213L38.1654 25.5894Z" fill="white"/>
<path d="M55.314 25.9699C55.314 28.7835 53.804 30.5911 51.5251 30.5911C50.9479 30.6211 50.3737 30.4886 49.8685 30.2084C49.3633 29.9283 48.9474 29.5119 48.6685 29.0071H48.6254V33.4914H46.7617V21.4427H48.5656V22.9485H48.6C48.8917 22.446 49.3146 22.0319 49.8236 21.75C50.3328 21.4681 50.9089 21.3291 51.4908 21.3479C53.7951 21.3479 55.314 23.1643 55.314 25.9699ZM53.3985 25.9699C53.3985 24.137 52.4486 22.9319 50.9992 22.9319C49.5753 22.9319 48.6176 24.1623 48.6176 25.9699C48.6176 27.7942 49.5753 29.0159 50.9992 29.0159C52.4486 29.0159 53.3985 27.8195 53.3985 25.9699Z" fill="white"/>
<path d="M65.3074 25.9698C65.3074 28.7833 63.7973 30.5909 61.5185 30.5909C60.9412 30.621 60.367 30.4884 59.8618 30.2083C59.3566 29.9281 58.9408 29.5118 58.6618 29.0069H58.6187V33.4913H56.755V21.4425H58.559V22.9484H58.5932C58.885 22.4459 59.3079 22.0317 59.817 21.7498C60.326 21.468 60.9022 21.329 61.4842 21.3477C63.7885 21.3477 65.3074 23.1641 65.3074 25.9698ZM63.3918 25.9698C63.3918 24.1369 62.4419 22.9317 60.9926 22.9317C59.5686 22.9317 58.6109 24.1622 58.6109 25.9698C58.6109 27.7941 59.5686 29.0157 60.9926 29.0157C62.4419 29.0157 63.3918 27.8194 63.3918 25.9698Z" fill="white"/>
<path d="M71.9116 27.0361C72.0497 28.2676 73.2493 29.0761 74.8887 29.0761C76.4595 29.0761 77.5896 28.2675 77.5896 27.1572C77.5896 26.1933 76.908 25.6162 75.2941 25.2207L73.6802 24.8329C71.3936 24.2822 70.332 23.2158 70.332 21.4853C70.332 19.3428 72.2044 17.8711 74.8632 17.8711C77.4946 17.8711 79.2985 19.3428 79.3592 21.4853H77.4779C77.3653 20.2461 76.3381 19.4981 74.8368 19.4981C73.3355 19.4981 72.3082 20.2549 72.3082 21.3565C72.3082 22.2344 72.9643 22.7509 74.5694 23.1464L75.9414 23.4824C78.4964 24.0849 79.558 25.1084 79.558 26.9247C79.558 29.248 77.7022 30.703 74.7505 30.703C71.9889 30.703 70.1243 29.2821 70.0039 27.0361L71.9116 27.0361Z" fill="white"/>
<path d="M83.5805 19.2998V21.4424H85.3069V22.914H83.5805V27.9052C83.5805 28.6806 83.9261 29.042 84.6845 29.042C84.8901 29.0384 85.0941 29.024 85.2981 28.9989V30.4619C84.9565 30.5254 84.6101 30.5542 84.2629 30.5478C82.4245 30.5478 81.7077 29.8593 81.7077 28.1035V22.914H80.3877V21.4424H81.7077V19.2998H83.5805Z" fill="white"/>
<path d="M86.3064 25.9697C86.3064 23.1211 87.9888 21.3311 90.6128 21.3311C93.2448 21.3311 94.92 23.1211 94.92 25.9697C94.92 28.8261 93.2536 30.6083 90.6128 30.6083C87.972 30.6083 86.3064 28.8261 86.3064 25.9697ZM93.0208 25.9697C93.0208 24.0156 92.1224 22.8623 90.6128 22.8623C89.1024 22.8623 88.2056 24.0243 88.2056 25.9697C88.2056 27.9316 89.1024 29.0761 90.6128 29.0761C92.1224 29.0761 93.0208 27.9316 93.0208 25.9697Z" fill="white"/>
<path d="M96.456 21.4424H98.2336V22.9834H98.2768C98.3968 22.5021 98.68 22.0768 99.0776 21.7789C99.4752 21.481 99.964 21.3288 100.461 21.3476C100.675 21.3469 100.89 21.3702 101.099 21.417V23.1552C100.828 23.0727 100.546 23.0348 100.262 23.043C99.9912 23.032 99.7208 23.0796 99.4704 23.1825C99.22 23.2854 98.9952 23.4412 98.8104 23.639C98.6256 23.8369 98.4864 24.0723 98.4016 24.3289C98.3168 24.5856 98.2896 24.8575 98.32 25.126V30.496H96.456V21.4424Z" fill="white"/>
<path d="M109.692 27.8369C109.441 29.4804 107.836 30.6083 105.783 30.6083C103.141 30.6083 101.502 28.8437 101.502 26.0127C101.502 23.1728 103.15 21.3311 105.704 21.3311C108.216 21.3311 109.796 23.0517 109.796 25.7968V26.4335H103.384V26.5459C103.354 26.8791 103.396 27.2147 103.506 27.5306C103.616 27.8464 103.793 28.1351 104.024 28.3777C104.255 28.6203 104.535 28.8111 104.846 28.9373C105.156 29.0636 105.49 29.1226 105.825 29.1103C106.266 29.1515 106.708 29.0497 107.086 28.8203C107.464 28.5908 107.757 28.2459 107.922 27.8368L109.692 27.8369ZM103.392 25.1347H107.931C107.948 24.8351 107.902 24.5353 107.797 24.2541C107.692 23.9729 107.53 23.7163 107.321 23.5006C107.112 23.2848 106.86 23.1145 106.582 23.0003C106.304 22.8861 106.005 22.8304 105.704 22.8369C105.4 22.8351 105.1 22.8932 104.819 23.0079C104.538 23.1227 104.283 23.2918 104.068 23.5054C103.853 23.7191 103.683 23.973 103.567 24.2527C103.451 24.5323 103.392 24.8321 103.392 25.1347Z" fill="white"/>
<path d="M36.8408 11.2534H37.6409C37.7786 11.2705 37.9184 11.259 38.0514 11.2195C38.1845 11.1801 38.3079 11.1136 38.4139 11.0243C38.5198 10.9349 38.6061 10.8246 38.6673 10.7003C38.7284 10.576 38.763 10.4405 38.769 10.3023C38.769 9.75193 38.3538 9.39649 37.6497 9.39649C37.5085 9.37681 37.3649 9.38553 37.2273 9.42217C37.0896 9.45873 36.9607 9.52249 36.8481 9.60961C36.7356 9.69673 36.6417 9.80545 36.572 9.92937C36.5022 10.0533 36.4581 10.1899 36.4422 10.3311H35.5637C35.5789 10.0747 35.6467 9.82425 35.7631 9.59529C35.8795 9.36625 36.0419 9.16361 36.2403 8.99993C36.4386 8.83617 36.6686 8.71497 36.916 8.64377C37.1633 8.57249 37.4228 8.55281 37.6781 8.58593C38.8561 8.58593 39.6857 9.24361 39.6857 10.1904C39.6885 10.5076 39.5821 10.8161 39.3842 11.0645C39.1864 11.3129 38.9091 11.4861 38.5986 11.5551V11.6255C38.9667 11.6418 39.3133 11.8027 39.5626 12.0731C39.8121 12.3435 39.944 12.7013 39.9295 13.0683C39.9023 13.3323 39.8225 13.588 39.6949 13.8208C39.5672 14.0535 39.3942 14.2585 39.1861 14.4237C38.9779 14.589 38.7388 14.7111 38.4827 14.783C38.2266 14.8548 37.9587 14.875 37.6947 14.8423C37.4302 14.8783 37.1611 14.8607 36.9035 14.7907C36.6458 14.7208 36.405 14.5999 36.1953 14.4351C35.9855 14.2703 35.8112 14.0651 35.6827 13.8317C35.5541 13.5983 35.4741 13.3415 35.4473 13.0767H36.3394C36.3933 13.6475 36.9191 14.0156 37.6947 14.0156C38.4704 14.0156 38.9766 13.6021 38.9766 13.0191C38.9766 12.4278 38.4997 12.0635 37.6663 12.0635H36.8408V11.2534Z" fill="white"/>
<path d="M40.9434 13.4244C40.9434 12.6139 41.5495 12.1466 42.6229 12.0802L43.846 12.0099V11.6212C43.846 11.1456 43.5317 10.8771 42.9215 10.8771C42.4241 10.8771 42.0803 11.0592 41.9805 11.3776H41.1177C41.2087 10.6041 41.9393 10.108 42.9637 10.108C44.0958 10.108 44.7342 10.67 44.7342 11.6212V14.6979H43.8754V14.065H43.8049C43.6618 14.292 43.4608 14.4771 43.2225 14.6013C42.9842 14.7255 42.7171 14.7844 42.4486 14.772C42.259 14.7917 42.0674 14.7716 41.8862 14.7128C41.7049 14.6541 41.5379 14.5582 41.3962 14.4312C41.2543 14.3043 41.1407 14.1491 41.0628 13.9756C40.9848 13.8023 40.9441 13.6144 40.9434 13.4244ZM43.846 13.0396V12.6632L42.7433 12.7335C42.1214 12.775 41.8394 12.986 41.8394 13.3829C41.8394 13.7882 42.1919 14.024 42.6767 14.024C42.8188 14.0384 42.9622 14.024 43.0986 13.982C43.235 13.9399 43.3615 13.8708 43.4706 13.779C43.5798 13.6872 43.6692 13.5744 43.7337 13.4474C43.7982 13.3204 43.8364 13.1817 43.846 13.0396Z" fill="white"/>
<path d="M47.0994 10.9431V14.6979H46.2083V10.1951H49.1815V10.9431H47.0994Z" fill="white"/>
<path d="M54.5822 12.4444C54.5822 13.875 53.8565 14.772 52.7166 14.772C52.4367 14.791 52.1573 14.73 51.911 14.596C51.6649 14.462 51.4622 14.2606 51.3269 14.0157H51.2564V16.1949H50.3652V10.1949H51.2231V10.939H51.2897C51.4274 10.6855 51.6327 10.4748 51.883 10.3303C52.1332 10.1858 52.4186 10.1131 52.7078 10.1202C53.8565 10.1201 54.5822 11.0132 54.5822 12.4444ZM53.6655 12.4444C53.6655 11.4932 53.214 10.9185 52.459 10.9185C51.7089 10.9185 51.2398 11.5054 51.2398 12.4483C51.2398 13.3868 51.7089 13.9741 52.455 13.9741C53.214 13.9741 53.6655 13.3994 53.6655 12.4444Z" fill="white"/>
<path d="M55.7689 16.3107V15.5456C55.8654 15.5579 55.9625 15.5634 56.0597 15.5622C56.2496 15.5763 56.4379 15.5199 56.5887 15.4039C56.7394 15.2879 56.8419 15.1205 56.8765 14.9338L56.943 14.7146L55.3086 10.1951H56.2791L57.4112 13.7717H57.4817L58.6098 10.1951H59.5549L57.8715 14.884C57.4856 15.9797 57.0586 16.3312 56.1381 16.3312C56.0637 16.3312 55.8522 16.323 55.7689 16.3107Z" fill="white"/>
<path d="M60.2492 13.4201H61.1365C61.2236 13.8171 61.5968 14.0241 62.1187 14.0241C62.7122 14.0241 63.0765 13.7634 63.0765 13.3581C63.0765 12.9241 62.7494 12.717 62.1187 12.717H61.443V12.0266H62.107C62.6456 12.0266 62.9198 11.8201 62.9198 11.4436C62.9198 11.113 62.6544 10.8606 62.107 10.8606C61.6085 10.8606 61.2442 11.0716 61.1864 11.427H60.3276C60.3918 11.0185 60.6142 10.6516 60.947 10.4049C61.2797 10.1583 61.6962 10.0517 62.107 10.1081C63.1802 10.1081 63.7943 10.5921 63.7943 11.3528C63.7993 11.5646 63.7313 11.7717 63.6014 11.9396C63.4717 12.1073 63.2881 12.2257 63.0814 12.2747V12.345C63.3275 12.3766 63.5534 12.4973 63.7162 12.6841C63.879 12.8709 63.9675 13.1107 63.9647 13.3581C63.9647 14.2141 63.2342 14.7805 62.1187 14.7805C61.1326 14.7805 60.3315 14.3298 60.2492 13.4201Z" fill="white"/>
<path d="M65.2481 14.6979V10.1951H66.1314V13.2922H66.2019L68.2829 10.1951H69.1662V14.6979H68.2829V11.5842H68.2163L66.1314 14.6979H65.2481Z" fill="white"/>
<path d="M74.033 10.9428H72.611V14.6977H71.7189V10.9428H70.2969V10.1948H74.033V10.9428Z" fill="white"/>
<path d="M78.8323 13.482C78.7109 13.8935 78.4483 14.2494 78.0906 14.4875C77.7327 14.7256 77.3024 14.8308 76.8747 14.7847C76.5772 14.7925 76.2815 14.7357 76.0083 14.6182C75.735 14.5006 75.4906 14.3253 75.2922 14.1041C75.0938 13.8829 74.9459 13.6214 74.859 13.3376C74.7721 13.0537 74.7481 12.7545 74.7888 12.4605C74.7492 12.1656 74.7735 11.8657 74.8602 11.581C74.947 11.2963 75.0941 11.0336 75.2914 10.8105C75.4889 10.5874 75.7321 10.4093 76.0046 10.2881C76.277 10.1669 76.5724 10.1054 76.8708 10.108C78.1272 10.108 78.8862 10.964 78.8862 12.378V12.6881H75.6976V12.7378C75.6834 12.9031 75.7042 13.0695 75.7584 13.2264C75.8126 13.3832 75.8991 13.5269 76.0124 13.6485C76.1256 13.7699 76.2631 13.8665 76.416 13.9318C76.5689 13.9971 76.7338 14.0298 76.9002 14.0278C77.1132 14.0533 77.329 14.0149 77.5201 13.9177C77.7112 13.8205 77.869 13.6688 77.9735 13.482H78.8323ZM75.6975 12.0308H77.9774C77.9886 11.8797 77.9681 11.7281 77.917 11.5853C77.866 11.4427 77.7857 11.3122 77.681 11.2024C77.5765 11.0925 77.45 11.0057 77.3098 10.9475C77.1696 10.8893 77.0187 10.8609 76.8669 10.8643C76.7126 10.8622 76.5596 10.8909 76.4168 10.9489C76.2739 11.0068 76.1442 11.0926 76.0352 11.2013C75.9262 11.3101 75.8402 11.4395 75.7822 11.582C75.7242 11.7245 75.6954 11.8771 75.6976 12.0308H75.6975Z" fill="white"/>
<path d="M82.6112 10.1951H84.6472C85.5304 10.1951 86.0488 10.6413 86.0488 11.34C86.0504 11.5618 85.9752 11.7772 85.836 11.9503C85.6976 12.1235 85.5032 12.2438 85.2856 12.2912V12.3615C85.5496 12.3781 85.7968 12.4951 85.9768 12.6883C86.156 12.8815 86.2544 13.1361 86.2512 13.3996C86.2512 14.1852 85.6592 14.6979 84.668 14.6979H82.6112V10.1951ZM83.4944 10.8771V12.0431H84.3784C84.9168 12.0431 85.1744 11.8367 85.1744 11.4558C85.1744 11.1047 84.9496 10.8771 84.4768 10.8771H83.4944ZM83.4944 12.6965V14.0159H84.5512C85.0784 14.0159 85.36 13.7839 85.36 13.3581C85.36 12.9075 85.0408 12.6965 84.44 12.6965H83.4944Z" fill="white"/>
</g>
<defs>
<clipPath id="clip0_80_166">
<rect width="120" height="40" fill="white"/>
</clipPath>
</defs>
</svg>
