<svg width="24" height="24" viewBox="0 0 24 24" fill="none" xmlns="http://www.w3.org/2000/svg">
<path fill-rule="evenodd" clip-rule="evenodd" d="M9.11816 4.99205C8.91833 5.13939 8.75 5.38515 8.75 5.84324V16.733C8.75 17.5594 9.11612 18.1592 9.69062 18.5763C10.2871 19.0094 11.1237 19.2499 12 19.25C12.8763 19.25 13.7129 19.0094 14.3094 18.5763C14.8839 18.1592 15.25 17.5594 15.25 16.733V5.84324H16.75V16.733C16.75 18.0846 16.1161 19.1183 15.1906 19.7902C14.2871 20.4461 13.1237 20.75 12 20.75C10.8763 20.7499 9.71286 20.446 8.80938 19.7901C7.88388 19.1182 7.25 18.0845 7.25 16.733V5.84324C7.25 4.94003 7.62013 4.23292 8.22799 3.78473C8.80809 3.35702 9.53438 3.21492 10.2012 3.25709C10.8701 3.29939 11.5579 3.5309 12.0957 3.9501C12.6443 4.37776 13.0577 5.02391 13.0577 5.84324V15.0998H11.5577V5.84324C11.5577 5.5737 11.4326 5.33507 11.1735 5.13316C10.9036 4.92278 10.5145 4.77991 10.1065 4.7541C9.69638 4.72817 9.34576 4.82423 9.11816 4.99205Z" fill="#3B4048"/>
</svg>
