<svg width="32" height="32" viewBox="0 0 32 32" fill="none" xmlns="http://www.w3.org/2000/svg">
<path d="M25.3839 15.2918C23.7055 14.1944 22.1464 12.9243 20.7326 11.5025C19.2475 10.0275 17.9294 8.39339 16.8022 6.6298C16.7355 6.52084 16.6045 6.46951 16.4815 6.50429C14.49 7.06952 12.3451 8.19899 10.2725 10.2717C8.11988 12.4244 6.98647 14.6542 6.44451 16.7097C6.413 16.8294 6.46248 16.9557 6.56682 17.0223C8.19723 18.1025 9.71369 19.3455 11.0931 20.7318C12.5414 22.1716 13.8316 23.762 14.9415 25.4761C15.0074 25.582 15.1343 25.6329 15.2551 25.602C17.3284 25.0668 19.5827 23.9326 21.7581 21.7571C23.8089 19.7063 24.9348 17.5852 25.506 15.6114L25.506 15.6114C25.5411 15.4895 25.4913 15.3591 25.384 15.2916L25.3839 15.2918ZM15.1836 19.3074C15.0205 19.4707 14.7992 19.5623 14.5684 19.5623C14.3377 19.5623 14.1164 19.4707 13.9532 19.3074L12.7222 18.0766C12.5025 17.8569 12.4168 17.5365 12.4973 17.2364C12.5777 16.9362 12.8121 16.7017 13.1123 16.6212C13.4126 16.5407 13.7328 16.6265 13.9527 16.8462L15.1837 18.077C15.3469 18.2401 15.4386 18.4614 15.4386 18.6922C15.4386 18.923 15.3469 19.1443 15.1837 19.3074L15.1836 19.3074ZM17.2343 17.256C17.0713 17.4193 16.8499 17.511 16.6191 17.511C16.3884 17.511 16.1671 17.4193 16.0039 17.256L14.7735 16.0253C14.5537 15.8055 14.4679 15.4852 14.5483 15.1849C14.6288 14.8847 14.8633 14.6501 15.1635 14.5697C15.4637 14.4892 15.7841 14.5751 16.0039 14.7949L17.2343 16.0257C17.3976 16.1888 17.4892 16.4101 17.4892 16.6409C17.4892 16.8716 17.3976 17.093 17.2343 17.256V17.256ZM19.2856 15.2053C19.1225 15.3685 18.9012 15.4602 18.6704 15.4602C18.4397 15.4602 18.2184 15.3685 18.0552 15.2053L16.8242 13.9745V13.9746C16.6045 13.7548 16.5186 13.4344 16.5991 13.1341C16.6795 12.8338 16.914 12.5994 17.2143 12.5189C17.5145 12.4384 17.8349 12.5243 18.0547 12.744L19.2857 13.9748H19.2856C19.4489 14.138 19.5406 14.3593 19.5406 14.59C19.5406 14.8208 19.4489 15.0422 19.2856 15.2053L19.2856 15.2053ZM25.9239 13.3917C25.9123 13.4931 25.8486 13.5811 25.756 13.6239C25.6632 13.6667 25.5549 13.658 25.4702 13.6011C24.1377 12.667 22.8905 11.6167 21.7436 10.4623C20.5275 9.25462 19.4286 7.93455 18.4612 6.52002C18.4054 6.43492 18.3979 6.32688 18.4415 6.23488C18.485 6.14289 18.5732 6.08013 18.6743 6.06929C20.7533 5.85674 22.8531 6.13482 24.8048 6.88119C24.9484 6.93823 25.0622 7.05198 25.1192 7.19556C25.8731 9.16835 26.1489 11.2918 25.9239 13.3918L25.9239 13.3917ZM13.2164 25.5071C13.2741 25.5928 13.282 25.7026 13.2373 25.7958C13.1926 25.8889 13.1019 25.9513 12.9989 25.96C11.0263 26.1131 9.04428 25.8257 7.19642 25.1185C7.05284 25.0614 6.93909 24.9477 6.88205 24.8041C6.16754 22.9379 5.88141 20.935 6.04456 18.9432C6.05355 18.8399 6.11673 18.749 6.21048 18.7048C6.30432 18.6604 6.41463 18.6692 6.50015 18.7279C7.7672 19.6311 8.95579 20.6396 10.0531 21.7426C11.2181 22.9002 12.2769 24.16 13.2165 25.507L13.2164 25.5071Z" fill="#EDEEF6"/>
</svg>
