<svg width="1440" height="720" viewBox="0 0 1440 720" fill="none" xmlns="http://www.w3.org/2000/svg">
<g style="mix-blend-mode:screen" opacity="0.6" filter="url(#filter0_f_132_276)">
<path d="M806.974 674C808.001 650.946 778.98 554.65 648.369 499.321C487.283 431.083 204.274 400.071 176.136 156.222C-71.4558 89.0468 -4.45457 340.972 115.683 447.019C211.793 531.856 690.944 638.651 806.974 674Z" fill="url(#paint0_radial_132_276)"/>
</g>
<g opacity="0.7" filter="url(#filter1_f_132_276)">
<path d="M1124.21 90.0626C887.149 142.354 728.317 116.208 550.52 59.1631C467.548 34.6959 488.884 120.962 550.52 242.183C612.156 363.405 868.184 422.827 1019.9 453.726C1171.62 484.626 1083.91 287.344 1195.33 258.822C1306.75 230.299 1415.8 432.334 1437.14 337.259C1458.47 242.183 1361.27 37.7711 1124.21 90.0626Z" fill="url(#paint1_radial_132_276)"/>
</g>
<defs>
<filter id="filter0_f_132_276" x="-72" y="65" width="959" height="689" filterUnits="userSpaceOnUse" color-interpolation-filters="sRGB">
<feFlood flood-opacity="0" result="BackgroundImageFix"/>
<feBlend mode="normal" in="SourceGraphic" in2="BackgroundImageFix" result="shape"/>
<feGaussianBlur stdDeviation="40" result="effect1_foregroundBlur_132_276"/>
</filter>
<filter id="filter1_f_132_276" x="416" y="-25" width="1104" height="562" filterUnits="userSpaceOnUse" color-interpolation-filters="sRGB">
<feFlood flood-opacity="0" result="BackgroundImageFix"/>
<feBlend mode="normal" in="SourceGraphic" in2="BackgroundImageFix" result="shape"/>
<feGaussianBlur stdDeviation="40" result="effect1_foregroundBlur_132_276"/>
</filter>
<radialGradient id="paint0_radial_132_276" cx="0" cy="0" r="1" gradientUnits="userSpaceOnUse" gradientTransform="translate(312.357 369.874) rotate(90) scale(224.874 299.821)">
<stop stop-color="#525F8C"/>
<stop offset="0.557292" stop-color="#1D254E"/>
<stop offset="1" stop-color="#06081C"/>
</radialGradient>
<radialGradient id="paint1_radial_132_276" cx="0" cy="0" r="1" gradientUnits="userSpaceOnUse" gradientTransform="translate(994.863 230.836) rotate(90) scale(175.836 491.428)">
<stop stop-color="#525F8C"/>
<stop offset="0.557292" stop-color="#1D254E"/>
<stop offset="1" stop-color="#06081C"/>
</radialGradient>
</defs>
</svg>
