<svg width="32" height="32" viewBox="0 0 32 32" fill="none" xmlns="http://www.w3.org/2000/svg">
<path d="M23.5001 23.1499C23.6501 21.6499 23.7001 19.8997 23.4001 18.2997C22.9501 15.8997 21.9001 14.9997 21.0501 14.2997C20.5001 13.8497 20.1001 13.4997 19.8501 12.7997C22.2501 13.2497 24.5002 14.1497 26.3501 15.3997C26.3501 15.5997 26.4001 15.7497 26.4001 15.9497C26.4001 18.7999 25.3001 21.2996 23.5001 23.1497V23.1499ZM9.55023 18.4997C9.90023 16.4497 10.7502 15.7499 11.5502 15.0997C12.2502 14.5497 12.9502 13.9497 13.2002 12.6497C13.9502 12.5497 14.7002 12.4997 15.5002 12.4997V26.3997C13.3002 26.2997 11.2501 25.4997 9.6501 24.2497C9.4001 22.6497 9.2001 20.4497 9.5501 18.4999L9.55023 18.4997ZM16.5001 11.4997V5.6496C18.3001 5.7496 19.9502 6.2996 21.4001 7.1496C20.4501 7.8996 18.7501 9.5496 18.7001 11.6496C18.0001 11.5496 17.2501 11.4996 16.5001 11.4996V11.4997ZM15.5001 11.4997C14.7501 11.4997 14.0001 11.5497 13.3001 11.6497C13.2501 9.54973 11.5501 7.89986 10.6001 7.14973C12.0501 6.24973 13.7001 5.69973 15.5001 5.64973V11.4997ZM16.5001 12.4997C17.3001 12.4997 18.0501 12.5497 18.8001 12.6497C19.0501 13.9497 19.7501 14.4997 20.4501 15.0997C21.2501 15.7497 22.1001 16.4497 22.4501 18.4997C22.8001 20.4497 22.6001 22.6496 22.3501 24.1997C20.7001 25.4997 18.7 26.2497 16.5 26.3497L16.5001 12.4997ZM26.2001 14.1497C24.3001 12.9997 22.0502 12.1997 19.6502 11.7997C19.6502 9.84973 21.5002 8.29973 22.2502 7.7496C24.3002 9.2996 25.7502 11.5496 26.2001 14.1496V14.1497ZM9.7001 7.74973C10.4501 8.29973 12.3001 9.84973 12.3001 11.7999C9.9001 12.1999 7.7001 12.9999 5.75023 14.1499C6.25023 11.5499 7.70023 9.29973 9.7001 7.74986V7.74973ZM5.6001 15.9999C5.6001 15.7999 5.6001 15.6499 5.6501 15.4499C7.5001 14.1999 9.70023 13.2999 12.1501 12.8499C11.9001 13.4999 11.5001 13.8999 10.9501 14.3499C10.1001 15.0499 9.0501 15.8999 8.6001 18.3499C8.3001 19.9499 8.3501 21.7499 8.5001 23.2C6.7001 21.3 5.6001 18.8 5.6001 16V15.9999Z" fill="#EDEEF6"/>
</svg>
