<svg width="32" height="32" viewBox="0 0 32 32" fill="none" xmlns="http://www.w3.org/2000/svg">
<path d="M3.20001 9.59998H5.33345V28.8H3.20001V9.59998Z" fill="#EDEEF6"/>
<path d="M26.6667 9.59998H28.8001V28.8H26.6667V9.59998Z" fill="#EDEEF6"/>
<path d="M25.6 13.8666V11.7335H6.40002V13.8666H8.53346V16.0001H6.40002V18.1335H8.53346V20.2666H6.40002V22.4001H25.6V20.2666H23.4666V18.1335H25.6V16.0001H23.4666V13.8666H25.6ZM14.9334 16.0001V13.8666H17.0665V16.0001H14.9334ZM17.0665 18.1335V20.2666H14.9334V18.1335H17.0665ZM10.6665 13.8666H12.7999V16H10.6665V13.8666ZM10.6665 18.1335H12.7999V20.2666H10.6665V18.1335ZM21.3334 20.2666H19.2V18.1335H21.3334V20.2666ZM21.3334 16H19.2V13.8665H21.3334V16Z" fill="#EDEEF6"/>
<path d="M24.5334 6.39995C24.5334 8.16723 23.1006 9.59995 21.3334 9.59995C19.5661 9.59995 18.1334 8.16723 18.1334 6.39995C18.1334 4.63267 19.5661 3.19995 21.3334 3.19995C23.1006 3.19995 24.5334 4.63267 24.5334 6.39995Z" fill="#EDEEF6"/>
</svg>
