<svg width="30" height="30" viewBox="0 0 30 30" fill="none" xmlns="http://www.w3.org/2000/svg">
<g filter="url(#filter0_biii_78_708)">
<path d="M15 30C23.2843 30 30 23.2843 30 15C30 6.71573 23.2843 0 15 0C6.71573 0 0 6.71573 0 15C0 23.2843 6.71573 30 15 30Z" fill="#C9981B" fill-opacity="0.14"/>
</g>
<circle cx="15" cy="15" r="12" fill="#C9981B"/>
<path d="M20.9047 9.74663L16.4804 6.96178L14.9538 6L14.5432 6.26016L13.4293 6.96178L13.054 7.19829L11.9008 7.92554L10.278 8.94645L9.12476 9.67371L7.5 10.6946V18.115L7.50393 18.1169V19.3034L13.4352 23.0382L14.9617 24L16.4862 23.0382L22.5 19.2502V10.7518L20.9047 9.74663ZM20.9047 18.3357L14.9617 22.0784L9.12279 18.4027V11.5953L10.276 10.87V17.9198L11.8988 18.9408V9.84714L13.0521 9.12186V19.668L14.6749 20.6889V8.09898L14.9538 7.92357L15.3507 8.17387V20.5746L16.0717 20.1686L16.9735 19.601V15.8366H20.9028V18.3357H20.9047ZM20.9047 14.2087H16.9754V9.19479L20.9047 11.6682V14.2087Z" fill="white"/>
<defs>
<filter id="filter0_biii_78_708" x="-14" y="-14" width="58" height="58" filterUnits="userSpaceOnUse" color-interpolation-filters="sRGB">
<feFlood flood-opacity="0" result="BackgroundImageFix"/>
<feGaussianBlur in="BackgroundImage" stdDeviation="7"/>
<feComposite in2="SourceAlpha" operator="in" result="effect1_backgroundBlur_78_708"/>
<feBlend mode="normal" in="SourceGraphic" in2="effect1_backgroundBlur_78_708" result="shape"/>
<feColorMatrix in="SourceAlpha" type="matrix" values="0 0 0 0 0 0 0 0 0 0 0 0 0 0 0 0 0 0 127 0" result="hardAlpha"/>
<feOffset dy="-3"/>
<feGaussianBlur stdDeviation="1.5"/>
<feComposite in2="hardAlpha" operator="arithmetic" k2="-1" k3="1"/>
<feColorMatrix type="matrix" values="0 0 0 0 1 0 0 0 0 1 0 0 0 0 1 0 0 0 0.08 0"/>
<feBlend mode="normal" in2="shape" result="effect2_innerShadow_78_708"/>
<feColorMatrix in="SourceAlpha" type="matrix" values="0 0 0 0 0 0 0 0 0 0 0 0 0 0 0 0 0 0 127 0" result="hardAlpha"/>
<feOffset dy="4"/>
<feGaussianBlur stdDeviation="2"/>
<feComposite in2="hardAlpha" operator="arithmetic" k2="-1" k3="1"/>
<feColorMatrix type="matrix" values="0 0 0 0 1 0 0 0 0 1 0 0 0 0 1 0 0 0 0.1 0"/>
<feBlend mode="normal" in2="effect2_innerShadow_78_708" result="effect3_innerShadow_78_708"/>
<feColorMatrix in="SourceAlpha" type="matrix" values="0 0 0 0 0 0 0 0 0 0 0 0 0 0 0 0 0 0 127 0" result="hardAlpha"/>
<feOffset dy="-1"/>
<feGaussianBlur stdDeviation="0.5"/>
<feComposite in2="hardAlpha" operator="arithmetic" k2="-1" k3="1"/>
<feColorMatrix type="matrix" values="0 0 0 0 1 0 0 0 0 1 0 0 0 0 1 0 0 0 0.15 0"/>
<feBlend mode="normal" in2="effect3_innerShadow_78_708" result="effect4_innerShadow_78_708"/>
</filter>
</defs>
</svg>
