<?xml version="1.0" encoding="UTF-8"?>
<!DOCTYPE svg PUBLIC "-//W3C//DTD SVG 1.1//EN" "http://www.w3.org/Graphics/SVG/1.1/DTD/svg11.dtd">
<!-- Creator: CorelDRAW 2020 (64-Bit) -->
<svg xmlns="http://www.w3.org/2000/svg" xml:space="preserve" width="34.7097in" height="29.8in" version="1.1" style="shape-rendering:geometricPrecision; text-rendering:geometricPrecision; image-rendering:optimizeQuality; fill-rule:evenodd; clip-rule:evenodd"
viewBox="0 0 28858.83 24776.71"
 xmlns:xlink="http://www.w3.org/1999/xlink"
 xmlns:xodm="http://www.corel.com/coreldraw/odm/2003">
 <defs>
  <style type="text/css">
   <![CDATA[
    .fil0 {fill:white;fill-rule:nonzero}
   ]]>
  </style>
 </defs>
 <g id="Layer_x0020_1">
  <metadata id="CorelCorpID_0Corel-Layer"/>
  <path class="fil0" d="M16228.62 17896.38c0,-406.15 329.42,-735.57 735.57,-735.57 406.15,0 735.57,329.42 735.57,735.57l0 2367.04c0,406.15 -329.42,735.57 -735.57,735.57 -406.15,0 -735.57,-329.42 -735.57,-735.57l0 -2367.04zm5069.77 -17160.81c0,-406.15 329.42,-735.57 735.57,-735.57 406.15,0 735.57,329.42 735.57,735.57l0 1242.21 1087.93 0 0.21 0 64.01 0.42 0.42 0 63.8 1.25 0.42 0 63.59 2.09 0.42 0 63.18 2.71 0.63 0 62.97 3.75 0.63 0 62.76 4.38 0.63 0 62.55 5.21 0.63 0 62.13 6.05 0.83 0 61.92 6.88 0.83 0 61.51 7.72 1.04 0 61.3 8.34 1.04 0 60.88 9.17 1.25 0 60.47 9.8c1048.94,174.93 1990.29,678.23 2712.73,1400.67 750.37,750.37 1264.94,1736.76 1419.85,2835.32l0 1.25 8.34 61.09 0 1.25 7.72 61.3 0 1.04 6.88 61.71 0 1.04 6.05 61.92 0 0.83 5.21 62.34 0 0.83 4.38 62.55 0 0.83 3.75 62.76 0 0.83 2.71 62.97 0 0.63 2.09 63.38 0 0.63 1.25 63.59 0 0.63 0.42 63.8 0 0.42 0 1081.67 0 11714.71c0,1375.86 -562.73,2626.62 -1468.64,3532.53 -905.91,905.91 -2156.67,1468.64 -3532.53,1468.64l-18856.5 0c-1375.86,0 -2626.62,-562.73 -3532.53,-1468.64 -905.91,-905.91 -1468.64,-2156.67 -1468.64,-3532.53l0 -11714.71 0 -1081.67 0 -0.42 0.42 -64.01 0 -0.42 1.25 -63.8 0 -0.42 2.09 -63.59 0 -0.42 2.71 -63.38 0 -0.42 3.75 -63.17 0 -0.42 4.38 -63.18 0 -0.21 5.21 -62.96 0 -0.21 6.05 -62.76 0 -0.21 6.88 -62.55 0 -0.21 7.72 -62.34 0 -0.21 8.34 -62.13 0 -0.21 9.17 -61.71 0 -0.42 9.8 -61.51 0 -0.21 10.63 -61.3 0 -0.21 11.47 -61.09 0 -0.21c11.89,-61.09 24.6,-121.97 38.78,-182.22l0 -0.21 14.38 -60.05 0 -0.21c14.81,-60.05 30.65,-119.67 47.54,-178.68l0 -0.42 17.3 -58.8 0 -0.21 17.93 -58.59 0 -0.21c18.35,-58.59 37.95,-116.55 58.17,-174.3l0 -0.21c27.1,-76.93 56.5,-152.83 87.15,-228.09l0 -0.21 47.54 -111.96 0 -0.21 24.81 -55.25 0 -0.21 25.44 -55.04 0 -0.21c34.4,-73.18 70.47,-145.53 108.21,-216.83l0 -0.21c28.36,-53.38 57.76,-106.33 87.78,-158.66l0 -0.21c100.7,-174.3 211.62,-342.14 331.72,-502.68l0 -0.21c144.28,-192.44 301.69,-374.46 471.82,-544.59l6.46 -6.05c654.26,-651.76 1487.2,-1125.25 2417.08,-1337.5l43.57 -9.8 16.06 -3.34c79.64,-17.1 160.12,-32.53 241.02,-45.87l49.41 -7.92 11.47 -1.67 50.46 -7.51 10.84 -1.46 51.5 -6.88 9.8 -1.25 52.75 -6.46 8.76 -0.83 123.84 -12.51 56.3 -4.8 5.84 -0.42 57.76 -3.96 4.8 -0.42 58.8 -3.34 3.75 -0.21 60.05 -2.5 2.92 -0.21 61.09 -1.88 1.88 0 62.34 -1.25 0.83 0 63.38 -0.42 0.21 0 1087.93 0 0 -1242.21c0,-406.15 329.42,-735.57 735.57,-735.57 406.15,0 735.57,329.42 735.57,735.57l0 1242.21 6133.3 0 0 -1242.21c0,-406.15 329.42,-735.57 735.57,-735.57 406.15,0 735.57,329.42 735.57,735.57l0 1242.21 6133.51 0 0 -1242.21zm1471.14 2713.36l0 1242c0,406.15 -329.42,735.57 -735.57,735.57 -406.15,0 -735.57,-329.42 -735.57,-735.57l0 -1242 -6133.51 0 0 1242c0,406.15 -329.42,735.57 -735.57,735.57 -406.15,0 -735.57,-329.42 -735.57,-735.57l0 -1242 -6133.3 0 0 1242c0,406.15 -329.42,735.57 -735.57,735.57 -406.15,0 -735.57,-329.42 -735.57,-735.57l0 -1242 -1087.93 0 -0.21 0 -44.62 0.21 -0.63 0 -43.99 0.83 -1.25 0.21 -43.16 1.25 -1.88 0 -42.32 1.88 -2.71 0.21 -41.49 2.29 -3.54 0.42 -40.45 2.71 -4.17 0.42 -39.82 3.13 -4.8 0.42 -38.78 3.75 -5.63 0.63 -37.94 3.96 -6.26 0.83 -37.11 4.38 -7.09 1.04 -87.57 12.3 -34.61 5.42 -8.97 1.67c-739.53,123.85 -1403.8,479.54 -1913.78,989.52 -189.94,189.94 -358.61,401.35 -501.85,629.86l0 0.21c-22.52,36.07 -44.62,72.56 -65.89,109.46l0 0.21c-35.44,61.51 -69.22,124.05 -101.12,187.85l0 0.21 -37.32 76.93 0 0.21c-18.14,38.78 -35.65,77.77 -52.54,117.38l0 0.21 -32.73 79.43 0 0.21 -15.64 39.82 0 0.21 -29.81 80.9 0 0.21 -14.18 40.45 0 0.42 -26.89 81.94 0 0.21 -12.72 41.28 0 0.21c-12.51,41.49 -24.18,83.19 -35.02,125.51l0 0.21 -10.64 42.12 0 0.21 -10.22 42.32 0 0.21 -9.59 42.32 0 0.42 -9.17 42.53 0 0.21 -8.55 42.95 0 0.21 -8.13 42.95 0 0.21 -7.51 43.16 0 0.42 -7.09 43.16 0 0.42 -6.46 43.37 0 0.42 -5.84 43.58 0 0.21 -5.42 43.78 0 0.42 -4.8 43.99 0 0.21 -4.38 44.2 0 0.21 -3.55 44.2 0 0.42 -3.13 44.41 0 0.21 -2.71 44.62 0 0.42 -2.09 44.62 0 0.42 -1.25 44.62 0 0.42 -1.04 44.83 0 0.42 -0.21 45.03 0 0.42 0 346.1 25916.55 0 0 -346.1 0 -0.42 -0.21 -45.03 0 -0.42 -1.04 -44.83 0 -0.42 -1.25 -44.83 0 -0.21 -2.09 -44.83 0 -0.21 -2.71 -44.83 -3.13 -44.62 0 -0.21 -3.55 -44.41 -4.38 -44.41 -4.8 -44.41 -5.42 -43.99 0 -0.21 -5.84 -43.78 0 -0.21 -6.46 -43.57 0 -0.21 -14.59 -86.73 0 -0.21c-129.89,-722.44 -482.25,-1370.23 -982.01,-1869.99 -419.7,-419.7 -944.07,-735.36 -1528.89,-902.78l-0.63 0 -41.28 -11.68 -0.63 0c-97.79,-26.48 -197.45,-49 -298.36,-67.35l-0.42 0 -86.52 -14.59 -0.42 0 -43.37 -6.46 -0.42 0 -43.57 -5.84 -0.42 0 -43.78 -5.42 -0.21 0 -44.2 -4.8 -0.21 0 -44.2 -4.38 -0.21 0 -44.41 -3.55 -44.62 -3.13 -0.21 0 -44.83 -2.71 -45.03 -2.09 -45.03 -1.25 -0.21 0 -45.03 -1.04 -0.21 0 -45.24 -0.21 -0.21 0 -1087.93 0zm4618.16 5347.48l-25916.55 0 0 10979.14c0,969.92 397.6,1852.69 1037.47,2492.56 639.87,639.87 1522.64,1037.47 2492.56,1037.47l18856.5 0c969.92,0 1852.69,-397.6 2492.56,-1037.47 639.87,-639.87 1037.47,-1522.64 1037.47,-2492.56l0 -10979.14zm-16228.62 2587.42c0,-406.15 329.42,-735.57 735.57,-735.57 406.15,0 735.57,329.42 735.57,735.57l0 2367.04c0,406.15 -329.42,735.57 -735.57,735.57 -406.15,0 -735.57,-329.42 -735.57,-735.57l0 -2367.04zm10139.32 0c0,-406.15 329.42,-735.57 735.57,-735.57 406.15,0 735.57,329.42 735.57,735.57l0 2367.04c0,406.15 -329.42,735.57 -735.57,735.57 -406.15,0 -735.57,-329.42 -735.57,-735.57l0 -2367.04zm-15209.08 0c0,-406.15 329.42,-735.57 735.57,-735.57 406.15,0 735.57,329.42 735.57,735.57l0 2367.04c0,406.15 -329.42,735.57 -735.57,735.57 -406.15,0 -735.57,-329.42 -735.57,-735.57l0 -2367.04zm10139.32 0c0,-406.15 329.42,-735.57 735.57,-735.57 406.15,0 735.57,329.42 735.57,735.57l0 2367.04c0,406.15 -329.42,735.57 -735.57,735.57 -406.15,0 -735.57,-329.42 -735.57,-735.57l0 -2367.04zm-5069.56 6512.55c0,-406.15 329.42,-735.57 735.57,-735.57 406.15,0 735.57,329.42 735.57,735.57l0 2367.04c0,406.15 -329.42,735.57 -735.57,735.57 -406.15,0 -735.57,-329.42 -735.57,-735.57l0 -2367.04zm-5069.76 0c0,-406.15 329.42,-735.57 735.57,-735.57 406.15,0 735.57,329.42 735.57,735.57l0 2367.04c0,406.15 -329.42,735.57 -735.57,735.57 -406.15,0 -735.57,-329.42 -735.57,-735.57l0 -2367.04z"/>
 </g>
</svg>
