<svg width="24" height="24" viewBox="0 0 24 24" fill="none" xmlns="http://www.w3.org/2000/svg">
<path d="M21.4874 4.98756C22.1708 4.30412 22.1708 3.19603 21.4874 2.51258C20.804 1.82914 19.6959 1.82914 19.0124 2.51258L12 9.52501L4.98758 2.51259C4.30414 1.82914 3.19605 1.82914 2.51261 2.51259C1.82916 3.19603 1.82916 4.30412 2.51261 4.98756L9.52502 12L2.51258 19.0124C1.82914 19.6959 1.82914 20.804 2.51258 21.4874C3.19603 22.1709 4.30411 22.1709 4.98756 21.4874L12 14.475L19.0124 21.4874C19.6959 22.1709 20.804 22.1709 21.4874 21.4874C22.1709 20.804 22.1709 19.6959 21.4874 19.0124L14.475 12L21.4874 4.98756Z" fill="#E00C0C"/>
</svg>
