<svg xmlns="http://www.w3.org/2000/svg" width="32" height="32" viewBox="0 0 32 32" fill="none">
<path transform="translate(5, 5)" d="M10.5716 1.68154C10.7659 1.35863 11.2341 1.35863 11.4284 1.68154L14.3031 6.45823C14.5125 6.80625 14.8541 7.05445 15.2498 7.1461L20.6811 8.40398C21.0482 8.48902 21.1929 8.93425 20.9458 9.21886L17.2912 13.4289C17.025 13.7356 16.8945 14.1372 16.9296 14.5419L17.4116 20.096C17.4442 20.4715 17.0655 20.7466 16.7185 20.5996L11.5851 18.4249C11.2111 18.2664 10.7889 18.2664 10.4149 18.4249L5.28155 20.5996C4.93453 20.7466 4.55579 20.4715 4.58837 20.096L5.0704 14.5419C5.10552 14.1372 4.97503 13.7356 4.70877 13.4289L1.05418 9.21886C0.807122 8.93425 0.951788 8.48902 1.31894 8.40398L6.75017 7.1461C7.14588 7.05446 7.4875 6.80625 7.69694 6.45823L10.5716 1.68154Z" fill="#EDEEF6" stroke="#EDEEF6"/>
</svg>