<svg width="32" height="32" viewBox="0 0 32 32" fill="none" xmlns="http://www.w3.org/2000/svg">
<path d="M8.92746 8.9377C5.02418 12.8386 5.02418 19.1734 8.92746 23.0743C12.8307 26.9752 19.1693 26.9752 23.0725 23.0743C26.9758 19.1734 26.9758 12.8386 23.0725 8.9377C19.1533 5.02077 12.8307 5.02077 8.92746 8.9377ZM10.1694 24.0898L7.89518 21.8169C8.52419 21.1883 9.54032 21.1883 10.1694 21.8169C10.7985 22.4456 10.7984 23.4611 10.1694 24.0898ZM17.6049 21.4784C17.6049 22.3649 16.879 23.0903 15.992 23.0903C15.1049 23.0903 14.3791 22.3649 14.3791 21.4784C14.3791 20.5918 15.1049 19.8664 15.992 19.8664C16.879 19.8664 17.6049 20.5918 17.6049 21.4784ZM12.121 15.9978C12.121 16.8844 11.3952 17.6098 10.5081 17.6098C9.62106 17.6098 8.89525 16.8844 8.89525 15.9978C8.89525 15.1113 9.62106 14.3859 10.5081 14.3859C11.3952 14.3859 12.121 15.1113 12.121 15.9978ZM21.8145 24.0896C21.1855 23.461 21.1855 22.4454 21.8145 21.8167C22.4436 21.188 23.4597 21.1881 24.0888 21.8167L21.8145 24.0896ZM17.1371 17.1423C16.5081 17.7709 15.4919 17.7709 14.8629 17.1423C14.2338 16.5136 14.2338 15.4981 14.8629 14.8694C15.4919 14.2407 16.508 14.2408 17.1371 14.8694C17.7661 15.4819 17.7661 16.5136 17.1371 17.1423ZM10.1694 10.1787C9.54037 10.8074 8.52425 10.8074 7.89518 10.1787L10.1694 7.90589C10.7984 8.53453 10.7984 9.55005 10.1694 10.1787ZM23.0887 15.9978C23.0887 16.8844 22.3629 17.6098 21.4758 17.6098C20.5887 17.6098 19.8629 16.8844 19.8629 15.9978C19.8629 15.1113 20.5887 14.3859 21.4758 14.3859C22.3629 14.3859 23.0887 15.1113 23.0887 15.9978ZM17.6049 10.5173C17.6049 11.4038 16.879 12.1292 15.992 12.1292C15.1049 12.1292 14.3791 11.4038 14.3791 10.5173C14.3791 9.63074 15.1049 8.90537 15.992 8.90537C16.879 8.90537 17.6049 9.63074 17.6049 10.5173ZM21.8145 10.1788C21.1855 9.55014 21.1855 8.53462 21.8145 7.90593L24.0888 10.1788C23.4597 10.8074 22.4436 10.8074 21.8145 10.1788Z" fill="#EDEEF6" stroke="#EDEEF6" stroke-width="0.5"/>
</svg>
