<svg width="18" height="18" viewBox="0 0 18 18" fill="none" xmlns="http://www.w3.org/2000/svg">
<path d="M8.99999 1.125C4.66875 1.125 1.125 4.67508 1.125 9.04744C1.125 13.0008 4.00725 16.282 7.77149 16.875V11.3404H5.77124V9.04744H7.77149V7.30008C7.77149 5.31551 8.94487 4.2244 10.7482 4.2244C11.6066 4.2244 12.5044 4.37462 12.5044 4.37462V6.32756H11.5121C10.5356 6.32756 10.2285 6.93637 10.2285 7.56099V9.04744H12.4177L12.0634 11.3404H10.2285V16.875C12.0842 16.5808 13.774 15.6301 14.9928 14.1947C16.2116 12.7593 16.8792 10.9337 16.875 9.04744C16.875 4.67508 13.3312 1.125 8.99999 1.125Z" fill="black"/>
</svg>
