<svg width="18" height="18" viewBox="0 0 18 18" fill="none" xmlns="http://www.w3.org/2000/svg">
<path d="M5.48243 4.34473C7.99623 4.34473 10.0338 6.42036 10.0338 8.98051C10.0338 11.5407 7.99604 13.6162 5.48243 13.6162C2.96895 13.6162 0.93103 11.5407 0.93103 8.98051C0.93103 6.42042 2.96876 4.34473 5.48243 4.34473ZM12.7508 4.61626C14.0077 4.61626 15.0266 6.57003 15.0266 8.98051H15.0268C15.0268 11.3904 14.0079 13.3448 12.7511 13.3448C11.4941 13.3448 10.4753 11.3904 10.4753 8.98051C10.4753 6.57066 11.494 4.61626 12.7509 4.61626H12.7508ZM16.2686 5.07087C16.7105 5.07087 17.069 6.82128 17.069 8.98058C17.069 11.1392 16.7106 12.8903 16.2686 12.8903C15.8265 12.8903 15.4683 11.1397 15.4683 8.98058C15.4683 6.82141 15.8267 5.07087 16.2686 5.07087Z" fill="black"/>
</svg>
