<svg width="18" height="18" viewBox="0 0 18 18" fill="none" xmlns="http://www.w3.org/2000/svg">
<path d="M5.64 1H12.36C14.92 1 17 3.08 17 5.64V12.36C17 13.5906 16.5111 14.7708 15.641 15.641C14.7708 16.5111 13.5906 17 12.36 17H5.64C3.08 17 1 14.92 1 12.36V5.64C1 4.4094 1.48886 3.22919 2.35902 2.35902C3.22919 1.48886 4.4094 1 5.64 1ZM5.48 2.6C4.71618 2.6 3.98364 2.90343 3.44353 3.44353C2.90343 3.98364 2.6 4.71618 2.6 5.48V12.52C2.6 14.112 3.888 15.4 5.48 15.4H12.52C13.2838 15.4 14.0164 15.0966 14.5565 14.5565C15.0966 14.0164 15.4 13.2838 15.4 12.52V5.48C15.4 3.888 14.112 2.6 12.52 2.6H5.48ZM13.2 3.8C13.4652 3.8 13.7196 3.90536 13.9071 4.09289C14.0946 4.28043 14.2 4.53478 14.2 4.8C14.2 5.06522 14.0946 5.31957 13.9071 5.50711C13.7196 5.69464 13.4652 5.8 13.2 5.8C12.9348 5.8 12.6804 5.69464 12.4929 5.50711C12.3054 5.31957 12.2 5.06522 12.2 4.8C12.2 4.53478 12.3054 4.28043 12.4929 4.09289C12.6804 3.90536 12.9348 3.8 13.2 3.8ZM9 5C10.0609 5 11.0783 5.42143 11.8284 6.17157C12.5786 6.92172 13 7.93913 13 9C13 10.0609 12.5786 11.0783 11.8284 11.8284C11.0783 12.5786 10.0609 13 9 13C7.93913 13 6.92172 12.5786 6.17157 11.8284C5.42143 11.0783 5 10.0609 5 9C5 7.93913 5.42143 6.92172 6.17157 6.17157C6.92172 5.42143 7.93913 5 9 5ZM9 6.6C8.36348 6.6 7.75303 6.85286 7.30294 7.30294C6.85286 7.75303 6.6 8.36348 6.6 9C6.6 9.63652 6.85286 10.247 7.30294 10.6971C7.75303 11.1471 8.36348 11.4 9 11.4C9.63652 11.4 10.247 11.1471 10.6971 10.6971C11.1471 10.247 11.4 9.63652 11.4 9C11.4 8.36348 11.1471 7.75303 10.6971 7.30294C10.247 6.85286 9.63652 6.6 9 6.6Z" fill="black"/>
</svg>
