<svg width="18" height="18" viewBox="0 0 18 18" fill="none" xmlns="http://www.w3.org/2000/svg">
<path d="M16.845 4.5C16.2675 4.7625 15.645 4.935 15 5.0175C15.66 4.62 16.17 3.99 16.41 3.2325C15.7875 3.6075 15.0975 3.87 14.37 4.02C13.7775 3.375 12.945 3 12 3C10.2375 3 8.79747 4.44 8.79747 6.2175C8.79747 6.4725 8.82747 6.72 8.87997 6.9525C6.20997 6.8175 3.83247 5.535 2.24997 3.5925C1.97247 4.065 1.81497 4.62 1.81497 5.205C1.81497 6.3225 2.37747 7.3125 3.24747 7.875C2.71497 7.875 2.21997 7.725 1.78497 7.5V7.5225C1.78497 9.0825 2.89497 10.3875 4.36497 10.68C3.89301 10.8092 3.39754 10.8271 2.91747 10.7325C3.12117 11.3719 3.52012 11.9313 4.05823 12.3322C4.59634 12.7331 5.24655 12.9553 5.91747 12.9675C4.78019 13.8678 3.37047 14.3545 1.91997 14.3475C1.66497 14.3475 1.40997 14.3325 1.15497 14.3025C2.57997 15.2175 4.27497 15.75 6.08997 15.75C12 15.75 15.2475 10.845 15.2475 6.5925C15.2475 6.45 15.2475 6.315 15.24 6.1725C15.87 5.7225 16.41 5.1525 16.845 4.5Z" fill="black"/>
</svg>
