<svg width="32" height="32" viewBox="0 0 32 32" fill="none" xmlns="http://www.w3.org/2000/svg">
<path d="M26.9709 15.2103C26.5589 9.48488 21.7445 5 16.0105 5C15.7454 5 15.476 5.0097 15.2103 5.029C12.2799 5.23993 9.607 6.57934 7.68423 8.8006C5.76135 11.022 4.81798 13.8593 5.02909 16.7897C5.44114 22.5147 10.2555 27 15.9895 27C16.2546 27 16.524 26.9903 16.7897 26.971C19.7201 26.7601 22.393 25.4204 24.3158 23.199C26.2386 20.9776 27.182 18.1405 26.9709 15.2103ZM18.2272 25.2375C18.2632 24.0097 18.7866 22.8082 19.7552 21.9468L18.3112 19.9595C17.6319 20.357 16.8438 20.5887 16.0001 20.5887C15.1562 20.5887 14.3681 20.357 13.6889 19.9595L12.2449 21.9468C13.2136 22.8085 13.737 24.0097 13.7729 25.2375C11.3173 24.6418 9.21502 23.0809 7.91062 20.9704C9.08748 20.628 10.3885 20.7557 11.5046 21.4091L12.9492 19.4209C12.0076 18.5805 11.4113 17.3612 11.4113 15.9999C11.4113 15.6648 11.4494 15.3388 11.5176 15.0242L9.18382 14.2659C8.66426 15.4524 7.68219 16.3153 6.5267 16.7296C6.5255 16.7138 6.52318 16.6979 6.52198 16.6821C6.34153 14.175 7.13998 11.7473 8.76942 9.83682C9.4612 10.8511 9.74361 12.1302 9.46652 13.3958L11.8005 14.1541C12.4527 12.6723 13.8637 11.6004 15.5426 11.4339V8.98118C14.2518 8.8535 13.1216 8.18864 12.3708 7.21528C13.2978 6.83334 14.2887 6.59547 15.3179 6.52168C15.5477 6.50495 15.7809 6.4968 16.0106 6.4968C17.2855 6.4968 18.5069 6.75518 19.6252 7.22087C18.8742 8.19122 17.746 8.85375 16.4576 8.98119V11.4339C18.1368 11.5999 19.5473 12.6723 20.1997 14.1541L22.5337 13.3958C22.2575 12.1337 22.5372 10.8583 23.2246 9.84561C24.5004 11.3397 25.3282 13.2328 25.4782 15.3175C25.5124 15.7923 25.5116 16.2642 25.4765 16.7304C24.3199 16.3168 23.3366 15.4534 22.8165 14.2657L20.4827 15.024C20.5509 15.3386 20.589 15.6646 20.589 15.9997C20.589 17.3611 19.9927 18.5804 19.0511 19.4207L20.4957 21.4089C21.6145 20.754 22.9184 20.6274 24.0974 20.9725C23.8288 21.4074 23.5257 21.8251 23.1845 22.2194C21.8682 23.7398 20.1449 24.7797 18.2274 25.2377L18.2272 25.2375Z" fill="#EDEEF6"/>
</svg>
