<svg width="200" height="200" viewBox="0 0 200 200" fill="none" xmlns="http://www.w3.org/2000/svg">
<path d="M200 0H0V200H200V0Z" fill="white"/>
<path d="M9.80603 3.125H3.125V9.80603H9.80603V3.125Z" fill="black"/>
<path d="M16.4871 3.125H9.80603V9.80603H16.4871V3.125Z" fill="black"/>
<path d="M23.1681 3.125H16.4871V9.80603H23.1681V3.125Z" fill="black"/>
<path d="M29.8491 3.125H23.1681V9.80603H29.8491V3.125Z" fill="black"/>
<path d="M36.5302 3.125H29.8491V9.80603H36.5302V3.125Z" fill="black"/>
<path d="M43.2112 3.125H36.5302V9.80603H43.2112V3.125Z" fill="black"/>
<path d="M49.8922 3.125H43.2112V9.80603H49.8922V3.125Z" fill="black"/>
<path d="M63.2543 3.125H56.5733V9.80603H63.2543V3.125Z" fill="black"/>
<path d="M69.9353 3.125H63.2543V9.80603H69.9353V3.125Z" fill="black"/>
<path d="M76.6164 3.125H69.9353V9.80603H76.6164V3.125Z" fill="black"/>
<path d="M96.6595 3.125H89.9784V9.80603H96.6595V3.125Z" fill="black"/>
<path d="M103.341 3.125H96.6595V9.80603H103.341V3.125Z" fill="black"/>
<path d="M123.384 3.125H116.703V9.80603H123.384V3.125Z" fill="black"/>
<path d="M130.065 3.125H123.384V9.80603H130.065V3.125Z" fill="black"/>
<path d="M136.746 3.125H130.065V9.80603H136.746V3.125Z" fill="black"/>
<path d="M143.427 3.125H136.746V9.80603H143.427V3.125Z" fill="black"/>
<path d="M156.789 3.125H150.108V9.80603H156.789V3.125Z" fill="black"/>
<path d="M163.47 3.125H156.789V9.80603H163.47V3.125Z" fill="black"/>
<path d="M170.151 3.125H163.47V9.80603H170.151V3.125Z" fill="black"/>
<path d="M176.832 3.125H170.151V9.80603H176.832V3.125Z" fill="black"/>
<path d="M183.513 3.125H176.832V9.80603H183.513V3.125Z" fill="black"/>
<path d="M190.194 3.125H183.513V9.80603H190.194V3.125Z" fill="black"/>
<path d="M196.875 3.125H190.194V9.80603H196.875V3.125Z" fill="black"/>
<path d="M9.80603 9.80603H3.125V16.4871H9.80603V9.80603Z" fill="black"/>
<path d="M49.8922 9.80603H43.2112V16.4871H49.8922V9.80603Z" fill="black"/>
<path d="M76.6164 9.80603H69.9353V16.4871H76.6164V9.80603Z" fill="black"/>
<path d="M103.341 9.80603H96.6595V16.4871H103.341V9.80603Z" fill="black"/>
<path d="M110.022 9.80603H103.341V16.4871H110.022V9.80603Z" fill="black"/>
<path d="M130.065 9.80603H123.384V16.4871H130.065V9.80603Z" fill="black"/>
<path d="M136.746 9.80603H130.065V16.4871H136.746V9.80603Z" fill="black"/>
<path d="M143.427 9.80603H136.746V16.4871H143.427V9.80603Z" fill="black"/>
<path d="M156.789 9.80603H150.108V16.4871H156.789V9.80603Z" fill="black"/>
<path d="M196.875 9.80603H190.194V16.4871H196.875V9.80603Z" fill="black"/>
<path d="M9.80603 16.4871H3.125V23.1681H9.80603V16.4871Z" fill="black"/>
<path d="M23.1681 16.4871H16.4871V23.1681H23.1681V16.4871Z" fill="black"/>
<path d="M29.8491 16.4871H23.1681V23.1681H29.8491V16.4871Z" fill="black"/>
<path d="M36.5302 16.4871H29.8491V23.1681H36.5302V16.4871Z" fill="black"/>
<path d="M49.8922 16.4871H43.2112V23.1681H49.8922V16.4871Z" fill="black"/>
<path d="M89.9784 16.4871H83.2974V23.1681H89.9784V16.4871Z" fill="black"/>
<path d="M110.022 16.4871H103.341V23.1681H110.022V16.4871Z" fill="black"/>
<path d="M123.384 16.4871H116.703V23.1681H123.384V16.4871Z" fill="black"/>
<path d="M136.746 16.4871H130.065V23.1681H136.746V16.4871Z" fill="black"/>
<path d="M156.789 16.4871H150.108V23.1681H156.789V16.4871Z" fill="black"/>
<path d="M170.151 16.4871H163.47V23.1681H170.151V16.4871Z" fill="black"/>
<path d="M176.832 16.4871H170.151V23.1681H176.832V16.4871Z" fill="black"/>
<path d="M183.513 16.4871H176.832V23.1681H183.513V16.4871Z" fill="black"/>
<path d="M196.875 16.4871H190.194V23.1681H196.875V16.4871Z" fill="black"/>
<path d="M9.80603 23.1681H3.125V29.8491H9.80603V23.1681Z" fill="black"/>
<path d="M23.1681 23.1681H16.4871V29.8491H23.1681V23.1681Z" fill="black"/>
<path d="M29.8491 23.1681H23.1681V29.8491H29.8491V23.1681Z" fill="black"/>
<path d="M36.5302 23.1681H29.8491V29.8491H36.5302V23.1681Z" fill="black"/>
<path d="M49.8922 23.1681H43.2112V29.8491H49.8922V23.1681Z" fill="black"/>
<path d="M63.2543 23.1681H56.5733V29.8491H63.2543V23.1681Z" fill="black"/>
<path d="M103.341 23.1681H96.6595V29.8491H103.341V23.1681Z" fill="black"/>
<path d="M110.022 23.1681H103.341V29.8491H110.022V23.1681Z" fill="black"/>
<path d="M116.703 23.1681H110.022V29.8491H116.703V23.1681Z" fill="black"/>
<path d="M123.384 23.1681H116.703V29.8491H123.384V23.1681Z" fill="black"/>
<path d="M156.789 23.1681H150.108V29.8491H156.789V23.1681Z" fill="black"/>
<path d="M170.151 23.1681H163.47V29.8491H170.151V23.1681Z" fill="black"/>
<path d="M176.832 23.1681H170.151V29.8491H176.832V23.1681Z" fill="black"/>
<path d="M183.513 23.1681H176.832V29.8491H183.513V23.1681Z" fill="black"/>
<path d="M196.875 23.1681H190.194V29.8491H196.875V23.1681Z" fill="black"/>
<path d="M9.80603 29.8491H3.125V36.5302H9.80603V29.8491Z" fill="black"/>
<path d="M23.1681 29.8491H16.4871V36.5302H23.1681V29.8491Z" fill="black"/>
<path d="M29.8491 29.8491H23.1681V36.5302H29.8491V29.8491Z" fill="black"/>
<path d="M36.5302 29.8491H29.8491V36.5302H36.5302V29.8491Z" fill="black"/>
<path d="M49.8922 29.8491H43.2112V36.5302H49.8922V29.8491Z" fill="black"/>
<path d="M63.2543 29.8491H56.5733V36.5302H63.2543V29.8491Z" fill="black"/>
<path d="M69.9353 29.8491H63.2543V36.5302H69.9353V29.8491Z" fill="black"/>
<path d="M89.9784 29.8491H83.2974V36.5302H89.9784V29.8491Z" fill="black"/>
<path d="M103.341 29.8491H96.6595V36.5302H103.341V29.8491Z" fill="black"/>
<path d="M116.703 29.8491H110.022V36.5302H116.703V29.8491Z" fill="black"/>
<path d="M123.384 29.8491H116.703V36.5302H123.384V29.8491Z" fill="black"/>
<path d="M143.427 29.8491H136.746V36.5302H143.427V29.8491Z" fill="black"/>
<path d="M156.789 29.8491H150.108V36.5302H156.789V29.8491Z" fill="black"/>
<path d="M170.151 29.8491H163.47V36.5302H170.151V29.8491Z" fill="black"/>
<path d="M176.832 29.8491H170.151V36.5302H176.832V29.8491Z" fill="black"/>
<path d="M183.513 29.8491H176.832V36.5302H183.513V29.8491Z" fill="black"/>
<path d="M196.875 29.8491H190.194V36.5302H196.875V29.8491Z" fill="black"/>
<path d="M9.80603 36.5302H3.125V43.2112H9.80603V36.5302Z" fill="black"/>
<path d="M49.8922 36.5302H43.2112V43.2112H49.8922V36.5302Z" fill="black"/>
<path d="M63.2543 36.5302H56.5733V43.2112H63.2543V36.5302Z" fill="black"/>
<path d="M96.6595 36.5302H89.9784V43.2112H96.6595V36.5302Z" fill="black"/>
<path d="M110.022 36.5302H103.341V43.2112H110.022V36.5302Z" fill="black"/>
<path d="M123.384 36.5302H116.703V43.2112H123.384V36.5302Z" fill="black"/>
<path d="M130.065 36.5302H123.384V43.2112H130.065V36.5302Z" fill="black"/>
<path d="M136.746 36.5302H130.065V43.2112H136.746V36.5302Z" fill="black"/>
<path d="M143.427 36.5302H136.746V43.2112H143.427V36.5302Z" fill="black"/>
<path d="M156.789 36.5302H150.108V43.2112H156.789V36.5302Z" fill="black"/>
<path d="M196.875 36.5302H190.194V43.2112H196.875V36.5302Z" fill="black"/>
<path d="M9.80603 43.2112H3.125V49.8922H9.80603V43.2112Z" fill="black"/>
<path d="M16.4871 43.2112H9.80603V49.8922H16.4871V43.2112Z" fill="black"/>
<path d="M23.1681 43.2112H16.4871V49.8922H23.1681V43.2112Z" fill="black"/>
<path d="M29.8491 43.2112H23.1681V49.8922H29.8491V43.2112Z" fill="black"/>
<path d="M36.5302 43.2112H29.8491V49.8922H36.5302V43.2112Z" fill="black"/>
<path d="M43.2112 43.2112H36.5302V49.8922H43.2112V43.2112Z" fill="black"/>
<path d="M49.8922 43.2112H43.2112V49.8922H49.8922V43.2112Z" fill="black"/>
<path d="M63.2543 43.2112H56.5733V49.8922H63.2543V43.2112Z" fill="black"/>
<path d="M76.6164 43.2112H69.9353V49.8922H76.6164V43.2112Z" fill="black"/>
<path d="M89.9784 43.2112H83.2974V49.8922H89.9784V43.2112Z" fill="black"/>
<path d="M103.341 43.2112H96.6595V49.8922H103.341V43.2112Z" fill="black"/>
<path d="M116.703 43.2112H110.022V49.8922H116.703V43.2112Z" fill="black"/>
<path d="M130.065 43.2112H123.384V49.8922H130.065V43.2112Z" fill="black"/>
<path d="M143.427 43.2112H136.746V49.8922H143.427V43.2112Z" fill="black"/>
<path d="M156.789 43.2112H150.108V49.8922H156.789V43.2112Z" fill="black"/>
<path d="M163.47 43.2112H156.789V49.8922H163.47V43.2112Z" fill="black"/>
<path d="M170.151 43.2112H163.47V49.8922H170.151V43.2112Z" fill="black"/>
<path d="M176.832 43.2112H170.151V49.8922H176.832V43.2112Z" fill="black"/>
<path d="M183.513 43.2112H176.832V49.8922H183.513V43.2112Z" fill="black"/>
<path d="M190.194 43.2112H183.513V49.8922H190.194V43.2112Z" fill="black"/>
<path d="M196.875 43.2112H190.194V49.8922H196.875V43.2112Z" fill="black"/>
<path d="M63.2543 49.8922H56.5733V56.5733H63.2543V49.8922Z" fill="black"/>
<path d="M76.6164 49.8922H69.9353V56.5733H76.6164V49.8922Z" fill="black"/>
<path d="M89.9784 49.8922H83.2974V56.5733H89.9784V49.8922Z" fill="black"/>
<path d="M103.341 49.8922H96.6595V56.5733H103.341V49.8922Z" fill="black"/>
<path d="M116.703 49.8922H110.022V56.5733H116.703V49.8922Z" fill="black"/>
<path d="M123.384 49.8922H116.703V56.5733H123.384V49.8922Z" fill="black"/>
<path d="M130.065 49.8922H123.384V56.5733H130.065V49.8922Z" fill="black"/>
<path d="M136.746 49.8922H130.065V56.5733H136.746V49.8922Z" fill="black"/>
<path d="M143.427 49.8922H136.746V56.5733H143.427V49.8922Z" fill="black"/>
<path d="M9.80603 56.5733H3.125V63.2543H9.80603V56.5733Z" fill="black"/>
<path d="M16.4871 56.5733H9.80603V63.2543H16.4871V56.5733Z" fill="black"/>
<path d="M23.1681 56.5733H16.4871V63.2543H23.1681V56.5733Z" fill="black"/>
<path d="M36.5302 56.5733H29.8491V63.2543H36.5302V56.5733Z" fill="black"/>
<path d="M49.8922 56.5733H43.2112V63.2543H49.8922V56.5733Z" fill="black"/>
<path d="M63.2543 56.5733H56.5733V63.2543H63.2543V56.5733Z" fill="black"/>
<path d="M76.6164 56.5733H69.9353V63.2543H76.6164V56.5733Z" fill="black"/>
<path d="M83.2974 56.5733H76.6164V63.2543H83.2974V56.5733Z" fill="black"/>
<path d="M103.341 56.5733H96.6595V63.2543H103.341V56.5733Z" fill="black"/>
<path d="M116.703 56.5733H110.022V63.2543H116.703V56.5733Z" fill="black"/>
<path d="M123.384 56.5733H116.703V63.2543H123.384V56.5733Z" fill="black"/>
<path d="M136.746 56.5733H130.065V63.2543H136.746V56.5733Z" fill="black"/>
<path d="M143.427 56.5733H136.746V63.2543H143.427V56.5733Z" fill="black"/>
<path d="M150.108 56.5733H143.427V63.2543H150.108V56.5733Z" fill="black"/>
<path d="M156.789 56.5733H150.108V63.2543H156.789V56.5733Z" fill="black"/>
<path d="M163.47 56.5733H156.789V63.2543H163.47V56.5733Z" fill="black"/>
<path d="M170.151 56.5733H163.47V63.2543H170.151V56.5733Z" fill="black"/>
<path d="M176.832 56.5733H170.151V63.2543H176.832V56.5733Z" fill="black"/>
<path d="M196.875 56.5733H190.194V63.2543H196.875V56.5733Z" fill="black"/>
<path d="M16.4871 63.2543H9.80603V69.9353H16.4871V63.2543Z" fill="black"/>
<path d="M36.5302 63.2543H29.8491V69.9353H36.5302V63.2543Z" fill="black"/>
<path d="M63.2543 63.2543H56.5733V69.9353H63.2543V63.2543Z" fill="black"/>
<path d="M83.2974 63.2543H76.6164V69.9353H83.2974V63.2543Z" fill="black"/>
<path d="M89.9784 63.2543H83.2974V69.9353H89.9784V63.2543Z" fill="black"/>
<path d="M96.6595 63.2543H89.9784V69.9353H96.6595V63.2543Z" fill="black"/>
<path d="M110.022 63.2543H103.341V69.9353H110.022V63.2543Z" fill="black"/>
<path d="M116.703 63.2543H110.022V69.9353H116.703V63.2543Z" fill="black"/>
<path d="M123.384 63.2543H116.703V69.9353H123.384V63.2543Z" fill="black"/>
<path d="M150.108 63.2543H143.427V69.9353H150.108V63.2543Z" fill="black"/>
<path d="M163.47 63.2543H156.789V69.9353H163.47V63.2543Z" fill="black"/>
<path d="M183.513 63.2543H176.832V69.9353H183.513V63.2543Z" fill="black"/>
<path d="M196.875 63.2543H190.194V69.9353H196.875V63.2543Z" fill="black"/>
<path d="M23.1681 69.9353H16.4871V76.6164H23.1681V69.9353Z" fill="black"/>
<path d="M29.8491 69.9353H23.1681V76.6164H29.8491V69.9353Z" fill="black"/>
<path d="M36.5302 69.9353H29.8491V76.6164H36.5302V69.9353Z" fill="black"/>
<path d="M43.2112 69.9353H36.5302V76.6164H43.2112V69.9353Z" fill="black"/>
<path d="M49.8922 69.9353H43.2112V76.6164H49.8922V69.9353Z" fill="black"/>
<path d="M63.2543 69.9353H56.5733V76.6164H63.2543V69.9353Z" fill="black"/>
<path d="M83.2974 69.9353H76.6164V76.6164H83.2974V69.9353Z" fill="black"/>
<path d="M89.9784 69.9353H83.2974V76.6164H89.9784V69.9353Z" fill="black"/>
<path d="M96.6595 69.9353H89.9784V76.6164H96.6595V69.9353Z" fill="black"/>
<path d="M123.384 69.9353H116.703V76.6164H123.384V69.9353Z" fill="black"/>
<path d="M136.746 69.9353H130.065V76.6164H136.746V69.9353Z" fill="black"/>
<path d="M150.108 69.9353H143.427V76.6164H150.108V69.9353Z" fill="black"/>
<path d="M170.151 69.9353H163.47V76.6164H170.151V69.9353Z" fill="black"/>
<path d="M183.513 69.9353H176.832V76.6164H183.513V69.9353Z" fill="black"/>
<path d="M9.80603 76.6164H3.125V83.2974H9.80603V76.6164Z" fill="black"/>
<path d="M23.1681 76.6164H16.4871V83.2974H23.1681V76.6164Z" fill="black"/>
<path d="M29.8491 76.6164H23.1681V83.2974H29.8491V76.6164Z" fill="black"/>
<path d="M36.5302 76.6164H29.8491V83.2974H36.5302V76.6164Z" fill="black"/>
<path d="M63.2543 76.6164H56.5733V83.2974H63.2543V76.6164Z" fill="black"/>
<path d="M76.6164 76.6164H69.9353V83.2974H76.6164V76.6164Z" fill="black"/>
<path d="M110.022 76.6164H103.341V83.2974H110.022V76.6164Z" fill="black"/>
<path d="M123.384 76.6164H116.703V83.2974H123.384V76.6164Z" fill="black"/>
<path d="M130.065 76.6164H123.384V83.2974H130.065V76.6164Z" fill="black"/>
<path d="M136.746 76.6164H130.065V83.2974H136.746V76.6164Z" fill="black"/>
<path d="M143.427 76.6164H136.746V83.2974H143.427V76.6164Z" fill="black"/>
<path d="M176.832 76.6164H170.151V83.2974H176.832V76.6164Z" fill="black"/>
<path d="M190.194 76.6164H183.513V83.2974H190.194V76.6164Z" fill="black"/>
<path d="M16.4871 83.2974H9.80603V89.9784H16.4871V83.2974Z" fill="black"/>
<path d="M29.8491 83.2974H23.1681V89.9784H29.8491V83.2974Z" fill="black"/>
<path d="M49.8922 83.2974H43.2112V89.9784H49.8922V83.2974Z" fill="black"/>
<path d="M69.9353 83.2974H63.2543V89.9784H69.9353V83.2974Z" fill="black"/>
<path d="M76.6164 83.2974H69.9353V89.9784H76.6164V83.2974Z" fill="black"/>
<path d="M83.2974 83.2974H76.6164V89.9784H83.2974V83.2974Z" fill="black"/>
<path d="M110.022 83.2974H103.341V89.9784H110.022V83.2974Z" fill="black"/>
<path d="M116.703 83.2974H110.022V89.9784H116.703V83.2974Z" fill="black"/>
<path d="M123.384 83.2974H116.703V89.9784H123.384V83.2974Z" fill="black"/>
<path d="M156.789 83.2974H150.108V89.9784H156.789V83.2974Z" fill="black"/>
<path d="M163.47 83.2974H156.789V89.9784H163.47V83.2974Z" fill="black"/>
<path d="M176.832 83.2974H170.151V89.9784H176.832V83.2974Z" fill="black"/>
<path d="M183.513 83.2974H176.832V89.9784H183.513V83.2974Z" fill="black"/>
<path d="M190.194 83.2974H183.513V89.9784H190.194V83.2974Z" fill="black"/>
<path d="M16.4871 89.9784H9.80603V96.6595H16.4871V89.9784Z" fill="black"/>
<path d="M23.1681 89.9784H16.4871V96.6595H23.1681V89.9784Z" fill="black"/>
<path d="M29.8491 89.9784H23.1681V96.6595H29.8491V89.9784Z" fill="black"/>
<path d="M43.2112 89.9784H36.5302V96.6595H43.2112V89.9784Z" fill="black"/>
<path d="M56.5733 89.9784H49.8922V96.6595H56.5733V89.9784Z" fill="black"/>
<path d="M63.2543 89.9784H56.5733V96.6595H63.2543V89.9784Z" fill="black"/>
<path d="M69.9353 89.9784H63.2543V96.6595H69.9353V89.9784Z" fill="black"/>
<path d="M76.6164 89.9784H69.9353V96.6595H76.6164V89.9784Z" fill="black"/>
<path d="M83.2974 89.9784H76.6164V96.6595H83.2974V89.9784Z" fill="black"/>
<path d="M89.9784 89.9784H83.2974V96.6595H89.9784V89.9784Z" fill="black"/>
<path d="M96.6595 89.9784H89.9784V96.6595H96.6595V89.9784Z" fill="black"/>
<path d="M103.341 89.9784H96.6595V96.6595H103.341V89.9784Z" fill="black"/>
<path d="M123.384 89.9784H116.703V96.6595H123.384V89.9784Z" fill="black"/>
<path d="M143.427 89.9784H136.746V96.6595H143.427V89.9784Z" fill="black"/>
<path d="M170.151 89.9784H163.47V96.6595H170.151V89.9784Z" fill="black"/>
<path d="M176.832 89.9784H170.151V96.6595H176.832V89.9784Z" fill="black"/>
<path d="M190.194 89.9784H183.513V96.6595H190.194V89.9784Z" fill="black"/>
<path d="M196.875 89.9784H190.194V96.6595H196.875V89.9784Z" fill="black"/>
<path d="M9.80603 96.6595H3.125V103.341H9.80603V96.6595Z" fill="black"/>
<path d="M16.4871 96.6595H9.80603V103.341H16.4871V96.6595Z" fill="black"/>
<path d="M23.1681 96.6595H16.4871V103.341H23.1681V96.6595Z" fill="black"/>
<path d="M49.8922 96.6595H43.2112V103.341H49.8922V96.6595Z" fill="black"/>
<path d="M56.5733 96.6595H49.8922V103.341H56.5733V96.6595Z" fill="black"/>
<path d="M69.9353 96.6595H63.2543V103.341H69.9353V96.6595Z" fill="black"/>
<path d="M96.6595 96.6595H89.9784V103.341H96.6595V96.6595Z" fill="black"/>
<path d="M116.703 96.6595H110.022V103.341H116.703V96.6595Z" fill="black"/>
<path d="M123.384 96.6595H116.703V103.341H123.384V96.6595Z" fill="black"/>
<path d="M136.746 96.6595H130.065V103.341H136.746V96.6595Z" fill="black"/>
<path d="M143.427 96.6595H136.746V103.341H143.427V96.6595Z" fill="black"/>
<path d="M150.108 96.6595H143.427V103.341H150.108V96.6595Z" fill="black"/>
<path d="M156.789 96.6595H150.108V103.341H156.789V96.6595Z" fill="black"/>
<path d="M163.47 96.6595H156.789V103.341H163.47V96.6595Z" fill="black"/>
<path d="M170.151 96.6595H163.47V103.341H170.151V96.6595Z" fill="black"/>
<path d="M183.513 96.6595H176.832V103.341H183.513V96.6595Z" fill="black"/>
<path d="M190.194 96.6595H183.513V103.341H190.194V96.6595Z" fill="black"/>
<path d="M196.875 96.6595H190.194V103.341H196.875V96.6595Z" fill="black"/>
<path d="M23.1681 103.341H16.4871V110.022H23.1681V103.341Z" fill="black"/>
<path d="M69.9353 103.341H63.2543V110.022H69.9353V103.341Z" fill="black"/>
<path d="M76.6164 103.341H69.9353V110.022H76.6164V103.341Z" fill="black"/>
<path d="M83.2974 103.341H76.6164V110.022H83.2974V103.341Z" fill="black"/>
<path d="M89.9784 103.341H83.2974V110.022H89.9784V103.341Z" fill="black"/>
<path d="M96.6595 103.341H89.9784V110.022H96.6595V103.341Z" fill="black"/>
<path d="M103.341 103.341H96.6595V110.022H103.341V103.341Z" fill="black"/>
<path d="M110.022 103.341H103.341V110.022H110.022V103.341Z" fill="black"/>
<path d="M123.384 103.341H116.703V110.022H123.384V103.341Z" fill="black"/>
<path d="M130.065 103.341H123.384V110.022H130.065V103.341Z" fill="black"/>
<path d="M150.108 103.341H143.427V110.022H150.108V103.341Z" fill="black"/>
<path d="M156.789 103.341H150.108V110.022H156.789V103.341Z" fill="black"/>
<path d="M163.47 103.341H156.789V110.022H163.47V103.341Z" fill="black"/>
<path d="M170.151 103.341H163.47V110.022H170.151V103.341Z" fill="black"/>
<path d="M176.832 103.341H170.151V110.022H176.832V103.341Z" fill="black"/>
<path d="M183.513 103.341H176.832V110.022H183.513V103.341Z" fill="black"/>
<path d="M196.875 103.341H190.194V110.022H196.875V103.341Z" fill="black"/>
<path d="M16.4871 110.022H9.80603V116.703H16.4871V110.022Z" fill="black"/>
<path d="M23.1681 110.022H16.4871V116.703H23.1681V110.022Z" fill="black"/>
<path d="M29.8491 110.022H23.1681V116.703H29.8491V110.022Z" fill="black"/>
<path d="M36.5302 110.022H29.8491V116.703H36.5302V110.022Z" fill="black"/>
<path d="M43.2112 110.022H36.5302V116.703H43.2112V110.022Z" fill="black"/>
<path d="M49.8922 110.022H43.2112V116.703H49.8922V110.022Z" fill="black"/>
<path d="M56.5733 110.022H49.8922V116.703H56.5733V110.022Z" fill="black"/>
<path d="M63.2543 110.022H56.5733V116.703H63.2543V110.022Z" fill="black"/>
<path d="M76.6164 110.022H69.9353V116.703H76.6164V110.022Z" fill="black"/>
<path d="M83.2974 110.022H76.6164V116.703H83.2974V110.022Z" fill="black"/>
<path d="M89.9784 110.022H83.2974V116.703H89.9784V110.022Z" fill="black"/>
<path d="M96.6595 110.022H89.9784V116.703H96.6595V110.022Z" fill="black"/>
<path d="M103.341 110.022H96.6595V116.703H103.341V110.022Z" fill="black"/>
<path d="M143.427 110.022H136.746V116.703H143.427V110.022Z" fill="black"/>
<path d="M156.789 110.022H150.108V116.703H156.789V110.022Z" fill="black"/>
<path d="M163.47 110.022H156.789V116.703H163.47V110.022Z" fill="black"/>
<path d="M176.832 110.022H170.151V116.703H176.832V110.022Z" fill="black"/>
<path d="M16.4871 116.703H9.80603V123.384H16.4871V116.703Z" fill="black"/>
<path d="M36.5302 116.703H29.8491V123.384H36.5302V116.703Z" fill="black"/>
<path d="M43.2112 116.703H36.5302V123.384H43.2112V116.703Z" fill="black"/>
<path d="M63.2543 116.703H56.5733V123.384H63.2543V116.703Z" fill="black"/>
<path d="M76.6164 116.703H69.9353V123.384H76.6164V116.703Z" fill="black"/>
<path d="M83.2974 116.703H76.6164V123.384H83.2974V116.703Z" fill="black"/>
<path d="M96.6595 116.703H89.9784V123.384H96.6595V116.703Z" fill="black"/>
<path d="M123.384 116.703H116.703V123.384H123.384V116.703Z" fill="black"/>
<path d="M130.065 116.703H123.384V123.384H130.065V116.703Z" fill="black"/>
<path d="M143.427 116.703H136.746V123.384H143.427V116.703Z" fill="black"/>
<path d="M150.108 116.703H143.427V123.384H150.108V116.703Z" fill="black"/>
<path d="M163.47 116.703H156.789V123.384H163.47V116.703Z" fill="black"/>
<path d="M9.80603 123.384H3.125V130.065H9.80603V123.384Z" fill="black"/>
<path d="M36.5302 123.384H29.8491V130.065H36.5302V123.384Z" fill="black"/>
<path d="M43.2112 123.384H36.5302V130.065H43.2112V123.384Z" fill="black"/>
<path d="M49.8922 123.384H43.2112V130.065H49.8922V123.384Z" fill="black"/>
<path d="M56.5733 123.384H49.8922V130.065H56.5733V123.384Z" fill="black"/>
<path d="M69.9353 123.384H63.2543V130.065H69.9353V123.384Z" fill="black"/>
<path d="M83.2974 123.384H76.6164V130.065H83.2974V123.384Z" fill="black"/>
<path d="M96.6595 123.384H89.9784V130.065H96.6595V123.384Z" fill="black"/>
<path d="M103.341 123.384H96.6595V130.065H103.341V123.384Z" fill="black"/>
<path d="M123.384 123.384H116.703V130.065H123.384V123.384Z" fill="black"/>
<path d="M130.065 123.384H123.384V130.065H130.065V123.384Z" fill="black"/>
<path d="M150.108 123.384H143.427V130.065H150.108V123.384Z" fill="black"/>
<path d="M163.47 123.384H156.789V130.065H163.47V123.384Z" fill="black"/>
<path d="M176.832 123.384H170.151V130.065H176.832V123.384Z" fill="black"/>
<path d="M183.513 123.384H176.832V130.065H183.513V123.384Z" fill="black"/>
<path d="M16.4871 130.065H9.80603V136.746H16.4871V130.065Z" fill="black"/>
<path d="M23.1681 130.065H16.4871V136.746H23.1681V130.065Z" fill="black"/>
<path d="M36.5302 130.065H29.8491V136.746H36.5302V130.065Z" fill="black"/>
<path d="M56.5733 130.065H49.8922V136.746H56.5733V130.065Z" fill="black"/>
<path d="M63.2543 130.065H56.5733V136.746H63.2543V130.065Z" fill="black"/>
<path d="M69.9353 130.065H63.2543V136.746H69.9353V130.065Z" fill="black"/>
<path d="M89.9784 130.065H83.2974V136.746H89.9784V130.065Z" fill="black"/>
<path d="M103.341 130.065H96.6595V136.746H103.341V130.065Z" fill="black"/>
<path d="M110.022 130.065H103.341V136.746H110.022V130.065Z" fill="black"/>
<path d="M116.703 130.065H110.022V136.746H116.703V130.065Z" fill="black"/>
<path d="M123.384 130.065H116.703V136.746H123.384V130.065Z" fill="black"/>
<path d="M130.065 130.065H123.384V136.746H130.065V130.065Z" fill="black"/>
<path d="M156.789 130.065H150.108V136.746H156.789V130.065Z" fill="black"/>
<path d="M163.47 130.065H156.789V136.746H163.47V130.065Z" fill="black"/>
<path d="M170.151 130.065H163.47V136.746H170.151V130.065Z" fill="black"/>
<path d="M196.875 130.065H190.194V136.746H196.875V130.065Z" fill="black"/>
<path d="M9.80603 136.746H3.125V143.427H9.80603V136.746Z" fill="black"/>
<path d="M16.4871 136.746H9.80603V143.427H16.4871V136.746Z" fill="black"/>
<path d="M49.8922 136.746H43.2112V143.427H49.8922V136.746Z" fill="black"/>
<path d="M56.5733 136.746H49.8922V143.427H56.5733V136.746Z" fill="black"/>
<path d="M63.2543 136.746H56.5733V143.427H63.2543V136.746Z" fill="black"/>
<path d="M89.9784 136.746H83.2974V143.427H89.9784V136.746Z" fill="black"/>
<path d="M116.703 136.746H110.022V143.427H116.703V136.746Z" fill="black"/>
<path d="M130.065 136.746H123.384V143.427H130.065V136.746Z" fill="black"/>
<path d="M143.427 136.746H136.746V143.427H143.427V136.746Z" fill="black"/>
<path d="M150.108 136.746H143.427V143.427H150.108V136.746Z" fill="black"/>
<path d="M156.789 136.746H150.108V143.427H156.789V136.746Z" fill="black"/>
<path d="M163.47 136.746H156.789V143.427H163.47V136.746Z" fill="black"/>
<path d="M170.151 136.746H163.47V143.427H170.151V136.746Z" fill="black"/>
<path d="M183.513 136.746H176.832V143.427H183.513V136.746Z" fill="black"/>
<path d="M196.875 136.746H190.194V143.427H196.875V136.746Z" fill="black"/>
<path d="M63.2543 143.427H56.5733V150.108H63.2543V143.427Z" fill="black"/>
<path d="M103.341 143.427H96.6595V150.108H103.341V143.427Z" fill="black"/>
<path d="M110.022 143.427H103.341V150.108H110.022V143.427Z" fill="black"/>
<path d="M123.384 143.427H116.703V150.108H123.384V143.427Z" fill="black"/>
<path d="M143.427 143.427H136.746V150.108H143.427V143.427Z" fill="black"/>
<path d="M170.151 143.427H163.47V150.108H170.151V143.427Z" fill="black"/>
<path d="M176.832 143.427H170.151V150.108H176.832V143.427Z" fill="black"/>
<path d="M183.513 143.427H176.832V150.108H183.513V143.427Z" fill="black"/>
<path d="M9.80603 150.108H3.125V156.789H9.80603V150.108Z" fill="black"/>
<path d="M16.4871 150.108H9.80603V156.789H16.4871V150.108Z" fill="black"/>
<path d="M23.1681 150.108H16.4871V156.789H23.1681V150.108Z" fill="black"/>
<path d="M29.8491 150.108H23.1681V156.789H29.8491V150.108Z" fill="black"/>
<path d="M36.5302 150.108H29.8491V156.789H36.5302V150.108Z" fill="black"/>
<path d="M43.2112 150.108H36.5302V156.789H43.2112V150.108Z" fill="black"/>
<path d="M49.8922 150.108H43.2112V156.789H49.8922V150.108Z" fill="black"/>
<path d="M83.2974 150.108H76.6164V156.789H83.2974V150.108Z" fill="black"/>
<path d="M89.9784 150.108H83.2974V156.789H89.9784V150.108Z" fill="black"/>
<path d="M96.6595 150.108H89.9784V156.789H96.6595V150.108Z" fill="black"/>
<path d="M103.341 150.108H96.6595V156.789H103.341V150.108Z" fill="black"/>
<path d="M110.022 150.108H103.341V156.789H110.022V150.108Z" fill="black"/>
<path d="M130.065 150.108H123.384V156.789H130.065V150.108Z" fill="black"/>
<path d="M143.427 150.108H136.746V156.789H143.427V150.108Z" fill="black"/>
<path d="M156.789 150.108H150.108V156.789H156.789V150.108Z" fill="black"/>
<path d="M170.151 150.108H163.47V156.789H170.151V150.108Z" fill="black"/>
<path d="M9.80603 156.789H3.125V163.47H9.80603V156.789Z" fill="black"/>
<path d="M49.8922 156.789H43.2112V163.47H49.8922V156.789Z" fill="black"/>
<path d="M69.9353 156.789H63.2543V163.47H69.9353V156.789Z" fill="black"/>
<path d="M76.6164 156.789H69.9353V163.47H76.6164V156.789Z" fill="black"/>
<path d="M89.9784 156.789H83.2974V163.47H89.9784V156.789Z" fill="black"/>
<path d="M96.6595 156.789H89.9784V163.47H96.6595V156.789Z" fill="black"/>
<path d="M103.341 156.789H96.6595V163.47H103.341V156.789Z" fill="black"/>
<path d="M110.022 156.789H103.341V163.47H110.022V156.789Z" fill="black"/>
<path d="M136.746 156.789H130.065V163.47H136.746V156.789Z" fill="black"/>
<path d="M143.427 156.789H136.746V163.47H143.427V156.789Z" fill="black"/>
<path d="M170.151 156.789H163.47V163.47H170.151V156.789Z" fill="black"/>
<path d="M183.513 156.789H176.832V163.47H183.513V156.789Z" fill="black"/>
<path d="M9.80603 163.47H3.125V170.151H9.80603V163.47Z" fill="black"/>
<path d="M23.1681 163.47H16.4871V170.151H23.1681V163.47Z" fill="black"/>
<path d="M29.8491 163.47H23.1681V170.151H29.8491V163.47Z" fill="black"/>
<path d="M36.5302 163.47H29.8491V170.151H36.5302V163.47Z" fill="black"/>
<path d="M49.8922 163.47H43.2112V170.151H49.8922V163.47Z" fill="black"/>
<path d="M63.2543 163.47H56.5733V170.151H63.2543V163.47Z" fill="black"/>
<path d="M69.9353 163.47H63.2543V170.151H69.9353V163.47Z" fill="black"/>
<path d="M96.6595 163.47H89.9784V170.151H96.6595V163.47Z" fill="black"/>
<path d="M103.341 163.47H96.6595V170.151H103.341V163.47Z" fill="black"/>
<path d="M110.022 163.47H103.341V170.151H110.022V163.47Z" fill="black"/>
<path d="M123.384 163.47H116.703V170.151H123.384V163.47Z" fill="black"/>
<path d="M143.427 163.47H136.746V170.151H143.427V163.47Z" fill="black"/>
<path d="M150.108 163.47H143.427V170.151H150.108V163.47Z" fill="black"/>
<path d="M156.789 163.47H150.108V170.151H156.789V163.47Z" fill="black"/>
<path d="M163.47 163.47H156.789V170.151H163.47V163.47Z" fill="black"/>
<path d="M170.151 163.47H163.47V170.151H170.151V163.47Z" fill="black"/>
<path d="M183.513 163.47H176.832V170.151H183.513V163.47Z" fill="black"/>
<path d="M196.875 163.47H190.194V170.151H196.875V163.47Z" fill="black"/>
<path d="M9.80603 170.151H3.125V176.832H9.80603V170.151Z" fill="black"/>
<path d="M23.1681 170.151H16.4871V176.832H23.1681V170.151Z" fill="black"/>
<path d="M29.8491 170.151H23.1681V176.832H29.8491V170.151Z" fill="black"/>
<path d="M36.5302 170.151H29.8491V176.832H36.5302V170.151Z" fill="black"/>
<path d="M49.8922 170.151H43.2112V176.832H49.8922V170.151Z" fill="black"/>
<path d="M83.2974 170.151H76.6164V176.832H83.2974V170.151Z" fill="black"/>
<path d="M96.6595 170.151H89.9784V176.832H96.6595V170.151Z" fill="black"/>
<path d="M116.703 170.151H110.022V176.832H116.703V170.151Z" fill="black"/>
<path d="M130.065 170.151H123.384V176.832H130.065V170.151Z" fill="black"/>
<path d="M136.746 170.151H130.065V176.832H136.746V170.151Z" fill="black"/>
<path d="M143.427 170.151H136.746V176.832H143.427V170.151Z" fill="black"/>
<path d="M150.108 170.151H143.427V176.832H150.108V170.151Z" fill="black"/>
<path d="M156.789 170.151H150.108V176.832H156.789V170.151Z" fill="black"/>
<path d="M170.151 170.151H163.47V176.832H170.151V170.151Z" fill="black"/>
<path d="M190.194 170.151H183.513V176.832H190.194V170.151Z" fill="black"/>
<path d="M9.80603 176.832H3.125V183.513H9.80603V176.832Z" fill="black"/>
<path d="M23.1681 176.832H16.4871V183.513H23.1681V176.832Z" fill="black"/>
<path d="M29.8491 176.832H23.1681V183.513H29.8491V176.832Z" fill="black"/>
<path d="M36.5302 176.832H29.8491V183.513H36.5302V176.832Z" fill="black"/>
<path d="M49.8922 176.832H43.2112V183.513H49.8922V176.832Z" fill="black"/>
<path d="M63.2543 176.832H56.5733V183.513H63.2543V176.832Z" fill="black"/>
<path d="M69.9353 176.832H63.2543V183.513H69.9353V176.832Z" fill="black"/>
<path d="M76.6164 176.832H69.9353V183.513H76.6164V176.832Z" fill="black"/>
<path d="M96.6595 176.832H89.9784V183.513H96.6595V176.832Z" fill="black"/>
<path d="M103.341 176.832H96.6595V183.513H103.341V176.832Z" fill="black"/>
<path d="M110.022 176.832H103.341V183.513H110.022V176.832Z" fill="black"/>
<path d="M123.384 176.832H116.703V183.513H123.384V176.832Z" fill="black"/>
<path d="M136.746 176.832H130.065V183.513H136.746V176.832Z" fill="black"/>
<path d="M143.427 176.832H136.746V183.513H143.427V176.832Z" fill="black"/>
<path d="M183.513 176.832H176.832V183.513H183.513V176.832Z" fill="black"/>
<path d="M190.194 176.832H183.513V183.513H190.194V176.832Z" fill="black"/>
<path d="M9.80603 183.513H3.125V190.194H9.80603V183.513Z" fill="black"/>
<path d="M49.8922 183.513H43.2112V190.194H49.8922V183.513Z" fill="black"/>
<path d="M63.2543 183.513H56.5733V190.194H63.2543V183.513Z" fill="black"/>
<path d="M69.9353 183.513H63.2543V190.194H69.9353V183.513Z" fill="black"/>
<path d="M96.6595 183.513H89.9784V190.194H96.6595V183.513Z" fill="black"/>
<path d="M123.384 183.513H116.703V190.194H123.384V183.513Z" fill="black"/>
<path d="M143.427 183.513H136.746V190.194H143.427V183.513Z" fill="black"/>
<path d="M183.513 183.513H176.832V190.194H183.513V183.513Z" fill="black"/>
<path d="M9.80603 190.194H3.125V196.875H9.80603V190.194Z" fill="black"/>
<path d="M16.4871 190.194H9.80603V196.875H16.4871V190.194Z" fill="black"/>
<path d="M23.1681 190.194H16.4871V196.875H23.1681V190.194Z" fill="black"/>
<path d="M29.8491 190.194H23.1681V196.875H29.8491V190.194Z" fill="black"/>
<path d="M36.5302 190.194H29.8491V196.875H36.5302V190.194Z" fill="black"/>
<path d="M43.2112 190.194H36.5302V196.875H43.2112V190.194Z" fill="black"/>
<path d="M49.8922 190.194H43.2112V196.875H49.8922V190.194Z" fill="black"/>
<path d="M63.2543 190.194H56.5733V196.875H63.2543V190.194Z" fill="black"/>
<path d="M83.2974 190.194H76.6164V196.875H83.2974V190.194Z" fill="black"/>
<path d="M89.9784 190.194H83.2974V196.875H89.9784V190.194Z" fill="black"/>
<path d="M96.6595 190.194H89.9784V196.875H96.6595V190.194Z" fill="black"/>
<path d="M103.341 190.194H96.6595V196.875H103.341V190.194Z" fill="black"/>
<path d="M110.022 190.194H103.341V196.875H110.022V190.194Z" fill="black"/>
<path d="M130.065 190.194H123.384V196.875H130.065V190.194Z" fill="black"/>
<path d="M170.151 190.194H163.47V196.875H170.151V190.194Z" fill="black"/>
<path d="M176.832 190.194H170.151V196.875H176.832V190.194Z" fill="black"/>
<path d="M183.513 190.194H176.832V196.875H183.513V190.194Z" fill="black"/>
<path d="M190.194 190.194H183.513V196.875H190.194V190.194Z" fill="black"/>
</svg>
