<svg width="32" height="32" viewBox="0 0 32 32" fill="none" xmlns="http://www.w3.org/2000/svg">
<path d="M8.54817 16.6881L5.69755 17.5823C5.61868 17.0651 5.56522 16.5401 5.56522 16.0001C5.56522 12.2447 7.55496 8.96369 10.5303 7.12456L11.9618 9.99535L8.54817 16.6881ZM16 5.5653C14.573 5.5653 13.2153 5.85293 11.9774 6.37005L13.4598 9.34797L20.4654 10.4508L22.812 8.10421C20.9833 6.52595 18.6061 5.56525 16 5.56525L16 5.5653ZM9.05756 18.237L6.06155 19.1748C7.12135 22.4919 9.79391 25.0829 13.1591 26.0331L13.9744 23.1545L9.05756 18.237ZM23.9637 9.26427L21.6199 11.6055L22.6927 18.4279L25.7423 19.7147C26.1824 18.5577 26.4348 17.3095 26.4348 15.9999C26.4348 13.4296 25.5022 11.0806 23.9636 9.26423L23.9637 9.26427ZM13.251 10.8869L10.0892 17.0773L14.9936 21.9817L21.1814 18.8252L19.9383 11.9389L13.251 10.8869ZM25.0435 21.1894L22.2612 20.0148L15.5967 23.4158L14.7612 26.3532C15.1669 26.4015 15.5791 26.4348 15.9998 26.4348C19.8725 26.4348 23.2422 24.3205 25.0434 21.1894L25.0435 21.1894Z" fill="#EDEEF6" stroke="#EDEEF6" stroke-width="0.5"/>
</svg>
