<svg width="22" height="22" viewBox="0 0 22 22" fill="none" xmlns="http://www.w3.org/2000/svg">
<path fill-rule="evenodd" clip-rule="evenodd" d="M0.25 6C0.25 2.82436 2.82436 0.25 6 0.25H16C19.1756 0.25 21.75 2.82436 21.75 6V16C21.75 19.1756 19.1756 21.75 16 21.75H6C2.82436 21.75 0.25 19.1756 0.25 16V6ZM6.46863 11.5306L9.469 14.531C9.76189 14.8239 10.2368 14.8239 10.5297 14.531L16.5304 8.53027C16.8233 8.23737 16.8233 7.7625 16.5304 7.4696C16.2375 7.17671 15.7626 7.17671 15.4697 7.4696L9.99932 12.94L7.52929 10.47C7.2364 10.1771 6.76152 10.1771 6.46863 10.47C6.17574 10.7629 6.17574 11.2377 6.46863 11.5306Z" fill="#EDEEF6"/>
</svg>
