<svg width="36" height="36" viewBox="0 0 36 36" fill="none" xmlns="http://www.w3.org/2000/svg">
<path d="M28.7851 26.445C26.1751 24.105 22.3051 22.635 18.0001 22.635C13.6951 22.635 9.82509 24.12 7.21509 26.445" stroke="#EDEEF6" stroke-width="1.5" stroke-linecap="round" stroke-linejoin="round"/>
<path d="M17.9999 18C20.129 18 21.8549 16.274 21.8549 14.145C21.8549 12.0159 20.129 10.29 17.9999 10.29C15.8708 10.29 14.1449 12.0159 14.1449 14.145C14.1449 16.274 15.8708 18 17.9999 18Z" stroke="#EDEEF6" stroke-width="1.5" stroke-linecap="round" stroke-linejoin="round"/>
<path d="M18 31.875C25.663 31.875 31.875 25.663 31.875 18C31.875 10.337 25.663 4.125 18 4.125C10.337 4.125 4.125 10.337 4.125 18C4.125 25.663 10.337 31.875 18 31.875Z" stroke="#EDEEF6" stroke-width="1.5" stroke-linecap="round" stroke-linejoin="round"/>
</svg>
