<svg width="24" height="24" viewBox="0 0 24 24" fill="none" xmlns="http://www.w3.org/2000/svg">
<path d="M12 22C17.5228 22 22 17.5228 22 12C22 6.47715 17.5228 2 12 2C6.47715 2 2 6.47715 2 12C2 17.5228 6.47715 22 12 22Z" fill="#9C7C4D"/>
<path d="M7.03221 21C4.75163 19.6815 3.07341 17.4846 2.36675 14.8926C1.66008 12.3006 1.98285 9.52592 3.26405 7.17888C4.54525 4.83183 6.67994 3.1047 9.1985 2.37744C11.7171 1.65017 14.4132 1.98235 16.6938 3.30089C16.7979 3.36077 16.902 3.42065 17 3.48368" fill="#B39262"/>
<path d="M12.016 20C10.4323 20.0031 8.88343 19.5362 7.56539 18.6584C6.24736 17.7806 5.2195 16.5313 4.61202 15.0688C4.00454 13.6064 3.84477 11.9965 4.15294 10.4432C4.46112 8.88986 5.22337 7.46293 6.34315 6.34315C7.46293 5.22337 8.88986 4.46112 10.4432 4.15294C11.9965 3.84477 13.6064 4.00454 15.0688 4.61202C16.5313 5.2195 17.7806 6.24736 18.6584 7.56539C19.5362 8.88343 20.0031 10.4323 20 12.016C19.9932 14.1314 19.1499 16.1582 17.6541 17.6541C16.1582 19.1499 14.1314 19.9932 12.016 20ZM12.016 5.43711C10.7179 5.43711 9.44908 5.82202 8.36982 6.54316C7.29056 7.26429 6.44938 8.28927 5.95265 9.48848C5.45592 10.6877 5.32596 12.0073 5.57919 13.2803C5.83242 14.5534 6.45747 15.7228 7.3753 16.6406C8.29314 17.5585 9.46253 18.1835 10.7356 18.4368C12.0087 18.69 13.3282 18.56 14.5275 18.0633C15.7267 17.5666 16.7516 16.7254 17.4728 15.6461C18.1939 14.5669 18.5788 13.298 18.5788 12C18.5771 10.2599 17.8851 8.59161 16.6547 7.3612C15.4243 6.13079 13.756 5.4388 12.016 5.43711Z" fill="#FFDFAE"/>
<path d="M13 9H11V15H13V9Z" fill="#FFDFAE"/>
</svg>
