<svg width="32" height="32" viewBox="0 0 32 32" fill="none" xmlns="http://www.w3.org/2000/svg">
<path d="M25.8189 11.038C25.8189 11.027 25.8189 11.005 25.8079 10.994C25.8079 10.983 25.7969 10.972 25.7859 10.95C25.5546 10.5097 25.2903 10.0913 25.004 9.67303C24.9379 9.57395 24.8608 9.47486 24.7838 9.37578C24.4754 8.96848 24.156 8.57218 23.7816 8.20891C23.4182 7.83463 23.0218 7.51539 22.6143 7.20716C22.5152 7.1301 22.4161 7.06407 22.317 6.98701C21.8985 6.7008 21.48 6.43657 21.0395 6.2054C21.0285 6.2054 21.0065 6.19441 20.9955 6.1834C20.9845 6.17239 20.9735 6.17238 20.9514 6.17238C17.846 4.60921 14.1458 4.60921 11.0293 6.17238C11.0183 6.17238 11.0073 6.17239 10.9962 6.1834C10.9852 6.19441 10.9742 6.19439 10.9632 6.2054C10.5227 6.43657 10.0932 6.7008 9.67476 6.98701C9.57565 7.06407 9.47654 7.1301 9.37742 7.20716C8.96997 7.51539 8.58453 7.83463 8.21011 8.20891C7.83569 8.57218 7.51633 8.96848 7.20798 9.37578C7.1309 9.47486 7.06482 9.57393 6.98774 9.68401C6.70141 10.0913 6.43712 10.5097 6.20586 10.95C6.20586 10.972 6.19484 10.983 6.18383 10.994C6.17282 11.005 6.17282 11.027 6.17282 11.038C4.60906 14.1424 4.60906 17.8411 6.17282 20.9455C6.17282 20.9565 6.17282 20.9785 6.18383 20.9895C6.19484 21.0005 6.20586 21.0115 6.20586 21.0335C6.43712 21.4738 6.70141 21.8922 6.98774 22.2995C7.06482 22.4096 7.1309 22.5086 7.20798 22.6077C7.51633 23.015 7.83569 23.4113 8.21011 23.7746C8.57352 24.1489 8.96997 24.4681 9.37742 24.7763C9.47654 24.8534 9.57565 24.9304 9.68577 24.9965C10.0932 25.2827 10.5227 25.5469 10.9632 25.7781C10.9742 25.7891 10.9852 25.7891 10.9962 25.8001C11.0073 25.8001 11.0183 25.8001 11.0293 25.8111C12.582 26.5927 14.2889 27 15.9959 27C17.7028 27 19.4097 26.5927 20.9735 25.8111C20.9735 25.8001 20.9845 25.8001 20.9955 25.8001C21.0065 25.7891 21.0175 25.7781 21.0395 25.7781C21.48 25.5469 21.8985 25.2827 22.317 24.9965C22.4161 24.9194 22.5152 24.8534 22.6143 24.7763C23.0218 24.4681 23.4182 24.1489 23.7816 23.7746C24.156 23.4113 24.4754 23.015 24.7838 22.6077C24.8608 22.5086 24.9379 22.4095 25.004 22.3105C25.2903 21.8922 25.5546 21.4738 25.7859 21.0335C25.7969 21.0115 25.8079 21.0005 25.8079 20.9895C25.8189 20.9785 25.8189 20.9565 25.8189 20.9455C27.3937 17.8411 27.3937 14.1424 25.8189 11.038ZM20.9625 8.0658C21.1607 8.18689 21.3479 8.31901 21.5351 8.46211C21.6342 8.52816 21.7333 8.59421 21.8214 8.67127C22.0967 8.89144 22.361 9.12259 22.6143 9.37578C22.8676 9.62897 23.0989 9.89317 23.3191 10.1684C23.3962 10.2564 23.4623 10.3555 23.5283 10.4546C23.6715 10.6417 23.8037 10.8289 23.9248 11.027C23.9578 11.0821 23.9799 11.1261 24.0129 11.1812L20.8744 13.7901C20.8633 13.7461 20.8303 13.713 20.8083 13.68C20.7202 13.4929 20.6211 13.3168 20.5109 13.1516C20.4669 13.0636 20.4228 12.9865 20.3568 12.8984C20.1916 12.6563 19.9934 12.4251 19.7841 12.2049C19.5639 11.9958 19.3326 11.7976 19.0904 11.6325C19.0133 11.5664 18.9252 11.5224 18.8371 11.4784C18.6719 11.3683 18.4957 11.2582 18.3085 11.1812C18.2754 11.1591 18.2424 11.1261 18.1983 11.1151L20.8083 7.97775C20.8633 8.01077 20.9074 8.03277 20.9625 8.0658ZM17.846 19.1841C17.6257 19.3162 17.3834 19.4263 17.1301 19.5034C17.1081 19.5144 17.0751 19.5254 17.042 19.5364C16.5024 19.6905 15.9298 19.7346 15.3572 19.6355C14.6083 19.5034 13.9255 19.1511 13.3749 18.6117C13.2318 18.4576 13.0996 18.2925 12.9785 18.1274C12.7692 17.8301 12.6041 17.5109 12.4939 17.1806C12.4499 17.0595 12.4279 16.9274 12.3948 16.8063C12.3838 16.7513 12.3618 16.6853 12.3508 16.6192C12.2517 16.0688 12.2957 15.4964 12.4499 14.968C12.4609 14.924 12.4719 14.8909 12.4829 14.8469C12.56 14.6047 12.6701 14.3735 12.8023 14.1424C12.8243 14.0983 12.8573 14.0543 12.8904 14.0103C13.0335 13.7791 13.1877 13.5699 13.3749 13.3718C13.5401 13.2177 13.7163 13.0746 13.8925 12.9535C13.9476 12.9204 14.0026 12.8874 14.0577 12.8544C14.1898 12.7663 14.333 12.6893 14.4762 12.6232C14.5422 12.6012 14.6083 12.5682 14.6744 12.5462C14.8175 12.4911 14.9717 12.4471 15.1149 12.4141C15.181 12.3921 15.258 12.3701 15.3241 12.359C15.5444 12.315 15.7646 12.293 15.9959 12.293C16.2051 12.293 16.4254 12.315 16.6346 12.348C17.3834 12.4801 18.0662 12.8324 18.6168 13.3718C19.1564 13.9222 19.5088 14.6047 19.641 15.3643C19.7401 15.9147 19.696 16.4871 19.5419 17.0155C19.5308 17.0595 19.5308 17.0926 19.5088 17.1366C19.4317 17.3788 19.3216 17.61 19.1895 17.8411C19.1674 17.8852 19.1344 17.9292 19.1124 17.9732C18.9692 18.2044 18.804 18.4136 18.6168 18.6117C18.4186 18.7989 18.2094 18.964 17.9781 19.1071C17.9341 19.1291 17.89 19.1621 17.846 19.1841ZM8.07796 11.016C8.1991 10.8289 8.32024 10.6418 8.4634 10.4656C8.52947 10.3665 8.59554 10.2675 8.67263 10.1684C8.89288 9.89317 9.12414 9.62897 9.37742 9.37578C9.63071 9.12259 9.89501 8.89144 10.1703 8.67127C10.2694 8.59421 10.3685 8.52815 10.4677 8.45109C10.6549 8.31899 10.8311 8.18689 11.0293 8.0658C11.0733 8.04378 11.1284 8.01077 11.1835 7.97775L13.7934 11.1151C13.7824 11.1151 13.7714 11.1261 13.7604 11.1371C13.5181 11.2472 13.2868 11.3793 13.0556 11.5224C13.0005 11.5664 12.9344 11.6105 12.8684 11.6545C12.6371 11.8306 12.4168 12.0068 12.2076 12.2049C12.0094 12.4141 11.8332 12.6342 11.668 12.8654C11.6129 12.9315 11.5799 12.9865 11.5359 13.0525C11.3817 13.2837 11.2495 13.5149 11.1284 13.7681C11.1284 13.7681 11.1174 13.7791 11.1174 13.7901L7.97885 11.1812C8.01189 11.1261 8.04493 11.0711 8.07796 11.016ZM11.0293 23.9067C10.8311 23.7966 10.6549 23.6645 10.4677 23.5324C10.3685 23.4554 10.2694 23.3893 10.1703 23.3122C9.89501 23.0921 9.63071 22.8609 9.37742 22.6077C9.12414 22.3545 8.89288 22.0903 8.67263 21.8151C8.59554 21.716 8.52947 21.617 8.4634 21.5179C8.32024 21.3417 8.1991 21.1546 8.07796 20.9675C8.04493 20.9124 8.01189 20.8574 7.97885 20.8023L11.1174 18.1934C11.1394 18.2374 11.1614 18.2705 11.1835 18.3035C11.2716 18.4906 11.3707 18.6667 11.4808 18.8319C11.5359 18.9199 11.5799 18.997 11.635 19.0851C11.8112 19.3272 11.9984 19.5584 12.2076 19.7786C12.4279 19.9877 12.6591 20.1859 12.9014 20.351C12.9895 20.4171 13.0666 20.4611 13.1547 20.5051C13.3199 20.6152 13.4961 20.7143 13.6833 20.8023C13.7163 20.8244 13.7604 20.8574 13.7934 20.8684L11.1835 24.0058C11.1284 23.9727 11.0733 23.9397 11.0293 23.9067ZM23.9248 20.9565C23.8037 21.1546 23.6715 21.3418 23.5283 21.5289C23.4623 21.628 23.3962 21.7271 23.3191 21.8151C23.0989 22.0903 22.8676 22.3545 22.6143 22.6077C22.361 22.8609 22.0967 23.0921 21.8214 23.3122C21.7333 23.3783 21.6342 23.4443 21.5461 23.5214C21.3479 23.6535 21.1607 23.7966 20.9514 23.9177C20.9074 23.9507 20.8633 23.9727 20.8083 24.0058L18.1983 20.8684C18.3966 20.7803 18.5728 20.6702 18.749 20.5602C18.8261 20.5161 18.9142 20.4721 18.9912 20.4281C19.2665 20.2299 19.5419 20.0208 19.7841 19.7786C19.9824 19.5694 20.1696 19.3493 20.3348 19.1181C20.3788 19.052 20.4228 18.997 20.4559 18.931C20.6101 18.6998 20.7532 18.4686 20.8633 18.2154C20.8633 18.2154 20.8744 18.2044 20.8744 18.1934L24.0129 20.8023C23.9799 20.8574 23.9578 20.9014 23.9248 20.9565Z" fill="#EDEEF6"/>
</svg>
