<svg width="32" height="32" viewBox="0 0 32 32" fill="none" xmlns="http://www.w3.org/2000/svg">
<path fill-rule="evenodd" clip-rule="evenodd" d="M5.99805 11.3482C5.99805 8.39376 8.39311 5.9987 11.3476 5.9987H20.6511C23.6056 5.9987 26.0007 8.39376 26.0007 11.3482V20.6518C26.0007 23.6062 23.6056 26.0013 20.6511 26.0013H11.3476C8.39311 26.0013 5.99805 23.6062 5.99805 20.6518V11.3482ZM17.0002 11.3482C17.0002 10.7959 16.5525 10.3482 16.0002 10.3482C15.4479 10.3482 15.0002 10.7959 15.0002 11.3482V15.6667C15.0002 16.1913 15.2472 16.6852 15.6669 17L19.1216 19.5911C19.5634 19.9224 20.1903 19.8329 20.5216 19.3911C20.853 18.9492 20.7634 18.3224 20.3216 17.9911L17.0002 15.5V11.3482Z" fill="#EDEEF6"/>
</svg>
