<svg width="32" height="32" viewBox="0 0 32 32" fill="none" xmlns="http://www.w3.org/2000/svg">
<path fill-rule="evenodd" clip-rule="evenodd" d="M26.8565 15.6547L16.2879 6.11104C16.124 5.96296 15.8758 5.96304 15.7119 6.11097L5.14345 15.6546C5.01032 15.7749 4.96463 15.9653 5.02851 16.1335C5.09239 16.3017 5.25267 16.4127 5.43142 16.4127H7.73464V25.5654C7.73464 25.8055 7.92785 26 8.16611 26H13.4375C13.6757 26 13.8689 25.8055 13.8689 25.5654V18.9247H18.1309V25.5654C18.1309 25.8055 18.324 26 18.5623 26H23.8337C24.072 26 24.2651 25.8055 24.2651 25.5654V16.4127H26.5685C26.7473 16.4127 26.9076 16.3017 26.9715 16.1335C27.0354 15.9653 26.9896 15.7749 26.8566 15.6546" fill="white"/>
</svg>
