<svg width="52" height="52" viewBox="0 0 52 52" fill="none" xmlns="http://www.w3.org/2000/svg">
<path d="M41.2488 24.8492C38.5214 23.0659 35.988 21.002 33.6905 18.6915C31.2772 16.2946 29.1353 13.6393 27.3036 10.7734C27.1952 10.5964 26.9823 10.513 26.7824 10.5695C23.5463 11.488 20.0608 13.3234 16.6928 16.6915C13.1948 20.1896 11.353 23.8131 10.4723 27.1532C10.4211 27.3478 10.5015 27.5531 10.6711 27.6612C13.3205 29.4166 15.7847 31.4364 18.0263 33.6892C20.3798 36.0288 22.4763 38.6132 24.28 41.3987C24.387 41.5707 24.5932 41.6534 24.7895 41.6032C28.1587 40.7336 31.8218 38.8904 35.3568 35.3553C38.6895 32.0227 40.5191 28.5759 41.4473 25.3686C41.5044 25.1706 41.4232 24.9589 41.2488 24.8492ZM42.1263 21.7615C42.1075 21.9263 42.004 22.0694 41.8534 22.1388C41.7027 22.2083 41.5268 22.1943 41.3892 22.1017C39.2237 20.5839 37.1971 18.8771 35.3333 17.0012C33.3572 15.0388 31.5714 12.8936 29.9995 10.595C29.9088 10.4567 29.8967 10.2812 29.9674 10.1317C30.0381 9.98219 30.1814 9.88021 30.3458 9.8626C33.7241 9.5172 37.1363 9.96908 40.3079 11.1819C40.5412 11.2746 40.726 11.4595 40.8187 11.6928C42.0438 14.8986 42.4919 18.3491 42.1263 21.7615ZM21.4767 41.4491C21.5704 41.5883 21.5833 41.7668 21.5106 41.9182C21.4379 42.0694 21.2906 42.1709 21.1233 42.1849C17.9177 42.4338 14.6969 41.9668 11.6942 40.8175C11.4609 40.7248 11.276 40.54 11.1833 40.3067C10.0222 37.274 9.55729 34.0193 9.82241 30.7827C9.83702 30.6148 9.93968 30.4672 10.092 30.3952C10.2445 30.3232 10.4238 30.3375 10.5628 30.4329C12.6217 31.9005 14.5532 33.5393 16.3362 35.3317C18.2295 37.2129 19.9498 39.2602 21.4767 41.4491Z" fill="white"/>
</svg>
