<svg width="24" height="24" viewBox="0 0 24 24" fill="none" xmlns="http://www.w3.org/2000/svg">
<path fill-rule="evenodd" clip-rule="evenodd" d="M12 20C16.4183 20 20 16.4183 20 12C20 7.58172 16.4183 4 12 4C7.58172 4 4 7.58172 4 12C4 16.4183 7.58172 20 12 20ZM13 15V16.6H11.4V15H13ZM9.93726 7.93726C10.5374 7.33714 11.3513 7 12.2 7C13.0487 7 13.8626 7.33714 14.4627 7.93726C15.0629 8.53737 15.4 9.35131 15.4 10.2C15.4 11.2263 14.768 11.7787 14.1526 12.3164C13.5688 12.8266 13 13.3237 13 14.2H11.4C11.4 12.743 12.1537 12.1653 12.8164 11.6573C13.3362 11.2589 13.8 10.9034 13.8 10.2C13.8 9.77565 13.6314 9.36869 13.3314 9.06863C13.0313 8.76857 12.6243 8.6 12.2 8.6C11.7757 8.6 11.3687 8.76857 11.0686 9.06863C10.7686 9.36869 10.6 9.77565 10.6 10.2H9C9 9.35131 9.33714 8.53737 9.93726 7.93726Z" fill="#F4CC22"/>
</svg>
