<svg width="80" height="80" viewBox="0 0 80 80" fill="none" xmlns="http://www.w3.org/2000/svg">
<g filter="url(#filter0_i_78_662)">
<path d="M13.334 23.4429C13.334 22.2324 13.9903 21.1169 15.0485 20.529L38.3818 7.56609C39.3886 7.00679 40.6127 7.00679 41.6195 7.56609L64.9528 20.529C66.011 21.1169 66.6673 22.2324 66.6673 23.4429V38.9052C66.6673 51.0107 60.1043 62.1647 49.5221 68.0437L41.6195 72.4341C40.6127 72.9934 39.3886 72.9934 38.3818 72.4341L30.4792 68.0437C19.8971 62.1647 13.334 51.0107 13.334 38.9052V23.4429Z" fill="url(#paint0_linear_78_662)"/>
</g>
<path d="M13.7507 23.4429C13.7507 22.3837 14.3249 21.4077 15.2509 20.8933L38.5842 7.93032C39.4651 7.44093 40.5362 7.44093 41.4171 7.93032L64.7504 20.8933C65.6764 21.4077 66.2506 22.3837 66.2506 23.4429V38.9052C66.2506 50.8594 59.7696 61.874 49.3197 67.6795L41.4171 72.0698C40.5362 72.5592 39.4651 72.5592 38.5842 72.0698L30.6816 67.6795C20.2317 61.874 13.7507 50.8594 13.7507 38.9052V23.4429Z" stroke="url(#paint1_linear_78_662)" stroke-opacity="0.7" stroke-width="0.833333"/>
<g filter="url(#filter1_d_78_662)">
<path d="M31.6673 40.0001L38.334 46.6667L51.6673 33.3334" stroke="#EDEEF6" stroke-width="5" stroke-linecap="round" stroke-linejoin="round"/>
</g>
<defs>
<filter id="filter0_i_78_662" x="13.334" y="7.14673" width="53.3335" height="65.7068" filterUnits="userSpaceOnUse" color-interpolation-filters="sRGB">
<feFlood flood-opacity="0" result="BackgroundImageFix"/>
<feBlend mode="normal" in="SourceGraphic" in2="BackgroundImageFix" result="shape"/>
<feColorMatrix in="SourceAlpha" type="matrix" values="0 0 0 0 0 0 0 0 0 0 0 0 0 0 0 0 0 0 127 0" result="hardAlpha"/>
<feOffset/>
<feGaussianBlur stdDeviation="5"/>
<feComposite in2="hardAlpha" operator="arithmetic" k2="-1" k3="1"/>
<feColorMatrix type="matrix" values="0 0 0 0 0.231373 0 0 0 0 0.407843 0 0 0 0 1 0 0 0 0.38 0"/>
<feBlend mode="normal" in2="shape" result="effect1_innerShadow_78_662"/>
</filter>
<filter id="filter1_d_78_662" x="22.5008" y="24.1668" width="38.3333" height="31.6666" filterUnits="userSpaceOnUse" color-interpolation-filters="sRGB">
<feFlood flood-opacity="0" result="BackgroundImageFix"/>
<feColorMatrix in="SourceAlpha" type="matrix" values="0 0 0 0 0 0 0 0 0 0 0 0 0 0 0 0 0 0 127 0" result="hardAlpha"/>
<feOffset/>
<feGaussianBlur stdDeviation="3.33333"/>
<feComposite in2="hardAlpha" operator="out"/>
<feColorMatrix type="matrix" values="0 0 0 0 0.231373 0 0 0 0 0.407843 0 0 0 0 1 0 0 0 0.35 0"/>
<feBlend mode="normal" in2="BackgroundImageFix" result="effect1_dropShadow_78_662"/>
<feBlend mode="normal" in="SourceGraphic" in2="effect1_dropShadow_78_662" result="shape"/>
</filter>
<linearGradient id="paint0_linear_78_662" x1="-3.99935" y1="-19.9999" x2="113.39" y2="63.7593" gradientUnits="userSpaceOnUse">
<stop stop-color="#344EA6" stop-opacity="0.26"/>
<stop offset="0.505208" stop-color="#587EFF" stop-opacity="0.12"/>
<stop offset="1" stop-color="#829EFF" stop-opacity="0.04"/>
</linearGradient>
<linearGradient id="paint1_linear_78_662" x1="14.6673" y1="16.6667" x2="69.7293" y2="54.4235" gradientUnits="userSpaceOnUse">
<stop stop-color="white" stop-opacity="0.15"/>
<stop offset="1" stop-color="white" stop-opacity="0.44"/>
</linearGradient>
</defs>
</svg>
