<svg width="24" height="24" viewBox="0 0 24 24" fill="none" xmlns="http://www.w3.org/2000/svg">
<path d="M12.8 4V6.43008C15.512 6.82306 17.6 9.14887 17.6 11.9799C17.6 12.7018 17.456 13.3835 17.2 14.017L19.296 15.2441C19.744 14.2496 20 13.1429 20 11.9799C20 7.82556 16.84 4.401 12.8 4ZM12 17.594C10.5148 17.594 9.09041 17.0025 8.0402 15.9497C6.99 14.8968 6.4 13.4689 6.4 11.9799C6.4 9.14887 8.488 6.82306 11.2 6.43008V4C7.152 4.401 4 7.81754 4 11.9799C4 14.107 4.84285 16.1469 6.34315 17.651C7.08601 18.3957 7.96793 18.9865 8.93853 19.3895C9.90914 19.7926 10.9494 20 12 20C14.64 20 16.984 18.7088 18.44 16.7198L16.36 15.4927C15.336 16.792 13.768 17.594 12 17.594Z" fill="#F4CC22"/>
</svg>
