<svg width="24" height="24" viewBox="0 0 24 24" fill="none" xmlns="http://www.w3.org/2000/svg">
<path d="M9.03506 15.3324C8.7635 15.0609 8.90506 15.1374 8.25006 14.9621C7.95287 14.8824 7.69162 14.7293 7.45537 14.5459L6.03756 18.0221C5.90037 18.3587 6.15662 18.7243 6.51975 18.7106L8.16631 18.6478L9.29881 19.844C9.54881 20.1078 9.98756 20.0256 10.1247 19.689L11.7513 15.7009C11.4126 15.8896 11.0366 16.0003 10.6479 16.0003C10.0385 16.0003 9.466 15.7631 9.03506 15.3324ZM17.9626 18.0221L16.5447 14.5459C16.3085 14.7296 16.0472 14.8824 15.7501 14.9621C15.0916 15.1384 15.236 15.0615 14.9651 15.3324C14.5341 15.7631 13.9613 16.0003 13.3519 16.0003C12.9632 16.0003 12.5872 15.8893 12.2485 15.7009L13.8751 19.689C14.0122 20.0256 14.4513 20.1078 14.701 19.844L15.8338 18.6478L17.4804 18.7106C17.8435 18.7243 18.0997 18.3584 17.9626 18.0221ZM14.2188 14.6253C14.6963 14.1393 14.751 14.1812 15.431 13.9959C15.8651 13.8774 16.2044 13.5321 16.3207 13.0903C16.5544 12.2028 16.4938 12.3099 17.1316 11.6606C17.4494 11.3371 17.5735 10.8656 17.4572 10.4237C17.2238 9.53681 17.2235 9.66056 17.4572 8.77275C17.5735 8.33088 17.4494 7.85931 17.1316 7.53588C16.4938 6.8865 16.5544 6.99338 16.3207 6.10619C16.2044 5.66431 15.8651 5.319 15.431 5.20056C14.5597 4.96275 14.6647 5.02494 14.0263 4.37525C13.7085 4.05181 13.2451 3.92525 12.811 4.04369C11.9401 4.28119 12.0616 4.2815 11.1891 4.04369C10.7551 3.92525 10.2916 4.0515 9.97381 4.37525C9.336 5.02463 9.441 4.96275 8.56944 5.20056C8.13537 5.319 7.796 5.66431 7.67975 6.10619C7.44631 6.99338 7.50662 6.8865 6.86881 7.53588C6.551 7.85931 6.42662 8.33088 6.54319 8.77275C6.77662 9.659 6.77694 9.53525 6.54319 10.4234C6.42694 10.8653 6.551 11.3368 6.86881 11.6606C7.50662 12.3099 7.446 12.2028 7.67975 13.0903C7.796 13.5321 8.13537 13.8774 8.56944 13.9959C9.26881 14.1865 9.321 14.1565 9.78131 14.6253C10.1947 15.0462 10.8388 15.1215 11.3357 14.8071C11.5344 14.681 11.7649 14.614 12.0002 14.614C12.2356 14.614 12.4661 14.681 12.6647 14.8071C13.1613 15.1215 13.8054 15.0462 14.2188 14.6253ZM9.05194 9.499C9.05194 7.84181 10.3719 6.49838 12.0001 6.49838C13.6282 6.49838 14.9482 7.84181 14.9482 9.499C14.9482 11.1562 13.6282 12.4996 12.0001 12.4996C10.3719 12.4996 9.05194 11.1562 9.05194 9.499Z" fill="white"/>
</svg>
