<svg width="24" height="24" viewBox="0 0 24 24" fill="none" xmlns="http://www.w3.org/2000/svg">
<path fill-rule="evenodd" clip-rule="evenodd" d="M16.977 5H8.09V6.031H5V10.867C5 12.736 7.086 14.274 9.133 14.434C9.805 15.154 10.987 15.677 12.039 15.9V17.164C11.033 17.473 9.236 18.199 9.133 18.99H16.037C15.933 18.199 13.953 17.472 12.945 17.164V15.9C14.001 15.677 15.236 15.154 15.909 14.434C17.955 14.274 19.949 12.736 19.949 10.867V6.031H16.977V5ZM5.949 6.947H8.018V11.113C8.018 11.935 8.23 12.717 8.603 13.421C7.055 12.928 5.949 11.658 5.949 10.172V6.947ZM14.053 12.028L12.509 11.177L10.963 12.028L11.258 10.228L10.008 8.954L11.735 8.691L12.509 7.055L13.281 8.691L15.008 8.954L13.758 10.228L14.053 12.028ZM16.348 13.554C16.723 12.818 16.938 12.004 16.938 11.143V6.974H19.012V10.16C19.012 11.713 17.901 13.039 16.348 13.554Z" fill="white"/>
</svg>
