<svg width="80" height="80" viewBox="0 0 80 80" fill="none" xmlns="http://www.w3.org/2000/svg">
<g filter="url(#filter0_i_78_666)">
<path d="M6.66602 33.3348C6.66602 23.4744 15.1796 15.7697 24.9911 16.7508L38.0093 18.0527C39.3327 18.185 40.666 18.185 41.9894 18.0527L55.0076 16.7508C64.819 15.7697 73.3327 23.4744 73.3327 33.3348V53.3332C73.3327 65.3106 57.6797 69.8505 51.2711 59.7317C46.7034 52.5194 36.267 52.2785 31.3714 59.2723L30.4239 60.6259C23.1018 71.086 6.66602 65.9051 6.66602 53.1369V33.3348Z" fill="url(#paint0_linear_78_666)"/>
</g>
<path d="M7.08268 33.3348C7.08268 23.7209 15.3835 16.2088 24.9496 17.1654L37.9678 18.4673C39.3188 18.6024 40.6799 18.6024 42.0309 18.4673L55.0491 17.1654C64.6152 16.2088 72.916 23.7209 72.916 33.3348V53.3332C72.916 64.8933 57.8084 69.275 51.6232 59.5087C46.8962 52.0452 36.0963 51.7959 31.03 59.0334L30.0825 60.387C22.994 70.5133 7.08268 65.4977 7.08268 53.1369V33.3348Z" stroke="url(#paint1_linear_78_666)" stroke-opacity="0.7" stroke-width="0.833333"/>
<g filter="url(#filter1_d_78_666)">
<circle cx="59.9993" cy="33.2518" r="3.33333" fill="#EDEEF6"/>
<circle cx="53.3324" cy="43.2518" r="3.33333" fill="#EDEEF6"/>
</g>
<g filter="url(#filter2_d_78_666)">
<path d="M26.666 44.9185L26.666 31.5852" stroke="#EDEEF6" stroke-width="5" stroke-linecap="round" stroke-linejoin="round"/>
</g>
<g filter="url(#filter3_d_78_666)">
<path d="M19.9997 38.2517H33.333" stroke="#EDEEF6" stroke-width="5" stroke-linecap="round" stroke-linejoin="round"/>
</g>
<defs>
<filter id="filter0_i_78_666" x="6.66602" y="16.6665" width="66.6665" height="49.5542" filterUnits="userSpaceOnUse" color-interpolation-filters="sRGB">
<feFlood flood-opacity="0" result="BackgroundImageFix"/>
<feBlend mode="normal" in="SourceGraphic" in2="BackgroundImageFix" result="shape"/>
<feColorMatrix in="SourceAlpha" type="matrix" values="0 0 0 0 0 0 0 0 0 0 0 0 0 0 0 0 0 0 127 0" result="hardAlpha"/>
<feOffset/>
<feGaussianBlur stdDeviation="5"/>
<feComposite in2="hardAlpha" operator="arithmetic" k2="-1" k3="1"/>
<feColorMatrix type="matrix" values="0 0 0 0 0.231373 0 0 0 0 0.407843 0 0 0 0 1 0 0 0 0.38 0"/>
<feBlend mode="normal" in2="shape" result="effect1_innerShadow_78_666"/>
</filter>
<filter id="filter1_d_78_666" x="43.3324" y="23.2518" width="26.6668" height="30.0001" filterUnits="userSpaceOnUse" color-interpolation-filters="sRGB">
<feFlood flood-opacity="0" result="BackgroundImageFix"/>
<feColorMatrix in="SourceAlpha" type="matrix" values="0 0 0 0 0 0 0 0 0 0 0 0 0 0 0 0 0 0 127 0" result="hardAlpha"/>
<feOffset/>
<feGaussianBlur stdDeviation="3.33333"/>
<feComposite in2="hardAlpha" operator="out"/>
<feColorMatrix type="matrix" values="0 0 0 0 0.231373 0 0 0 0 0.407843 0 0 0 0 1 0 0 0 0.35 0"/>
<feBlend mode="normal" in2="BackgroundImageFix" result="effect1_dropShadow_78_666"/>
<feBlend mode="normal" in="SourceGraphic" in2="effect1_dropShadow_78_666" result="shape"/>
</filter>
<filter id="filter2_d_78_666" x="17.4993" y="22.4185" width="18.3333" height="31.6666" filterUnits="userSpaceOnUse" color-interpolation-filters="sRGB">
<feFlood flood-opacity="0" result="BackgroundImageFix"/>
<feColorMatrix in="SourceAlpha" type="matrix" values="0 0 0 0 0 0 0 0 0 0 0 0 0 0 0 0 0 0 127 0" result="hardAlpha"/>
<feOffset/>
<feGaussianBlur stdDeviation="3.33333"/>
<feComposite in2="hardAlpha" operator="out"/>
<feColorMatrix type="matrix" values="0 0 0 0 0.231373 0 0 0 0 0.407843 0 0 0 0 1 0 0 0 0.35 0"/>
<feBlend mode="normal" in2="BackgroundImageFix" result="effect1_dropShadow_78_666"/>
<feBlend mode="normal" in="SourceGraphic" in2="effect1_dropShadow_78_666" result="shape"/>
</filter>
<filter id="filter3_d_78_666" x="10.8328" y="29.085" width="31.6668" height="18.3333" filterUnits="userSpaceOnUse" color-interpolation-filters="sRGB">
<feFlood flood-opacity="0" result="BackgroundImageFix"/>
<feColorMatrix in="SourceAlpha" type="matrix" values="0 0 0 0 0 0 0 0 0 0 0 0 0 0 0 0 0 0 127 0" result="hardAlpha"/>
<feOffset/>
<feGaussianBlur stdDeviation="3.33333"/>
<feComposite in2="hardAlpha" operator="out"/>
<feColorMatrix type="matrix" values="0 0 0 0 0.231373 0 0 0 0 0.407843 0 0 0 0 1 0 0 0 0.35 0"/>
<feBlend mode="normal" in2="BackgroundImageFix" result="effect1_dropShadow_78_666"/>
<feBlend mode="normal" in="SourceGraphic" in2="effect1_dropShadow_78_666" result="shape"/>
</filter>
<linearGradient id="paint0_linear_78_666" x1="-15.0007" y1="-3.15522" x2="75.7643" y2="105.752" gradientUnits="userSpaceOnUse">
<stop stop-color="#344EA6" stop-opacity="0.26"/>
<stop offset="0.505208" stop-color="#587EFF" stop-opacity="0.12"/>
<stop offset="1" stop-color="#829EFF" stop-opacity="0.04"/>
</linearGradient>
<linearGradient id="paint1_linear_78_666" x1="8.33268" y1="24.0996" x2="51.7672" y2="74.1856" gradientUnits="userSpaceOnUse">
<stop stop-color="white" stop-opacity="0.15"/>
<stop offset="1" stop-color="white" stop-opacity="0.44"/>
</linearGradient>
</defs>
</svg>
