<svg width="24" height="24" viewBox="0 0 24 24" fill="none" xmlns="http://www.w3.org/2000/svg">
<path d="M12 12C15.1563 12 17.7143 9.53792 17.7143 6.5C17.7143 3.46212 15.1563 1 12 1C8.84376 1 6.28571 3.46212 6.28571 6.5C6.28571 9.53792 8.84376 12 12 12ZM16.2767 13.4008L14.1429 21.625L12.7143 15.7812L14.1429 13.375H9.85714L11.2857 15.7812L9.85714 21.625L7.72321 13.4008C4.54017 13.5469 2 16.052 2 19.15V20.9375C2 22.0761 2.95983 23 4.14286 23H19.8571C21.0401 23 22 22.0761 22 20.9375V19.15C22 16.052 19.4599 13.5469 16.2767 13.4008Z" fill="#231F20"/>
</svg>
