<svg width="24" height="24" viewBox="0 0 24 24" fill="none" xmlns="http://www.w3.org/2000/svg">
<path d="M17 8.66667V7.33333C17 6.598 16.402 6 15.6667 6H7C5.89733 6 5 6.89733 5 8V16C5 17.4673 6.196 18 7 18H17C17.7353 18 18.3333 17.402 18.3333 16.6667V10C18.3333 9.26467 17.7353 8.66667 17 8.66667ZM15.6667 14.6667H14.3333V12H15.6667V14.6667ZM7 8.66667C6.82835 8.65899 6.66627 8.5854 6.54752 8.46121C6.42876 8.33703 6.36249 8.17182 6.36249 8C6.36249 7.82818 6.42876 7.66297 6.54752 7.53879C6.66627 7.4146 6.82835 7.34101 7 7.33333H15.6667V8.66667H7Z" fill="#F4CC22"/>
</svg>
