<svg width="82" height="92" viewBox="0 0 82 92" fill="none" xmlns="http://www.w3.org/2000/svg">
<g filter="url(#filter0_bdi_78_686)">
<path d="M67.6673 40.7224C67.6673 58.8151 46.334 77.6668 41.0007 77.6668C35.6673 77.6668 14.334 58.8151 14.334 40.7224C14.334 26.1482 26.2731 14.3335 41.0007 14.3335C55.7282 14.3335 67.6673 26.1482 67.6673 40.7224Z" fill="url(#paint0_linear_78_686)" shape-rendering="crispEdges"/>
<path d="M67.2507 40.7224C67.2507 49.6201 61.9944 58.7607 56.0181 65.7076C53.0362 69.1739 49.8916 72.0743 47.1683 74.1045C45.8062 75.1199 44.5563 75.9125 43.4903 76.4493C42.4112 76.9928 41.5666 77.2502 41.0007 77.2502V78.0835C41.768 78.0835 42.7568 77.7518 43.8651 77.1936C44.9867 76.6288 46.2784 75.8073 47.6663 74.7726C50.443 72.7027 53.6318 69.7594 56.6499 66.2511C62.6736 59.249 68.084 49.9174 68.084 40.7224H67.2507ZM41.0007 77.2502C40.4347 77.2502 39.5901 76.9928 38.511 76.4493C37.445 75.9125 36.1951 75.1199 34.833 74.1045C32.1097 72.0743 28.9651 69.1739 25.9832 65.7076C20.0069 58.7607 14.7507 49.6201 14.7507 40.7224H13.9173C13.9173 49.9174 19.3277 59.249 25.3514 66.2511C28.3695 69.7594 31.5583 72.7027 34.335 74.7726C35.7229 75.8073 37.0146 76.6288 38.1362 77.1936C39.2445 77.7518 40.2333 78.0835 41.0007 78.0835V77.2502ZM14.7507 40.7224C14.7507 26.3824 26.4991 14.7502 41.0007 14.7502V13.9168C26.0471 13.9168 13.9173 25.914 13.9173 40.7224H14.7507ZM41.0007 14.7502C55.5023 14.7502 67.2507 26.3824 67.2507 40.7224H68.084C68.084 25.914 55.9542 13.9168 41.0007 13.9168V14.7502Z" fill="url(#paint1_linear_78_686)" fill-opacity="0.7"/>
</g>
<g filter="url(#filter1_d_78_686)">
<circle r="10" transform="matrix(-1 0 0 1 41.001 39.3335)" fill="#EDEEF6"/>
</g>
<defs>
<filter id="filter0_bdi_78_686" x="0.583903" y="0.583415" width="80.8334" height="90.8334" filterUnits="userSpaceOnUse" color-interpolation-filters="sRGB">
<feFlood flood-opacity="0" result="BackgroundImageFix"/>
<feGaussianBlur in="BackgroundImage" stdDeviation="3.33333"/>
<feComposite in2="SourceAlpha" operator="in" result="effect1_backgroundBlur_78_686"/>
<feColorMatrix in="SourceAlpha" type="matrix" values="0 0 0 0 0 0 0 0 0 0 0 0 0 0 0 0 0 0 127 0" result="hardAlpha"/>
<feOffset/>
<feGaussianBlur stdDeviation="6.66667"/>
<feComposite in2="hardAlpha" operator="out"/>
<feColorMatrix type="matrix" values="0 0 0 0 0.231373 0 0 0 0 0.407843 0 0 0 0 1 0 0 0 0.1 0"/>
<feBlend mode="normal" in2="effect1_backgroundBlur_78_686" result="effect2_dropShadow_78_686"/>
<feBlend mode="normal" in="SourceGraphic" in2="effect2_dropShadow_78_686" result="shape"/>
<feColorMatrix in="SourceAlpha" type="matrix" values="0 0 0 0 0 0 0 0 0 0 0 0 0 0 0 0 0 0 127 0" result="hardAlpha"/>
<feOffset/>
<feGaussianBlur stdDeviation="5"/>
<feComposite in2="hardAlpha" operator="arithmetic" k2="-1" k3="1"/>
<feColorMatrix type="matrix" values="0 0 0 0 0.231373 0 0 0 0 0.407843 0 0 0 0 1 0 0 0 0.38 0"/>
<feBlend mode="normal" in2="shape" result="effect3_innerShadow_78_686"/>
</filter>
<filter id="filter1_d_78_686" x="24.3343" y="22.6668" width="33.3333" height="33.3333" filterUnits="userSpaceOnUse" color-interpolation-filters="sRGB">
<feFlood flood-opacity="0" result="BackgroundImageFix"/>
<feColorMatrix in="SourceAlpha" type="matrix" values="0 0 0 0 0 0 0 0 0 0 0 0 0 0 0 0 0 0 127 0" result="hardAlpha"/>
<feOffset/>
<feGaussianBlur stdDeviation="3.33333"/>
<feComposite in2="hardAlpha" operator="out"/>
<feColorMatrix type="matrix" values="0 0 0 0 0.231373 0 0 0 0 0.407843 0 0 0 0 1 0 0 0 0.35 0"/>
<feBlend mode="normal" in2="BackgroundImageFix" result="effect1_dropShadow_78_686"/>
<feBlend mode="normal" in="SourceGraphic" in2="effect1_dropShadow_78_686" result="shape"/>
</filter>
<linearGradient id="paint0_linear_78_686" x1="-2.99935" y1="-10.9998" x2="110.263" y2="74.0674" gradientUnits="userSpaceOnUse">
<stop stop-color="#344EA6" stop-opacity="0.26"/>
<stop offset="0.505208" stop-color="#587EFF" stop-opacity="0.12"/>
<stop offset="1" stop-color="#829EFF" stop-opacity="0.04"/>
</linearGradient>
<linearGradient id="paint1_linear_78_686" x1="15.6673" y1="23.8335" x2="68.8904" y2="62.2501" gradientUnits="userSpaceOnUse">
<stop stop-color="white" stop-opacity="0.15"/>
<stop offset="1" stop-color="white" stop-opacity="0.44"/>
</linearGradient>
</defs>
</svg>
