<svg width="52" height="52" viewBox="0 0 52 52" fill="none" xmlns="http://www.w3.org/2000/svg">
<path d="M38.1852 37.6186C38.4289 35.1811 38.5102 32.3371 38.0227 29.7371C37.2914 25.8371 35.5852 24.3746 34.2039 23.2371C33.3102 22.5059 32.6602 21.9371 32.2539 20.7996C36.1539 21.5309 39.8104 22.9934 42.8164 25.0246C42.8164 25.3496 42.8977 25.5934 42.8977 25.9184C42.8977 30.5498 41.1102 34.6119 38.1852 37.6184V37.6186ZM15.5166 30.0621C16.0854 26.7309 17.4666 25.5936 18.7666 24.5371C19.9041 23.6434 21.0416 22.6684 21.4479 20.5559C22.6666 20.3934 23.8854 20.3121 25.1854 20.3121V42.8996C21.6104 42.7371 18.2789 41.4371 15.6789 39.4059C15.2727 36.8059 14.9477 33.2309 15.5164 30.0623L15.5166 30.0621ZM26.8102 18.6871V9.18066C29.7352 9.34316 32.4166 10.2369 34.7727 11.6182C33.2289 12.8369 30.4664 15.5182 30.3852 18.9307C29.2477 18.7682 28.0289 18.6869 26.8102 18.6869V18.6871ZM25.1852 18.6871C23.9664 18.6871 22.7477 18.7684 21.6102 18.9309C21.5289 15.5184 18.7664 12.8373 17.2227 11.6184C19.5789 10.1559 22.2602 9.26213 25.1852 9.18088V18.6871ZM26.8102 20.3121C28.1102 20.3121 29.3289 20.3934 30.5477 20.5559C30.9539 22.6684 32.0914 23.5621 33.2289 24.5371C34.5289 25.5934 35.9102 26.7309 36.4789 30.0621C37.0477 33.2309 36.7227 36.8057 36.3164 39.3246C33.6352 41.4371 30.3849 42.6559 26.8099 42.8184L26.8102 20.3121ZM42.5727 22.9934C39.4852 21.1246 35.8291 19.8246 31.9291 19.1746C31.9291 16.0059 34.9354 13.4871 36.1541 12.5932C39.4854 15.1119 41.8416 18.7682 42.5727 22.9932V22.9934ZM15.7602 12.5934C16.9789 13.4871 19.9852 16.0059 19.9852 19.1748C16.0852 19.8248 12.5102 21.1248 9.34162 22.9936C10.1541 18.7686 12.5104 15.1121 15.7602 12.5936V12.5934ZM9.09766 25.9998C9.09766 25.6748 9.09766 25.4311 9.17891 25.1061C12.1852 23.0748 15.7604 21.6123 19.7414 20.8811C19.3352 21.9373 18.6852 22.5873 17.7914 23.3186C16.4102 24.4561 14.7039 25.8373 13.9727 29.8186C13.4852 32.4186 13.5664 35.3436 13.8102 37.7001C10.8852 34.6126 9.09766 30.5501 9.09766 26.0001V25.9998Z" fill="#EDEEF6"/>
</svg>
