<svg width="80" height="80" viewBox="0 0 80 80" fill="none" xmlns="http://www.w3.org/2000/svg">
<g filter="url(#filter0_i_216_2704)">
<rect x="6.66699" y="6.66666" width="66.6667" height="66.6667" rx="33.3333" fill="url(#paint0_linear_216_2704)"/>
</g>
<rect x="7.08366" y="7.08332" width="65.8333" height="65.8333" rx="32.9167" stroke="url(#paint1_linear_216_2704)" stroke-opacity="0.7" stroke-width="0.833333"/>
<path d="M40 19V33.1897L51.9932 38.5488L40 19Z" fill="#EDEEF6"/>
<path d="M39.9948 19L28 38.5488L39.9948 33.1897V19Z" fill="#EDEEF6"/>
<path d="M40 49.3584V59L52.0012 42.3963L40 49.3584Z" fill="#EDEEF6"/>
<path d="M39.9948 59V49.3568L28 42.3963L39.9948 59Z" fill="#EDEEF6"/>
<path d="M40 47.3196L51.9932 40.3559L40 35V47.3196Z" fill="#EDEEF6"/>
<path d="M28 40.3559L39.9948 47.3196V35L28 40.3559Z" fill="#EDEEF6"/>
<defs>
<filter id="filter0_i_216_2704" x="6.66699" y="6.66666" width="66.667" height="66.6667" filterUnits="userSpaceOnUse" color-interpolation-filters="sRGB">
<feFlood flood-opacity="0" result="BackgroundImageFix"/>
<feBlend mode="normal" in="SourceGraphic" in2="BackgroundImageFix" result="shape"/>
<feColorMatrix in="SourceAlpha" type="matrix" values="0 0 0 0 0 0 0 0 0 0 0 0 0 0 0 0 0 0 127 0" result="hardAlpha"/>
<feOffset/>
<feGaussianBlur stdDeviation="5"/>
<feComposite in2="hardAlpha" operator="arithmetic" k2="-1" k3="1"/>
<feColorMatrix type="matrix" values="0 0 0 0 0.231373 0 0 0 0 0.407843 0 0 0 0 1 0 0 0 0.38 0"/>
<feBlend mode="normal" in2="shape" result="effect1_innerShadow_216_2704"/>
</filter>
<linearGradient id="paint0_linear_216_2704" x1="-14.9997" y1="-20" x2="108.334" y2="90" gradientUnits="userSpaceOnUse">
<stop stop-color="#344EA6" stop-opacity="0.26"/>
<stop offset="0.505208" stop-color="#587EFF" stop-opacity="0.12"/>
<stop offset="1" stop-color="#829EFF" stop-opacity="0.04"/>
</linearGradient>
<linearGradient id="paint1_linear_216_2704" x1="8.33366" y1="16.6667" x2="66.667" y2="66.6667" gradientUnits="userSpaceOnUse">
<stop stop-color="white" stop-opacity="0.15"/>
<stop offset="1" stop-color="white" stop-opacity="0.44"/>
</linearGradient>
</defs>
</svg>
