<svg width="21" height="21" viewBox="0 0 21 21" fill="none" xmlns="http://www.w3.org/2000/svg">
<path d="M10.0716 1.68154C10.2659 1.35863 10.7341 1.35863 10.9284 1.68154L13.6385 6.18476C13.8479 6.53278 14.1895 6.78098 14.5853 6.87263L19.7055 8.05849C20.0727 8.14353 20.2173 8.58876 19.9703 8.87336L16.5249 12.8424C16.2587 13.1491 16.1282 13.5507 16.1633 13.9554L16.6177 19.1915C16.6503 19.567 16.2716 19.8421 15.9246 19.6951L11.0851 17.6449C10.7111 17.4864 10.2889 17.4864 9.91486 17.6449L5.07544 19.6951C4.72842 19.8421 4.34968 19.567 4.38227 19.1915L4.83669 13.9554C4.87181 13.5507 4.74132 13.1491 4.47506 12.8424L1.02971 8.87337C0.78265 8.58876 0.927317 8.14353 1.29447 8.05849L6.41475 6.87263C6.81045 6.78098 7.15208 6.53278 7.36152 6.18476L10.0716 1.68154L9.64319 1.42372L10.0716 1.68154Z" fill="#D9D9D9" fill-opacity="0.15" stroke="#383B54"/>
</svg>
