<svg width="107" height="26" viewBox="0 0 107 26" fill="none" xmlns="http://www.w3.org/2000/svg">
<path d="M44.6797 19H42.4468V10.915H42.3804L39.1265 18.8838H37.5493L34.2954 10.915H34.229V19H31.9961V7.02197H34.9014L38.3047 15.5137H38.3711L41.7744 7.02197H44.6797V19ZM49.7017 17.3896C50.2384 17.3896 50.6922 17.2347 51.063 16.9248C51.4393 16.6094 51.6274 16.2137 51.6274 15.7378V15.0903L49.7515 15.2065C49.2977 15.2397 48.9463 15.3532 48.6973 15.5469C48.4538 15.7406 48.332 15.9951 48.332 16.3105C48.332 16.6426 48.4565 16.9054 48.7056 17.0991C48.9546 17.2928 49.2866 17.3896 49.7017 17.3896ZM48.9048 19.1411C48.047 19.1411 47.3359 18.8893 46.7715 18.3857C46.207 17.8822 45.9248 17.2347 45.9248 16.4434C45.9248 15.6354 46.2236 15.0018 46.8213 14.5425C47.4189 14.0832 48.2739 13.8203 49.3862 13.7539L51.6274 13.6211V13.0317C51.6274 12.6222 51.4919 12.3013 51.2207 12.0688C50.9551 11.8364 50.5926 11.7202 50.1333 11.7202C49.6906 11.7202 49.3281 11.8198 49.0459 12.019C48.7692 12.2183 48.6004 12.4867 48.5396 12.8242H46.3232C46.3675 11.9499 46.741 11.2471 47.4438 10.7158C48.1466 10.179 49.0791 9.91064 50.2412 9.91064C51.3812 9.91064 52.2943 10.1818 52.9805 10.7241C53.6667 11.2664 54.0098 11.9858 54.0098 12.8823V19H51.6689V17.6387H51.6191C51.3757 18.1035 51.0049 18.4715 50.5068 18.7427C50.0088 19.0083 49.4748 19.1411 48.9048 19.1411ZM55.5786 19V10.1016H57.9194V11.7036H57.9692C58.1242 11.1392 58.3843 10.7075 58.7495 10.4087C59.1147 10.1099 59.5602 9.96045 60.0859 9.96045C60.3405 9.96045 60.5701 9.99089 60.7749 10.0518V12.1851C60.548 12.091 60.2547 12.0439 59.895 12.0439C59.2974 12.0439 58.8325 12.2183 58.5005 12.5669C58.1685 12.9155 58.0024 13.4025 58.0024 14.0278V19H55.5786ZM64.9917 17.3896C65.5285 17.3896 65.9823 17.2347 66.353 16.9248C66.7293 16.6094 66.9175 16.2137 66.9175 15.7378V15.0903L65.0415 15.2065C64.5877 15.2397 64.2363 15.3532 63.9873 15.5469C63.7438 15.7406 63.6221 15.9951 63.6221 16.3105C63.6221 16.6426 63.7466 16.9054 63.9956 17.0991C64.2446 17.2928 64.5767 17.3896 64.9917 17.3896ZM64.1948 19.1411C63.3371 19.1411 62.626 18.8893 62.0615 18.3857C61.4971 17.8822 61.2148 17.2347 61.2148 16.4434C61.2148 15.6354 61.5137 15.0018 62.1113 14.5425C62.709 14.0832 63.564 13.8203 64.6763 13.7539L66.9175 13.6211V13.0317C66.9175 12.6222 66.7819 12.3013 66.5107 12.0688C66.2451 11.8364 65.8826 11.7202 65.4233 11.7202C64.9806 11.7202 64.6182 11.8198 64.3359 12.019C64.0592 12.2183 63.8905 12.4867 63.8296 12.8242H61.6133C61.6576 11.9499 62.0311 11.2471 62.7339 10.7158C63.4367 10.179 64.3691 9.91064 65.5312 9.91064C66.6712 9.91064 67.5843 10.1818 68.2705 10.7241C68.9567 11.2664 69.2998 11.9858 69.2998 12.8823V19H66.959V17.6387H66.9092C66.6657 18.1035 66.2949 18.4715 65.7969 18.7427C65.2988 19.0083 64.7648 19.1411 64.1948 19.1411ZM70.8687 19V10.1016H73.2095V11.687H73.2593C73.5028 11.1226 73.8569 10.6909 74.3218 10.3921C74.7922 10.0877 75.3649 9.93555 76.04 9.93555C77.0251 9.93555 77.786 10.2288 78.3228 10.8154C78.8595 11.402 79.1279 12.2183 79.1279 13.2642V19H76.7041V13.7705C76.7041 13.1839 76.5658 12.7329 76.2891 12.4175C76.0124 12.1021 75.6056 11.9443 75.0688 11.9443C74.5321 11.9443 74.1004 12.1242 73.7739 12.4839C73.453 12.8436 73.2925 13.314 73.2925 13.895V19H70.8687ZM86.1753 19H80.8711V7.02197H86.084C87.2074 7.02197 88.0983 7.29036 88.7568 7.82715C89.4154 8.36393 89.7446 9.09163 89.7446 10.0103C89.7446 10.6632 89.5288 11.236 89.0972 11.7285C88.6711 12.221 88.137 12.5143 87.4951 12.6084V12.6748C88.3141 12.7357 88.9893 13.0373 89.5205 13.5796C90.0518 14.1219 90.3174 14.786 90.3174 15.5718C90.3174 16.6287 89.9466 17.4644 89.2051 18.0786C88.4635 18.6929 87.4536 19 86.1753 19ZM83.3779 8.88965V12.0024H85.1792C85.8488 12.0024 86.3662 11.8641 86.7314 11.5874C87.0967 11.3052 87.2793 10.9095 87.2793 10.4004C87.2793 9.91895 87.1188 9.54818 86.7979 9.28809C86.4769 9.02246 86.0231 8.88965 85.4365 8.88965H83.3779ZM83.3779 17.1323H85.5361C86.2611 17.1323 86.8117 16.9829 87.188 16.6841C87.5698 16.3797 87.7607 15.9425 87.7607 15.3726C87.7607 14.8136 87.5643 14.3875 87.1714 14.0942C86.784 13.8009 86.2196 13.6543 85.478 13.6543H83.3779V17.1323ZM95.5303 11.7036C95.0046 11.7036 94.5646 11.8835 94.2104 12.2432C93.8618 12.6029 93.6654 13.0622 93.6211 13.6211H97.3979C97.3703 13.0511 97.1849 12.589 96.8418 12.2349C96.5042 11.8807 96.0671 11.7036 95.5303 11.7036ZM97.4312 16.2773H99.6558C99.5229 17.1517 99.0858 17.8573 98.3442 18.394C97.6082 18.9253 96.6924 19.1909 95.5967 19.1909C94.2298 19.1909 93.1562 18.7814 92.376 17.9624C91.6012 17.1434 91.2139 16.02 91.2139 14.5923C91.2139 13.1701 91.6012 12.0356 92.376 11.189C93.1507 10.3368 94.1938 9.91064 95.5054 9.91064C96.7948 9.91064 97.8213 10.3146 98.585 11.1226C99.3486 11.9305 99.7305 13.0124 99.7305 14.3682V15.1069H93.5962V15.2563C93.5962 15.8927 93.7816 16.4102 94.1523 16.8086C94.5286 17.2015 95.0239 17.3979 95.6382 17.3979C96.0809 17.3979 96.4627 17.2983 96.7837 17.0991C97.1047 16.8944 97.3205 16.6204 97.4312 16.2773ZM101.631 8.05127H104.055V10.1016H105.699V11.9277H104.055V16.186C104.055 16.8556 104.404 17.1904 105.101 17.1904C105.328 17.1904 105.524 17.1766 105.69 17.1489V18.9336C105.408 19 105.024 19.0332 104.537 19.0332C103.491 19.0332 102.744 18.8451 102.295 18.4688C101.853 18.0924 101.631 17.4699 101.631 16.6011V11.9277H100.378V10.1016H101.631V8.05127Z" fill="white"/>
<path d="M21.0019 5.96353L15.0062 2.23352L12.9375 0.945312L12.3811 1.29376L10.8715 2.23352L10.363 2.55029L8.80016 3.52437L6.60103 4.89178L5.03822 5.86585L2.83643 7.23326V17.172L2.84175 17.1746V18.7638L10.8795 23.7662L12.9481 25.0544L15.0141 23.7662L23.1637 18.6925V7.30981L21.0019 5.96353ZM21.0019 17.4677L12.9481 22.4806L5.03555 17.5574V8.43963L6.59837 7.4682V16.9107L8.7975 18.2781V6.09815L10.3603 5.12672V19.2521L12.5595 20.6195V3.75667L12.9375 3.52173L13.4753 3.85698V20.4664L14.4524 19.9226L15.6744 19.1624V14.1204H20.9992V17.4677H21.0019ZM21.0019 11.94H15.6771V5.22439L21.0019 8.53728V11.94Z" fill="white"/>
</svg>
