<svg width="32" height="32" viewBox="0 0 32 32" fill="none" xmlns="http://www.w3.org/2000/svg">
<path d="M22.8104 7.81256C24.4033 8.67757 27.6808 12.1368 27.9309 13.935C28.1812 15.7331 24.516 13.4684 22.0237 16.9446C20.8237 18.6185 20.6676 21.0208 21.3536 22.5147H10.987C10.987 22.5147 14.5374 20.8305 14.9126 19.2262C15.2879 17.6217 14.7078 14.3446 17.3362 13.8664C19.9646 13.3883 24.1981 13.3202 24.3346 12.6373C24.4712 11.9543 24.4713 10.6913 21.7743 9.25779C21.9795 8.40435 22.8102 7.81269 22.8102 7.81269L22.8104 7.81256Z" fill="#EDEEF6"/>
<path d="M13.1901 19.9915C13.6196 19.6228 13.9188 19.2741 13.9812 19.0075C14.0541 18.6959 14.0868 18.2479 14.1214 17.7736C14.2401 16.1452 14.4385 13.42 17.1662 12.924C18.1396 12.747 19.2916 12.6273 20.4051 12.5121C20.638 12.4878 20.8957 12.4613 21.1606 12.4324L20.3731 11.5435C19.8068 10.9044 18.9588 10.5909 18.1126 10.7076L15.0379 11.1326C14.6373 11.188 14.2869 11.4299 14.0926 11.7845L13.3087 13.2177L9.28069 12.1595L8.22245 10.5208L3.54565 10.9646L12.2166 16.0172L13.1901 19.9915Z" fill="#EDEEF6"/>
<path d="M8.41948 20.9715C7.96095 21.7488 7.11801 22.2729 6.15199 22.2729C4.69793 22.2729 3.51489 21.0899 3.51489 19.6358C3.51489 18.1818 4.69791 16.9988 6.15199 16.9988C6.79167 16.9988 7.37823 17.2282 7.8346 17.609L9.94273 17.1254C9.12868 15.8962 7.73668 15.0842 6.1518 15.0842C3.63785 15.0841 1.60007 17.1222 1.60007 19.6356C1.60007 22.1496 3.63777 24.1874 6.1518 24.1874C8.26191 24.1874 10.0291 22.7489 10.5435 20.8007L8.41948 20.9715Z" fill="#EDEEF6"/>
<path d="M26.5254 16.4139C26.4319 16.4139 26.3404 16.4213 26.2486 16.428L27.046 18.0721C28.052 18.3086 28.8041 19.2116 28.8041 20.2888C28.8041 21.5455 27.7817 22.5679 26.525 22.5679C25.2684 22.5679 24.246 21.5455 24.246 20.2888C24.246 19.9449 24.3247 19.6193 24.462 19.3265L23.6643 17.682C23.0365 18.3707 22.6505 19.2833 22.6505 20.2888C22.6505 22.4286 24.3852 24.1635 26.5252 24.1635C28.6653 24.1635 30.3999 22.4287 30.3999 20.2888C30.3999 18.1489 28.6652 16.4139 26.5252 16.4139L26.5254 16.4139Z" fill="#EDEEF6"/>
<path d="M24.952 15.9489C24.6573 16.0315 24.3607 16.1511 24.0685 16.321L26.0947 20.4976C26.1776 20.6681 26.3482 20.7674 26.5258 20.7674C26.5959 20.7674 26.6672 20.7516 26.7344 20.7193C26.9721 20.6038 27.0714 20.3178 26.9562 20.0797L24.952 15.9489Z" fill="#EDEEF6"/>
<path d="M11.6475 17.7169L5.80029 19.058C5.48861 19.1051 5.27101 19.3921 5.31008 19.7051C5.34747 20.0046 5.60832 20.2257 5.91008 20.2138L12.1367 19.7136L11.6475 17.7169Z" fill="#EDEEF6"/>
</svg>
