<svg width="263" height="94" viewBox="0 0 263 94" fill="none" xmlns="http://www.w3.org/2000/svg">
<line opacity="0.6" x1="44" y1="8.5" x2="76" y2="8.5" stroke="#383B54"/>
<line x1="174" y1="8" x2="206" y2="8" stroke="#585B70" stroke-width="2"/>
<rect x="130.5" y="25.5" width="119" height="47" rx="7.5" fill="#D9D9D9" fill-opacity="0.05" stroke="#585B70"/>
<rect opacity="0.6" x="0.5" y="25.5" width="119" height="47" rx="7.5" fill="#D9D9D9" fill-opacity="0.05" stroke="#383B54"/>
<rect opacity="0.6" y="25" width="120" height="48" rx="8" fill="url(#paint0_linear_200_1447)"/>
<path d="M188.707 43.8182V54H186.878V45.3494H182.423V54H180.594V43.8182H188.707ZM190.814 54V52.6676L194.349 49.2024C194.687 48.861 194.969 48.5578 195.194 48.2926C195.419 48.0275 195.588 47.7706 195.701 47.522C195.814 47.2734 195.87 47.0083 195.87 46.7266C195.87 46.4051 195.797 46.13 195.651 45.9013C195.506 45.6693 195.305 45.4903 195.05 45.3643C194.795 45.2384 194.505 45.1754 194.18 45.1754C193.845 45.1754 193.552 45.245 193.3 45.3842C193.048 45.5201 192.852 45.714 192.713 45.9659C192.577 46.2178 192.509 46.5178 192.509 46.8658H190.754C190.754 46.2195 190.902 45.6577 191.197 45.1804C191.492 44.7031 191.898 44.3336 192.415 44.0717C192.935 43.8099 193.532 43.679 194.205 43.679C194.887 43.679 195.487 43.8066 196.004 44.0618C196.521 44.317 196.922 44.6667 197.207 45.1108C197.496 45.5549 197.64 46.062 197.64 46.6321C197.64 47.0133 197.567 47.3878 197.421 47.7557C197.275 48.1236 197.019 48.5312 196.651 48.9787C196.286 49.4261 195.774 49.968 195.114 50.6044L193.359 52.3892V52.4588H197.794V54H190.814Z" fill="#EDEEF6"/>
<path opacity="0.6" d="M56.7124 43.8182L58.9546 47.5469H59.0342L61.2863 43.8182H63.3893L60.2522 48.9091L63.439 54H61.3012L59.0342 50.2962H58.9546L56.6876 54H54.5597L57.7764 48.9091L54.5995 43.8182H56.7124Z" fill="#EDEEF6"/>
<path d="M233.833 55.8335L244.526 81.5002L248.323 70.323L259.5 66.5267L233.833 55.8335Z" fill="#06081C" stroke="#585B70" stroke-linecap="round" stroke-linejoin="round"/>
<path d="M249 71L258.333 80.3333" stroke="#585B70" stroke-linecap="round" stroke-linejoin="round"/>
<path d="M235 45.3335V50.0002" stroke="#585B70" stroke-linecap="round" stroke-linejoin="round"/>
<path d="M226.752 48.752L230.053 52.0536" stroke="#585B70" stroke-linecap="round" stroke-linejoin="round"/>
<path d="M223.333 57H228" stroke="#585B70" stroke-linecap="round" stroke-linejoin="round"/>
<defs>
<linearGradient id="paint0_linear_200_1447" x1="0" y1="73" x2="115" y2="73" gradientUnits="userSpaceOnUse">
<stop stop-color="#06081C"/>
<stop offset="1" stop-color="#06081C" stop-opacity="0"/>
</linearGradient>
</defs>
</svg>
