<svg width="32" height="32" viewBox="0 0 32 32" fill="none" xmlns="http://www.w3.org/2000/svg">
<path d="M22.64 14.23V9.97C22.64 7.78 20.85 6 18.67 6H9.97C7.78 6 6 7.78 6 9.97V22.03C6 24.21 7.78 26 9.97 26H23.18C23.22 26 23.26 25.98 23.3 25.97C23.39 25.98 23.48 26 23.57 26C24.91 26 26 24.97 26 23.7V17.99C26 16.11 24.55 14.56 22.64 14.23ZM18.79 10.87C18.79 11.28 18.45 11.62 18.04 11.62H10.85C10.43 11.62 10.1 11.28 10.1 10.87C10.1 10.45 10.43 10.12 10.85 10.12H18.04C18.45 10.12 18.79 10.45 18.79 10.87ZM10.85 15.25H18.04C18.45 15.25 18.79 15.58 18.79 16C18.79 16.41 18.45 16.75 18.04 16.75H10.85C10.43 16.75 10.1 16.41 10.1 16C10.1 15.58 10.43 15.25 10.85 15.25ZM13.68 21.12C13.68 21.53 13.35 21.87 12.93 21.87H10.88C10.46 21.87 10.13 21.53 10.13 21.12C10.13 20.7 10.46 20.37 10.88 20.37H12.93C13.35 20.37 13.68 20.7 13.68 21.12ZM24.5 23.7C24.5 24.14 24.08 24.5 23.57 24.5C23.05 24.5 22.64 24.14 22.64 23.7V15.76C23.71 16.05 24.5 16.94 24.5 17.99V23.7Z" fill="#EDEEF6"/>
</svg>
