<svg width="32" height="32" viewBox="0 0 32 32" fill="none" xmlns="http://www.w3.org/2000/svg">
<path d="M25.3839 15.2918C23.7055 14.1944 22.1464 12.9243 20.7326 11.5025C19.2475 10.0275 17.9294 8.39339 16.8022 6.6298C16.7355 6.52084 16.6045 6.46951 16.4815 6.50429C14.49 7.06952 12.3451 8.19899 10.2725 10.2717C8.11988 12.4244 6.98647 14.6542 6.44451 16.7097C6.413 16.8294 6.46248 16.9557 6.56682 17.0223C8.19723 18.1025 9.71369 19.3455 11.0931 20.7318C12.5414 22.1716 13.8316 23.762 14.9415 25.4761C15.0074 25.582 15.1343 25.6329 15.2551 25.602C17.3284 25.0668 19.5827 23.9326 21.7581 21.7571C23.8089 19.7063 24.9348 17.5852 25.506 15.6114C25.5412 15.4896 25.4912 15.3593 25.3839 15.2918ZM25.9239 13.3917C25.9123 13.4931 25.8486 13.5811 25.756 13.6239C25.6632 13.6667 25.5549 13.658 25.4702 13.6011C24.1377 12.667 22.8905 11.6167 21.7436 10.4623C20.5275 9.25462 19.4286 7.93455 18.4612 6.52002C18.4054 6.43492 18.3979 6.32688 18.4415 6.23488C18.485 6.14289 18.5732 6.08013 18.6743 6.06929C20.7533 5.85674 22.8531 6.13482 24.8048 6.88119C24.9484 6.93823 25.0622 7.05198 25.1192 7.19556C25.8731 9.16835 26.1489 11.2917 25.9239 13.3917ZM13.2164 25.5071C13.2741 25.5928 13.282 25.7026 13.2373 25.7958C13.1926 25.8889 13.1019 25.9513 12.9989 25.96C11.0263 26.1131 9.04428 25.8257 7.19642 25.1185C7.05284 25.0614 6.93909 24.9477 6.88205 24.8041C6.16754 22.9379 5.88141 20.935 6.04456 18.9432C6.05355 18.8399 6.11673 18.749 6.21048 18.7048C6.30432 18.6604 6.41463 18.6692 6.50015 18.7279C7.7672 19.6311 8.95579 20.6396 10.0531 21.7426C11.2181 22.9002 12.2768 24.1601 13.2164 25.5071Z" fill="white"/>
</svg>
