<svg width="24" height="24" viewBox="0 0 24 24" fill="none" xmlns="http://www.w3.org/2000/svg">
<path d="M6.99015 14.02C8.1389 14.02 9.07015 13.1156 9.07015 12C9.07015 10.8844 8.1389 9.97998 6.99015 9.97998C5.8414 9.97998 4.91016 10.8844 4.91016 12C4.91016 13.1156 5.8414 14.02 6.99015 14.02Z" stroke="#EDEEF6" stroke-width="1.5" stroke-linecap="round" stroke-linejoin="round"/>
<path d="M17.0708 6.99995C18.1864 6.99995 19.0908 6.09557 19.0908 4.97995C19.0908 3.86433 18.1864 2.95996 17.0708 2.95996C15.9552 2.95996 15.0508 3.86433 15.0508 4.97995C15.0508 6.09557 15.9552 6.99995 17.0708 6.99995Z" stroke="#EDEEF6" stroke-width="1.5" stroke-linecap="round" stroke-linejoin="round"/>
<path d="M17.0708 21.04C18.1864 21.04 19.0908 20.1356 19.0908 19.02C19.0908 17.9044 18.1864 17 17.0708 17C15.9552 17 15.0508 17.9044 15.0508 19.02C15.0508 20.1356 15.9552 21.04 17.0708 21.04Z" stroke="#EDEEF6" stroke-width="1.5" stroke-linecap="round" stroke-linejoin="round"/>
<path d="M9.23047 10.4399L14.8305 6.53992" stroke="#EDEEF6" stroke-width="1.5" stroke-linecap="round" stroke-linejoin="round"/>
<path d="M14.8305 17.4599L9.23047 13.5599" stroke="#EDEEF6" stroke-width="1.5" stroke-linecap="round" stroke-linejoin="round"/>
</svg>
