<svg width="24" height="24" viewBox="0 0 24 24" fill="none" xmlns="http://www.w3.org/2000/svg">
<path d="M11.5716 1.68154C11.7659 1.35863 12.2341 1.35863 12.4284 1.68154L15.3031 6.45823C15.5125 6.80625 15.8541 7.05445 16.2498 7.1461L21.6811 8.40398C22.0482 8.48902 22.1929 8.93425 21.9458 9.21886L18.2912 13.4289C18.025 13.7356 17.8945 14.1372 17.9296 14.5419L18.4116 20.096C18.4442 20.4715 18.0655 20.7466 17.7185 20.5996L12.5851 18.4249C12.2111 18.2664 11.7889 18.2664 11.4149 18.4249L6.28155 20.5996C5.93453 20.7466 5.55579 20.4715 5.58837 20.096L6.0704 14.5419C6.10552 14.1372 5.97503 13.7356 5.70877 13.4289L2.05418 9.21886C1.80712 8.93425 1.95179 8.48902 2.31894 8.40398L7.75017 7.1461C8.14588 7.05446 8.4875 6.80625 8.69694 6.45823L11.5716 1.68154Z" fill="#D9D9D9" fill-opacity="0.15" stroke="#383B54"/>
</svg>
