<svg width="32" height="32" viewBox="0 0 32 32" fill="none" xmlns="http://www.w3.org/2000/svg">
<path d="M22.2 22.1498L21.4 24.5998L22.2 25.3998L23 22.9498L22.2 22.1498Z" fill="#EDEEF6"/>
<path d="M23.8 23.7499L23 26.1499C23.05 26.1999 23.15 26.1999 23.15 26.1999C23.2 26.1999 23.25 26.1999 23.35 26.1499L24.6 24.8999C24.7 24.7999 24.7 24.6499 24.6 24.5499L23.8 23.7499Z" fill="#EDEEF6"/>
<path d="M19.1499 14.2501C19.1499 12.5001 18.4499 10.9003 17.2499 9.65012L15.2499 7.65012C13.9999 6.45012 12.3997 5.75012 10.6499 5.75012C8.89999 5.75012 7.29999 6.45012 6.04986 7.65012C3.49986 10.2001 3.49986 14.3003 6.04986 16.8L8.04986 18.8C9.29986 20.05 10.9 20.7 12.6499 20.7C14.3997 20.7 15.9997 20.05 17.2499 18.8C18.4999 17.6 19.1499 16 19.1499 14.2501ZM17.2999 13.0501C17.3999 13.5501 17.4499 14.0501 17.4499 14.5501L16.6499 13.7501L17.2999 13.0501ZM15.4499 10.2501L16.0499 10.8501C16.3999 11.2001 16.6999 11.6001 16.8999 12.0001L15.8999 13.0001L14.2499 11.3501L15.4499 10.2501ZM10.9997 13.3003L9.84973 14.5003L8.19973 12.8503L9.39973 11.6503L10.9997 13.3003ZM10.0997 10.9503L11.2997 9.75026L12.9497 11.4003L11.7997 12.5503L10.0997 10.9503ZM11.6997 14.0004L13.3497 15.6504L12.1497 16.8004L10.4997 15.1504L11.6997 14.0004ZM12.4497 13.3004L13.6497 12.1004L15.2997 13.7504L14.1497 14.9004L12.4497 13.3004ZM14.0997 8.85026L14.7997 9.55026L13.6497 10.7003L11.9997 9.05026L12.9997 8.05026C13.3997 8.25026 13.7497 8.55026 14.0997 8.85026ZM10.6997 7.45026C11.1497 7.45026 11.5497 7.50026 11.9997 7.65026L11.2997 8.35026L10.3997 7.50026C10.4997 7.50026 10.5997 7.45026 10.6997 7.45026ZM9.19973 7.70026L10.5497 9.05026L9.39973 10.2003L7.69973 8.50026C8.14973 8.15026 8.64973 7.90026 9.19973 7.70026ZM6.94973 9.25026L8.64973 10.9503L7.49973 12.1003L6.14973 10.7503C6.29973 10.2003 6.59973 9.70026 6.94973 9.25026ZM6.09973 13.5503C5.99973 13.1503 5.89973 12.7003 5.89973 12.2503V11.9503L6.74973 12.8503L6.09973 13.5503ZM7.99973 16.3001L7.29973 15.6001C6.94973 15.2501 6.69973 14.9001 6.49973 14.5001L7.49973 13.5001L9.14973 15.1501L7.99973 16.3001ZM10.4497 18.5001C9.99973 18.3001 9.59973 18.0001 9.24973 17.6501L8.64973 17.0501L9.79973 15.9001L11.4497 17.5501L10.4497 18.5001ZM12.6997 19.0501C12.2997 19.0501 11.8997 19.0001 11.4997 18.9001L12.1497 18.2501L12.9497 19.0501H12.6997ZM14.1497 18.8001L12.8997 17.5001L14.0497 16.3001L15.6997 17.9501C15.2497 18.3501 14.7497 18.6501 14.1497 18.8001ZM16.3997 17.2501L14.7497 15.6001L15.9497 14.4001L17.2497 15.7001C17.0497 16.3001 16.7997 16.8001 16.3997 17.2501Z" fill="#EDEEF6"/>
<path d="M21.3 21.2501C21.25 21.2001 21.2 21.2001 21.1 21.2001C21.05 21.2001 20.95 21.2001 20.9 21.2501L19.65 22.5001C19.55 22.6001 19.55 22.7501 19.65 22.8501L20.55 23.7501L21.35 21.3001L21.3 21.2501Z" fill="#EDEEF6"/>
<path d="M20.3 20.5L19.25 17.85C18.9 18.45 18.5 19.05 18 19.55C17.5 20.05 16.9 20.5 16.3 20.8L18.95 21.85L20.3 20.5C20.25 20.55 20.3 20.55 20.3 20.5Z" fill="#EDEEF6"/>
<path d="M21.6501 10.1499C21.6501 9.29985 21.4001 8.49985 20.9001 7.84985C20.4001 8.49985 20.1501 9.29985 20.1501 10.1499C20.1501 10.9999 20.4501 11.7999 20.9001 12.4499C21.3501 11.7999 21.6501 10.9999 21.6501 10.1499Z" fill="#EDEEF6"/>
<path d="M27 7.85013C26.5 8.50013 26.25 9.30013 26.25 10.1501C26.25 11.0001 26.5 11.8001 27 12.4501C27.5 11.8001 27.75 11.0001 27.75 10.1501C27.75 9.30013 27.5 8.50013 27 7.85013Z" fill="#EDEEF6"/>
<path d="M23.9498 6.29999C23.1498 6.29999 22.3498 6.54999 21.7498 6.99999C22.4498 7.89999 22.8498 8.99999 22.8498 10.1499C22.8498 11.2997 22.4498 12.3999 21.7498 13.2997C22.3998 13.7497 23.1498 13.9997 23.9498 13.9997C24.7498 13.9997 25.5498 13.7497 26.1498 13.2997C25.4498 12.3997 25.0498 11.2997 25.0498 10.1499C25.0498 8.99999 25.4498 7.89985 26.1498 6.99999C25.4998 6.54999 24.7498 6.29999 23.9498 6.29999Z" fill="#EDEEF6"/>
</svg>
