<svg width="72" height="72" viewBox="0 0 72 72" fill="none" xmlns="http://www.w3.org/2000/svg">
<circle cx="36" cy="36" r="36" fill="#50AF95"/>
<path fill-rule="evenodd" clip-rule="evenodd" d="M40.8029 37.5021C40.5549 37.5206 39.2739 37.5967 36.4163 37.5967C34.1434 37.5967 32.5297 37.5288 31.9636 37.5021C23.1801 37.1176 16.624 35.5959 16.624 33.7741C16.624 31.9523 23.1801 30.4327 31.9636 30.042V35.9866C32.538 36.0278 34.1827 36.1244 36.4555 36.1244C39.1829 36.1244 40.5487 36.0113 40.7946 35.9887V30.0462C49.5595 30.4348 56.1011 31.9564 56.1011 33.7741C56.1011 35.5918 49.5615 37.1135 40.7946 37.5L40.8029 37.5021ZM40.8029 29.4313V24.1119H53.0348V16H19.7316V24.1119H31.9615V29.4293C22.021 29.8837 14.5454 31.8433 14.5454 34.1915C14.5454 36.5398 22.021 38.4973 31.9615 38.9538V56H40.8008V38.9476C50.7186 38.4932 58.1818 36.5357 58.1818 34.1895C58.1818 31.8433 50.7248 29.8858 40.8008 29.4293L40.8029 29.4313Z" fill="white"/>
</svg>
