<svg width="14" height="14" viewBox="0 0 14 14" fill="none" xmlns="http://www.w3.org/2000/svg">
<path d="M7.00016 2.33325C4.42323 2.33325 2.3335 4.42299 2.3335 6.99992C2.3335 9.57685 4.42323 11.6666 7.00016 11.6666C9.5771 11.6666 11.6668 9.57685 11.6668 6.99992C11.6668 4.42299 9.5771 2.33325 7.00016 2.33325ZM7.00016 10.8751C6.2676 10.8748 5.55012 10.6669 4.93089 10.2755C4.31166 9.88411 3.81604 9.32521 3.50149 8.66362C3.18693 8.00203 3.06632 7.26484 3.15364 6.5375C3.24096 5.81016 3.53262 5.12246 3.99483 4.55412L9.44596 10.0048C8.7558 10.5689 7.89155 10.8766 7.00016 10.8756V10.8751ZM10.0055 9.44572L4.55436 3.99505C5.29872 3.39299 6.23958 3.08773 7.19562 3.13811C8.15166 3.18848 9.05523 3.59093 9.73219 4.26789C10.4091 4.94485 10.8116 5.84842 10.862 6.80446C10.9124 7.7605 10.6071 8.70136 10.005 9.44572H10.0055Z" fill="#EF4342"/>
</svg>
