<svg width="20" height="18" viewBox="0 0 20 18" fill="none" xmlns="http://www.w3.org/2000/svg">
<path d="M18.5898 4.67812C18.7134 4.2875 18.5898 4 17.995 4H16.0268C15.5256 4 15.295 4.24687 15.1714 4.52187C15.1714 4.52187 14.1689 6.80625 12.7521 8.2875C12.2943 8.71562 12.0838 8.85313 11.8332 8.85313C11.7096 8.85313 11.5191 8.71562 11.5191 8.325V4.67812C11.5191 4.20937 11.3788 4 10.9644 4H7.87017C7.55607 4 7.36894 4.21875 7.36894 4.42188C7.36894 4.86562 8.07734 4.96875 8.15086 6.21875V8.93125C8.15086 9.525 8.03724 9.63437 7.78663 9.63437C7.11833 9.63437 5.49435 7.34063 4.53199 4.71563C4.33818 4.20625 4.14771 4 3.64314 4H1.67499C1.11361 4 1 4.24687 1 4.52187C1 5.00937 1.6683 7.43125 4.11096 10.6313C5.73828 12.8156 8.03056 14 10.1157 14C11.3687 14 11.5225 13.7375 11.5225 13.2844C11.5225 11.1969 11.4088 11 12.037 11C12.3278 11 12.829 11.1375 13.9985 12.1906C15.3351 13.4406 15.5557 14 16.3042 14H18.2723C18.8337 14 19.1177 13.7375 18.954 13.2188C18.5797 12.1281 16.0502 9.88438 15.9366 9.73438C15.6459 9.38438 15.7294 9.22813 15.9366 8.91563C15.9399 8.9125 18.3425 5.75 18.5898 4.67812V4.67812Z" fill="#EDEEF6"/>
</svg>
