<svg width="32" height="32" viewBox="0 0 32 32" fill="none" xmlns="http://www.w3.org/2000/svg">
<path d="M17.2 26.1C19.8 21.3 20.5499 17.4498 20.7 14.9C21.6 14.85 22.45 14.95 23.15 15.15C23 17.95 22.45 21.0998 20.05 25.35C19.15 25.7 18.2 25.95 17.1999 26.1H17.2ZM11.4501 25.1C12.0001 24.8 12.7001 24.35 13.4501 23.7C13.5501 23.65 13.6001 23.6 13.6501 23.5C14.4001 22.8 15.1001 21.85 15.6501 20.6498C16.2001 19.4497 16.5001 17.9998 16.5001 16.2498C17.6001 15.5998 18.7001 15.1998 19.65 14.9998C19.45 17.5498 18.65 21.3497 15.95 26.1497C14.35 26.1497 12.85 25.7497 11.45 25.0997L11.4501 25.1ZM6.65015 11.9501C9.50028 16.6002 12.4501 19.2002 14.6 20.6002C14.2 21.4002 13.7 22.1002 13.15 22.6002C10.8 21.1002 8.35001 19.0504 5.89988 14.8504C5.99988 13.8504 6.24988 12.9004 6.64988 11.9504L6.65015 11.9501ZM23.9003 14.3501C23.8503 14.3001 23.7503 14.3001 23.6503 14.2501C22.6503 13.9501 21.5003 13.8001 20.2001 13.9501C18.9 14.1001 17.5001 14.5001 16.0001 15.4001C14.8501 14.7501 14.0001 14.0501 13.3501 13.3001C15.6501 12.2001 19.3501 11.0001 24.8003 10.9001C25.5503 12.2501 26.0503 13.7502 26.1503 15.3502C25.6003 15.0502 24.8503 14.6502 23.9003 14.3502V14.3501ZM24.1503 9.95011C18.7001 10.1001 15.0004 11.3501 12.7001 12.5001C12.2001 11.7501 11.8501 10.9501 11.6501 10.2501C14.1501 9.00011 17.1501 7.85011 22 7.85011C22.8 8.40011 23.55 9.15011 24.15 9.95011H24.1503ZM20.4503 6.85011C16.4503 7.10011 13.7004 8.10011 11.4503 9.20011C11.3003 8.15011 11.3503 7.30011 11.4503 6.90011C12.8003 6.20011 14.3503 5.80011 16.0001 5.80011C17.6001 5.85011 19.1001 6.20011 20.4503 6.85011ZM10.4001 7.55011C10.4001 8.15011 10.4001 9.00011 10.6001 10.0001C10.6001 10.1001 10.6001 10.1501 10.6501 10.2501C10.9001 11.2501 11.3501 12.3501 12.1001 13.4C12.1001 13.4 12.1001 13.45 12.1501 13.45V13.5C12.1501 13.5 12.1501 13.55 12.2001 13.55C12.9501 14.55 14.0001 15.55 15.5001 16.35C15.5001 17.65 15.3501 18.75 15.0001 19.6998C12.9001 18.2998 10.0001 15.6497 7.20015 10.95C8.00015 9.54998 9.10015 8.39998 10.4001 7.54998V7.55011ZM5.85028 16.7C8.05028 20.0498 10.3004 21.9 12.4001 23.3C11.5501 23.95 10.8001 24.3 10.4001 24.45C7.85015 22.8 6.10015 19.95 5.85028 16.7001V16.7ZM21.6503 24.4498C23.4503 20.8498 23.9503 17.9997 24.1003 15.4498C25.1003 15.8498 25.8003 16.3498 26.1003 16.5998C25.9503 19.85 24.2503 22.6998 21.6501 24.45L21.6503 24.4498Z" fill="#EDEEF6"/>
</svg>
