<svg width="24" height="24" viewBox="0 0 24 24" fill="none" xmlns="http://www.w3.org/2000/svg">
<path d="M13.2 0V3.64511C17.268 4.23459 20.4 7.72331 20.4 11.9699C20.4 13.0526 20.184 14.0752 19.8 15.0256L22.944 16.8662C23.616 15.3744 24 13.7143 24 11.9699C24 5.73835 19.26 0.601504 13.2 0ZM12 20.391C9.77218 20.391 7.63561 19.5038 6.0603 17.9245C4.485 16.3453 3.6 14.2033 3.6 11.9699C3.6 7.72331 6.732 4.23459 10.8 3.64511V0C4.728 0.601504 0 5.72632 0 11.9699C0 15.1605 1.26428 18.2204 3.51472 20.4765C4.62902 21.5936 5.95189 22.4797 7.4078 23.0843C8.86371 23.6888 10.4241 24 12 24C15.96 24 19.476 22.0632 21.66 19.0797L18.54 17.2391C17.004 19.188 14.652 20.391 12 20.391Z" fill="#F4CC22"/>
</svg>
