<svg width="20" height="20" viewBox="0 0 20 20" fill="none" xmlns="http://www.w3.org/2000/svg">
<path d="M15.3154 1.7041H4.58601C2.72229 1.7041 1.20605 3.21999 1.20605 5.08371V8.65381V15.8134C1.20605 17.6771 2.72229 19.193 4.58601 19.193H15.3157C17.1795 19.193 18.6953 17.6771 18.6953 15.8134V8.65346V5.08335C18.695 3.21963 17.1791 1.7041 15.3154 1.7041ZM16.2848 3.71952L16.6715 3.71811V4.10299V6.68249L13.7169 6.69202L13.7067 3.72798L16.2848 3.71952ZM7.45445 8.65346C8.01466 7.87841 8.92341 7.37006 9.9507 7.37006C10.978 7.37006 11.8867 7.87841 12.4462 8.65346C12.8107 9.15934 13.029 9.77811 13.029 10.4484C13.029 12.1456 11.6468 13.5264 9.95034 13.5264C8.25278 13.5264 6.87201 12.1456 6.87201 10.4484C6.87236 9.77811 7.09003 9.15934 7.45445 8.65346ZM16.9911 15.8131C16.9911 16.7377 16.2393 17.4888 15.3154 17.4888H4.58601C3.66174 17.4888 2.90997 16.7377 2.90997 15.8131V8.65346H5.52052C5.2951 9.20803 5.16845 9.81374 5.16845 10.4484C5.16845 13.0847 7.31333 15.231 9.9507 15.231C12.5877 15.231 14.7326 13.0847 14.7326 10.4484C14.7326 9.81374 14.6052 9.20803 14.3798 8.65346H16.9911V15.8131Z" fill="#EDEEF6"/>
</svg>
