<svg width="52" height="52" viewBox="0 0 52 52" fill="none" xmlns="http://www.w3.org/2000/svg">
<path d="M32.5001 9.34345C32.8251 8.85595 33.5563 8.69345 34.0438 9.01845C34.5313 9.34345 34.6126 9.9122 34.3688 10.3997L23.7253 28.5997L21.6128 28.1122L32.5001 9.34345ZM17.6315 10.3997C17.3878 9.9122 17.469 9.34345 17.9565 9.01845C18.444 8.69345 19.1753 8.85595 19.5003 9.34345L25.0253 18.7685L23.8065 20.881L17.6315 10.3997ZM17.2253 39.6497C16.6565 40.5435 15.6003 41.031 14.544 40.7872L6.25652 38.8372C6.01277 38.756 5.76902 38.5935 5.68777 38.2684L4.63152 34.1247C4.55027 33.7997 4.71277 33.556 4.79402 33.4747C4.95652 33.3122 5.11902 33.1497 5.36277 33.1497H5.60652L16.088 36.156C16.4942 36.2372 16.9005 36.0747 17.063 35.7497L20.638 29.5747L22.7505 30.0622L17.2253 39.6497ZM28.2753 24.2932L30.469 28.112L28.3565 28.5995L27.0565 26.4057L28.2753 24.2932ZM47.3688 34.1247L46.3126 38.3497C46.2313 38.5935 46.0688 38.8372 45.7438 38.9185L37.4563 40.8685C36.4001 41.1122 35.3438 40.6247 34.7751 39.731L29.2501 30.1435L31.3626 29.656L34.9376 35.8309C35.1001 36.156 35.5063 36.3185 35.9126 36.2372L46.394 33.2309C46.8003 33.1497 47.044 33.3122 47.1253 33.3934C47.2878 33.4747 47.4503 33.7185 47.369 34.1247H47.3688Z" fill="#EDEEF6"/>
<path d="M30.0617 37.8623H21.9367C21.4492 37.8623 21.043 38.2686 21.043 38.7561V42.2498C21.043 42.7373 21.4492 43.1436 21.9367 43.1436H30.0617C30.5492 43.1436 30.9555 42.7373 30.9555 42.2498V38.7561C30.8742 38.2686 30.468 37.8623 30.0617 37.8623Z" fill="#EDEEF6"/>
</svg>
