<svg width="52" height="52" viewBox="0 0 52 52" fill="none" xmlns="http://www.w3.org/2000/svg">
<path d="M13.8903 27.1181L9.25802 28.5711C9.12985 27.7307 9.04297 26.8776 9.04297 26C9.04297 19.8976 12.2763 14.5659 17.1112 11.5773L19.4374 16.2424L13.8903 27.1181ZM25.9995 9.04354C23.6807 9.04354 21.4744 9.51095 19.4628 10.3513L21.8717 15.1904L33.2557 16.9825L37.069 13.1693C34.0973 10.6046 30.2344 9.04346 25.9995 9.04346L25.9995 9.04354ZM14.718 29.635L9.84952 31.159C11.5717 36.5492 15.9146 40.7596 21.3831 42.3037L22.7078 37.626L14.718 29.635ZM38.9405 15.0544L35.1317 18.8589L36.8751 29.9453L41.8307 32.0363C42.5459 30.1562 42.956 28.1278 42.956 25.9998C42.956 21.8231 41.4405 18.0059 38.9404 15.0543L38.9405 15.0544ZM21.5323 17.6911L16.3945 27.7506L24.364 35.7202L34.4193 30.5909L32.3993 19.4006L21.5323 17.6911ZM40.6952 34.4326L36.174 32.5239L25.3441 38.0506L23.9865 42.8239C24.6458 42.9024 25.3155 42.9565 25.9991 42.9565C32.2923 42.9565 37.7681 39.5208 40.6951 34.4327L40.6952 34.4326Z" fill="#EDEEF6" stroke="#EDEEF6" stroke-width="0.5"/>
</svg>
