<svg width="52" height="52" viewBox="0 0 52 52" fill="none" xmlns="http://www.w3.org/2000/svg">
<path d="M29.6575 29.3633L29.3365 24.1293L30.573 22.7663L32.323 20.8401L32.6444 26.0751L29.6575 29.3633ZM8.27809 34.2663C8.4856 33.2872 8.9199 32.3674 9.56008 31.5643C11.5197 29.1096 14.3058 31.8974 12.6816 33.6835C11.7153 34.7474 11.6868 36.305 12.5546 37.3958C13.7344 38.8871 15.9913 38.8148 17.1431 37.5479L24.6916 29.2404L25.0126 34.4758L19.9856 40.0085C15.3952 45.0604 6.88021 40.8919 8.27809 34.2658L8.27809 34.2663ZM25.8152 28.0027L28.2123 25.3642L28.5338 30.5999L26.1368 33.2389L25.8152 28.0027ZM43.875 13.7111L33.7682 24.8377L33.4466 19.6033L43.875 8.125L43.875 13.7111Z" fill="#EDEEF6"/>
<path d="M42.25 37.3748C42.25 40.9598 39.3351 43.875 35.7498 43.875C32.1648 43.875 29.25 40.9601 29.25 37.3748C29.25 33.7895 32.1647 30.875 35.7498 30.875C39.3348 30.8749 42.25 33.7897 42.25 37.3748Z" fill="#EDEEF6"/>
</svg>
