<svg width="52" height="52" viewBox="0 0 52 52" fill="none" xmlns="http://www.w3.org/2000/svg">
<path d="M36.0734 35.9937L34.7734 39.9749L36.0734 41.2749L37.3734 37.2937L36.0734 35.9937Z" fill="#EDEEF6"/>
<path d="M38.675 38.5935L37.375 42.4935C37.4563 42.5748 37.6188 42.5748 37.6188 42.5748C37.7 42.5748 37.7813 42.5748 37.9438 42.4935L39.975 40.4623C40.1375 40.2998 40.1375 40.056 39.975 39.8935L38.675 38.5935Z" fill="#EDEEF6"/>
<path d="M31.118 23.1565C31.118 20.3127 29.9805 17.713 28.0305 15.6815L24.7805 12.4315C22.7492 10.4815 20.149 9.34399 17.3055 9.34399C14.4619 9.34399 11.8619 10.4815 9.83047 12.4315C5.68672 16.5752 5.68672 23.238 9.83047 27.3L13.0805 30.55C15.1117 32.5813 17.7119 33.6375 20.5555 33.6375C23.399 33.6375 25.999 32.5813 28.0305 30.55C30.0617 28.6 31.118 26 31.118 23.1565ZM28.1117 21.2065C28.2742 22.019 28.3555 22.8315 28.3555 23.644L27.0555 22.344L28.1117 21.2065ZM25.1055 16.6565L26.0805 17.6315C26.6492 18.2002 27.1367 18.8502 27.4617 19.5002L25.8367 21.1252L23.1555 18.444L25.1055 16.6565ZM17.874 21.613L16.0053 23.563L13.324 20.8817L15.274 18.9317L17.874 21.613ZM16.4115 17.7942L18.3615 15.8442L21.0428 18.5255L19.174 20.3942L16.4115 17.7942ZM19.0115 22.7507L21.6928 25.4319L19.7428 27.3007L17.0615 24.6194L19.0115 22.7507ZM20.2303 21.6132L22.1803 19.6632L24.8615 22.3444L22.9928 24.2132L20.2303 21.6132ZM22.9115 14.3817L24.049 15.5192L22.1803 17.388L19.499 14.7067L21.124 13.0817C21.774 13.4067 22.3428 13.8942 22.9115 14.3817ZM17.3865 12.1067C18.1178 12.1067 18.7678 12.188 19.499 12.4317L18.3615 13.5692L16.899 12.188C17.0615 12.188 17.224 12.1067 17.3865 12.1067ZM14.949 12.513L17.1428 14.7067L15.274 16.5755L12.5115 13.813C13.2428 13.2442 14.0553 12.838 14.949 12.513ZM11.2928 15.0317L14.0553 17.7942L12.1865 19.663L9.99275 17.4692C10.2365 16.5755 10.724 15.763 11.2928 15.0317ZM9.9115 22.0192C9.749 21.3692 9.5865 20.638 9.5865 19.9067V19.4192L10.9678 20.8817L9.9115 22.0192ZM12.999 26.4877L11.8615 25.3502C11.2928 24.7815 10.8865 24.2127 10.5615 23.5627L12.1865 21.9377L14.8678 24.619L12.999 26.4877ZM16.9803 30.0627C16.249 29.7377 15.599 29.2502 15.0303 28.6815L14.0553 27.7065L15.924 25.8377L18.6053 28.519L16.9803 30.0627ZM20.6365 30.9565C19.9865 30.9565 19.3365 30.8752 18.6865 30.7127L19.7428 29.6565L21.0428 30.9565H20.6365ZM22.9928 30.5502L20.9615 28.4377L22.8303 26.4877L25.5115 29.169C24.7803 29.819 23.9678 30.3065 22.9928 30.5502ZM26.649 28.0315L23.9678 25.3502L25.9178 23.4002L28.0303 25.5127C27.7053 26.4877 27.299 27.3002 26.649 28.0315Z" fill="#EDEEF6"/>
<path d="M34.6117 34.5314C34.5305 34.4502 34.4492 34.4502 34.2867 34.4502C34.2055 34.4502 34.043 34.4502 33.9617 34.5314L31.9305 36.5627C31.768 36.7252 31.768 36.9689 31.9305 37.1314L33.393 38.5939L34.693 34.6127L34.6117 34.5314Z" fill="#EDEEF6"/>
<path d="M32.9883 33.3126L31.282 29.0063C30.7133 29.9813 30.0633 30.9563 29.2508 31.7688C28.4383 32.5813 27.4633 33.3126 26.4883 33.8001L30.7945 35.5063L32.9883 33.3126C32.907 33.3938 32.9883 33.3938 32.9883 33.3126Z" fill="#EDEEF6"/>
<path d="M35.1797 16.4936C35.1797 15.1124 34.7734 13.8124 33.9609 12.7561C33.1484 13.8124 32.7422 15.1124 32.7422 16.4936C32.7422 17.8749 33.2297 19.1749 33.9609 20.2311C34.6922 19.1749 35.1797 17.8749 35.1797 16.4936Z" fill="#EDEEF6"/>
<path d="M43.875 12.7566C43.0625 13.8128 42.6562 15.1128 42.6562 16.4941C42.6562 17.8753 43.0625 19.1753 43.875 20.2316C44.6875 19.1753 45.0938 17.8753 45.0938 16.4941C45.0938 15.1128 44.6875 13.8128 43.875 12.7566Z" fill="#EDEEF6"/>
<path d="M38.9188 10.2375C37.6188 10.2375 36.3187 10.6438 35.3438 11.375C36.4813 12.8375 37.1313 14.625 37.1313 16.4936C37.1313 18.3621 36.4813 20.1498 35.3438 21.6121C36.4 22.3434 37.6188 22.7496 38.9188 22.7496C40.2188 22.7496 41.5187 22.3434 42.4938 21.6121C41.3562 20.1496 40.7063 18.3621 40.7063 16.4936C40.7063 14.625 41.3562 12.8373 42.4938 11.375C41.4375 10.6438 40.2188 10.2375 38.9188 10.2375Z" fill="#EDEEF6"/>
</svg>
