<svg width="52" height="52" viewBox="0 0 52 52" fill="none" xmlns="http://www.w3.org/2000/svg">
<path d="M37.0647 12.6953C39.6531 14.101 44.9791 19.7222 45.3855 22.6442C45.7921 25.5662 39.8363 21.8861 35.7863 27.5348C33.8363 30.255 33.5826 34.1587 34.6974 36.5863H17.8516C17.8516 36.5863 23.621 33.8495 24.2307 31.2424C24.8405 28.6351 23.8979 23.3098 28.1691 22.5328C32.4403 21.7559 39.3196 21.6452 39.5415 20.5354C39.7634 19.4257 39.7636 17.3733 35.381 15.0438C35.7144 13.657 37.0644 12.6955 37.0644 12.6955L37.0647 12.6953Z" fill="#EDEEF6"/>
<path d="M21.4301 32.4861C22.128 31.8871 22.6141 31.3204 22.7155 30.8872C22.834 30.3807 22.8872 29.6527 22.9434 28.882C23.1363 26.2359 23.4587 21.8074 27.8912 21.0014C29.473 20.7139 31.345 20.5194 33.1544 20.3322C33.5329 20.2927 33.9516 20.2496 34.3822 20.2027L33.1025 18.7581C32.1822 17.7196 30.8041 17.2101 29.4291 17.3999L24.4328 18.0905C23.7818 18.1804 23.2124 18.5736 22.8967 19.1498L21.6228 21.4788L15.0773 19.7592L13.3576 17.0962L5.75781 17.8175L19.8481 26.0278L21.4301 32.4861Z" fill="#EDEEF6"/>
<path d="M13.6792 34.0786C12.9341 35.3417 11.5643 36.1935 9.99453 36.1935C7.63169 36.1935 5.70925 34.2711 5.70925 31.9082C5.70925 29.5453 7.63165 27.6229 9.99453 27.6229C11.034 27.6229 11.9872 27.9958 12.7288 28.6145L16.1545 27.8288C14.8317 25.8313 12.5697 24.5117 9.99422 24.5117C5.90906 24.5115 2.59766 27.8235 2.59766 31.9079C2.59766 35.993 5.90893 39.3044 9.99422 39.3044C13.4231 39.3044 16.2949 36.967 17.1308 33.8011L13.6792 34.0786Z" fill="#EDEEF6"/>
<path d="M43.1013 26.6724C42.9494 26.6724 42.8006 26.6845 42.6515 26.6953L43.9473 29.367C45.5821 29.7513 46.8042 31.2187 46.8042 32.9691C46.8042 35.0112 45.1428 36.6726 43.1007 36.6726C41.0587 36.6726 39.3973 35.0112 39.3973 32.9691C39.3973 32.4102 39.5252 31.8812 39.7483 31.4054L38.452 28.7331C37.4319 29.8522 36.8047 31.3352 36.8047 32.9691C36.8047 36.4463 39.6236 39.2655 43.101 39.2655C46.5787 39.2655 49.3974 36.4464 49.3974 32.9691C49.3974 29.4918 46.5785 26.6724 43.101 26.6724L43.1013 26.6724Z" fill="#EDEEF6"/>
<path d="M40.5451 25.9167C40.0663 26.051 39.5842 26.2455 39.1094 26.5216L42.402 33.3084C42.5368 33.5855 42.8139 33.7468 43.1025 33.7468C43.2164 33.7468 43.3323 33.7213 43.4415 33.6688C43.8278 33.4811 43.9891 33.0162 43.8019 32.6293L40.5451 25.9167Z" fill="#EDEEF6"/>
<path d="M18.9229 28.7898L9.42115 30.9692C8.91467 31.0457 8.56107 31.512 8.62456 32.0207C8.68532 32.5073 9.1092 32.8667 9.59956 32.8474L19.7179 32.0346L18.9229 28.7898Z" fill="#EDEEF6"/>
</svg>
