<svg width="52" height="52" viewBox="0 0 52 52" fill="none" xmlns="http://www.w3.org/2000/svg">
<path d="M14.7859 38.9999V33.3934L18.8484 31.0372L25.1049 34.6934V39.4059L20.2299 42.2497C18.2799 41.5184 16.4112 40.3809 14.7864 38.9997L14.7859 38.9999ZM8.77344 25.9999C8.77344 24.9437 8.85469 23.8874 9.09844 22.8312L13.9734 19.9874L18.0359 22.3437V29.5751L13.9734 31.9314L9.09844 29.0876C8.93594 28.1126 8.77344 27.0564 8.77344 26.0001V25.9999ZM37.2109 12.9999V18.6064L33.1484 20.9626L26.8109 17.3064V12.5939L31.6859 9.75012C33.7172 10.4814 35.5859 11.6189 37.2109 13.0001V12.9999ZM25.9984 33.2314L19.742 29.5751V22.3437L25.9984 18.6874L32.2549 22.3437V29.5751L25.9984 33.2314ZM25.1859 17.3064L18.9295 20.9626L14.867 18.6064V12.9999C16.492 11.6187 18.3607 10.5624 20.392 9.83115L25.267 12.6749V17.3064H25.1859ZM26.8109 34.6939L33.0674 31.0376L37.1299 33.3939V39.0003C35.5049 40.3816 33.6362 41.4378 31.6049 42.1691L26.7299 39.3253V34.6939H26.8109ZM38.0234 32.0126L33.9609 29.6564V22.4249L38.0234 20.0687L42.8984 22.9124C43.0609 23.9687 43.2234 25.0249 43.2234 26.0812C43.2234 27.1374 43.1422 28.1937 42.8984 29.2499L38.0234 32.0126ZM42.3297 20.5562L38.9172 18.5249V14.6249C40.3797 16.3312 41.5984 18.3624 42.3297 20.5564V20.5562ZM29.4922 9.18115L25.9984 11.1312L22.5047 9.0999C23.6422 8.85615 24.7797 8.7749 25.9984 8.7749C27.2172 8.7749 28.3547 8.9374 29.4922 9.18115ZM13.1607 14.6247V18.6059L9.74822 20.6372C10.3982 18.3622 11.617 16.3309 13.1607 14.6247ZM9.66697 31.4432L13.0795 33.4745V37.3745C11.617 35.6682 10.3982 33.637 9.66697 31.443V31.4432ZM22.5045 42.8182L25.9982 40.787L29.492 42.8182C28.3545 43.062 27.217 43.1432 25.9982 43.1432C24.7795 43.2245 23.642 43.062 22.5045 42.8182ZM38.8359 37.3747V33.3934L42.2484 31.3622C41.5984 33.6372 40.3797 35.6684 38.8359 37.3747Z" fill="#EDEEF6"/>
</svg>
