<svg width="52" height="52" viewBox="0 0 52 52" fill="none" xmlns="http://www.w3.org/2000/svg">
<path d="M9.41083 17.2796C10.0219 11.7481 14.4791 7.2891 20.0089 6.67723C22.8543 6.35951 25.5924 7.02491 27.912 8.53142C23.9981 9.31783 20.5826 11.7669 18.6374 15.3092C16.9457 18.3894 16.5217 21.8855 17.3032 25.1363H11.2304C9.77778 22.8586 9.09848 20.1075 9.41044 17.2791L9.41083 17.2796ZM15.6469 29.25C14.4331 28.591 13.3736 27.7428 12.4799 26.7614H17.812C18.3216 28.1101 19.0438 29.3947 19.9878 30.5598C20.8914 31.6738 21.1352 33.1331 20.6248 34.3687L18.5399 39.4092V33.9531C18.5401 32.0203 17.431 30.2173 15.6467 29.2497L15.6469 29.25ZM31.9264 33.9196C29.865 34.1471 28.1166 35.421 27.3617 37.2436L24.0556 45.2386L18.7889 43.0602L22.1266 34.9889C22.8651 33.2031 22.5288 31.1133 21.2499 29.5363C20.3797 28.4629 19.7248 27.2743 19.2732 26.0263L35.7468 32.8383C34.5604 33.3981 33.2734 33.7701 31.9264 33.9198L31.9264 33.9196ZM41.7462 26.5486C40.8524 28.7098 39.3647 30.516 37.5122 31.8106L18.7419 24.0487C18.2698 21.3886 18.6932 18.5865 20.0623 16.0927C22.191 12.2154 26.4305 9.88433 30.6516 9.88433C31.7583 9.88433 32.8535 10.0387 33.908 10.3442C37.2767 11.3192 39.9613 13.5797 41.4675 16.7103C42.9537 19.7987 43.0553 23.3841 41.7465 26.5487L41.7462 26.5486Z" fill="#EDEEF6"/>
<path d="M38.5075 41.3123C38.5075 43.5699 36.6773 45.4 34.4198 45.4C32.1622 45.4 30.332 43.5699 30.332 41.3123C30.332 39.0547 32.1622 37.2246 34.4198 37.2246C36.6773 37.2246 38.5075 39.0547 38.5075 41.3123Z" fill="#EDEEF6"/>
</svg>
