<svg width="52" height="52" viewBox="0 0 52 52" fill="none" xmlns="http://www.w3.org/2000/svg">
<path d="M14.5071 14.5238C8.16429 20.8628 8.16429 31.1567 14.5071 37.4957C20.8499 43.8348 31.1501 43.8348 37.4929 37.4957C43.8357 31.1567 43.8357 20.8628 37.4929 14.5238C31.1241 8.15875 20.8499 8.15875 14.5071 14.5238ZM16.5253 39.1459L12.8297 35.4525C13.8518 34.4309 15.503 34.4309 16.5253 35.4525C17.5475 36.474 17.5474 38.1242 16.5253 39.1459ZM28.6079 34.9023C28.6079 36.343 27.4284 37.5217 25.9869 37.5217C24.5454 37.5217 23.366 36.343 23.366 34.9023C23.366 33.4617 24.5454 32.283 25.9869 32.283C27.4284 32.283 28.6079 33.4617 28.6079 34.9023ZM19.6967 25.9965C19.6967 27.4371 18.5172 28.6158 17.0757 28.6158C15.6342 28.6158 14.4548 27.4371 14.4548 25.9965C14.4548 24.5558 15.6342 23.3771 17.0757 23.3771C18.5172 23.3771 19.6967 24.5558 19.6967 25.9965ZM35.4486 39.1456C34.4265 38.124 34.4265 36.4738 35.4486 35.4522C36.4708 34.4306 38.122 34.4307 39.1442 35.4522L35.4486 39.1456ZM27.8477 27.8562C26.8256 28.8777 25.1744 28.8777 24.1521 27.8562C23.1299 26.8346 23.13 25.1844 24.1521 24.1628C25.1743 23.1411 26.8255 23.1412 27.8477 24.1628C28.8699 25.1581 28.8699 26.8345 27.8477 27.8562ZM16.5253 16.5405C15.5031 17.562 13.8519 17.562 12.8297 16.5405L16.5253 12.8471C17.5474 13.8686 17.5474 15.5188 16.5253 16.5405ZM37.5191 25.9965C37.5191 27.4371 36.3397 28.6158 34.8982 28.6158C33.4566 28.6158 32.2772 27.4371 32.2772 25.9965C32.2772 24.5558 33.4566 23.3771 34.8982 23.3771C36.3397 23.3771 37.5191 24.5558 37.5191 25.9965ZM28.6079 17.0906C28.6079 18.5312 27.4284 19.71 25.9869 19.71C24.5454 19.71 23.366 18.5312 23.366 17.0906C23.366 15.65 24.5454 14.4712 25.9869 14.4712C27.4284 14.4712 28.6079 15.65 28.6079 17.0906ZM35.4486 16.5405C34.4265 15.519 34.4265 13.8688 35.4486 12.8471L39.1442 16.5405C38.1221 17.5621 36.4709 17.5621 35.4486 16.5405Z" fill="#EDEEF6" stroke="#EDEEF6" stroke-width="0.5"/>
</svg>
