<svg width="192" height="192" viewBox="0 0 192 192" fill="none" xmlns="http://www.w3.org/2000/svg">
<path d="M154.366 45.8011L111.008 19.1904L96.0476 10L92.0238 12.4859L81.107 19.1904L77.4295 21.4503L66.1277 28.3996L50.2244 38.155L38.9226 45.1043L23 54.8597V125.765L23.0385 125.784V137.121L81.1645 172.809L96.1245 182L111.065 172.809L170 136.613V55.4058L154.366 45.8011ZM154.366 127.874L96.1245 163.638L38.9034 128.515V63.4663L50.2051 56.5358V123.901L66.1085 133.656V46.7616L77.4101 39.8311V140.605L93.3136 150.361V30.0569L96.0476 28.3808L99.9369 30.7725V149.268L107.003 145.389L115.84 139.965V103.994H154.347V127.874H154.366ZM154.366 88.4386H115.859V40.528L154.366 64.1629V88.4386Z" fill="#060B1C"/>
</svg>
