<?xml version="1.0" standalone="no"?>
<!DOCTYPE svg PUBLIC "-//W3C//DTD SVG 20010904//EN"
 "http://www.w3.org/TR/2001/REC-SVG-20010904/DTD/svg10.dtd">
<svg version="1.0" xmlns="http://www.w3.org/2000/svg"
 width="64.000000pt" height="64.000000pt" viewBox="0 0 64.000000 64.000000"
 preserveAspectRatio="xMidYMid meet">

<g transform="translate(0.000000,64.000000) scale(0.100000,-0.100000)"
fill="#000000" stroke="none">
<path d="M224 616 c-139 -45 -225 -178 -211 -326 10 -111 72 -201 173 -251 70
-35 198 -35 268 0 63 31 122 90 149 150 31 65 31 197 0 262 -27 60 -86 119
-148 149 -59 28 -170 36 -231 16z m166 -88 c0 -7 -11 -49 -25 -93 -14 -44 -25
-81 -25 -83 0 -1 11 0 24 4 21 5 24 3 19 -14 -3 -11 -16 -23 -29 -26 -25 -7
-36 -25 -49 -83 l-7 -33 91 0 91 0 -6 -28 c-12 -50 -17 -52 -160 -52 -74 0
-134 4 -134 9 0 5 6 26 13 47 8 22 17 52 21 68 6 25 5 28 -13 23 -33 -8 -27
29 7 41 29 10 33 20 77 175 l16 57 45 0 c28 0 44 -4 44 -12z"/>
</g>
</svg>
