<svg width="24" height="24" viewBox="0 0 24 24" fill="none" xmlns="http://www.w3.org/2000/svg">
<circle cx="12" cy="12" r="12" fill="#C9981B"/>
<path d="M17.9047 6.74663L13.4804 3.96178L11.9538 3L11.5432 3.26016L10.4293 3.96178L10.054 4.19829L8.90079 4.92554L7.278 5.94645L6.12476 6.67371L4.5 7.69462V15.115L4.50393 15.1169V16.3034L10.4352 20.0382L11.9617 21L13.4862 20.0382L19.5 16.2502V7.75177L17.9047 6.74663ZM17.9047 15.3357L11.9617 19.0784L6.12279 15.4027V8.59531L7.27603 7.87003V14.9198L8.89882 15.9408V6.84714L10.0521 6.12186V16.668L11.6749 17.6889V5.09898L11.9538 4.92357L12.3507 5.17387V17.5746L13.0717 17.1686L13.9735 16.601V12.8366H17.9028V15.3357H17.9047ZM17.9047 11.2087H13.9754V6.19479L17.9047 8.66821V11.2087Z" fill="white"/>
</svg>
