<?xml version="1.0" standalone="no"?>
<!DOCTYPE svg PUBLIC "-//W3C//DTD SVG 20010904//EN"
 "http://www.w3.org/TR/2001/REC-SVG-20010904/DTD/svg10.dtd">
<svg version="1.0" xmlns="http://www.w3.org/2000/svg"
 width="64.000000pt" height="64.000000pt" viewBox="0 0 64.000000 64.000000"
 preserveAspectRatio="xMidYMid meet">

<g transform="translate(0.000000,64.000000) scale(0.100000,-0.100000)"
fill="#000000" stroke="none">
<path d="M223 622 c-109 -39 -178 -112 -210 -221 -29 -102 4 -228 82 -306 122
-121 328 -121 450 0 91 92 118 241 64 356 -69 146 -241 223 -386 171z m70
-151 c146 -28 150 -29 190 -69 l40 -41 -68 -83 c-37 -46 -88 -109 -114 -140
-25 -31 -48 -57 -51 -57 -4 -1 -128 303 -168 410 -5 13 6 11 171 -20z"/>
<path d="M191 461 c1 -11 118 -101 131 -101 13 1 83 59 76 64 -8 7 -208 42
-207 37z"/>
<path d="M172 429 c3 -7 30 -75 59 -149 l54 -135 12 90 13 90 -43 38 c-62 56
-102 84 -95 66z"/>
<path d="M390 379 l-35 -31 45 7 c81 12 84 14 56 36 -13 10 -26 19 -28 19 -1
-1 -19 -15 -38 -31z"/>
<path d="M384 328 l-51 -9 -10 -82 c-6 -45 -9 -83 -8 -85 2 -2 101 115 144
171 16 20 8 21 -75 5z"/>
</g>
</svg>
