<?xml version="1.0" standalone="no"?>
<!DOCTYPE svg PUBLIC "-//W3C//DTD SVG 20010904//EN"
 "http://www.w3.org/TR/2001/REC-SVG-20010904/DTD/svg10.dtd">
<svg version="1.0" xmlns="http://www.w3.org/2000/svg"
 width="64.000000pt" height="64.000000pt" viewBox="0 0 64.000000 64.000000"
 preserveAspectRatio="xMidYMid meet">

<g transform="translate(0.000000,64.000000) scale(0.100000,-0.100000)"
fill="#000000" stroke="none">
<path d="M223 622 c-109 -39 -178 -112 -210 -221 -29 -102 4 -228 82 -306 122
-121 328 -121 450 0 91 92 118 241 64 356 -69 146 -241 223 -386 171z m17
-197 c38 -38 62 -55 80 -55 18 0 42 17 80 55 40 40 62 55 82 55 15 0 28 -3 27
-7 -1 -5 -34 -38 -74 -75 -66 -61 -78 -68 -115 -68 -37 0 -49 7 -115 68 -40
37 -73 70 -74 75 -1 4 12 7 27 7 20 0 42 -15 82 -55z m199 -200 c74 -73 75
-75 46 -75 -24 0 -43 12 -85 55 -38 38 -62 55 -80 55 -18 0 -42 -17 -80 -55
-42 -43 -61 -55 -85 -55 -29 0 -28 2 46 75 71 70 80 75 119 75 39 0 48 -5 119
-75z"/>
</g>
</svg>
