<svg width="55" height="98" viewBox="0 0 55 98" fill="none" xmlns="http://www.w3.org/2000/svg">
<path d="M52.1779 57.5987L27.1296 70.6062L2.0814 57.5987C1.80082 57.4518 1.47921 57.4028 1.16759 57.4594C0.855969 57.5161 0.572194 57.6752 0.361293 57.9115C0.149748 58.1483 0.0236107 58.4492 0.00299853 58.7661C-0.0176137 59.0831 0.0684863 59.3977 0.247567 59.66L25.9497 97.4882L26.0919 97.6446C26.201 97.7552 26.3316 97.8423 26.4757 97.9005H26.5752C26.7329 97.9662 26.902 98 27.0728 98C27.2436 98 27.4127 97.9662 27.5703 97.9005H27.6698C27.8139 97.8423 27.9445 97.7552 28.0537 97.6446L28.1958 97.4882L54.0117 59.7027C54.1908 59.4404 54.2769 59.1257 54.2563 58.8088C54.2357 58.4919 54.1095 58.191 53.898 57.9541C53.6925 57.7108 53.4113 57.5434 53.0994 57.479C52.7875 57.4145 52.463 57.4567 52.1779 57.5987ZM25.7081 73.0655V92.072L5.80594 62.7448L25.7081 73.0655ZM28.5512 92.072V73.0655L48.4533 62.7448L28.5512 92.072Z" fill="white"/>
<path d="M0.120016 49.979C0.113076 50.0499 0.113076 50.1214 0.120016 50.1923C0.120016 50.1923 0.120016 50.1923 0.120016 50.2634C0.154519 50.3259 0.197582 50.3833 0.247958 50.4339C0.283306 50.52 0.336619 50.5976 0.404333 50.6614C0.469837 50.7347 0.54662 50.7971 0.631785 50.8462C0.680333 50.893 0.732631 50.9358 0.788157 50.9741L26.4903 63.9247C26.6754 64.0184 26.8799 64.0672 27.0874 64.0672C27.2948 64.0672 27.4994 64.0184 27.6844 63.9247L53.3866 50.9741C53.5428 50.9039 53.6794 50.7965 53.7847 50.6614C53.8815 50.5578 53.9585 50.4373 54.0121 50.306C54.0054 50.2828 54.0054 50.2581 54.0121 50.2349C54.019 50.164 54.019 50.0926 54.0121 50.0217C54.0191 49.927 54.0191 49.832 54.0121 49.7374C54.0201 49.657 54.0201 49.5761 54.0121 49.4957C53.9922 49.3986 53.9637 49.3034 53.9268 49.2114L54.14 49.0692L28.381 0.735516C28.3263 0.637479 28.2594 0.54673 28.182 0.465415C28.0488 0.318824 27.8864 0.201699 27.7052 0.12155C27.524 0.0414019 27.3281 0 27.13 0C26.9319 0 26.736 0.0414019 26.5549 0.12155C26.3737 0.201699 26.2113 0.318824 26.0781 0.465415C26.0006 0.54673 25.9338 0.637479 25.879 0.735516L0.120016 49.0692C0.120016 49.0692 0.120016 49.0692 0.120016 49.1545C0.0851597 49.2424 0.0566543 49.3327 0.0347205 49.4246C0.0279163 49.5098 0.0279163 49.5953 0.0347205 49.6805C0.0551029 49.7821 0.0836271 49.882 0.120016 49.979ZM25.7085 60.4419L4.7828 49.8511L25.7085 40.8241V60.4419ZM28.5516 40.8241L49.4773 49.8511L28.5516 60.4419V40.8241ZM28.5516 37.6966V7.14684L49.6763 46.8516L28.5516 37.6966ZM25.7085 37.6966L4.58378 46.8516L25.7085 7.14684V37.6966Z" fill="white"/>
</svg>
