<svg width="59" height="98" viewBox="0 0 59 98" fill="none" xmlns="http://www.w3.org/2000/svg">
<path fill-rule="evenodd" clip-rule="evenodd" d="M34.4522 30.3476L50.2856 21.1115V39.5841L34.4522 30.3476ZM50.2859 69.9314L29.1745 82.2467L8.06299 69.9317V48.3806L29.1745 60.6953L50.2859 48.3803V69.9314ZM8.06299 21.1115L23.8964 30.3476L8.06299 39.5838V21.1115ZM31.8133 34.7457L47.6468 43.9819L31.8133 53.2181V34.7457ZM26.5356 53.2183L10.7021 43.9822L26.5356 34.746V53.2183ZM47.6471 16.7131L29.1745 27.2688L10.7018 16.7131L29.1745 5.71768L47.6471 16.7131ZM2.78526 14.9538V72.5703L29.1745 87.5244L55.5636 72.5706V14.9538L29.1745 0L2.78526 14.9538Z" fill="white"/>
<path d="M56.5991 98H1.75049C0.783635 98 0 97.2164 0 96.2495C0 95.2827 0.783635 94.499 1.75049 94.499H56.5991C57.566 94.499 58.3496 95.2827 58.3496 96.2495C58.3496 97.2164 57.566 98 56.5991 98Z" fill="white"/>
</svg>
