<svg width="98" height="98" viewBox="0 0 98 98" fill="none" xmlns="http://www.w3.org/2000/svg">
<path d="M37.9565 30.6216L29.6444 23.5932C29.0557 23.0955 28.1987 23.0769 27.5891 23.5499C26.9797 24.0227 26.7842 24.8572 27.12 25.5517L36.6126 45.1719C33.3555 48.4488 34.6365 49.2145 29.6932 58.2166C28.7654 59.9063 28.2544 60.8372 28.1789 62.5695C28.0013 66.643 30.4875 69.9799 31.8267 71.1752C33.5693 72.7301 36.3244 73.2995 39.5064 72.7979C39.4923 74.5168 39.4269 76.0881 40.4432 77.5763C42.7622 80.9718 48.1879 79.5838 48.1879 75.1261C48.1879 74.2242 47.4567 73.493 46.5548 73.493C45.6529 73.493 44.9217 74.2242 44.9217 75.1261C44.9217 75.8176 44.5771 76.0693 44.288 76.1585C43.9612 76.2598 43.4651 76.2087 43.1407 75.7343C42.5981 74.9396 42.8225 73.5285 42.7604 71.9507C45.2032 71.0713 47.6357 69.6602 49.8637 67.8244C51.1345 71.1321 51.416 74.7007 50.6721 78.2626C50.4598 79.2788 51.2366 80.2299 52.2724 80.2299C53.0294 80.2299 53.7086 79.7006 53.8694 78.9303C54.9179 73.9105 54.2308 68.8749 51.8819 64.3682C51.3769 63.3996 50.0789 63.1899 49.2948 63.9522C45.0911 68.0408 40.5173 69.7213 37.3312 69.7209C35.8761 69.7209 34.7098 69.3701 34.0016 68.7381C33.2969 68.1091 31.3139 65.6519 31.4419 62.7116C31.4829 61.7736 31.6716 61.3998 32.5563 59.7885C36.6375 52.355 36.6465 50.2995 37.98 48.5574C39.2412 46.9097 41.0125 45.582 43.2538 44.5958C43.3626 44.7842 43.4741 44.9718 43.5917 45.1572C44.0747 45.919 45.0837 46.1454 45.8454 45.6624C46.6073 45.1796 46.8334 44.1705 46.3509 43.4087C44.2813 40.143 43.9334 36.4325 45.3397 33.0574C46.4582 33.3914 47.4826 33.875 48.3974 34.5013C50.4286 35.8921 51.1049 37.4281 51.8211 39.0543C52.546 40.7003 53.3672 42.5658 55.5857 43.8725C59.7345 46.3165 62.6966 43.5863 67.1379 46.1032C68.649 46.9595 69.4153 47.8443 69.7677 48.1438C72.289 50.2865 73.5474 53.3606 73.3773 56.521C69.8195 51.2341 63.4425 51.3157 60.1287 48.9804C59.3919 48.4608 58.3724 48.637 57.8531 49.3744C57.3335 50.1115 57.5099 51.1306 58.2473 51.6501C58.9532 52.1478 59.7253 52.5465 60.5251 52.8938C60.3471 53.742 60.2805 54.5857 60.3271 55.4151C60.6525 61.2114 66.0316 63.4557 66.3134 68.0606C66.3864 69.2523 66.1372 70.4817 65.5721 71.7143C65.0726 72.804 65.8792 74.0283 67.0558 74.0283C67.6746 74.0283 68.2668 73.6747 68.5414 73.0751C69.3326 71.3489 69.6799 69.5945 69.5737 67.8609C69.1808 61.4412 62.9093 59.3716 63.6395 54.0406C67.5529 55.3594 70.918 56.552 72.1143 61.8885C72.4507 63.3875 74.495 63.6339 75.1738 62.2511C78.0226 56.4503 76.721 49.8112 71.9395 45.7041C70.9778 44.7385 69.9051 43.9162 68.749 43.2611C63.468 40.2682 60.128 42.7567 57.2443 41.0578C55.4462 39.9985 55.208 38.338 54.0491 36.1143C58.0811 34.9588 62.3456 35.7737 65.3165 38.3733C65.9953 38.9674 67.0275 38.8984 67.6211 38.2198C68.215 37.541 68.1462 36.5093 67.4676 35.9152C63.3853 32.3431 57.4521 31.3775 52.0615 33.3265C50.342 31.5621 47.8144 30.1474 44.7536 29.5549C44.0565 29.42 43.351 29.7517 43.0103 30.3754C41.0923 33.8856 40.7428 37.8862 41.9303 41.6102C40.958 42.0383 40.0543 42.5231 39.222 43.0641L33.4123 31.0558L35.8485 33.1156C36.5367 33.698 37.5676 33.6119 38.1498 32.9231C38.7316 32.2343 38.6453 31.204 37.9565 30.6216Z" fill="white"/>
<path d="M46.4019 50.1442C44.408 50.1887 42.5805 51.2174 41.5131 52.8958C41.0293 53.6569 41.2536 54.6661 42.0149 55.1502C42.7808 55.6373 43.7883 55.4045 44.2694 54.6484C44.75 53.8926 45.5745 53.4296 46.475 53.4094C47.3767 53.3892 48.0914 52.6419 48.0712 51.7402C48.0508 50.8283 47.2913 50.1225 46.4019 50.1442Z" fill="white"/>
<path d="M86.0558 16.9422C67.5503 -4.45257 34.5479 -5.89402 14.3229 14.3851C-4.77199 33.5308 -4.78914 64.4901 14.3605 83.6397C31.4562 100.735 57.7251 102.423 76.664 89.4417C84.6154 83.9915 90.7401 76.4074 94.3761 67.5092C94.7174 66.6742 94.3171 65.7209 93.4821 65.3796C92.6468 65.0384 91.6936 65.4388 91.3525 66.2737C84.2906 83.5562 67.6681 94.7235 49.0047 94.7235C23.7902 94.7235 3.27675 74.21 3.27675 48.9955C3.27675 23.781 23.7902 3.2675 49.0047 3.2675C76.8837 3.2675 98.2734 28.0206 94.2538 55.6309C94.1239 56.5234 94.7423 57.3525 95.6348 57.4823C96.5271 57.6125 97.3563 56.994 97.4862 56.1015C99.5407 41.9885 95.3745 27.7154 86.0558 16.9422Z" fill="white"/>
<path d="M24.9374 18.5323C24.3488 17.849 23.3175 17.7723 22.6342 18.361C13.7052 26.0539 8.58409 37.2197 8.58409 48.9955C8.58409 71.2834 26.7165 89.4158 49.0044 89.4158C71.9192 89.4158 90.8518 70.1796 89.3401 46.3616C87.9781 25.1973 70.3848 8.57523 49.0044 8.57523C43.3915 8.57523 37.9576 9.70434 32.8538 11.9313C32.027 12.2921 31.6494 13.2546 32.0101 14.0814C32.3708 14.9081 33.334 15.2856 34.1599 14.9251C38.8493 12.879 43.8438 11.8415 49.0044 11.8415C68.5414 11.8415 84.8271 27.0967 86.0804 46.5699C87.4542 68.2178 70.3481 86.1495 49.0044 86.1495C28.5176 86.1495 11.8504 69.4822 11.8504 48.9955C11.8504 38.1712 16.5581 27.9073 24.7663 20.8356C25.4496 20.2469 25.5261 19.2156 24.9374 18.5323Z" fill="white"/>
<path d="M40.2483 22.6404C51.2328 18.993 63.0878 22.4173 70.4514 31.3639C70.7744 31.7562 71.2419 31.9593 71.7134 31.9591C73.0781 31.9591 73.8541 30.3581 72.9734 29.2881C64.6489 19.1741 51.171 15.5716 39.2188 19.5405C38.363 19.8247 37.8994 20.7491 38.1836 21.605C38.4682 22.4612 39.3925 22.9248 40.2483 22.6404Z" fill="white"/>
<path d="M23.5347 34.2182C22.7306 33.8085 21.7474 34.1287 21.3381 34.9325C17.1787 43.1 16.8421 52.6284 20.4146 61.0744C20.7665 61.9065 21.7258 62.2931 22.5548 61.9422C23.3855 61.5909 23.7742 60.6324 23.4228 59.8017C20.2268 52.2456 20.5277 43.7212 24.2488 36.4145C24.6581 35.6108 24.3384 34.6275 23.5347 34.2182Z" fill="white"/>
</svg>
