<svg width="98" height="99" viewBox="0 0 98 99" fill="none" xmlns="http://www.w3.org/2000/svg">
<path d="M29.4038 47.0695C24.17 49.1095 23.0714 51.5828 23.0714 53.2984C23.0714 58.4015 32.4292 61.2141 43.0873 62.2623C43.3259 62.2858 46.6422 62.4859 49.0006 62.4859C50.3652 62.4859 51.7315 62.4501 53.0839 62.3797V76.5734H44.9172V67.7877C44.9172 66.8857 44.1859 66.1543 43.2839 66.1543C42.3819 66.1543 41.6506 66.8857 41.6506 67.7877V78.2067C41.6506 79.1087 42.3819 79.84 43.2839 79.84H54.7172C55.6192 79.84 56.3506 79.1087 56.3506 78.2067V62.138C66.4158 61.1667 74.9297 58.1712 74.9297 53.2984C74.9297 50.0221 71.2137 47.4012 64.1834 45.7193C63.3069 45.5092 62.4247 46.0505 62.2148 46.9278C62.005 47.8051 62.546 48.6865 63.4233 48.8963C69.4687 50.3426 71.6629 52.3214 71.6629 53.2986C71.6629 54.014 70.406 55.6159 65.6953 57.0806C63.0384 57.9066 59.8436 58.5083 56.3504 58.8599V40.2319H69.2129C70.1149 40.2319 70.8462 39.5006 70.8462 38.5986V27.1652C70.8462 26.2632 70.1149 25.5319 69.2129 25.5319H28.7878C27.8858 25.5319 27.1545 26.2632 27.1545 27.1652V38.5986C27.1545 39.5006 27.8858 40.2319 28.7878 40.2319H41.6504V44.4573C36.8841 44.9179 32.5784 45.832 29.4038 47.0695ZM26.3381 53.2984C26.3381 52.5936 27.4516 51.3363 30.59 50.113C33.4265 49.0074 37.3061 48.1783 41.6506 47.7383V58.8595C38.1573 58.5081 34.9627 57.9062 32.3056 57.0801C27.5951 55.6155 26.3381 54.0138 26.3381 53.2984ZM30.4214 36.965V28.7984H67.5797V36.965H54.7172C53.8152 36.965 53.0839 37.6964 53.0839 38.5984V59.1096C50.3707 59.2543 47.6849 59.2572 44.9172 59.1096V38.5984C44.9172 37.6964 44.1859 36.965 43.2839 36.965H30.4214Z" fill="white"/>
<path d="M67.5718 3.65322C66.7372 3.31104 65.7833 3.71059 65.4409 4.54502C65.0987 5.37965 65.4981 6.33372 66.3327 6.67591C83.5854 13.7472 94.7333 30.3645 94.7333 49.0109C94.7333 74.2283 74.2174 94.7442 49 94.7442C23.7826 94.7442 3.26667 74.2283 3.26667 49.0109C3.26667 20.7961 28.5656 -0.675318 56.4315 3.87801C57.3218 4.02276 58.1614 3.41945 58.3069 2.52928C58.4523 1.63912 57.8486 0.799378 56.9584 0.654012C27.126 -4.21945 0 18.7609 0 49.0109C0 76.0916 21.9155 98.0109 49 98.0109C76.2405 98.0109 98 75.9178 98 49.0109C98 28.8055 85.7043 11.0851 67.5718 3.65322Z" fill="white"/>
<path d="M16.8619 67.6793C16.408 66.8998 15.4082 66.6358 14.6285 67.0898C13.849 67.5437 13.585 68.5437 14.0391 69.3232C27.6376 92.6748 59.9378 96.4278 78.481 76.6704C93.7592 60.3922 92.9466 34.8595 76.7015 19.569C59.5547 3.43007 31.9906 5.18549 17.184 24.0877C9.46143 33.9465 6.75173 46.5729 9.74992 58.7294C9.96593 59.6053 10.8512 60.14 11.7269 59.9242C12.6027 59.7082 13.1377 58.8231 12.9216 57.9473C7.14006 34.5061 24.8768 11.8526 48.9999 11.8526C68.5393 11.8526 84.8271 27.1095 86.0805 46.585C87.4543 68.235 70.3466 86.1692 48.9999 86.1692C35.8181 86.1692 23.5034 79.0842 16.8619 67.6793Z" fill="white"/>
</svg>
