<?xml version="1.0" encoding="UTF-8"?>
<svg id="Layer_1" data-name="Layer 1" xmlns="http://www.w3.org/2000/svg" viewBox="0 0 30 30">
  <defs>
    <style>
      .cls-1 {
        fill: #2b783c;
      }

      .cls-1, .cls-2, .cls-3 {
        fill-rule: evenodd;
      }

      .cls-2 {
        fill: #c6263d;
      }

      .cls-3 {
        fill: #fefefe;
      }
    </style>
  </defs>
  <path class="cls-1" d="M14.69,29.12V.99h-.23C6.9,1.12,.74,7.28,.61,14.87v.41c.13,7.56,6.29,13.75,13.85,13.85h.23Z"/>
  <path class="cls-3" d="M14.92,.99h-.23V29.12h.23c7.56-.1,13.72-6.26,13.85-13.85v-.43c-.13-7.56-6.29-13.72-13.85-13.85h0Z"/>
  <polygon class="cls-2" points="14.69 13.03 17.1 13.82 18.61 11.73 18.61 14.31 21.05 15.09 18.61 15.88 18.61 18.45 17.1 16.39 14.69 17.16 16.19 15.09 14.69 13.03"/>
  <path class="cls-2" d="M14.69,8.04c2.55,0,4.76,1.35,6.01,3.39-1.04-1.22-2.57-1.99-4.3-1.99-3.11,0-5.63,2.52-5.63,5.65s2.52,5.65,5.63,5.65c1.73,0,3.26-.76,4.3-1.99-1.25,2.04-3.46,3.39-6.01,3.39-3.87,0-7-3.16-7-7.05s3.13-7.05,7-7.05h0Z"/>
</svg>