<?xml version="1.0" encoding="UTF-8"?>
<svg id="Layer_1" data-name="Layer 1" xmlns="http://www.w3.org/2000/svg" viewBox="0 0 30 30">
  <defs>
    <style>
      .cls-1 {
        fill: #fff;
      }

      .cls-1, .cls-2, .cls-3, .cls-4 {
        fill-rule: evenodd;
      }

      .cls-2 {
        fill: #42ab61;
      }

      .cls-3 {
        fill: #458fc7;
      }

      .cls-4 {
        fill: #d5253f;
      }
    </style>
  </defs>
  <path class="cls-3" d="M1.71,10.36H28.24C26.33,4.99,21.18,1.09,15.2,.99h-.46c-6.01,.1-11.12,4-13.03,9.37h0Z"/>
  <path class="cls-4" d="M1.71,19.75H28.24c.51-1.4,.79-2.93,.81-4.48v-.41c-.03-1.58-.31-3.08-.81-4.51H1.71c-.51,1.43-.79,2.93-.81,4.48v.43c.03,1.58,.31,3.08,.81,4.48h0Z"/>
  <path class="cls-2" d="M14.72,29.12h.48c6.01-.1,11.12-4,13.03-9.37H1.71c1.91,5.37,7.03,9.27,13.01,9.37h0Z"/>
  <path class="cls-1" d="M14.92,11.12c1.12,0,2.14,.48,2.88,1.25-.53-.38-1.2-.59-1.88-.59-1.81,0-3.26,1.45-3.26,3.26s1.45,3.28,3.26,3.28c.71,0,1.37-.2,1.88-.59-.71,.76-1.73,1.25-2.88,1.25-2.19,0-3.95-1.76-3.95-3.92s1.76-3.95,3.95-3.95h0Zm3.54,2.93l.41-1.09,.41,1.09,1.07-.48-.46,1.07,1.09,.43-1.09,.41,.46,1.07-1.07-.48-.41,1.12-.41-1.12-1.07,.48,.48-1.07-1.12-.41,1.12-.43-.48-1.07,1.07,.48Z"/>
</svg>