<?xml version="1.0" encoding="UTF-8"?>
<svg id="Layer_1" data-name="Layer 1" xmlns="http://www.w3.org/2000/svg" viewBox="0 0 30 30">
  <defs>
    <style>
      .cls-1 {
        fill: #c12837;
      }

      .cls-1, .cls-2 {
        fill-rule: evenodd;
      }

      .cls-2 {
        fill: #fefefe;
      }
    </style>
  </defs>
  <path class="cls-2" d="M15.11,.99h-.43C7.09,1.12,.93,7.28,.83,14.84v.43c.1,7.59,6.26,13.75,13.85,13.85h.43c7.59-.1,13.75-6.29,13.85-13.85v-.41c-.1-7.59-6.26-13.75-13.85-13.87h0Z"/>
  <path class="cls-1" d="M10.22,3.79L3.86,6.34c-.1,.15-.2,.28-.31,.41l6.67,2.7-7.03,2.8,7.03,2.8-7.03,2.83,7.03,2.83-6.67,2.67c.1,.13,.2,.25,.31,.41l6.36,2.55-2.34,.94c2.01,1.15,4.33,1.83,6.8,1.86h.43c7.59-.1,13.75-6.29,13.85-13.85v-.41c-.1-7.59-6.26-13.75-13.85-13.87h-.43c-2.47,.03-4.79,.71-6.8,1.88l2.34,.92Z"/>
</svg>