<?xml version="1.0" encoding="UTF-8"?>
<svg id="Layer_1" data-name="Layer 1" xmlns="http://www.w3.org/2000/svg" viewBox="0 0 30 30">
  <defs>
    <style>
      .cls-1 {
        fill: #379a41;
      }

      .cls-1, .cls-2, .cls-3 {
        fill-rule: evenodd;
      }

      .cls-2 {
        fill: #bf282d;
      }

      .cls-3 {
        fill: #fefefe;
      }
    </style>
  </defs>
  <path class="cls-2" d="M6.8,19.79H27.95c.51-1.4,.79-2.9,.81-4.45v-.46c-.13-7.56-6.29-13.72-13.85-13.85h-.46c-2.83,.05-5.45,.94-7.66,2.44V19.79Z"/>
  <path class="cls-1" d="M14.46,29.18h.46c6.01-.1,11.12-4,13.03-9.39H6.8v6.95c2.21,1.5,4.84,2.39,7.66,2.44h0Z"/>
  <path class="cls-3" d="M6.8,26.74V3.47C3.13,5.97,.69,10.17,.61,14.9v.41c.08,4.73,2.52,8.93,6.19,11.43h0Z"/>
  <path class="cls-2" d="M4.35,24.62h.05v-.64h.28v-.64h.28v.64h.25v.64h.28v.66h.28v.64h.28v.28c-.28-.23-.56-.46-.84-.71v-.2h-.23l-.05-.05v-.61h-.25v.36c-.1-.13-.23-.23-.33-.36h0Zm-.76-.92c-.25-.31-.48-.64-.71-.97v-.18h.15v-.38h.13v-.38h.43v.38c.36,0-.1,0,.28,0v-.38h.41v.38h.13v.38h.13v.51h-.13v.41h-.13v.38h-.41v-.38c-.38,0,.08,0-.28,0v.23Zm-.97-1.4c-.05-.08-.1-.15-.15-.23v-.43h-.23l-.03-.08v-.56h-.28v-.66h-.28v-.64h-.25l-.03-.08v-.59h.28v-.64h.28v-.66h.28v-.64h.25v.64h.28v.66h.28v.64h-.28v.79h.28v-.51h.28v-1.04h.13v-.64h-.41v-.53h-.28v-.38h-.28v-.66h-.25v.66h-.28v.38h-.28v.38h-.28v-1.17h.28v-.51h.28v-.43h.28v-.53h-.28v-.46h-.28v-.51h-.28v-1.17h.28v.38h.28v.38h.28v.66h.25v-.66h.28v-.38h.28v-.51l.41-.03v-.64h-.13v-1.02h-.28v-.53h-.28v.79h.28v.66h-.28v.64h-.28v.64h-.25v-.64h-.28v-.64h-.28v-.66h-.28v-.59l.03-.08h.25v-.64h.28v-.66h.28v-.56l.03-.08h.23v-.43c.05-.08,.1-.15,.15-.23h.13v.66h.28v.64h.28v.66h.25v.64h.28v-.64h.28v-.66h.28v-.64h.28v-.66h.28v.66h.25v.64h.28v.66h.28v.64h.28v.66h-.28v.66h-.28v.64h-.28v.64h-.25v-.64h-.28v-.64h-.28v-.66h.28v-.79h-.28v.53h-.28v1.02h-.15v.66h.43v.51h.28v.38h.28v.66h.25v-.66h.28v-.38h.28v-.38h.28v1.17h-.28v.51h-.28v.46h-.28v.53h.28v.43h.28v.51h.28v1.17h-.28v-.38h-.28v-.38h-.28v-.66h-.25v.66h-.28v.38h-.28v.53h-.43v.64h.15v1.04h.28v.51h.28v-.79h-.28v-.64h.28v-.66h.28v-.64h.25v.64h.28v.66h.28v.64h.28v.66h-.28v.64h-.28v.66h-.28v.64h-.25v.66h-.28v-.66h-.28v-.64h-.28v-.66h-.28v-.64h-.28v.64h-.25v.66h-.28v.64h-.28v.66h-.13Zm.25-14.84c.23-.33,.46-.66,.71-.97v.23c.36,0-.1,0,.28,0v-.38h.41v.38h.13v.41h.13v.51h-.13v.41h-.13v.38h-.41v-.38c-.38,0,.08,0-.28,0v.38h-.43v-.38h-.13v-.41h-.15v-.18Zm1.48-1.88c.1-.13,.23-.23,.33-.33v.33h.25v-.61l.05-.05h.23v-.2c.28-.23,.56-.48,.84-.69v.25h-.28v.64h-.28v.66h-.28v.64h-.25v.66h-.28v-.66h-.28v-.64h-.05Zm1.43-.25h.28v.76h-.28v-.76Zm0,19.57h.28v-.79h-.28v.79Zm0-16.19h.28v.76h-.28v-.76Zm-2.21,0h.28v.76h-.28v-.76Zm2.21,12.8h.28v-.76h-.28v.76Zm-2.21,0h.28v-.76h-.28v.76Zm.43-14.51h.13v.25h.15v.25h-.15v.28h-.13v-.28h-.13v-.25h.13v-.25Zm-.41,.51v-.25h-.15v-.25h-.13v.25h-.15v.25h.15v.28h.13v-.28h.15Zm.41,15.68h.13v-.25h.15v-.25h-.15v-.25h-.13v.25h-.13v.25h.13v.25Zm-.41-.51v.25h-.15v.25h-.13v-.25h-.15v-.25h.15v-.25h.13v.25h.15Zm1.91-15.68h.15v.25h.13v.25h-.13v.28h-.15v-.28h-.13v-.25h.13v-.25Zm-.13-.66h.41v.38h.13v.41h.13v.51h-.13v.41h-.13v.38h-.41v-.38h-.15v-.41h-.13v-.51h.13v-.41h.15v-.38Zm.13,16.85h.15v-.25h.13v-.25h-.13v-.25h-.15v.25h-.13v.25h.13v.25Zm-.13,.66h.41v-.38h.13v-.41h.13v-.51h-.13v-.38h-.13v-.38h-.41v.38h-.15v.38h-.13v.51h.13v.41h.15v.38ZM1.37,11.92h.28v.53h-.28v-.53Zm0,6.36h.28v-.53h-.28v.53Zm4.4-6.36h.28v.53h-.28v-.53Zm0,6.36h.28v-.53h-.28v.53Zm-2.21-4.53h.28v.64h-.28v-.64Zm-2.19,.97h.28v.76h-.28v-.76Zm1.5,0h.28v.76h-.28v-.76Zm1.37,0h.28v.76h-.28v-.76Zm1.53,0h.28v.76h-.28v-.76Zm-2.21,1.09h.28v.66h-.28v-.66Zm0-1.09h.28v-.2h.13v-.25h.28v.38h-.13v.2h-.15v.51h.15v.2h.13v.38h-.28v-.25h-.13v-.2h-.28v.2h-.13v.25h-.28v-.38h.15v-.2h.13v-.51h-.13v-.2h-.15v-.38h.28v.25h.13v.2Zm1.4,.64v-.51h-.28v-.46h-.28v-.51h-.43v-.61h-.13v-.31h-.28v.31h-.13v.61h-.41v.51h-.28v.46h-.28v.53h.28v.43h.28v.51h.41v.61h.13v.31h.28v-.28h.13v-.64h.43v-.51h.28v-.43h.28v-.03Z"/>
</svg>