<?xml version="1.0" encoding="UTF-8"?>
<svg id="Layer_1" data-name="Layer 1" xmlns="http://www.w3.org/2000/svg" viewBox="0 0 30 30">
  <defs>
    <style>
      .cls-1 {
        fill: #319341;
      }

      .cls-1, .cls-2, .cls-3, .cls-4 {
        fill-rule: evenodd;
      }

      .cls-2 {
        fill: #fff;
      }

      .cls-3 {
        fill: #efc805;
      }

      .cls-4 {
        fill: #332f6f;
      }
    </style>
  </defs>
  <path class="cls-1" d="M14.94,29.18h.48c7.56-.13,13.72-6.31,13.82-13.87v-.41c-.1-7.56-6.26-13.75-13.85-13.87h-.43C7.41,1.16,1.22,7.32,1.12,14.88v.46c.1,7.56,6.26,13.72,13.82,13.85h0Z"/>
  <path class="cls-3" d="M1.22,16.81l13.97,8.96,13.95-8.96c.08-.48,.1-.99,.1-1.5v-.41c0-.51-.03-1.02-.1-1.5L15.2,4.46,1.22,13.4c-.08,.48-.1,.99-.1,1.48v.46c0,.51,.03,.99,.1,1.48h0Z"/>
  <path class="cls-4" d="M15.17,22.16c3.87,0,7.03-3.16,7.03-7.03s-3.16-6.97-7.03-6.97-7,3.13-7,6.97,3.16,7.03,7,7.03h0Z"/>
  <path class="cls-2" d="M8.4,13.32c5.35-.94,10,.89,13.47,3.89,.13-.38,.2-.74,.25-1.12-3.67-3.11-8.71-4.58-13.34-3.84h0c-.15,.36-.28,.71-.38,1.07h0Z"/>
  <path class="cls-2" d="M12.45,15.31l.08-.15,.05,.15h.18l-.15,.13,.05,.15-.13-.1-.15,.1,.05-.15-.15-.13h.18Zm-1.71,1.02l.03-.1,.03,.1h.1l-.08,.08,.03,.08-.08-.05-.1,.05,.05-.08-.1-.08h.13Zm-.74,.38l.08-.2,.05,.2h.23l-.18,.13,.08,.2-.18-.13-.18,.13,.05-.2-.15-.13h.2Zm-.74,.66h.15l-.13,.1,.05,.13-.13-.1-.1,.1,.03-.15-.1-.08h.13l.05-.15,.05,.15Zm2.21,.05l.08-.18,.03,.18h.2l-.15,.1,.05,.18-.15-.1-.13,.1,.05-.18-.15-.1h.18Zm-.1,.71l-.05-.18-.05,.18h-.18l.13,.1-.05,.15,.15-.1,.15,.1-.05-.18,.13-.08h-.18Zm.92,.61l.08-.2,.08,.2h.2l-.18,.13,.08,.2-.18-.13-.18,.13,.08-.2-.18-.13h.2Zm4.76-4.05l.03-.15,.05,.15h.15l-.13,.08,.05,.15-.13-.1-.1,.1,.05-.15-.13-.08h.15Zm-1.93,1.45h-.18l.15,.13-.05,.15,.15-.1,.13,.1-.05-.15,.15-.13h-.18l-.05-.15-.08,.15Zm-.64,.51l.05,.15h.13l-.1,.08,.03,.15-.1-.1-.13,.1,.05-.15-.13-.08h.15l.05-.15Zm1.45,.13l.05-.18,.08,.18h.18l-.15,.1,.05,.18-.15-.1-.13,.1,.05-.18-.15-.1h.18Zm-1.09,.43l.03,.1h.1l-.08,.05,.03,.1-.08-.05-.1,.05,.05-.1-.1-.05h.13l.03-.1Zm.28,.94l.08-.2,.05,.2h.2l-.15,.15,.08,.2-.18-.13-.18,.13,.05-.2-.18-.15h.23Zm2.16-5.35l.08-.18,.08,.18h.2l-.18,.15,.08,.2-.18-.13-.18,.13,.08-.2-.18-.15h.2Zm2.88,4.68h.23l-.18,.1,.08,.23-.18-.13-.18,.13,.05-.2-.18-.13h.23l.05-.23,.08,.23Zm.87,.08l.05-.13,.05,.13h.13l-.1,.1,.05,.13-.13-.08-.13,.08,.05-.13-.13-.1h.15Zm-.69,.56l.05-.18,.05,.18h.18l-.13,.1,.05,.15-.15-.1-.15,.1,.05-.15-.13-.1h.18Zm-.43,.56l.05-.18,.05,.18h.18l-.13,.1,.05,.15-.15-.08-.15,.08,.08-.15-.15-.1h.18Zm-.56,.36l.05-.13,.05,.13h.13l-.1,.1,.05,.13-.13-.08-.13,.08,.05-.13-.13-.1h.15Zm-.66,.38l.08,.15h.18l-.15,.13,.05,.15-.15-.1-.13,.1,.05-.15-.15-.13h.18l.05-.15Zm0,.76l.05,.13h.15l-.13,.08,.05,.15-.13-.1-.13,.1,.05-.15-.1-.08h.15l.03-.13Zm-1.45-.43l.05-.18,.05,.18h.18l-.13,.1,.05,.18-.15-.1-.15,.1,.05-.18-.13-.1h.18Zm1.37-.76l-.05,.15,.1-.1,.13,.1-.05-.15,.13-.08h-.15l-.05-.15-.03,.15h-.15l.13,.08Zm-.71,.03l.05,.13h.13l-.13,.1,.05,.13-.1-.08-.13,.08,.05-.13-.13-.1h.15l.05-.13Zm-1.2-.03l.03-.15,.05,.15h.15l-.13,.08,.05,.15-.13-.1-.13,.1,.05-.15-.1-.08h.15Zm-1.53,1.58l.03-.08v.08h.08l-.05,.05,.03,.05-.05-.03-.08,.03,.03-.05-.05-.05h.08Zm-5.78-6.82l.05-.2,.08,.2h.23l-.18,.13,.05,.2-.18-.13-.18,.13,.08-.2-.18-.13h.23Z"/>
  <path class="cls-1" d="M21.43,16.17c-.05,.05-.08,.13-.08,.18s.03,.08,.08,.1c.05,.03,.08,.05,.13,.05,.05-.03,.1-.05,.15-.1,.03-.08,.05-.13,.05-.18s-.03-.08-.08-.1c-.03-.05-.08-.05-.13-.05-.05,.03-.1,.05-.13,.1h0Zm-.13-.08c.05-.05,.1-.08,.13-.1,.05-.03,.08-.05,.1-.05h.1c.05,.03,.08,.05,.13,.08,.08,.05,.13,.13,.13,.2s-.03,.18-.08,.25c-.08,.08-.15,.13-.23,.15-.08,0-.15-.03-.23-.08-.08-.08-.13-.13-.13-.2s.03-.18,.08-.25h0Zm-.76-.41l.13,.05c-.03,.05-.03,.08-.03,.1s.03,.05,.05,.08c.05,.03,.08,.03,.1,.03s.05,0,.08-.03v-.03s0-.05-.03-.05c0-.03-.03-.05-.08-.1s-.08-.08-.08-.13,0-.1,.03-.15c.03,0,.05-.03,.08-.05h.1c.05,0,.08,.03,.13,.05,.05,.05,.1,.1,.1,.15,.03,.05,0,.1-.03,.15l-.1-.08s.03-.05,0-.08c0-.03-.03-.05-.05-.05-.03-.03-.05-.05-.08-.05s-.03,.03-.05,.03v.05s.03,.05,.08,.1c.05,.05,.08,.08,.08,.1,.03,.05,.03,.08,.03,.1s0,.08-.03,.1c-.03,.03-.05,.05-.1,.08h-.1c-.05,0-.08-.03-.13-.05-.08-.05-.1-.1-.13-.15,0-.05,0-.13,.03-.18h0Zm-.71-.48l.13,.08s-.03,.05-.03,.1c.03,.03,.05,.05,.08,.08,.03,0,.05,.03,.08,0q.05,0,.08-.03v-.03s0-.03-.03-.05c0-.03-.03-.05-.08-.08-.03-.05-.08-.1-.08-.15s0-.1,.03-.13c.03-.03,.05-.05,.08-.08h.1s.08,.03,.13,.05c.05,.05,.1,.1,.1,.15,.03,.05,0,.1-.03,.15l-.1-.08s.03-.05,0-.08c0-.03-.03-.05-.05-.05-.03-.03-.05-.05-.08-.05s-.03,.03-.05,.03v.05s.03,.05,.08,.1c.05,.05,.08,.08,.1,.1,0,.05,.03,.08,.03,.1,0,.05-.03,.08-.05,.1-.03,.03-.05,.05-.08,.08-.03,0-.08,.03-.13,0-.03,0-.08-.03-.13-.05-.05-.05-.1-.1-.13-.15,0-.05,0-.1,.03-.18h0Zm-.81-.23l.33-.56,.41,.23-.05,.1-.28-.18-.08,.13,.28,.15-.08,.1-.28-.15-.08,.15,.31,.18-.05,.08-.43-.23Zm-.48-.69l.08,.05c.05,.03,.1,.03,.1,.03h.05s.03-.03,.03-.03c.03-.03,.03-.05,.03-.05,0-.03-.03-.05-.05-.05,0-.03-.03-.03-.08-.05l-.08-.05-.08,.15Zm-.31,.25l.31-.56,.25,.13c.05,.03,.1,.05,.13,.08,0,.03,.03,.05,.03,.1,0,.03,0,.08-.03,.1-.03,.05-.05,.08-.08,.08-.05,.03-.1,.03-.15,0,.03,.03,.03,.05,.05,.08v.28l-.13-.08-.03-.18v-.1s-.03-.03-.03-.05c0,0-.03-.03-.05-.03l-.03-.03-.13,.25-.13-.08Zm-.48-.48l.05-.1,.25,.13-.1,.23c-.05,.03-.08,.03-.13,.03-.08-.03-.13-.03-.15-.05-.08-.03-.13-.05-.15-.1-.03-.05-.05-.1-.05-.18,0-.05,0-.1,.03-.15,.03-.08,.08-.13,.13-.15,.05-.03,.1-.05,.15-.05s.1,0,.15,.03c.08,.05,.13,.08,.15,.13,.03,.05,.03,.1,.03,.15l-.13-.03s0-.05-.03-.08c0-.03-.03-.05-.08-.08-.05-.03-.1-.03-.13,0-.05,.03-.1,.05-.13,.13s-.03,.13-.03,.18c.03,.05,.05,.08,.1,.1,.03,0,.05,.03,.08,.03s.05,0,.08-.03l.05-.05-.15-.08Zm-1.02-.51c-.03,.08-.03,.13-.03,.18,.03,.03,.05,.08,.1,.1,.05,0,.1,0,.15-.03,.03,0,.08-.05,.1-.13,.03-.08,.03-.13,0-.18,0-.05-.03-.08-.1-.1-.03-.03-.08,0-.13,.03-.05,0-.08,.05-.1,.13h0Zm-.13-.05c.03-.05,.05-.1,.08-.13,.03-.03,.05-.05,.1-.08,.03-.03,.05-.03,.1-.03,.03,0,.08,0,.13,.03,.1,.05,.15,.1,.18,.18,.03,.08,.03,.15,0,.25-.05,.1-.1,.15-.18,.2-.08,.03-.15,.03-.23,0-.1-.05-.15-.1-.18-.18-.05-.08-.05-.15,0-.25h0Zm-.71-.28l.1,.03c.05,.03,.1,.03,.1,.03h.05s.03-.03,.03-.05v-.05s-.03-.03-.03-.05c-.03,0-.05,0-.1-.03l-.1-.03-.05,.15Zm-.23,.31l.2-.61,.25,.1c.05,0,.1,.03,.13,.05,.03,.03,.05,.05,.05,.08,.03,.05,.03,.08,0,.1,0,.05-.05,.1-.08,.1-.03,.03-.08,.03-.13,.03,0,.03,.03,.05,.05,.08,0,.03,.03,.05,.03,.1l.03,.15-.13-.05-.05-.15c-.03-.05-.03-.1-.03-.13t-.05-.03s-.03-.03-.05-.03h-.03l-.08,.25-.13-.05Zm-.56-.71l-.05,.2h.08c.05,.03,.08,.03,.1,.03s.03-.03,.05-.03c0,0,.03-.03,.03-.05v-.05s-.03-.03-.05-.05c0,0-.05,0-.08-.03l-.08-.03Zm-.25,.48l.18-.61,.18,.05c.08,.03,.13,.05,.15,.05,.03,.03,.05,.05,.08,.1,.03,.03,.03,.08,0,.13,0,.03-.03,.05-.05,.08,0,.03-.03,.05-.08,.05-.03,0-.03,.03-.05,.03-.05-.03-.08-.03-.15-.05h-.08l-.05,.23-.13-.05Zm-1.07-.2l.1-.64,.46,.1v.08l-.36-.05-.03,.15,.33,.05-.03,.1-.31-.05-.03,.18,.33,.05v.13l-.48-.1Zm-1.25-.15l.08-.66,.2,.03,.05,.46,.18-.41h.18l-.05,.66-.13-.03,.05-.51-.18,.48h-.13l-.08-.51-.05,.48h-.13Zm-.84-.05l.05-.64,.46,.03v.1l-.36-.03v.15h.33v.13l-.33-.03v.18l.33,.03v.1l-.48-.03Zm-.76-.53v.41h.18s.05-.03,.05-.03t.05-.08v-.1c0-.05,0-.1-.03-.13,0-.03,0-.05-.03-.05t-.05-.03h-.18Zm-.13-.13h.23c.05,0,.1,0,.13,.03,.05,0,.08,.03,.1,.05,.03,.03,.05,.05,.05,.1,.03,.05,.03,.1,.03,.15s0,.1-.03,.13c0,.05-.03,.1-.05,.13-.03,.03-.05,.03-.1,.05h-.1l-.25,.03v-.66Zm-.79,.33l.1-.03h.13s0-.03,.03-.05v-.03s0-.05-.03-.08c0,0-.03,0-.05-.03,0,0-.03,0-.08,.03h-.1v.18Zm-.1,.36l-.05-.64h.28c.08-.03,.13-.03,.15,0,.03,0,.05,.03,.08,.05,.03,.03,.03,.05,.05,.1,0,.05-.03,.08-.05,.13-.03,.03-.05,.05-.13,.05,.03,.03,.05,.03,.08,.05,.03,.03,.05,.05,.08,.1l.1,.13h-.15l-.1-.13c-.05-.05-.08-.08-.08-.1t-.05-.03h-.08v.28h-.13Zm-.87-.23c0,.08,.03,.13,.08,.15,.03,.05,.08,.05,.13,.05s.1-.03,.1-.08c.05-.05,.05-.1,.05-.18-.03-.08-.05-.13-.08-.15-.05-.03-.08-.03-.15-.03-.03,0-.08,.03-.1,.08-.03,.03-.05,.08-.03,.15h0Zm-.15,.03c0-.08,0-.13,.03-.15,0-.05,.03-.08,.05-.1,.03-.03,.03-.05,.08-.08,.03-.03,.08-.03,.13-.05,.08,0,.18,.03,.23,.08,.08,.05,.1,.13,.13,.23,0,.1,0,.18-.05,.25-.05,.05-.13,.1-.23,.1-.08,.03-.18,0-.23-.05-.05-.05-.1-.13-.13-.23h0Z"/>
</svg>