<?xml version="1.0" encoding="UTF-8"?>
<svg id="Layer_1" data-name="Layer 1" xmlns="http://www.w3.org/2000/svg" viewBox="0 0 30 30">
  <defs>
    <style>
      .cls-1 {
        fill: #fff;
      }

      .cls-1, .cls-2, .cls-3 {
        fill-rule: evenodd;
      }

      .cls-2 {
        fill: #c8282d;
      }

      .cls-3 {
        fill: #52b044;
      }
    </style>
  </defs>
  <path class="cls-1" d="M1.71,10.42H28.24C26.33,5.02,21.18,1.13,15.2,1.03h-.46c-5.98,.1-11.12,4-13.03,9.39h0Z"/>
  <path class="cls-3" d="M1.71,19.81H28.24c.51-1.43,.79-2.93,.81-4.51v-.41c-.03-1.55-.31-3.08-.81-4.48H1.71c-.51,1.4-.79,2.9-.81,4.45v.46c.03,1.55,.31,3.05,.81,4.48h0Z"/>
  <path class="cls-2" d="M28.24,19.81H1.71c1.91,5.37,7.05,9.27,13.03,9.37h.46c5.98-.1,11.12-4,13.03-9.37h0Z"/>
</svg>