<?xml version="1.0" encoding="UTF-8"?>
<svg id="Layer_1" data-name="Layer 1" xmlns="http://www.w3.org/2000/svg" viewBox="0 0 30 30">
  <defs>
    <style>
      .cls-1 {
        fill: #c12837;
      }

      .cls-1, .cls-2, .cls-3 {
        fill-rule: evenodd;
      }

      .cls-2 {
        fill: #48b040;
      }

      .cls-3 {
        fill: #fefefe;
      }
    </style>
  </defs>
  <path class="cls-3" d="M15.07,29.18h.48c7.56-.13,13.72-6.31,13.85-13.87v-.41c-.13-7.56-6.29-13.75-13.85-13.87h-.46C7.54,1.16,1.38,7.32,1.25,14.88v.46c.13,7.56,6.29,13.72,13.82,13.85h0Z"/>
  <path class="cls-2" d="M2.35,9.71l9.24,5.4L2.35,20.5c-.69-1.6-1.07-3.33-1.09-5.17v-.46c.03-1.83,.41-3.56,1.09-5.17h0Z"/>
  <path class="cls-2" d="M28.31,9.71l-9.24,5.4,9.24,5.4c.69-1.6,1.07-3.36,1.09-5.19v-.41c-.03-1.83-.41-3.59-1.09-5.19h0Z"/>
  <path class="cls-1" d="M15.1,1.03h.46c4.38,.08,8.3,2.19,10.84,5.42l-11.07,6.47L4.26,6.45C6.8,3.22,10.72,1.1,15.1,1.03h0Z"/>
  <path class="cls-1" d="M4.26,23.76l11.07-6.47,11.07,6.47c-2.55,3.23-6.44,5.35-10.84,5.42h-.48c-4.38-.08-8.27-2.19-10.82-5.42h0Z"/>
  <path class="cls-3" d="M15.33,23.07c4.51,0,8.17-3.56,8.17-7.97s-3.67-7.97-8.17-7.97-8.17,3.59-8.17,7.97,3.67,7.97,8.17,7.97h0Z"/>
  <polygon class="cls-2" points="14.79 10.04 15.33 9.1 15.86 10.04 16.96 10.04 16.42 10.98 16.96 11.92 15.86 11.92 15.33 12.86 14.79 11.92 13.7 11.92 14.26 10.98 13.7 10.04 14.79 10.04"/>
  <polygon class="cls-1" points="14.9 10.22 15.33 9.45 15.76 10.22 16.65 10.22 16.22 10.98 16.65 11.74 15.76 11.74 15.33 12.51 14.9 11.74 14 11.74 14.44 10.98 14 10.22 14.9 10.22"/>
  <polygon class="cls-2" points="11.23 16.22 11.76 15.28 12.3 16.22 13.39 16.22 12.83 17.17 13.39 18.11 12.3 18.11 11.76 19.05 11.23 18.11 10.14 18.11 10.7 17.17 10.14 16.22 11.23 16.22"/>
  <polygon class="cls-1" points="11.33 16.4 11.76 15.64 12.2 16.4 13.09 16.4 12.66 17.17 13.09 17.93 12.2 17.93 11.76 18.69 11.33 17.93 10.44 17.93 10.87 17.17 10.44 16.4 11.33 16.4"/>
  <polygon class="cls-2" points="18.36 16.22 18.89 15.28 19.43 16.22 20.5 16.22 19.96 17.17 20.5 18.11 19.43 18.11 18.89 19.05 18.36 18.11 17.26 18.11 17.82 17.17 17.26 16.22 18.36 16.22"/>
  <polygon class="cls-1" points="18.46 16.4 18.89 15.64 19.32 16.4 20.22 16.4 19.78 17.17 20.22 17.93 19.32 17.93 18.89 18.69 18.46 17.93 17.57 17.93 18.03 17.17 17.57 16.4 18.46 16.4"/>
</svg>