<?xml version="1.0" encoding="UTF-8"?>
<svg id="Layer_1" data-name="Layer 1" xmlns="http://www.w3.org/2000/svg" viewBox="0 0 30 30">
  <defs>
    <style>
      .cls-1 {
        fill: #313c90;
      }

      .cls-1, .cls-2, .cls-3 {
        fill-rule: evenodd;
      }

      .cls-2 {
        fill: #c72d2d;
      }

      .cls-3 {
        fill: #fefefe;
      }
    </style>
  </defs>
  <path class="cls-1" d="M.96,15.16H12.67V1.29C6.11,2.41,1.07,8.11,.96,14.96v.2Z"/>
  <path class="cls-3" d="M12.67,15.16H29.12v-.23c-.13-7.56-6.29-13.72-13.85-13.85h-.46c-.71,0-1.45,.08-2.14,.2V15.16Z"/>
  <path class="cls-2" d="M14.81,29.22h.48c7.53-.13,13.69-6.29,13.82-13.85v-.2H.96v.2c.13,7.56,6.29,13.72,13.85,13.85h0Z"/>
  <path class="cls-3" d="M4.86,7.04h-1.3c-.13,.18-.28,.38-.41,.61l1.22,.87-.79,2.44,2.06-1.5,2.06,1.5-.79-2.44,2.06-1.48h-2.55l-.76-2.37-.08,.05-.74,2.32Z"/>
</svg>