<?xml version="1.0" encoding="UTF-8"?>
<svg id="Layer_1" data-name="Layer 1" xmlns="http://www.w3.org/2000/svg" viewBox="0 0 30 30">
  <defs>
    <style>
      .cls-1 {
        fill: #c12837;
      }

      .cls-1, .cls-2, .cls-3, .cls-4, .cls-5 {
        fill-rule: evenodd;
      }

      .cls-2 {
        fill: #f5cc1f;
      }

      .cls-3 {
        fill: #fefefe;
      }

      .cls-4 {
        fill: #4e913f;
      }

      .cls-5 {
        fill: #5470b4;
      }
    </style>
  </defs>
  <path class="cls-2" d="M3,8.11H27.36C24.95,3.99,20.49,1.16,15.4,1.09h-.43c-5.09,.08-9.55,2.9-11.96,7.03h0Z"/>
  <path class="cls-3" d="M1.12,15.16H29.25v-.2c-.03-2.49-.71-4.84-1.88-6.85H3c-1.17,2.01-1.86,4.35-1.88,6.82v.23Z"/>
  <path class="cls-1" d="M3,22.19H27.36c1.17-2.01,1.86-4.35,1.88-6.82v-.2H1.12v.2c.03,2.49,.71,4.81,1.88,6.82h0Z"/>
  <path class="cls-5" d="M14.94,29.22h.48c5.09-.08,9.52-2.9,11.94-7.03H3c2.42,4.12,6.85,6.95,11.94,7.03h0Z"/>
  <path class="cls-4" d="M23.72,15.16L6.01,25.8c-2.93-2.55-4.84-6.26-4.89-10.44v-.43c.05-4.17,1.96-7.89,4.91-10.44,6.92,4.15,17.72,10.64,17.69,10.67h0Z"/>
  <path class="cls-3" d="M9.44,10.25l.28-.79,.25,.79h.87l-.69,.51,.25,.81-.69-.51-.69,.51,.25-.81-.69-.51h.84Zm0,3l.28-.79,.25,.79h.87l-.69,.51,.25,.81-.69-.51-.69,.51,.25-.81-.69-.51h.84Zm0,3.03l.28-.79,.25,.79h.87l-.69,.51,.25,.81-.69-.51-.69,.51,.25-.81-.69-.51h.84Zm0,3.03l.28-.79,.25,.79h.87l-.69,.51,.25,.79-.69-.48-.69,.48,.25-.79-.69-.51h.84Zm-1.12-10.49c.48,0,.94,.05,1.4,.15-2.83,.64-4.91,3.16-4.91,6.16s2.09,5.55,4.91,6.19c-.46,.1-.92,.15-1.4,.15-3.51,0-6.31-2.83-6.31-6.34s2.8-6.31,6.31-6.31h0Z"/>
</svg>