<?xml version="1.0" encoding="UTF-8"?>
<svg id="Layer_1" data-name="Layer 1" xmlns="http://www.w3.org/2000/svg" viewBox="0 0 30 30">
  <defs>
    <style>
      .cls-1 {
        fill: #339544;
      }

      .cls-1, .cls-2, .cls-3 {
        fill-rule: evenodd;
      }

      .cls-2 {
        fill: #f5e34a;
      }

      .cls-3 {
        fill: #cd2632;
      }
    </style>
  </defs>
  <path class="cls-2" d="M14.42,29.25h.46c7.56-.1,13.75-6.29,13.85-13.87v-.38c-.1-7.59-6.26-13.75-13.82-13.87h-.48C6.86,1.25,.7,7.41,.58,14.97v.43c.13,7.56,6.29,13.75,13.85,13.85h0Z"/>
  <path class="cls-1" d="M20.97,2.62L1.37,19.8c-.48-1.37-.76-2.85-.79-4.4v-.43C.7,7.41,6.86,1.25,14.42,1.12h.48c2.16,.03,4.23,.56,6.06,1.5h0Z"/>
  <path class="cls-3" d="M27.94,10.56L8.34,27.74c1.83,.94,3.92,1.48,6.08,1.5h.46c7.56-.1,13.75-6.29,13.85-13.87v-.38c-.03-1.55-.31-3.05-.79-4.43h0Z"/>
</svg>