<?xml version="1.0" encoding="UTF-8"?>
<svg id="Layer_1" data-name="Layer 1" xmlns="http://www.w3.org/2000/svg" viewBox="0 0 30 30">
  <defs>
    <style>
      .cls-1 {
        fill: #2e3d83;
      }

      .cls-1, .cls-2, .cls-3 {
        fill-rule: evenodd;
      }

      .cls-2 {
        fill: #fefefe;
      }

      .cls-3 {
        fill: #d82534;
      }
    </style>
  </defs>
  <path class="cls-1" d="M3.63,6.74H26.13c-2.42-3.23-6.19-5.4-10.46-5.63h-1.55c-4.28,.23-8.04,2.39-10.49,5.63h0Z"/>
  <path class="cls-2" d="M1.11,12.34H28.68c-.43-2.06-1.3-3.97-2.55-5.6H3.63c-1.22,1.63-2.11,3.54-2.52,5.6h0Z"/>
  <path class="cls-1" d="M1.11,17.96H28.68c.18-.84,.28-1.71,.28-2.6v-.41c0-.89-.1-1.76-.28-2.62H1.11c-.18,.84-.28,1.71-.28,2.6v.43c0,.89,.1,1.76,.28,2.6h0Z"/>
  <path class="cls-2" d="M3.65,23.59H26.13c1.25-1.63,2.11-3.54,2.55-5.63H1.11c.41,2.09,1.3,4,2.55,5.63h0Z"/>
  <path class="cls-1" d="M14.12,29.22h1.55c4.28-.25,8.04-2.39,10.46-5.63H3.65c2.42,3.23,6.19,5.37,10.46,5.63h0Z"/>
  <path class="cls-3" d="M5.03,5.16L21.88,15.19,5.03,25.17C2.48,22.67,.88,19.21,.83,15.37v-.43c.05-3.82,1.65-7.28,4.2-9.77h0Z"/>
  <polygon class="cls-2" points="5.05 13.74 6.1 10.48 7.12 13.74 10.42 13.74 7.73 15.7 8.74 18.93 6.07 16.92 3.42 18.93 4.44 15.7 1.72 13.74 5.05 13.74"/>
</svg>