<?xml version="1.0" encoding="UTF-8"?>
<svg id="Layer_1" data-name="Layer 1" xmlns="http://www.w3.org/2000/svg" viewBox="0 0 30 30">
  <defs>
    <style>
      .cls-1 {
        fill: #fff;
      }

      .cls-1, .cls-2, .cls-3 {
        fill-rule: evenodd;
      }

      .cls-2 {
        fill: #de8120;
      }

      .cls-3 {
        fill: #2d6e57;
      }
    </style>
  </defs>
  <path class="cls-1" d="M15.07,29.22h.48c7.56-.13,13.72-6.29,13.85-13.85v-.41c-.13-7.59-6.29-13.75-13.85-13.87h-.46C7.54,1.22,1.38,7.38,1.25,14.94v.43c.13,7.56,6.29,13.72,13.82,13.85h0Z"/>
  <path class="cls-2" d="M6.32,13s.05,.08,.13,.15c0,0,.15,.05,.23,.18,0,0,.05,.13,.23,.13,0,0,.05,0,.13,.03,0,0,.2,.03,.36-.08,0,0,.23-.1,.41-.28,0,0,.08-.05,.2-.1,0,0,.1-.03,.23-.46,0,0,.03-.2,.25-.41l.05-.08s.03-.03,.08-.03l.08,.03s.31-.23,.74-.25c0,0,.36-.03,.92,.25,0,0,.41,.2,.56,.28,0,0,.1,.05,.15,.03,0,0,.76-.23,.81-.89,0,0,.1-.89,.05-1.37,0,0-.08-.23-.08-.48,0,0,.51,.2,.87,.31,0,0,.1,0,.33,.1,0,0,.23,.08,.46-.03,0,0,.2-.05,.31,0,0,0,.08,.08,.2,.08,0,0,.1,0,.18-.08,0,0,.13-.08,.25,.03,0,0,.13,.18,.36,.15,0,0,.41-.08,.66,.03,0,0,.18,.05,.36,.03,0,0,.13-.03,.25,.03,0,0,.13,.08,.36,0,0,0,.1-.03,.18-.03,0,0,.31,.05,.61-.08,0,0,.15,.08,.48-.1,0,0,.18-.08,.2-.08,0,0,.36,.03,.53-.03,0,0,.18,0,.64-.41,0,0,.23-.2,.33-.15,0,0,.25,.28,1.58-.33,0,0,.56-.25,1.12-.61,0,0,.05-.03,.25-.08,0,0,.2-.03,.64-.64,0,0,.41,.05,.59-.08,0,0,.28-.18,.46-.2,0,0,.13,0,.46-.41,0,0,.05-.15,.41-.18,0,0,.18,0,.2-.13,0,0-.03-.1,.2-.08,0,0,.23,.05,.61-.18l.36-.18c.05,.08,.1,.13,.15,.2v.03s-.03,.23-.25,.2c0,0-.2,0-.28,.08,0,0-.33,.2-.56,.36,0,0-.23,.13-.31,.28,0,0-.08,.28-.15,.31,0,0-.08,.05-.25,.1,0,0-.28,.08-.66,.64,0,0-.08-.08-.87,.36,0,0-.03-.08-.56,.43,0,0-.36,.25-.46,.59,0,0-.03,.08-.05,.13,0,0,0,.18-.2,.23,0,0-.2,.08-.43,0,0,0-.1-.08-.43,.15,0,0-.2,.08-.18,.33,0,0-.33,.03-.31,.84,0,0-.05,.56,.61,1.04,0,0,.08,.08,.13,.23,0,0,0,.18,.28,.33,0,0,.25,.18,.25,.28,0,0-.03,.08,.23,.28,0,0,.18,.15,.1,.38,0,0-.05,.08,.1,.13,0,0-.18,0-.25-.13,0,0-.23-.03-.31-.08,0,0-.03-.08-.23-.05,0,0-.15,0-.25-.05,0,0-.03,0-.15,.08,0,0-.1,.05-.28,.05,0,0-.13-.05-.13,0,0,0-.03,.03,0,.13,0,0,.03,.13-.15,.18-.15,.08-.23,.03-.36-.08,0,0-.15-.15-.46-.25,0,0-.59-.1-.92,.05,0,0-.48,.08-.48,.74v.56s-.25,.08-.31,.43c0,0-.51-.28-.89,.36,0,0-.64,.08-.79,.38,0,0-.28,0-.43,.2,0,0-.18-.05-.28,.13,0,0-.25-.08-.36-.05,0,0-.18,0-.18,.08,0,0,.03,.1-.41,.18,0,0-.64-.28-1.17,.05,0,0-.1,.1-.15,.08,0,0-.23-.03-.53,.38,0,0-.46,.38,.08,.99,0,0-.28-.08-.46-.05,0,0-.08,.03-.13,0,0,0-.08-.05-.23-.03,0,0,.08-.33-.05-.46,0,0-.1-.25-.41-.51,0,0-.13-.15-.46-.08,0,0-.2,.08-.31,.03,0,0-.1-.05-.2,.03,0,0-.2,.23-.53,.13,0,0-.13,.1-.18,.1,0,0-.2-.05-.31-.13,0,0-.18-.08-.48-.15,0,0-.08-.03-.15-.13,0,0-.13-.23-.36-.2,0,0-.18,.03-.28-.05v-.03s.03-.03-.03-.03c0,0-.05-.03-.1,0,0,0-.2,.03-.33-.13,0,0-.05-.18-.2-.23l-.36-.2s.03-.13-.08-.33c0,0-.05-.03-.08-.31,0,0,0-.33-.25-.41,0,0-.23-.1-.25-.2,0,0,.03-.23-.15-.31,0,0-.05,0,.03-.1,0,0,.13-.08-.05-.33,0,0-.05-.08,0-.18,0,0,.05-.31-.05-.56,0,0-.18-.15-.28-.48,0,0-.05-.1,.08-.38,0,0,.08-.2,.18,.1h0Z"/>
  <path class="cls-3" d="M18.23,24s-.15-.31-.64-.56c0,0-.48-.28-.92-.2,0,0,.2,.48,.64,.69,0,0,.36,.15,.92,.08h0Zm-5.83,0s.18-.31,.64-.56c0,0,.51-.28,.94-.2,0,0-.2,.48-.64,.69,0,0-.36,.15-.94,.08h0Zm-.92-.61s.28-.33,.79-.46c0,0,.43-.13,.84,.03,0,0-.18,.41-.69,.53,0,0-.46,.13-.94-.1h0Zm-.97-.46s.08-.28,.61-.51c0,0,.51-.25,1.04,0,0,0-.15,.28-.74,.48,0,0-.53,.2-.92,.03h0Zm-.99-.87s.28-.36,.81-.28c0,0,.41,.05,.79,.18,0,0-.13,.33-.92,.33,0,0-.53,.03-.69-.23h0Zm-.94-1.04s.43-.15,1.02,0c0,0,.51,.08,.84,.41,0,0-.31,.33-.92,.18,0,0-.71-.18-.94-.59h0Zm4.89,.2s.53,.2,.71,.84c0,0,.15,.46,.08,.87,0,0-.41-.28-.66-.87,0,0-.23-.48-.13-.84h0Zm-.92-.33s.41,.33,.66,.89c0,0,.2,.43-.03,.79,0,0-.36-.2-.56-.76,0,0-.23-.66-.08-.92h0Zm-.84-.46s.38,.31,.59,.94c0,0,.15,.41-.1,.74,0,0-.33-.2-.48-.76,0,0-.15-.51,0-.92h0Zm-.84-.59s.43,.46,.48,.97c0,0,.08,.38-.13,.69,0,0-.36-.33-.48-.97,0,0-.1-.46,.13-.69h0Zm-.92-.74s.33,.2,.53,.89c0,0,.15,.56-.05,.89,0,0-.41-.18-.53-.94,0,0-.1-.48,.05-.84h0Zm9.21,4.28s-.28-.33-.79-.46c0,0-.43-.13-.84,.03,0,0,.18,.41,.66,.53,0,0,.48,.13,.97-.1h0Zm.97-.46s-.08-.28-.61-.51c0,0-.53-.25-1.04,0,0,0,.15,.28,.71,.48,0,0,.56,.2,.94,.03h0Zm.99-.87s-.28-.36-.81-.28c0,0-.43,.05-.79,.18,0,0,.13,.33,.92,.33,0,0,.51,.03,.69-.23h0Zm.97-1.04s-.46-.15-1.07,0c0,0-.48,.08-.81,.41,0,0,.31,.33,.92,.18,0,0,.71-.18,.97-.59h0Zm-4.91,.2s-.53,.2-.71,.84c0,0-.15,.46-.05,.87,0,0,.36-.28,.64-.87,0,0,.23-.48,.13-.84h0Zm.92-.33s-.43,.33-.66,.89c0,0-.2,.43,.03,.79,0,0,.36-.2,.56-.76,0,0,.23-.66,.08-.92h0Zm.84-.46s-.38,.31-.59,.94c0,0-.15,.41,.1,.74,0,0,.36-.2,.48-.76,0,0,.15-.51,0-.92h0Zm.84-.59s-.43,.46-.51,.97c0,0-.08,.38,.15,.69,0,0,.36-.33,.48-.97,0,0,.1-.46-.13-.69h0Zm.92-.74s-.33,.2-.53,.89c0,0-.15,.56,.05,.89,0,0,.38-.18,.53-.94,0,0,.1-.48-.05-.84h0Zm1.58,.31s-.31-.03-.94,.43c0,0-.56,.41-.48,.87,0,0,1.3-.23,1.43-1.3h0Zm-8.6,3.54s.76,.2,1.12,.28c0,0,.41,.08,.53,.1,0,0,.46-.1,.64-.13,0,0,.33-.08,1.02-.25,0,0-.61,.23-1.3,.46,0,0,.38,.08,.76,.36l-1.12-.25-1.12,.25s.33-.25,.79-.36c0,0-.64-.2-1.32-.46h0Zm-5.32-3.54s.33-.03,.94,.43c0,0,.59,.41,.53,.87,0,0-1.32-.23-1.48-1.3h0Z"/>
</svg>