<?xml version="1.0" encoding="UTF-8"?>
<svg id="Layer_1" data-name="Layer 1" xmlns="http://www.w3.org/2000/svg" viewBox="0 0 30 30">
  <defs>
    <style>
      .cls-1 {
        fill: #fefefe;
      }

      .cls-1, .cls-2 {
        fill-rule: evenodd;
      }

      .cls-2 {
        fill: #c3263d;
      }
    </style>
  </defs>
  <path class="cls-2" d="M14.46,29.28h.48c7.53-.13,13.69-6.29,13.82-13.85v-.46c-.13-7.56-6.29-13.72-13.85-13.85h-.46C6.9,1.25,.74,7.44,.61,15v.41c.13,7.56,6.29,13.75,13.85,13.87h0Z"/>
  <path class="cls-1" d="M11.45,1.51V12.58H28.51c.15,.79,.23,1.58,.25,2.39v.46c-.03,.81-.1,1.6-.25,2.37H11.45v11.1c-1.91-.46-3.69-1.3-5.22-2.44v-8.65H.86c-.15-.76-.23-1.58-.25-2.39v-.41c.03-.81,.1-1.63,.25-2.42H6.24V3.97c1.53-1.17,3.31-2.01,5.22-2.47h0Z"/>
</svg>