<?xml version="1.0" encoding="UTF-8"?>
<svg id="Layer_1" data-name="Layer 1" xmlns="http://www.w3.org/2000/svg" viewBox="0 0 30 30">
  <defs>
    <style>
      .cls-1 {
        fill: #c22833;
      }

      .cls-1, .cls-2, .cls-3 {
        fill-rule: evenodd;
      }

      .cls-2 {
        fill: #5470b4;
      }

      .cls-3 {
        fill: #f1db1b;
      }
    </style>
  </defs>
  <path class="cls-2" d="M14.24,29.22h1.48c7.33-.38,13.24-6.47,13.34-13.85v-.41c-.1-7.41-6.01-13.47-13.34-13.85h-1.48C6.9,1.47,1.02,7.53,.9,14.94v.43c.13,7.41,6.01,13.47,13.34,13.85h0Z"/>
  <path class="cls-3" d="M5.58,6.71l.89-2.75c.15-.13,.33-.25,.48-.36l.99,3.11h3.87l-3.11,2.27,1.17,3.67-3.11-2.27-3.13,2.27,1.2-3.67-1.78-1.3c.2-.33,.43-.66,.69-.97h1.83Z"/>
  <path class="cls-3" d="M1.08,17.43L25.61,5.98c1.65,1.91,2.83,4.3,3.26,6.9L4.33,24.35c-1.65-1.93-2.83-4.3-3.26-6.92h0Z"/>
  <path class="cls-1" d="M28.59,11.6L3.52,23.31c-.97-1.37-1.73-2.93-2.16-4.61L26.43,6.99c.97,1.37,1.73,2.93,2.16,4.61h0Z"/>
</svg>