<?xml version="1.0" encoding="UTF-8"?>
<svg id="Layer_1" data-name="Layer 1" xmlns="http://www.w3.org/2000/svg" viewBox="0 0 30 30">
  <defs>
    <style>
      .cls-1 {
        fill: #ce2732;
      }

      .cls-1, .cls-2, .cls-3, .cls-4 {
        fill-rule: evenodd;
      }

      .cls-2 {
        fill: #f6cd28;
      }

      .cls-3 {
        fill: #242222;
      }

      .cls-4 {
        fill: #fefefe;
      }
    </style>
  </defs>
  <path class="cls-1" d="M15.1,29.34h.46c7.56-.13,13.72-6.29,13.85-13.87v-.41c-.13-7.56-6.29-13.72-13.85-13.85h-.48C7.54,1.34,1.38,7.5,1.25,15.06v.43c.13,7.56,6.29,13.72,13.85,13.85h0Z"/>
  <path class="cls-2" d="M26.07,15.26L5.68,25.5c-2.67-2.52-4.35-6.08-4.43-10v-.43c.08-3.95,1.76-7.48,4.43-10L26.07,15.26Z"/>
  <path class="cls-3" d="M16.7,15.26L4.61,24.38c-2.04-2.42-3.31-5.5-3.36-8.88v-.43c.05-3.39,1.32-6.49,3.36-8.88l12.09,9.09Z"/>
  <polygon class="cls-4" points="7.03 13.36 10.21 11.68 8.66 14.83 11.28 17.17 7.69 16.79 6.11 19.92 5.45 16.51 1.89 16.13 5.04 14.42 4.41 11.01 7.03 13.36"/>
</svg>