<?xml version="1.0" encoding="UTF-8"?>
<svg id="Layer_1" data-name="Layer 1" xmlns="http://www.w3.org/2000/svg" viewBox="0 0 30 30">
  <defs>
    <style>
      .cls-1 {
        fill: #2d7346;
      }

      .cls-1, .cls-2, .cls-3, .cls-4 {
        fill-rule: evenodd;
      }

      .cls-2 {
        fill: #f4e217;
      }

      .cls-3 {
        fill: #d33b34;
      }

      .cls-4 {
        fill: #039;
      }
    </style>
  </defs>
  <path class="cls-1" d="M1.78,10.52H28.3C26.39,5.12,21.28,1.23,15.27,1.12h-.46c-5.98,.1-11.12,4-13.03,9.39h0Z"/>
  <path class="cls-2" d="M1.78,19.88H28.3c.51-1.4,.79-2.9,.81-4.45v-.46c-.03-1.55-.31-3.05-.81-4.45H1.78c-.51,1.4-.79,2.93-.81,4.48v.41c.03,1.58,.31,3.08,.81,4.48h0Z"/>
  <path class="cls-3" d="M14.81,29.28h.48c5.98-.1,11.1-4,13.01-9.39H1.78c1.91,5.4,7.03,9.29,13.03,9.39h0Z"/>
  <path class="cls-4" d="M15.04,22.23c3.87,0,7.03-3.16,7.03-7.03s-3.16-7.03-7.03-7.03-7,3.16-7,7.03,3.16,7.03,7,7.03h0Z"/>
  <path class="cls-2" d="M18.25,10.59l.18,.13-1.78,2.47-.18-.13,1.78-2.47Zm-.71,5.29l2.88,.94-.08,.23-2.88-.94,.08-.23Zm-2.6,1.88h.23v3.05h-.23v-3.05Zm-5.27-.94l2.9-.94,.05,.23-2.88,.94-.08-.23Zm.69-2.93l-.66-.46h4.1l.92-2.85,.23,.76-1.32,4.12-.41-.28,.41-1.3h-3.26Zm4.43-3.59l.25-.76,1.27,3.89h2.98l-.64,.46h-4.35l.15-.46h1.35l-1.02-3.13Zm1.25,3.77h.48l.41,1.3,2.65-1.93h.81l-3.31,2.39,.92,2.85-.64-.48-1.32-4.12Zm-3.16,4.25l3.51-2.57,.15,.48-1.09,.79,2.65,1.93,.25,.76-3.31-2.39-2.42,1.76,.25-.76Zm1.6-1.4l.41-.28-3.51-2.57h-.79l2.42,1.76-1.27,3.89,.66-.46,1.02-3.16,1.07,.81Zm-2.83-6.21l.18-.13,1.78,2.47-.18,.13-1.78-2.47Z"/>
</svg>