<?xml version="1.0" encoding="UTF-8"?>
<svg id="Layer_1" data-name="Layer 1" xmlns="http://www.w3.org/2000/svg" viewBox="0 0 30 30">
  <defs>
    <style>
      .cls-1 {
        fill: #2f3c8f;
      }

      .cls-1, .cls-2, .cls-3 {
        fill-rule: evenodd;
      }

      .cls-2 {
        fill: #f9fafa;
      }

      .cls-3 {
        fill: #d82534;
      }
    </style>
  </defs>
  <path class="cls-1" d="M9.97,28.46V1.94C4.57,3.85,.68,8.96,.58,14.97v.48c.1,5.98,4,11.1,9.39,13.01h0Z"/>
  <path class="cls-2" d="M14.42,29.28h.48c1.55-.03,3.03-.31,4.43-.81V1.94c-1.4-.51-2.9-.79-4.45-.81h-.46c-1.55,.03-3.05,.31-4.45,.81V28.46c1.4,.51,2.88,.79,4.45,.81h0Z"/>
  <path class="cls-3" d="M28.73,15.43v-.46c-.1-5.98-4-11.12-9.39-13.03V28.46c5.4-1.91,9.29-7.03,9.39-13.03h0Z"/>
</svg>