<?xml version="1.0" encoding="UTF-8"?>
<svg id="Layer_1" data-name="Layer 1" xmlns="http://www.w3.org/2000/svg" viewBox="0 0 30 30">
  <defs>
    <style>
      .cls-1 {
        fill: #1d50b8;
      }

      .cls-1, .cls-2 {
        fill-rule: evenodd;
      }

      .cls-2 {
        fill: #fefefe;
      }
    </style>
  </defs>
  <path class="cls-1" d="M6.07,4.25H23.71c-2.37-1.91-5.35-3.08-8.6-3.13h-.43c-3.26,.05-6.24,1.22-8.6,3.13h0Z"/>
  <path class="cls-2" d="M3.2,7.39H26.56c-.79-1.17-1.76-2.24-2.85-3.13H6.07c-1.12,.89-2.09,1.96-2.88,3.13h0Z"/>
  <path class="cls-1" d="M1.62,10.52H28.14c-.38-1.12-.92-2.16-1.58-3.13H3.2c-.64,.97-1.17,2.01-1.58,3.13h0Z"/>
  <path class="cls-2" d="M.9,13.65H28.88c-.13-1.09-.38-2.14-.74-3.13H1.62c-.36,.99-.59,2.04-.71,3.13H.9Z"/>
  <path class="cls-1" d="M.9,16.78H28.88c.05-.46,.08-.92,.08-1.37v-.41c0-.46-.03-.92-.08-1.35H.9c-.05,.43-.08,.89-.08,1.32v.46c0,.46,.03,.89,.08,1.35H.9Z"/>
  <path class="cls-2" d="M1.62,19.88H28.14c.36-.99,.61-2.04,.74-3.11H.9c.13,1.07,.36,2.11,.71,3.11h0Z"/>
  <path class="cls-1" d="M3.2,23.01H26.56c.66-.97,1.2-2.01,1.58-3.13H1.62c.41,1.12,.94,2.16,1.58,3.13h0Z"/>
  <path class="cls-2" d="M6.07,26.15H23.71c1.09-.89,2.06-1.93,2.85-3.13H3.2c.79,1.2,1.76,2.24,2.88,3.13h0Z"/>
  <path class="cls-1" d="M23.71,26.15H6.07c2.37,1.91,5.35,3.08,8.6,3.13h.43c3.26-.05,6.24-1.22,8.6-3.13h0Z"/>
  <path class="cls-1" d="M.9,16.78H13.48V1.2C6.48,1.91,.93,7.82,.83,14.97v.46c0,.46,.03,.89,.08,1.35H.9Z"/>
  <path class="cls-2" d="M13.48,7.39H7.24V3.41c-1.17,.74-2.21,1.68-3.11,2.75v1.22h-.94c-.64,.97-1.17,2.04-1.58,3.16h2.52v6.24h3.11v-6.24h6.24v-3.16Z"/>
</svg>