<?xml version="1.0" encoding="UTF-8"?>
<svg id="Layer_1" data-name="Layer 1" xmlns="http://www.w3.org/2000/svg" viewBox="0 0 30 30">
  <defs>
    <style>
      .cls-1 {
        fill: #f5d71c;
      }

      .cls-1, .cls-2, .cls-3 {
        fill-rule: evenodd;
      }

      .cls-2 {
        fill: #c12837;
      }

      .cls-3 {
        fill: #307f60;
      }
    </style>
  </defs>
  <path class="cls-2" d="M14.69,29.28h.48c7.56-.13,13.72-6.31,13.85-13.87v-.41c-.13-7.56-6.29-13.75-13.85-13.87h-.46C7.15,1.25,.99,7.41,.86,14.97v.46c.13,7.56,6.29,13.72,13.82,13.85h0Z"/>
  <path class="cls-1" d="M5.19,25.33H24.66c2.62-2.52,4.28-6.03,4.35-9.93v-.41c-.08-3.89-1.73-7.41-4.35-9.93H5.19C2.57,7.59,.91,11.1,.86,14.97v.46c.05,3.87,1.71,7.38,4.33,9.9h0Z"/>
  <path class="cls-3" d="M2.47,8.71l12.47,6.49L2.47,21.69c-.99-1.88-1.58-4.02-1.6-6.26v-.46c.03-2.24,.61-4.38,1.6-6.26h0Z"/>
  <path class="cls-3" d="M27.41,8.71l-12.47,6.49,12.47,6.49c.99-1.88,1.55-4.02,1.6-6.29v-.41c-.05-2.27-.61-4.4-1.6-6.29h0Z"/>
  <path class="cls-2" d="M14.94,18.56c1.86,0,3.36-1.5,3.36-3.36s-1.5-3.36-3.36-3.36-3.36,1.5-3.36,3.36,1.5,3.36,3.36,3.36h0Z"/>
  <polygon class="cls-1" points="14.23 14.26 14.94 12.12 15.63 14.26 17.87 14.26 16.06 15.56 16.75 17.72 14.94 16.4 13.11 17.72 13.82 15.56 11.99 14.26 14.23 14.26"/>
  <path class="cls-1" d="M2.14,12.53c.28,.48,2.06,1.02,2.75,1.6,.81,.71,.92,1.78,.59,2.8,0,0-.61-1.25-1.88-1.81,0,0-.2,1.27,.61,2.44-1.53-.15-2.24-1.04-2.16-2.55,.05-.64,.41-1.99,.1-2.49h0Z"/>
  <path class="cls-2" d="M4.81,17.19s-.92-.46-1.15-.84v-.03c-.18-.69-.08-1.2-.08-1.2,.41,.18,.74,.43,1.02,.69,0,.03,.15,.53,.2,1.37h0Z"/>
  <path class="cls-1" d="M7.1,26.88l.2-.15h-.41c.08,.05,.15,.1,.2,.15h0Zm-1.43-1.09l-.1-.31-.05,.15,.15,.15Z"/>
  <path class="cls-1" d="M6.16,4.23l.48,.36-.18-.59c-.1,.08-.2,.15-.31,.23h0Z"/>
  <polygon class="cls-1" points="13.21 26.73 14.28 27.52 13.87 28.79 14.94 28 16.01 28.79 15.6 27.52 16.67 26.73 15.35 26.73 14.94 25.48 14.53 26.73 13.21 26.73"/>
  <polygon class="cls-1" points="13.21 2.55 14.28 3.31 13.87 4.59 14.94 3.8 16.01 4.59 15.6 3.31 16.67 2.55 15.35 2.55 14.94 1.28 14.53 2.55 13.21 2.55"/>
  <path class="cls-1" d="M22.55,26.73l.2,.15c.08-.05,.15-.1,.2-.15h-.41Zm1.81-1.09l-.05-.15-.1,.28,.15-.13Z"/>
  <path class="cls-1" d="M23.42,4l-.2,.59,.51-.36c-.1-.08-.2-.15-.31-.23h0Z"/>
</svg>