<?xml version="1.0" encoding="UTF-8"?>
<svg id="Layer_1" data-name="Layer 1" xmlns="http://www.w3.org/2000/svg" viewBox="0 0 30 30">
  <defs>
    <style>
      .cls-1 {
        fill: #f5d61b;
      }

      .cls-1, .cls-2, .cls-3 {
        fill-rule: evenodd;
      }

      .cls-2 {
        fill: #c12837;
      }

      .cls-3 {
        fill: #37955e;
      }
    </style>
  </defs>
  <path class="cls-2" d="M10,28.52V2C4.61,3.91,.71,9.05,.61,15.06v.38c.1,6.03,4,11.15,9.39,13.08h0Z"/>
  <path class="cls-1" d="M14.46,29.31h.48c1.55-.03,3.03-.31,4.43-.79V1.97c-1.4-.48-2.9-.76-4.45-.79h-.46c-1.55,.03-3.05,.31-4.45,.81V28.52c1.4,.48,2.9,.76,4.45,.79h0Z"/>
  <path class="cls-3" d="M28.76,15.46v-.43c-.1-6.01-4-11.12-9.39-13.06V28.52c5.4-1.93,9.29-7.05,9.39-13.06h0Z"/>
</svg>