<?xml version="1.0" encoding="UTF-8"?>
<svg id="Layer_1" data-name="Layer 1" xmlns="http://www.w3.org/2000/svg" viewBox="0 0 30 30">
  <defs>
    <style>
      .cls-1 {
        fill: #f5d61b;
      }

      .cls-1, .cls-2, .cls-3, .cls-4, .cls-5 {
        fill-rule: evenodd;
      }

      .cls-2 {
        fill: #c12837;
      }

      .cls-3 {
        fill: #fefefe;
      }

      .cls-4 {
        fill: #3a9d45;
      }

      .cls-5 {
        fill: #242121;
      }
    </style>
  </defs>
  <path class="cls-4" d="M14.23,29.31h.48c7.56-.13,13.72-6.29,13.82-13.85v-.43c-.1-7.56-6.26-13.75-13.85-13.85h-.43C6.67,1.29,.51,7.47,.41,15.06v.38c.1,7.59,6.26,13.75,13.82,13.87h0Z"/>
  <path class="cls-3" d="M28.39,13.15L5.02,4.85C2.25,7.4,.46,11.04,.41,15.06v.38c.05,4.02,1.83,7.66,4.61,10.21l23.37-8.3c.1-.61,.15-1.25,.15-1.88v-.43c0-.64-.05-1.27-.15-1.88h0Z"/>
  <path class="cls-1" d="M28.51,16.08L4.1,24.73C1.86,22.26,.46,19.03,.41,15.44v-.38c.05-3.56,1.45-6.82,3.69-9.29L28.51,14.42c.03,.2,.03,.41,.03,.61v.43c0,.2,0,.41-.03,.61h0Z"/>
  <path class="cls-5" d="M14.49,15.26L3.01,23.38C1.41,21.12,.46,18.39,.41,15.44v-.38c.05-2.95,.99-5.68,2.6-7.94L14.49,15.26Z"/>
  <path class="cls-2" d="M12.17,15.26L2.3,22.26c-1.17-2.01-1.86-4.35-1.88-6.82v-.38c.03-2.47,.71-4.79,1.86-6.8l9.9,7Z"/>
</svg>