<?xml version="1.0" encoding="UTF-8"?>
<svg id="Layer_1" data-name="Layer 1" xmlns="http://www.w3.org/2000/svg" viewBox="0 0 30 30">
  <defs>
    <style>
      .cls-1 {
        fill: #349446;
      }

      .cls-1, .cls-2, .cls-3 {
        fill-rule: evenodd;
      }

      .cls-2 {
        fill: #c12837;
      }

      .cls-3 {
        fill: #fefefe;
      }
    </style>
  </defs>
  <path class="cls-2" d="M1.36,10.55H27.88C25.94,5.18,20.83,1.29,14.82,1.18h-.43c-6.01,.1-11.12,4-13.03,9.37h0Z"/>
  <path class="cls-3" d="M1.36,19.94H27.88c.48-1.43,.76-2.93,.79-4.51v-.38c-.03-1.58-.31-3.08-.79-4.51H1.36c-.51,1.4-.79,2.9-.81,4.48v.43c.03,1.58,.31,3.08,.81,4.48h0Z"/>
  <path class="cls-1" d="M14.36,29.31h.48c6.01-.1,11.1-4,13.03-9.37H1.36c1.91,5.37,7.03,9.27,13.01,9.37h0Z"/>
</svg>