<?xml version="1.0" encoding="UTF-8"?>
<svg id="Layer_1" data-name="Layer 1" xmlns="http://www.w3.org/2000/svg" viewBox="0 0 30 30">
  <defs>
    <style>
      .cls-1 {
        fill: #fff;
      }

      .cls-1, .cls-2, .cls-3, .cls-4, .cls-5 {
        fill-rule: evenodd;
      }

      .cls-2 {
        fill: #348b40;
      }

      .cls-3 {
        fill: #2d2e77;
      }

      .cls-4 {
        fill: #fefefe;
      }

      .cls-5 {
        fill: #ef9a38;
      }
    </style>
  </defs>
  <path class="cls-5" d="M1.91,10.55H28.46C26.52,5.18,21.41,1.29,15.4,1.18h-.43c-6.01,.1-11.12,4-13.06,9.37h0Z"/>
  <path class="cls-4" d="M1.91,19.94H28.46c.48-1.43,.76-2.93,.79-4.51v-.38c-.03-1.58-.31-3.08-.79-4.51H1.91c-.48,1.4-.76,2.9-.79,4.48v.43c.03,1.58,.31,3.08,.79,4.48h0Z"/>
  <path class="cls-2" d="M14.94,29.31h.48c5.98-.1,11.1-4,13.03-9.37H1.91c1.93,5.37,7.05,9.27,13.03,9.37h0Z"/>
  <path class="cls-3" d="M12.5,12.56l1.55,1.4,.79,.92-.94-.76s-1.27-1.4-1.4-1.55c-.08,.08-.15,.15-.23,.23,.05,.03,.08,.08,.08,.13,0,.1-.08,.18-.18,.18-.05,0-.08-.03-.1-.03-.08,.08-.13,.18-.18,.28l1.88,.94,.97,.69-1.09-.48s-1.58-1.04-1.76-1.15c-.05,.08-.1,.18-.15,.28,.08,.03,.1,.08,.1,.15,0,.1-.08,.18-.18,.18h-.05c-.05,.1-.08,.2-.1,.31l2.06,.43,1.12,.41-1.17-.2s-1.83-.56-2.01-.64c-.03,.1-.05,.2-.08,.31,.1,.03,.15,.1,.15,.18,0,.1-.08,.18-.18,.18h0c-.03,.1-.03,.2-.03,.33h0l2.11-.13,1.17,.13-1.17,.1s-1.91-.1-2.11-.1c0,.1,0,.2,.03,.31h0c.1,0,.18,.08,.18,.18,0,.08-.05,.15-.15,.18,.03,.1,.05,.2,.08,.31l2.01-.64,1.17-.23-1.12,.43h-.03v.03h-.13l-.03,.03h-.08l-.03,.03h-.08l-.05,.03h-.1l-.05,.03h-.05l-.03,.03h-.1v.03h-.1l-.03,.03h-.13v.03h-.1l-.08,.03h-.03l-.03,.03h-.05l-.1,.03h-.1v.03h-.1v.03h-.1v.03h-.15l-.03,.03h-.05l-.05,.03h-.1v.03c.03,.1,.05,.2,.1,.28h.05c.1,0,.18,.08,.18,.18,0,.08-.03,.13-.1,.15,.05,.1,.1,.2,.15,.31l1.76-1.17,1.09-.51-.97,.71s-1.68,.87-1.88,.97c.05,.08,.1,.18,.18,.25,.03,0,.05-.03,.1-.03,.1,0,.18,.08,.18,.18,0,.05-.03,.1-.08,.13,.08,.08,.15,.15,.23,.23l1.4-1.55,.92-.76-.76,.92s-1.4,1.27-1.55,1.4c.08,.08,.15,.15,.23,.23,.03-.03,.08-.05,.1-.05,.1,0,.18,.08,.18,.18,0,.03,0,.05-.03,.08,.1,.08,.2,.13,.31,.18l.94-1.88,.69-.97-.48,1.09s-1.02,1.58-1.15,1.76c.08,.05,.18,.1,.28,.15,.03-.05,.08-.1,.15-.1,.1,0,.18,.08,.18,.18,0,.03,0,.05-.03,.05,.1,.05,.23,.08,.33,.1l.43-2.06,.41-1.12-.2,1.17s-.56,1.83-.64,2.01c.1,.03,.2,.05,.31,.08,.03-.08,.08-.15,.18-.15,.08,0,.15,.08,.15,.18v.03h.33c0-.2-.1-2.09-.1-2.09l.13-1.22,.1,1.22-.1,2.09h.31v-.03c0-.1,.08-.18,.18-.18,.08,0,.15,.08,.18,.15l.31-.08h0v-.03h0l-.03-.03h0v-.03h0v-.03h-.03v-.08h-.03v-.08h0l-.03-.03h0v-.05h0l-.03-.03h0v-.05l-.03-.03v-.03h0v-.03l-.03-.03v-.05h0l-.03-.03v-.05l-.03-.03h0v-.05h0l-.03-.03v-.05l-.03-.03v-.03h0v-.05h0l-.03-.05h0l-.03-.05h0v-.05l-.03-.03v-.05h0l-.03-.05h0v-.03l-.03-.03v-.05l-.03-.03v-.03h0v-.05l-.03-.03v-.05h-.03v-.05l-.03-.03v-.05h0l-.03-.03v-.08l-.03-.03v-.03h0v-.03l-.03-.03h0v-.03h0v-.03h-.03v-.03h0v-.03h0v-.03h0v-.03h-.03v-.03h0v-.03h0v-.03l-.2-1.17,.41,1.12,.43,2.06c.1-.03,.2-.05,.31-.1v-.05c0-.1,.08-.18,.18-.18,.05,0,.13,.05,.15,.1,.1-.05,.18-.1,.28-.15-.13-.18-1.15-1.76-1.15-1.76l-.48-1.09,.69,.97,.94,1.88c.1-.05,.2-.1,.28-.18v-.08c0-.1,.08-.18,.18-.18,.03,0,.08,.03,.1,.05,.08-.08,.15-.15,.23-.23-.15-.13-1.55-1.4-1.55-1.4l-.76-.92,.92,.76,1.4,1.55c.08-.05,.15-.15,.23-.23-.05-.03-.08-.08-.08-.13,0-.1,.08-.18,.18-.18,.03,0,.08,.03,.1,.05,.05-.1,.13-.2,.18-.28-.2-.1-1.88-.97-1.88-.97l-.97-.71,1.09,.51,1.76,1.17,.15-.31c-.08-.03-.1-.08-.1-.15,0-.1,.08-.18,.15-.18,.03,0,.05,0,.08,.03,.03-.1,.08-.2,.1-.31-.2-.05-2.06-.46-2.06-.46l-1.12-.43,1.17,.23,2.01,.64c.03-.1,.05-.2,.05-.31-.08-.03-.13-.08-.13-.18s.08-.18,.15-.18h.03c.03-.1,.03-.2,.03-.31-.2,0-2.11,.1-2.11,.1l-1.2-.1,1.2-.13,2.11,.13c0-.13,0-.23-.03-.33h-.03c-.08,0-.15-.08-.15-.18s.05-.15,.13-.18c0-.1-.03-.2-.05-.31h-.03l-.03,.03h-.08l-.03,.03h-.03l-.03,.03h-.08l-.03,.03h-.03l-.03,.03h-.05l-.03,.03h-.05l-.03,.03h-.08l-.05,.03h-.03l-.03,.03h-.03l-.05,.03h-.05l-.03,.03h-.08l-.03,.03h0l-.05,.03h-.05l-.03,.03h-.08l-.03,.03h-.03l-.03,.03h-.08l-.03,.03h-.05v.03h-.08l-.05,.03h-.05v.03h-.03l-.05,.03h-.05l-.05,.03h-.03l-.03,.03h-.08v.03h-.05l-.03,.03h-.08l-1.17,.2,1.12-.41,2.06-.43c-.03-.1-.08-.2-.1-.31h-.08c-.08,0-.15-.08-.15-.18,0-.08,.03-.13,.1-.15-.05-.1-.1-.2-.15-.28-.18,.1-1.78,1.15-1.78,1.15l-1.07,.48,.97-.69,1.88-.94c-.05-.1-.13-.2-.18-.28-.03,0-.08,.03-.1,.03-.1,0-.18-.08-.18-.18,0-.05,.03-.1,.08-.13-.08-.08-.15-.15-.23-.23-.13,.15-1.4,1.55-1.4,1.55l-.92,.76,.76-.92,1.55-1.4c-.08-.08-.15-.15-.23-.23-.03,.03-.08,.05-.1,.05-.1,0-.18-.08-.18-.18v-.08c-.08-.08-.18-.13-.28-.18-.08,.2-.94,1.88-.94,1.88l-.71,.97,.51-1.09,1.15-1.76c-.08-.05-.18-.1-.28-.15-.03,.08-.1,.1-.15,.1-.1,0-.18-.08-.18-.18v-.05c-.1-.05-.2-.08-.31-.1-.03,.2-.43,2.06-.43,2.06l-.41,1.12,.2-1.17,.64-2.01c-.1-.03-.2-.05-.31-.08-.03,.1-.1,.15-.18,.15-.1,0-.18-.08-.18-.18v-.03h-.31l.1,2.09-.1,1.2-.13-1.2s.1-1.88,.1-2.09h-.33v.03c0,.1-.08,.18-.15,.18-.1,0-.15-.05-.18-.15-.1,.03-.2,.05-.31,.08l.64,2.01,.2,1.17-.41-1.12h0v-.03h0v-.03l-.03-.03h0v-.03h0v-.03h0v-.05h-.03v-.03h0v-.03h0v-.03h0l-.03-.03v-.05h0v-.08l-.03-.03v-.05h0v-.03l-.03-.03v-.03h0v-.05h0l-.03-.03v-.1h0v-.03l-.03-.03v-.08l-.03-.03v-.05h0v-.05h-.03v-.05h0v-.05l-.03-.05v-.08l-.03-.05v-.05h0l-.03-.05h0v-.08l-.03-.03v-.03h0v-.1h-.03v-.05h0v-.03h0v-.05h-.03v-.1l-.03-.03v-.03h0v-.03l-.03-.03h0v-.03h0v-.03h0v-.03h0v-.03h0v-.03h0c-.1,.03-.23,.05-.33,.1t.03,.05c0,.1-.08,.18-.18,.18-.08,0-.13-.03-.15-.1-.1,.05-.2,.1-.28,.15l1.15,1.76,.48,1.09-.69-.97s-.87-1.68-.94-1.88c-.1,.05-.2,.1-.31,.18,.03,.03,.03,.05,.03,.08,0,.1-.08,.18-.18,.18-.03,0-.08-.03-.1-.05l-.23,.23h0Zm2.7-1.53c2.32,0,4.2,1.88,4.2,4.23s-1.88,4.2-4.2,4.2-4.23-1.88-4.23-4.2,1.88-4.23,4.23-4.23h0Z"/>
  <path class="cls-1" d="M15.2,15.87c.33,0,.61-.28,.61-.61,0-.36-.28-.64-.61-.64-.36,0-.64,.28-.64,.64,0,.33,.28,.61,.64,.61h0Z"/>
  <path class="cls-3" d="M15.2,15.74c.25,0,.48-.23,.48-.48,0-.28-.23-.51-.48-.51-.28,0-.51,.23-.51,.51,0,.25,.23,.48,.51,.48h0Z"/>
</svg>