<?xml version="1.0" encoding="UTF-8"?>
<svg id="Layer_1" data-name="Layer 1" xmlns="http://www.w3.org/2000/svg" viewBox="0 0 30 30">
  <defs>
    <style>
      .cls-1 {
        fill: #379d5d;
      }

      .cls-1, .cls-2, .cls-3 {
        fill-rule: evenodd;
      }

      .cls-2 {
        fill: #e67e1f;
      }

      .cls-3 {
        fill: #fefefe;
      }
    </style>
  </defs>
  <path class="cls-2" d="M10.26,28.43V1.9C4.86,3.81,.97,8.93,.86,14.91v.48c.1,6.01,4,11.1,9.39,13.03h0Z"/>
  <path class="cls-3" d="M14.69,29.22h.48c1.55-.03,3.05-.31,4.45-.79V1.9c-1.4-.51-2.9-.79-4.45-.81h-.46c-1.55,.03-3.05,.31-4.45,.81V28.43c1.37,.48,2.88,.76,4.43,.79h0Z"/>
  <path class="cls-1" d="M29.02,15.37v-.43c-.1-6.01-4-11.12-9.39-13.03V28.43c5.4-1.93,9.29-7.05,9.39-13.06h0Z"/>
</svg>