<?xml version="1.0" encoding="UTF-8"?>
<svg id="Layer_1" data-name="Layer 1" xmlns="http://www.w3.org/2000/svg" viewBox="0 0 30 30">
  <defs>
    <style>
      .cls-1 {
        fill: #fff;
      }

      .cls-1, .cls-2, .cls-3 {
        fill-rule: evenodd;
      }

      .cls-2 {
        fill: #009045;
      }

      .cls-3 {
        fill: #d02f37;
      }
    </style>
  </defs>
  <path class="cls-2" d="M10.2,28.52V2C4.82,3.91,.9,9.02,.83,15.03v.43c.08,6.01,4,11.12,9.37,13.06h0Z"/>
  <path class="cls-1" d="M14.65,29.31h.48c1.55-.03,3.05-.31,4.45-.79V2c-1.4-.51-2.93-.79-4.48-.81h-.43c-1.58,.03-3.08,.31-4.48,.81V28.52c1.4,.48,2.9,.76,4.45,.79h0Z"/>
  <path class="cls-3" d="M28.96,15.44v-.38c-.08-6.01-4-11.15-9.37-13.06V28.52c5.37-1.93,9.29-7.05,9.37-13.08h0Z"/>
</svg>