<?xml version="1.0" encoding="UTF-8"?>
<svg id="Layer_1" data-name="Layer 1" xmlns="http://www.w3.org/2000/svg" viewBox="0 0 30 30">
  <defs>
    <style>
      .cls-1 {
        fill: #c12837;
      }

      .cls-1, .cls-2, .cls-3, .cls-4 {
        fill-rule: evenodd;
      }

      .cls-2 {
        fill: #fefefe;
      }

      .cls-3 {
        fill: #2a8044;
      }

      .cls-4 {
        fill: #242121;
      }
    </style>
  </defs>
  <path class="cls-4" d="M1.42,10.61H27.95C26.04,5.22,20.92,1.32,14.94,1.22h-.48c-6.01,.1-11.12,4-13.03,9.39h0Z"/>
  <path class="cls-2" d="M1.42,19.98H27.95c.51-1.4,.79-2.9,.81-4.45v-.46c-.03-1.55-.31-3.05-.81-4.45H1.42c-.51,1.4-.79,2.9-.81,4.48v.41c.03,1.58,.31,3.08,.81,4.48h0Z"/>
  <path class="cls-3" d="M14.46,29.37h.46c6.01-.1,11.12-4,13.03-9.39H1.42c1.93,5.4,7.05,9.29,13.03,9.39h0Z"/>
  <path class="cls-1" d="M20.08,15.3L3.38,6.92C1.68,9.21,.66,12.04,.61,15.09v.41c.05,3.05,1.07,5.88,2.77,8.17L20.08,15.3Z"/>
  <polygon class="cls-2" points="6.49 14.4 7.64 14.05 7.02 15.07 8.02 15.75 6.85 15.91 6.92 17.1 6.08 16.29 5.19 17.1 5.29 15.91 4.1 15.75 5.09 15.07 4.5 14.05 5.62 14.4 6.08 13.28 6.49 14.4"/>
</svg>