<?xml version="1.0" encoding="UTF-8"?>
<svg id="Layer_1" data-name="Layer 1" xmlns="http://www.w3.org/2000/svg" viewBox="0 0 30 30">
  <defs>
    <style>
      .cls-1 {
        fill: #c12837;
      }

      .cls-1, .cls-2, .cls-3, .cls-4 {
        fill-rule: evenodd;
      }

      .cls-2 {
        fill: #3d9a73;
      }

      .cls-3 {
        fill: #fefefe;
      }

      .cls-4 {
        fill: #242121;
      }
    </style>
  </defs>
  <path class="cls-2" d="M1.78,10.61H28.3C26.39,5.22,21.28,1.32,15.29,1.22h-.48c-6.01,.1-11.12,4-13.03,9.39h0Z"/>
  <path class="cls-3" d="M1.78,19.98H28.3c.51-1.4,.79-2.9,.81-4.45v-.46c-.03-1.55-.31-3.05-.81-4.45H1.78c-.51,1.4-.79,2.9-.81,4.48v.41c.03,1.58,.31,3.08,.81,4.48h0Z"/>
  <path class="cls-1" d="M14.81,29.37h.46c6.01-.1,11.12-4,13.03-9.39H1.78c1.91,5.4,7.05,9.29,13.03,9.39h0Z"/>
  <path class="cls-4" d="M5.16,5.29l7.94,5.32v9.37l-7.94,5.32C2.62,22.78,1.01,19.32,.96,15.5v-.41c.05-3.82,1.65-7.28,4.2-9.8h0Z"/>
</svg>