<?xml version="1.0" encoding="UTF-8"?>
<svg id="Layer_1" data-name="Layer 1" xmlns="http://www.w3.org/2000/svg" viewBox="0 0 30 30">
  <defs>
    <style>
      .cls-1 {
        fill: #c12837;
      }

      .cls-1, .cls-2, .cls-3 {
        fill-rule: evenodd;
      }

      .cls-2 {
        fill: #293469;
      }

      .cls-3 {
        fill: #fefefe;
      }
    </style>
  </defs>
  <path class="cls-1" d="M2.42,8.27H26.78c-2.42-4.15-6.87-6.97-11.96-7.05h-.43c-5.09,.08-9.55,2.9-11.96,7.05h0Z"/>
  <path class="cls-1" d="M26.78,22.32H2.42c2.42,4.15,6.87,6.97,11.96,7.05h.43c5.09-.08,9.55-2.9,11.96-7.05h0Z"/>
  <path class="cls-2" d="M2.42,22.32H26.78c1.17-2.01,1.86-4.35,1.88-6.82v-.41c-.03-2.47-.71-4.81-1.88-6.82H2.42c-1.17,2.01-1.86,4.33-1.88,6.8v.46c.03,2.47,.71,4.79,1.88,6.8h0Z"/>
  <path class="cls-3" d="M14.62,20.92c3.08,0,5.6-2.52,5.6-5.63s-2.52-5.63-5.6-5.63-5.63,2.52-5.63,5.63,2.52,5.63,5.63,5.63h0Z"/>
</svg>