<?xml version="1.0" encoding="UTF-8"?>
<svg id="Layer_1" data-name="Layer 1" xmlns="http://www.w3.org/2000/svg" viewBox="0 0 30 30">
  <defs>
    <style>
      .cls-1 {
        fill: #1a1a1a;
      }

      .cls-1, .cls-2, .cls-3, .cls-4 {
        fill-rule: evenodd;
      }

      .cls-2 {
        fill: #fff;
      }

      .cls-3 {
        fill: #e73331;
      }

      .cls-4 {
        fill: #4fb05c;
      }
    </style>
  </defs>
  <path class="cls-3" d="M2.98,8.58H27.67c-2.34-4.3-6.9-7.28-12.12-7.36h-.46c-5.22,.08-9.77,3.05-12.12,7.36h0Z"/>
  <path class="cls-1" d="M2.58,21.2H28.08c.81-1.73,1.3-3.67,1.32-5.7v-.41c-.05-2.34-.66-4.56-1.73-6.52H2.98c-1.07,1.93-1.68,4.15-1.73,6.49v.46c.03,2.01,.51,3.95,1.32,5.68h0Z"/>
  <path class="cls-4" d="M28.08,21.2H2.58c2.21,4.76,7,8.07,12.52,8.17h.46c5.52-.1,10.31-3.41,12.52-8.17h0Z"/>
  <path class="cls-2" d="M14.84,11.58c1.07,0,2.06,.48,2.7,1.25-.51-.36-1.15-.59-1.83-.59-1.76,0-3.16,1.35-3.16,3s1.4,3,3.16,3c.69,0,1.32-.23,1.83-.59-.64,.79-1.63,1.27-2.7,1.27-1.99,0-3.59-1.65-3.59-3.69s1.6-3.67,3.59-3.67h0Z"/>
  <polygon class="cls-2" points="18.89 12.67 19.94 14.3 21.77 13.77 20.6 15.3 21.64 16.9 19.86 16.24 18.69 17.77 18.76 15.83 16.98 15.17 18.82 14.63 18.89 12.67"/>
</svg>