<?xml version="1.0" encoding="UTF-8"?>
<svg id="Layer_1" data-name="Layer 1" xmlns="http://www.w3.org/2000/svg" viewBox="0 0 30 30">
  <defs>
    <style>
      .cls-1 {
        fill: #c6273e;
      }

      .cls-1, .cls-2, .cls-3 {
        fill-rule: evenodd;
      }

      .cls-2 {
        fill: #2d8440;
      }

      .cls-3 {
        fill: #fefefe;
      }
    </style>
  </defs>
  <path class="cls-1" d="M14.81,29.41h.46c7.56-.1,13.72-6.29,13.85-13.85v-.43c-.13-7.56-6.29-13.72-13.82-13.85h-.48C7.25,1.41,1.09,7.57,.96,15.15v.38c.13,7.59,6.29,13.77,13.85,13.87h0Z"/>
  <path class="cls-2" d="M2.87,22.38H27.21c1.17-2.01,1.86-4.35,1.91-6.82v-.43c-.05-2.47-.74-4.81-1.91-6.82H2.87c-1.17,2.01-1.86,4.35-1.91,6.85v.38c.05,2.49,.74,4.84,1.91,6.85h0Z"/>
  <path class="cls-3" d="M16.95,10.65c.31,0,.59,.03,.87,.1-2.16,.41-3.79,2.32-3.79,4.61s1.63,4.17,3.79,4.58c-.28,.08-.56,.1-.87,.1-2.6,0-4.68-2.11-4.68-4.68s2.09-4.71,4.68-4.71h0Z"/>
</svg>