<?xml version="1.0" encoding="UTF-8"?>
<svg id="Layer_1" data-name="Layer 1" xmlns="http://www.w3.org/2000/svg" viewBox="0 0 30 30">
  <defs>
    <style>
      .cls-1 {
        fill: #f5d61b;
      }

      .cls-1, .cls-2, .cls-3 {
        fill-rule: evenodd;
      }

      .cls-2 {
        fill: #c12837;
      }

      .cls-3 {
        fill: #48b040;
      }
    </style>
  </defs>
  <path class="cls-3" d="M9.91,28.62V2.07C4.54,4,.64,9.12,.54,15.13v.43c.1,6.01,4,11.12,9.37,13.06h0Z"/>
  <path class="cls-1" d="M14.39,29.41h.43c1.58-.03,3.08-.31,4.48-.79V2.07c-1.4-.48-2.9-.76-4.45-.79h-.48c-1.55,.03-3.05,.31-4.45,.79V28.62c1.4,.48,2.9,.76,4.48,.79h0Z"/>
  <path class="cls-2" d="M28.67,15.53v-.38c-.08-6.03-3.97-11.15-9.37-13.08V28.62c5.4-1.93,9.29-7.05,9.37-13.08h0Z"/>
</svg>