<?xml version="1.0" encoding="UTF-8"?>
<svg id="Layer_1" data-name="Layer 1" xmlns="http://www.w3.org/2000/svg" viewBox="0 0 30 30">
  <defs>
    <style>
      .cls-1 {
        fill: #d27826;
      }

      .cls-1, .cls-2, .cls-3 {
        fill-rule: evenodd;
      }

      .cls-2 {
        fill: #293a8a;
      }

      .cls-3 {
        fill: #fefefe;
      }
    </style>
  </defs>
  <path class="cls-2" d="M14.42,29.41h.46c7.56-.1,13.75-6.29,13.85-13.87v-.38c-.1-7.59-6.29-13.77-13.85-13.87h-.46C6.86,1.38,.7,7.57,.58,15.13v.43c.13,7.56,6.29,13.75,13.85,13.85h0Z"/>
  <path class="cls-3" d="M5.06,25.61l23.47-7.89c.13-.71,.18-1.45,.2-2.19v-.38c0-.48-.05-.97-.1-1.45L4.04,24.57c.33,.36,.66,.71,1.02,1.04h0Z"/>
  <path class="cls-1" d="M4.04,24.57L28.63,13.7c-.15-1.22-.43-2.39-.87-3.49L3.27,23.6c.25,.33,.51,.66,.76,.97h0Z"/>
  <polygon class="cls-3" points="8.39 8.1 8.72 2.83 9.03 8.1 10.15 5.2 9.64 8.28 11.47 5.76 10.2 8.59 12.59 6.63 10.63 9.04 13.46 7.77 10.96 9.58 14.02 9.09 11.11 10.19 16.38 10.52 11.11 10.85 14.02 11.95 10.96 11.44 13.46 13.27 10.63 12 12.59 14.41 10.2 12.45 11.47 15.28 9.64 12.76 10.15 15.84 9.03 12.94 8.72 18.21 8.39 12.94 7.3 15.84 7.78 12.76 5.97 15.28 7.22 12.45 4.83 14.41 6.79 12 3.96 13.27 6.46 11.44 3.4 11.95 6.3 10.85 1.42 10.55 1.44 10.49 6.3 10.19 3.4 9.09 6.46 9.58 3.96 7.77 6.79 9.04 4.83 6.63 7.22 8.59 5.97 5.76 7.78 8.28 7.3 5.2 8.39 8.1"/>
</svg>