<?xml version="1.0" encoding="UTF-8"?>
<svg id="Layer_1" data-name="Layer 1" xmlns="http://www.w3.org/2000/svg" viewBox="0 0 30 30">
  <defs>
    <style>
      .cls-1 {
        fill: #349541;
      }

      .cls-1, .cls-2 {
        fill-rule: evenodd;
      }

      .cls-2 {
        fill: #f5cb08;
      }
    </style>
  </defs>
  <path class="cls-1" d="M14.97,29.41h.43c7.59-.1,13.75-6.29,13.85-13.87v-.38c-.1-7.59-6.26-13.77-13.85-13.87h-.43C7.41,1.38,1.22,7.57,1.12,15.13v.43c.1,7.56,6.29,13.75,13.85,13.85h0Z"/>
  <path class="cls-2" d="M15.2,5.96l.76,2.44h2.57l-2.06,1.5,.79,2.42-2.09-1.5-2.04,1.5,.76-2.42-2.06-1.5h2.57l.79-2.44Zm8.76,3.67c.18,.69,.28,1.43,.28,2.19,0,5.01-4.07,9.11-9.06,9.11S6.11,16.83,6.11,11.82c0-.76,.1-1.5,.28-2.19,.15,4.81,4.02,8.65,8.78,8.65s8.63-3.84,8.78-8.65h0Z"/>
</svg>