<?xml version="1.0" encoding="UTF-8"?>
<svg id="Layer_1" data-name="Layer 1" xmlns="http://www.w3.org/2000/svg" viewBox="0 0 30 30">
  <defs>
    <style>
      .cls-1 {
        fill: #fff;
      }

      .cls-1, .cls-2 {
        fill-rule: evenodd;
      }

      .cls-2 {
        fill: #8fb6de;
      }
    </style>
  </defs>
  <path class="cls-2" d="M14.55,29.41h.43c7.59-.1,13.75-6.29,13.85-13.87v-.38c-.1-7.59-6.26-13.75-13.82-13.87h-.48C6.96,1.41,.8,7.57,.7,15.13v.43c.1,7.56,6.29,13.75,13.85,13.85h0Z"/>
  <path class="cls-1" d="M22.85,14.34l1.2-1.65v2.04l1.93,.64-1.93,.64v2.04l-1.2-1.65-1.93,.61,1.2-1.63-1.2-1.65,1.93,.64Zm-8.09,8.37l1.65-1.2-.61,1.93,1.63,1.22h-2.04l-.64,1.93-.61-1.93h-2.04l1.63-1.22-.61-1.93,1.63,1.2ZM5.49,12.68l1.2,1.65,1.93-.64-1.2,1.65,1.2,1.63-1.93-.61-1.2,1.65v-2.04l-1.96-.64,1.96-.64v-2.04ZM14.75,4.08l.64,1.96h2.04l-1.63,1.2,.61,1.93-1.65-1.2-1.63,1.2,.61-1.93-1.63-1.2h2.01l.64-1.96Z"/>
</svg>