<?xml version="1.0" encoding="UTF-8"?>
<svg id="Layer_1" data-name="Layer 1" xmlns="http://www.w3.org/2000/svg" viewBox="0 0 30 30">
  <defs>
    <style>
      .cls-1 {
        fill: #6aacd0;
      }

      .cls-1, .cls-2, .cls-3 {
        fill-rule: evenodd;
      }

      .cls-2 {
        fill: #f5ec0c;
      }

      .cls-3 {
        fill: #cc2631;
      }
    </style>
  </defs>
  <path class="cls-3" d="M10.64,28.62V2.07C5.25,4,1.35,9.12,1.25,15.1v.48c.1,5.98,4,11.1,9.39,13.03h0Z"/>
  <path class="cls-1" d="M15.1,29.41h.46c1.55-.03,3.05-.31,4.45-.79V2.07c-1.4-.48-2.9-.76-4.45-.79h-.48c-1.55,.03-3.03,.31-4.43,.79V28.62c1.4,.48,2.9,.76,4.45,.79h0Z"/>
  <path class="cls-3" d="M29.4,15.56v-.43c-.1-6.01-4-11.12-9.39-13.06V28.62c5.4-1.93,9.29-7.05,9.39-13.06h0Z"/>
  <path class="cls-2" d="M8.02,14.82h1.68v8.02h-1.68V14.82ZM3.44,22.84c-.41-.64-.76-1.32-1.07-2.04v-5.98h1.65v8.02h-.59Zm.92-1.99h3.33v.66h-3.33v-.66Zm0-4.68h3.33v.66h-3.33v-.66Zm0,5.68h3.33l-1.65,.99-1.68-.99Zm0-7.03h3.33l-1.65,1.02-1.68-1.02Zm1.68,2.34c.92,0,1.65,.76,1.65,1.68s-.74,1.65-1.65,1.65-1.68-.74-1.68-1.65,.74-1.68,1.68-1.68h0Zm0-6.34c.74,0,1.32,.59,1.32,1.32s-.59,1.35-1.32,1.35-1.32-.61-1.32-1.35,.59-1.32,1.32-1.32h0Zm1.83,1.86c-.03,.99-.84,1.81-1.83,1.81s-1.81-.81-1.83-1.81c.28,.66,.99,1.15,1.83,1.15s1.53-.48,1.83-1.15h0Zm-1.88-4.84s-.1,.15,.05,.31c0,0,.38,.38,.31,.84,0,0-.03,.23-.13,.41,0,0-.1,.18,.1,.25,0,0,.2,.05,.2-.18,0,0,0-.08-.08-.2,0,0-.1-.15,.08-.36,0,0,.08-.13,.03-.25,0,0,.2,.18,.13,.31,0,0-.05,.15,0,.25,0,0,.03,.03,.08,.13,0,0,.23,.25,.03,.69,0,0-.25,.51-.81,.46,0,0-.51-.03-.71-.56,0,0-.15-.28,.05-.56,0,0,.13-.15,.1-.25,0,0,0-.1-.03-.18,0,0-.05-.1,.15-.28,0,0-.08,.15,.03,.25,0,0,.15,.15,.08,.36,0,0-.05,.08-.08,.13,0,0-.08,.2,.13,.25,0,0,.23,0,.18-.23,0,0-.05-.1-.08-.18,0,0-.1-.25,.03-.53,0,0,.18-.18,.08-.41,0,0-.1-.33,.1-.46h0Z"/>
</svg>