<?xml version="1.0" encoding="UTF-8"?>
<svg id="Layer_1" data-name="Layer 1" xmlns="http://www.w3.org/2000/svg" viewBox="0 0 30 30">
  <defs>
    <style>
      .cls-1 {
        fill: #c6263d;
      }

      .cls-1, .cls-2, .cls-3, .cls-4, .cls-5 {
        fill-rule: evenodd;
      }

      .cls-2 {
        fill: #293b7c;
      }

      .cls-3 {
        fill: #fefefe;
      }

      .cls-4 {
        fill: #339544;
      }

      .cls-5 {
        fill: #f6d40d;
      }
    </style>
  </defs>
  <path class="cls-2" d="M14.69,1.28h.48c3.23,.05,6.21,1.22,8.58,3.11L1.07,17.65c-.13-.66-.18-1.37-.2-2.09v-.43C.99,7.57,7.15,1.41,14.69,1.28h0Z"/>
  <path class="cls-3" d="M23.75,4.39L1.07,17.65c.05,.43,.15,.87,.25,1.3L24.74,5.28c-.33-.31-.66-.61-.99-.89h0Z"/>
  <path class="cls-1" d="M24.74,5.28L1.32,18.95c.69,2.49,2.01,4.73,3.82,6.49L28.53,11.74c-.66-2.49-1.99-4.71-3.79-6.47h0Z"/>
  <path class="cls-3" d="M28.53,11.74L5.14,25.44c.33,.31,.64,.59,.99,.87L28.81,13.04c-.08-.43-.15-.87-.28-1.3h0Z"/>
  <path class="cls-4" d="M15.17,29.41h-.46c-3.23-.05-6.21-1.2-8.58-3.11L28.81,13.04c.13,.69,.18,1.37,.2,2.11v.38c-.13,7.59-6.29,13.77-13.85,13.87h0Z"/>
  <path class="cls-5" d="M4.25,7.49l-.53-.61c.18-.23,.33-.43,.51-.64l.69,.13c-.33,.31-.56,.69-.66,1.12h0Zm-1.48,.81c.05-.1,.1-.2,.18-.31l1.3-.48c-.05,.2-.1,.43-.1,.66s.05,.46,.1,.69h0l-1.48-.56Zm2.01-2.7c.18-.18,.36-.36,.56-.53l.71,.61c-.43,.13-.81,.36-1.15,.66l-.13-.74Zm1.93-1.65l.03-.03,.66,1.76c-.2-.08-.43-.1-.66-.1s-.46,.03-.66,.1h0l.64-1.73Zm.03,6.39c1.17,0,2.14-.97,2.14-2.16s-.97-2.14-2.14-2.14-2.16,.97-2.16,2.14,.97,2.16,2.16,2.16h0Zm-1.83-.33l-1.88,.33,1.22-1.48c.1,.43,.36,.84,.66,1.15h0Zm1.15,.69l-1.48,1.22,.33-1.91c.33,.33,.71,.56,1.15,.69h0Zm1.35,0l-.66,1.78-.66-1.78c.2,.05,.43,.08,.66,.08s.46-.03,.66-.08h0Zm1.15-.69l.33,1.91-1.48-1.22c.46-.13,.84-.36,1.15-.69h0Zm.69-2.49l1.81,.66s-1.71,.74-1.81,.69c-.13,.43-.36,.84-.66,1.15l1.88,.33s-1.12-1.48-1.22-1.48c.05-.23,.08-.46,.08-.69s-.03-.46-.08-.66h0Zm-.66-1.15l1.88-.33-1.22,1.45c-.13-.43-.36-.81-.66-1.12h0Zm-1.15-.69l1.45-1.22-.31,1.88c-.33-.31-.71-.53-1.15-.66h0Z"/>
</svg>