<?xml version="1.0" encoding="UTF-8"?>
<svg id="Layer_1" data-name="Layer 1" xmlns="http://www.w3.org/2000/svg" viewBox="0 0 30 30">
  <defs>
    <style>
      .cls-1 {
        fill: #c12837;
      }

      .cls-1, .cls-2, .cls-3 {
        fill-rule: evenodd;
      }

      .cls-2 {
        fill: #293a8a;
      }

      .cls-3 {
        fill: #fefefe;
      }
    </style>
  </defs>
  <path class="cls-3" d="M14.46,29.47h.46c7.56-.13,13.72-6.29,13.85-13.85v-.46c-.13-7.56-6.29-13.72-13.85-13.85h-.46C6.9,1.44,.74,7.63,.61,15.19v.41c.13,7.56,6.29,13.75,13.85,13.87h0Z"/>
  <path class="cls-2" d="M8.27,15.34h14.66L5.75,4.55C2.67,7.09,.69,10.91,.61,15.19v.41c.13,7.56,6.29,13.75,13.85,13.87h.46c2.14-.05,4.17-.56,6.01-1.48L8.27,15.34Z"/>
  <path class="cls-1" d="M7,14.81h14.08L5.32,4.9c-1.96,1.76-3.41,4.05-4.17,6.64v7.69c1.35,4.66,5.04,8.35,9.7,9.7h7.69c.66-.2,1.27-.43,1.88-.69L7,14.81Z"/>
  <path class="cls-3" d="M6.85,19.24l1.43-1.07-.23,1.78,1.78-.23-1.07,1.45,1.65,.69-1.65,.71,1.07,1.43-1.78-.23,.23,1.81-1.43-1.09-.71,1.65-.69-1.65-.89,.66c-.15-.15-.28-.33-.43-.48l.1-.89-.74,.1c-.18-.2-.31-.41-.46-.64l.51-.66-1.25-.53c-.05-.1-.1-.2-.15-.28l1.4-.59-1.09-1.45,1.78,.23-.23-1.78,1.45,1.07,.69-1.65,.71,1.65Z"/>
  <path class="cls-3" d="M10.1,10.12c-.03,2.19-1.78,3.97-3.97,3.97s-3.97-1.78-4-3.97c.36,.87,.99,1.63,1.81,2.11h0l.36-.28-.66-.51,.79-.2-.43-.71,.84,.13-.13-.84,.71,.43,.23-.81,.48,.66,.51-.66,.2,.81,.71-.43-.1,.84,.81-.13-.43,.71,.81,.2-.66,.51,.33,.25v.03c.81-.51,1.43-1.25,1.78-2.11h0Z"/>
</svg>