<?xml version="1.0" encoding="UTF-8"?>
<svg id="Layer_1" data-name="Layer 1" xmlns="http://www.w3.org/2000/svg" viewBox="0 0 30 30">
  <defs>
    <style>
      .cls-1 {
        fill: #40ab40;
      }

      .cls-1, .cls-2, .cls-3 {
        fill-rule: evenodd;
      }

      .cls-2 {
        fill: #fefefe;
      }

      .cls-3 {
        fill: #f60;
      }
    </style>
  </defs>
  <path class="cls-3" d="M1.33,10.71H27.88C25.94,5.31,20.83,1.42,14.82,1.32h-.43c-6.01,.1-11.12,4-13.06,9.39h0Z"/>
  <path class="cls-2" d="M1.33,20.08H27.88c.48-1.4,.76-2.9,.79-4.48v-.41c-.03-1.58-.31-3.08-.79-4.48H1.33c-.48,1.4-.76,2.9-.79,4.45v.46c.03,1.55,.31,3.05,.79,4.45h0Z"/>
  <path class="cls-1" d="M14.39,29.47h.43c6.01-.1,11.12-4,13.06-9.39H1.33c1.93,5.4,7.05,9.29,13.06,9.39h0Z"/>
  <path class="cls-3" d="M14.62,19.39c2.19,0,3.97-1.81,3.97-4s-1.78-3.97-3.97-3.97-4,1.78-4,3.97,1.78,4,4,4h0Z"/>
</svg>