<?xml version="1.0" encoding="UTF-8"?>
<svg id="Layer_1" data-name="Layer 1" xmlns="http://www.w3.org/2000/svg" viewBox="0 0 30 30">
  <defs>
    <style>
      .cls-1 {
        fill: #2f815b;
      }

      .cls-1, .cls-2, .cls-3, .cls-4 {
        fill-rule: evenodd;
      }

      .cls-2 {
        fill: #4280c2;
      }

      .cls-3 {
        fill: #e3b512;
      }

      .cls-4 {
        fill: #f2db1b;
      }
    </style>
  </defs>
  <path class="cls-2" d="M.9,15.17H29.05v-.18c-.13-7.59-6.29-13.77-13.85-13.87h-.46C7.18,1.22,1.02,7.41,.9,14.97v.2Z"/>
  <path class="cls-4" d="M2.81,22.22H27.14c1.17-2.04,1.86-4.35,1.91-6.85v-.2H.9v.23c.05,2.47,.74,4.81,1.91,6.82h0Z"/>
  <path class="cls-1" d="M14.74,29.25h.46c5.09-.08,9.55-2.9,11.94-7.03H2.81c2.39,4.12,6.85,6.95,11.94,7.03h0Z"/>
  <path class="cls-3" d="M22.33,5.39c1.15,0,2.09,.94,2.09,2.09s-.94,2.09-2.09,2.09-2.09-.92-2.09-2.09,.94-2.09,2.09-2.09h0Zm-1.37-2.95l.08,.05,.94,2.27,.23-1.65c.1,.08,.2,.13,.31,.2l.18,1.45,.43-1.04c.13,.1,.25,.2,.38,.31l-.1,.92,.48-.64c.13,.13,.25,.23,.41,.36l-.28,.66,.53-.43c.13,.13,.25,.25,.38,.38l-.41,.56,.69-.28c.1,.1,.23,.25,.33,.38l-.66,.51,.99-.13c.1,.13,.2,.23,.31,.36l-1.12,.46,1.6,.23c.05,.08,.1,.18,.18,.28l-1.78,.23,2.49,1.02v.03l-2.67-.36,2.19,1.68-2.55-1.07,1.65,2.19-2.16-1.65,1.04,2.52-1.65-2.16,.33,2.72-1.04-2.55-.36,2.72-.36-2.72-1.04,2.55,.36-2.72-1.68,2.16,1.04-2.52-2.16,1.65,1.65-2.19-2.52,1.07,2.16-1.68-2.72,.36,2.55-1.04-2.72-.36,2.72-.38-2.55-1.04,2.72,.36-2.16-1.68,2.52,1.07-1.65-2.19,2.16,1.68-1.04-2.55,1.68,2.16-.33-2.49Zm1.37,3.18c1.02,0,1.86,.84,1.86,1.86s-.84,1.88-1.86,1.88-1.86-.84-1.86-1.88,.84-1.86,1.86-1.86h0Z"/>
</svg>