<?xml version="1.0" encoding="UTF-8"?>
<svg id="Layer_1" data-name="Layer 1" xmlns="http://www.w3.org/2000/svg" viewBox="0 0 30 30">
  <defs>
    <style>
      .cls-1 {
        fill: #2c377a;
      }

      .cls-1, .cls-2, .cls-3 {
        fill-rule: evenodd;
      }

      .cls-2 {
        fill: #fff;
      }

      .cls-3 {
        fill: #c12837;
      }
    </style>
  </defs>
  <path class="cls-3" d="M14.71,29.25h.46c7.56-.1,13.72-6.29,13.85-13.87v-.38c-.13-7.59-6.29-13.75-13.85-13.87h-.48C7.15,1.25,.99,7.41,.86,14.97v.43c.13,7.56,6.29,13.75,13.85,13.85h0Z"/>
  <path class="cls-1" d="M.91,14h15.68V1.19c-.48-.05-.94-.08-1.43-.08h-.48C7.46,1.25,1.5,6.9,.91,14H.91Z"/>
  <path class="cls-2" d="M7.79,11.35l.41-1.32,.43,1.32h1.37l-1.12,.79,.43,1.32-1.12-.81-1.09,.81,.43-1.32-1.12-.79h1.37ZM3.66,6.79c.28-.38,.56-.74,.89-1.09l.05,.2h1.09l-.89,.66,.36,1.04-.89-.66-.89,.66,.28-.81Zm3.87-3.56c.33-.2,.66-.38,.99-.56v.03h1.09l-.87,.64,.33,1.04-.89-.64-.87,.64,.33-1.04-.13-.1Zm4.38,2.06l.31-.97,.33,.97h1.02l-.84,.61,.33,.99-.84-.61-.81,.61,.33-.99-.84-.61h1.02Zm-1.96,3l.23-.64,.2,.64h.66l-.53,.41,.2,.64-.53-.41-.56,.41,.23-.64-.56-.41h.66Z"/>
</svg>