<?xml version="1.0" encoding="UTF-8"?>
<svg id="Layer_1" data-name="Layer 1" xmlns="http://www.w3.org/2000/svg" viewBox="0 0 30 30">
  <defs>
    <style>
      .cls-1 {
        fill: #fff;
      }

      .cls-1, .cls-2 {
        fill-rule: evenodd;
      }

      .cls-2 {
        fill: #006c35;
      }
    </style>
  </defs>
  <path class="cls-2" d="M14.46,29.31h.46c7.56-.13,13.72-6.29,13.85-13.85v-.46c-.13-7.56-6.29-13.72-13.82-13.85h-.48C6.9,1.28,.74,7.47,.61,15.03v.41c.13,7.56,6.29,13.75,13.85,13.87h0Z"/>
  <path class="cls-1" d="M25.02,11.34s-.03-.38-.33-.48c0,0-.28-.13-.15-.25,0,0,.2-.18,.38,.2,0,0,.18,.2,.1,.53h0Zm-1.15,3.89h-.23s-1.2,.43-1.45,.64c0,0,.1,.05,.31-.03,0,0,1.35-.53,1.37-.61h0Zm-3.44-3.82l-.23,.03s-1.12,.56-1.37,.79c0,0,.13,.05,.31-.05,0,0,1.3-.66,1.3-.76h0Zm-15.27,1.04l-.25,.03s-1.12,.59-1.37,.79c0,0,.13,.05,.31-.05,0,0,1.3-.66,1.32-.76h0Zm15.86,3.41s0-.31-.25-.46c0,0-.33-.08-.2-.25,0,0,.15-.15,.38,.23,0,0,.13,.2,.08,.48h0ZM7.79,10.55s0-.31-.25-.46c0,0-.31-.08-.18-.25,0,0,.15-.13,.38,.23,0,0,.13,.2,.05,.48h0Zm5.5-1.09s0-.33-.25-.48c0,0-.31-.08-.2-.25,0,0,.18-.13,.41,.23,0,0,.13,.2,.05,.51h0Zm-3.26,.25s0-.31-.25-.46c0,0-.33-.08-.2-.25,0,0,.18-.13,.41,.23,0,0,.13,.2,.05,.48h0Zm11.84,3.23s.08,.05,.08,.1-.05,.1-.08,.1c-.05,0-.08-.05-.08-.1s.03-.1,.08-.1h0Zm.25,.15c.05,0,.08,.03,.08,.08s-.03,.1-.08,.1c-.03,0-.05-.05-.05-.1s.03-.08,.05-.08h0Zm-1.35,.84s.61-.18,.99-.61c0,0-.18-.31-.13-.48,.1-.23,.43,.03,.53,.13,0,0,.23,.23,.13,.38-.08,.08-.23,.08-.33,.08,0,0-.66,.76-1.2,.51h0ZM4.38,11.77c.05,0,.08,.05,.08,.1s-.03,.08-.08,.08-.08-.03-.08-.08,.03-.1,.08-.1h0Zm.28,.13s.08,.05,.08,.1-.05,.1-.08,.1c-.05,0-.08-.05-.08-.1s.03-.1,.08-.1h0Zm-1.35,.87s.59-.18,.97-.64c0,0-.18-.28-.1-.46,.1-.23,.41,.03,.51,.13,0,0,.23,.2,.13,.38-.08,.08-.23,.08-.33,.08,0,0-.66,.76-1.17,.51h0Zm18.96-1.63c.08,.56,.13,1.17,.23,1.81,0,0,.15,1.22,.18,1.78,0,0-.08,.41-.71,.38,0,0-.48,.03-.74-.76,0,0-.15-.33-.53-.15,0,0-.38,.15-.66,.84,0,0-.31,.97-.69,.74,0,0-.43-.38-.48-.92,.41,.13,1.12-.36,1.12-.36,.64-.69-.13-1.3-.13-1.3l.76-.66c.05,.41,.1,.81,.15,1.2,.25-.05,.28-.79,.23-1.5l.33-.31,.94-.79Zm1.55-1.3c0,.13,.03,.25,.03,.38l.1,1.78c-.43-.38-.89-.76-1.27-1.12v-.08l1.15-.97Zm-4.79-.38s-.08-.31-.33-.48c0,0-.15-.1-.05-.18,0,0,.13-.1,.38,.25,.05-.25,.23-.51,.48-.31,.05,.05,.08,.13,0,.23-.18,.03-.13-.18-.25-.1-.1,.08-.2,.51-.23,.59h0Zm-8.71,4.3s-.08-.31-.36-.48c0,0-.13-.13-.03-.2,0,0,.13-.1,.38,.28,.05-.25,.23-.53,.46-.31,.05,.05,.1,.13,.03,.2-.18,.03-.13-.15-.25-.08-.1,.08-.2,.51-.23,.59h0Zm8.68-3.23c-.31,.13-.28,.69,.1,.69,0,0,.13,0,.25-.15,0,0,.1,.15,.25,.15,0,0,.28-.03,.2-.31,0,0-.13-.33-.1-.46,0,0-.15,.03-.1,.28,0,0,.1,.2,.05,.23,0,0-.15,.08-.28-.13,0,0-.08-.18-.03-.31,0,0-.18-.05-.15,.33,0,0,.03,.1,.03,.13-.31,.15-.36-.2-.23-.46h0Zm-5.4,1.25c-.31,.13-.28,.69,.1,.69,0,0,.13,0,.25-.15,0,0,.1,.15,.25,.15,0,0,.28,0,.2-.31,0,0-.13-.33-.1-.43,0,0-.15,0-.1,.25,0,0,.1,.23,.05,.25,0,0-.15,.05-.28-.15,0,0-.08-.18-.03-.31,0,0-.18-.05-.15,.33,0,0,.03,.1,.03,.13-.31,.15-.36-.23-.23-.46h0Zm-.74-2.11c-.28,.13-.25,.66,.13,.69,0,0,.13,0,.23-.15,0,0,.13,.13,.28,.15,0,0,.28-.03,.2-.31,0,0-.15-.33-.1-.46,0,0-.18,.03-.1,.28,0,0,.08,.2,.03,.23,0,0-.15,.05-.25-.13,0,0-.08-.18-.05-.33,0,0-.18-.03-.13,.33,0,0,0,.1,.03,.15-.31,.15-.38-.23-.25-.46h0Zm-5.6-.48c-.18,.08-.15,.41,.08,.41,0,0,.05,0,.13-.08,0,0,.08,.08,.15,.08,0,0,.18,0,.13-.18,0,0-.08-.18-.05-.25,0,0-.1,0-.08,.15,0,0,.05,.13,.03,.15,0,0-.08,.03-.15-.1,0,0-.05-.1-.03-.18,0,0-.1-.03-.08,.2v.08c-.15,.08-.2-.13-.13-.28h0Zm11.38,.94c-.28,0-.38-.2-.13-.33,.28-.18,1.15-.46,1.43-.53,.03,.13-.51,.31-.64,.36l-.64,.25c-.15,.05-.13,.1-.03,.25h0Zm-2.14-1.53c-.33,.13-.74,.71-.38,.89,.23,.13,.46-.05,.51-.28,0,0-.28,.13-.36,.05,0,0-.15-.18,.23-.66h0ZM3.79,13.6c-.33,.13-.74,.69-.38,.89,.23,.13,.46-.08,.51-.28,0,0-.28,.1-.36,.03,0,0-.15-.18,.23-.64h0Zm-.05-4.86c-.36,.13-.74,.69-.38,.89,.23,.1,.46-.08,.51-.31,0,0-.28,.13-.36,.05,0,0-.15-.18,.23-.64h0Zm13.82,6.11s-.33,.15-.23,.48c0,0,.08,.23,.23,.1,0,0,.1-.1-.03-.18,0,0-.2-.13,.03-.41h0Zm-1.45,.18c.1-.15,.28-.2,.43-.15,.1,.03,.2,.05,.13,.15-.1,.15-.28,.15-.43,.28-.18,.18-.03,.2,.15,.18,.1,0,.51-.2,.59-.25,0,0-.15,.41-.69,.46-.05,0-.1,0-.15-.03-.2-.05-.31-.25-.08-.38,.1-.08,.23-.1,.2-.15-.03-.1-.28,.13-.15-.1h0Zm1.17-2.11s-.2-.31,.18-.36c0,0-.05,.15,0,.28l.05,.03-.08,.08s-.2,.48-.74,.43c0,0,.56-.1,.59-.46h0Zm-1.32-1.02s.46-.15,.51-.48c0,0-.18,.08-.2-.03,0,0,.1-.31,.33-.18,0,0,.15,.08-.03,.41,0,0-.15,.23-.61,.28h0Zm-.46,.43s.13-.08,.31-.03c.25,.08,.41,.2,.08,.33-.1,.05-.23,.08-.36-.05,0,0-.18-.15-.03-.25h0Zm-2.67,2.7s-.03-.25,.23-.13c.23,.1,.08,.28-.15,.31-.05,0-.13,.03-.15,.05-.1,.1,.25,.36,.08,.66,0,0-.05-.38-.2-.51,0,0-.08-.08-.03-.18,.05-.1,.2-.1,.23-.2h0Zm2.8-5.85s.2,.03,.25,.05c0,0-.03-.18-.36-.43-.33-.23-.25,.1-.25,.1,0,0,.03,.38,.23,.81,0,0,.59,.97,.15,1.15,0,0-.66,.38-1.04-.53,0,0-.18-.51-.18-1.07,0,0,.03-.31-.23-.56,0,0-.28,.13-.2,.48,0,0,.25,.33,.23,.71,0,0,.03,.81-.51,1.12,0,0-.31,.18-.64,.13-.94-.13-.59-1.35-.36-1.91,0,0-.33-.08-.59,.64,0,0-.31,.74-.46,1.12,0,0-.18,.46-.56,.25,0,0-.46-.28-.25-1.12,0,0-.41,.36-.03,1.3,0,0,.53,.46,.92-.2,0,0,.23-.41,.28-.87,0,0,.2-.59,.36-.56,0,0-.38,.81,0,1.43,0,0,.53,.61,1.25,.2,0,0,.56-.31,.66-.92,0,0,.28,.97,1.15,.81,0,0,.84-.15,.56-1.12,0,0-.38-.84-.38-1.02h0Zm-7.41-.05s.18,.03,.23,.05c0,0,0-.18-.36-.43-.33-.23-.25,.1-.25,.1,0,0,.05,.38,.25,.81,0,0,.56,.99,.15,1.15,0,0-.69,.38-1.07-.53,0,0-.15-.51-.18-1.04,0,0,.03-.33-.23-.59,0,0-.25,.13-.2,.48,0,0,.25,.33,.23,.74,0,0,.03,.79-.48,1.09,0,0-.1,.05-.28,.1v-.23c-.05-.43-.13-.89-.15-1.27l.23,.13s.03-.46-.28-.97c0,0-.23-.28-.33,.13,0,0-.03,.43,.1,1.37,.03,.25,.05,.56,.08,.87h0c-.97-.1-.61-1.35-.36-1.91,0,0-.36-.08-.61,.64,0,0-.31,.74-.43,1.12,0,0-.2,.46-.59,.25,0,0-.43-.28-.25-1.12,0,0-.41,.36-.03,1.3,0,0,.53,.46,.92-.2,0,0,.23-.41,.31-.89,0,0,.18-.56,.33-.53,0,0-.38,.81,0,1.43,0,0,.31,.33,.74,.33,.05,1.02,.1,2.14,.2,2.88,.38-.05,.28-1.91,.18-2.93,.05-.03,.1-.05,.15-.08,0,0,.53-.31,.66-.92,0,0,.28,.99,1.15,.81,0,0,.81-.15,.56-1.12,0,0-.41-.84-.38-1.02h0Zm2.98-.08c-.31-.1-.1-.28,0,0h0Zm-.89,.92s.59-.31,.79-.74c-.61-.36,.1-.81,.25-.1,0,0,.25,.15,.08,.46,0,0-.08,.15-.15,.28-.08,.2,.08,.23,.18,.03,.05,.46-.56,.36-.23-.23,.1-.15,.2-.38,.03-.36,0,0-.38,.56-.94,.66h0Zm1.37,2.52s.08,0,.13,.03c0,0,0-.18-.41-.61,0,0-.13-.15-.2,.1,0,0-.13,.28,.15,.79,0,0,.38,.66,.25,.84,0,0-.36,.41-1.22,.94,.03-.38,.23-.74,.23-.74-.33,.2-.43,.56-.46,.89-.64,.38-1.5,.84-2.67,1.27,0,0,.92,.13,1.96-.36,0,0,.33-.13,.76-.38v.03c.1,.92,1.32,.15,1.32,.15,1.09-.46,1.6-1.32,1.6-1.32,0,1.45,1.32,1.71,1.32,1.71,.64,.25,.79-.08,.79-.08,.1-.38-.25-.38-.25-.38-.41,0-.79-.18-.79-.18,.28-.61,2.65-.92,2.65-.92,.92-.1,.99-.56,.89-.56-.1,.03-3.44,0-3.44,0,.61-.51,1.37-.71,1.37-.71,.1,.1,.13,.36,.13,.36,.15-.1,.13-.41,.13-.41,.41,.1,.64-.2,.64-.2,.31-.31-.46-.64-.46-.64-.61-.28-.89,.13-.89,.13-.23,.23,.18,.56,.18,.56-2.19,.61-1.83,1.3-1.83,1.3l2.06,.03c-1.55,.36-1.6,.92-1.6,.92-.59,.03-.74-1.43-.74-1.43-.05-1.2-.87-2.06-.87-2.06-.25,.18-.08,.64-.08,.64,.38,.69,.71,1.65,.71,1.65-.46,.48-1.6,1.17-1.6,1.17-.56,.38-.94,.13-.94,.13-.03,0-.03-.03-.03-.05,.46-.31,1.04-.74,1.48-1.32,0,0,.18-.33-.15-.87,0,0-.2-.43-.13-.41h0Zm-4.33,.2s-.41-.43-.69-.08c0,0,.25,.33,.69,.08h0Zm1.81,.36c-.08,.03-.15,.03-.23,0,0,0-.43-.13-.51-.43,0,0-.15,.18-.43,.33,.03,.31,0,1.02-.94,1.5,0,0-.87,.53-1.88,.89,.38,.18,.92,.03,.92,.03,2.85-.43,3.08-1.91,3.08-1.91v-.41h0Zm-5.8,2.52s.51-.15,1.15-.38c-.48-1.25,.59-2.16,.59-2.16-.46,.48-.38,1.53-.38,1.53,0,.23,.05,.38,.13,.51,.66-.23,1.37-.53,1.83-.89,0,0,1.02-.51,.99-1.07-.23,.1-.51,.15-.84,.15,0,0-.71-.03-.43-.81,0,0,.41-.79,1.04-.36,0,0,.25,.2,.36,.51,0,0,.61-.41,.84-.59,0,0-.1,.56,.43,.64h.08c-.05-.33-.08-.69-.13-1.07h0c-.13-1.12-.28-2.27-.28-2.27-.18-.56,.18-.69,.18-.69,.1-.05,.2,.18,.2,.18,.33,.69,.25,.94,.25,.94-.08-.1-.2-.15-.2-.15,.08,.59,.15,1.2,.2,1.76,.41-.25,.99-.56,.99-.56l.25-.03c-.03,.08-.94,.59-1.25,.71,.05,.41,.08,.74,.13,.99,.08-.08,.15-.18,.2-.36,0,0,.13-.28,.36-.28,0,0-.13,.48,.28,.51,0,0,.51,.03,.43-.64,0,0,.08-.28,.2,.08,0,0,.25,.87-.66,1.02,0,0-.36,.03-.48-.33,0,0-.05,.31-.31,.46v.03c.1,1.48-1.45,2.29-1.45,2.29-2.65,1.25-3.33,.38-3.33,.38-.03-.05-.08-.1-.1-.15-.41,.1-.87,.15-1.27,.1h0Zm16.16-2.04s.59,.41,.18,.61c0,0-.48,.31-.76,.18,0,0-.13-.18,.59-.79h0Zm6.62-3.87s.05-.18-.28-.84c0,0-.18-.38-.38-.13-.08,.13,0,.64,.03,.79l.33,3.64s.08,.69-.05,1.09c-.05-.53-.69-1.2-1.43-1.86-.08-.94-.15-2.16-.23-2.77l.03-.03,.2,.13s0-.1-.03-.28c.69-.53,.69-.87,.69-.87-.18,.08-.46,.28-.76,.51-.05-.1-.1-.2-.18-.33,0,0-.23-.28-.33,.13,0,0,0,.18,.03,.56-.41,.31-.74,.59-.74,.59-.13,.1-.25,.23-.41,.36-.03-.25-.08-.51-.1-.76l.2,.08s.13-.48-.36-1.04c0,0-.23-.08-.25,.31,0,0,.03,.59,.1,1.5-.13-.13-.23-.25-.33-.36l.31-.05s-.33-.38-.66-.59c-.48-.31-.74-.1-.38,.41,.05,.08,.1,.13,.18,.2,.23,.28,.48,.53,.74,.79-.36,.31-.74,.61-1.09,.94-.05-.43-.1-.81-.13-.94-.05-.43-.1-.89-.13-1.27l.2,.13s.05-.46-.25-.97c0,0-.25-.28-.36,.13,0,0,0,.43,.13,1.37,.05,.59,.1,1.22,.15,1.86-.59,.48-1.02,.87-1.02,.87-.64-.48-1.12-.92-1.5-1.25-.05-.81-.13-1.68-.18-2.14l.23,.13s.05-.46-.28-.97c0,0-.23-.28-.33,.13,0,0,.03,.41,.13,1.37l.05,1.09c-.56-.56-.76-.87-.76-.87l.25-.03c-.56-.89-1.02-.71-1.02-.71-.18,.31,.59,1.17,.59,1.17,.33,.36,.66,.69,.97,1.02l.1,1.5s.1,1.48,.13,1.76c0,0,.36-.13,.25-1.63,0,0-.03-.56-.08-1.27,.61,.59,1.12,.99,1.12,.99-.84,.81-.64,1.35-.64,1.35,.03,.1,.08,.15,.15,.2-.03,.08-.03,.25,.05,.66,0,0,.15,.84,.92,.66,0,0,.31-.08,.46-.69,0,0,.15-.74,.64-.84,0,0,.2-.08,.28,.2,0,0,.18,.81,.87,.79,0,0,.97,.05,1.02-1.02,0,0-.1-1.55-.25-3.11,.03,.03,.05,.03,.08,.05,.38,.33,.79,.69,1.2,1.04l.05,.84s.08,1.48,.13,1.76c0,0,.36-.13,.25-1.63,0,0-.03-.23-.05-.59,.59,.56,1.09,1.12,1.25,1.63,0,0-.46,.76-2.16,1.35,0,0,2.06,.13,2.6-1.58,0,0,.23-1.37,0-2.72l-.2-2.09,.28,.13Z"/>
  <path class="cls-1" d="M20.59,21.26v.2l.13,.13h.71l.15-.15s.08-.03,.1,0l.15,.15h.71s-.03-.08-.03-.13c0-.23,0-.2-.15-.2h-1.78Zm-.31-.99l.18-.18s.08-.03,.1,0l.18,.18s.03,.08,0,.1l-.15,.15v.2h1.93c.41,0,.74,.15,.74,.56,0,.43-.15,.56-.36,.56-.1,0-.18-.03-.25-.1h-.81l-.15,.15s-.08,.03-.1,0l-.15-.15h-.71l-.15,.15s-.08,.03-.1,0l-.18-.18s-.03-.08,0-.1l.15-.15v-.2H10.79c-.51,0-4.48,.13-4.68-.48-.03-.03,.08-.05,.23-.05h14.1v-.2l-.15-.15s-.03-.08,0-.1h0Z"/>
</svg>