<?xml version="1.0" encoding="UTF-8"?>
<svg id="Layer_1" data-name="Layer 1" xmlns="http://www.w3.org/2000/svg" viewBox="0 0 30 30">
  <defs>
    <style>
      .cls-1 {
        fill: #c6273e;
      }

      .cls-1, .cls-2, .cls-3, .cls-4 {
        fill-rule: evenodd;
      }

      .cls-2 {
        fill: #42aa41;
      }

      .cls-3 {
        fill: #f7d40e;
      }
    </style>
  </defs>
  <path class="cls-2" d="M2.21,9.2H27.61C25.37,4.51,20.61,1.25,15.11,1.15h-.43c-5.5,.1-10.23,3.36-12.47,8.04h0Z"/>
  <path class="cls-2" d="M14.68,29.31h.43c5.5-.1,10.26-3.36,12.5-8.04H2.18c2.24,4.68,7,7.94,12.5,8.04h0Z"/>
  <path class="cls-3" d="M2.18,21.26H27.61c.84-1.78,1.32-3.74,1.35-5.8v-.46c-.03-2.06-.51-4.05-1.35-5.8H2.21c-.87,1.78-1.35,3.74-1.37,5.83v.41c.03,2.06,.51,4.05,1.35,5.83h0Z"/>
  <path class="cls-1" d="M10.73,15.23L3.1,7.57C1.7,9.73,.86,12.28,.83,15.03v.41c.03,2.72,.87,5.29,2.27,7.43l7.64-7.64Z"/>
  <polygon class="cls-4" points="14.63 14.11 15.39 11.74 16.13 14.11 18.6 14.11 16.61 15.56 17.38 17.95 15.39 16.48 13.38 17.95 14.17 15.56 12.16 14.11 14.63 14.11"/>
  <polygon class="cls-4" points="23.31 14.11 24.07 11.74 24.81 14.11 27.28 14.11 25.29 15.56 26.06 17.95 24.07 16.48 22.06 17.95 22.85 15.56 20.84 14.11 23.31 14.11"/>
</svg>