<?xml version="1.0" encoding="UTF-8"?>
<svg id="Layer_1" data-name="Layer 1" xmlns="http://www.w3.org/2000/svg" viewBox="0 0 30 30">
  <defs>
    <style>
      .cls-1 {
        fill: #f6ed46;
      }

      .cls-1, .cls-2, .cls-3 {
        fill-rule: evenodd;
      }

      .cls-2 {
        fill: #d12633;
      }

      .cls-3 {
        fill: #2f8741;
      }
    </style>
  </defs>
  <path class="cls-3" d="M9.78,28.49V1.97C4.41,3.88,.51,8.99,.41,15v.46c.1,5.98,4,11.12,9.37,13.03h0Z"/>
  <path class="cls-1" d="M14.26,29.31h.43c1.58-.03,3.08-.31,4.48-.81V1.97c-1.4-.51-2.9-.79-4.45-.81h-.48c-1.55,.03-3.05,.31-4.45,.81V28.49c1.43,.51,2.93,.79,4.48,.81h0Z"/>
  <path class="cls-2" d="M28.54,15.46v-.48c-.1-5.98-4-11.1-9.37-13.01V28.49c5.37-1.91,9.27-7.03,9.37-13.03h0Z"/>
  <polygon class="cls-3" points="14.49 11.31 15.46 14.31 18.59 14.31 16.07 16.15 17.01 19.15 14.49 17.29 11.94 19.15 12.91 16.15 10.37 14.31 13.52 14.31 14.49 11.31"/>
</svg>