<?xml version="1.0" encoding="UTF-8"?>
<svg id="Layer_1" data-name="Layer 1" xmlns="http://www.w3.org/2000/svg" viewBox="0 0 30 30">
  <defs>
    <style>
      .cls-1 {
        fill: #244184;
      }

      .cls-1, .cls-2, .cls-3, .cls-4, .cls-5 {
        fill-rule: evenodd;
      }

      .cls-2 {
        fill: #2b8044;
      }

      .cls-3 {
        fill: #fefefe;
      }

      .cls-4 {
        fill: #c82837;
      }

      .cls-5 {
        fill: #f6df55;
      }
    </style>
  </defs>
  <path class="cls-1" d="M.96,15.03v.41c.03,1.58,.33,3.11,.84,4.53L13.28,1.25C6.44,2.12,1.07,7.97,.96,15.03H.96Z"/>
  <path class="cls-5" d="M15.29,1.15h-.48c-.51,.03-1.02,.05-1.53,.1L1.8,19.96c.41,1.17,.99,2.27,1.71,3.28L25.25,5.56c-2.52-2.65-6.06-4.33-9.95-4.4h0Z"/>
  <path class="cls-4" d="M25.25,5.56L3.51,23.25c.64,.94,1.4,1.78,2.27,2.55l23.16-8.37c.1-.64,.15-1.3,.18-1.96v-.46c-.05-3.64-1.53-6.97-3.87-9.44h0Z"/>
  <path class="cls-3" d="M28.94,17.42L5.77,25.79c.59,.51,1.22,.99,1.88,1.4l18.48-3.33c1.43-1.83,2.42-4.05,2.8-6.44h0Z"/>
  <path class="cls-2" d="M26.14,23.86l-18.48,3.33c2.09,1.3,4.56,2.06,7.15,2.11h.46c4.4-.08,8.32-2.19,10.87-5.45h0Z"/>
</svg>