<?xml version="1.0" encoding="UTF-8"?>
<svg id="Layer_1" data-name="Layer 1" xmlns="http://www.w3.org/2000/svg" viewBox="0 0 30 30">
  <defs>
    <style>
      .cls-1 {
        fill: #313c90;
      }

      .cls-1, .cls-2, .cls-3 {
        fill-rule: evenodd;
      }

      .cls-2 {
        fill: #c12837;
      }

      .cls-3 {
        fill: #fefefe;
      }
    </style>
  </defs>
  <path class="cls-3" d="M1.91,10.55H28.46C26.52,5.15,21.41,1.25,15.43,1.15h-.48c-5.98,.1-11.1,4-13.03,9.39h0Z"/>
  <path class="cls-1" d="M1.91,19.91H28.46c.48-1.4,.76-2.93,.79-4.48v-.41c-.03-1.58-.31-3.08-.79-4.48H1.91c-.48,1.4-.76,2.9-.79,4.45v.46c.03,1.55,.31,3.05,.79,4.45h0Z"/>
  <path class="cls-2" d="M14.97,29.31h.43c6.01-.1,11.12-4,13.06-9.39H1.91c1.93,5.4,7.05,9.29,13.06,9.39h0Z"/>
  <path class="cls-3" d="M3.26,7.77H14.76c.2,6.62,1.22,11.61-5.8,14.92C2.01,19.4,2.95,14.49,3.16,7.95c.03-.05,.08-.13,.1-.18h0Z"/>
  <path class="cls-2" d="M3.59,8.2H14.33c.18,6.24,1.3,10.51-5.37,14.05-6.67-3.54-5.55-7.81-5.37-14.05h0Z"/>
  <path class="cls-3" d="M8.1,8.74s.94,.31,1.73,0c0,0-.33,1.3-.25,2.11,0,0,.79,.08,2.19-.25,0,0-.33,.89,0,1.71,0,0-1.5-.31-2.19-.25v1.37s1.27,.1,2.77-.25c0,0-.33,.81,0,1.71,0,0-1.27-.33-2.77-.25v2.19h-1.2v-2.19s-1.45-.08-2.8,.25c0,0,.31-.76,0-1.71,0,0,1.35,.36,2.8,.25v-1.37s-.79-.03-2.21,.25c0,0,.33-.79,0-1.71,0,0,1.48,.31,2.21,.25,0,0,.05-.81-.28-2.11h0Z"/>
  <path class="cls-1" d="M6.26,17.37c.41,0,.76,.18,1.02,.46,.2-.74,.87-1.27,1.65-1.27s1.48,.53,1.68,1.27c.25-.28,.64-.46,1.02-.46,.79,0,1.4,.64,1.4,1.43v.13c-.84,1.2-2.11,2.29-4.07,3.33-1.99-1.07-3.26-2.16-4.1-3.39v-.08c0-.79,.61-1.43,1.4-1.43h0Z"/>
</svg>