<?xml version="1.0" encoding="UTF-8"?>
<svg id="Layer_1" data-name="Layer 1" xmlns="http://www.w3.org/2000/svg" viewBox="0 0 30 30">
  <defs>
    <style>
      .cls-1 {
        fill: #f5d61b;
      }

      .cls-1, .cls-2, .cls-3, .cls-4 {
        fill-rule: evenodd;
      }

      .cls-2 {
        fill: #fff;
      }

      .cls-3 {
        fill: #3c4e9d;
      }

      .cls-4 {
        fill: #3a6640;
      }
    </style>
  </defs>
  <path class="cls-1" d="M14.55,29.31h.43c7.59-.13,13.75-6.31,13.85-13.87v-.41c-.1-7.56-6.26-13.75-13.82-13.87h-.48C6.96,1.28,.8,7.44,.7,15v.46c.1,7.56,6.29,13.72,13.85,13.85h0Z"/>
  <path class="cls-3" d="M26.23,7.11L2.05,21.24c-.84-1.76-1.32-3.72-1.35-5.78v-.46C.8,7.44,6.96,1.28,14.52,1.15h.48c4.61,.08,8.71,2.42,11.23,5.96h0Z"/>
  <path class="cls-4" d="M3.3,23.35L27.48,9.2c.84,1.78,1.32,3.74,1.35,5.83v.41c-.1,7.56-6.26,13.75-13.85,13.87h-.43c-4.63-.08-8.73-2.42-11.25-5.96h0Z"/>
  <path class="cls-2" d="M11.19,4.79l.41-1.25,.41,1.25h1.32l-1.07,.79,.41,1.27-1.07-.79-1.09,.79,.43-1.27-1.09-.79h1.35Zm-7.2,1.43c.41-.51,.87-.97,1.35-1.43h1.25l-1.07,.79,.41,1.27-1.07-.79-1.09,.79,.23-.64Zm3.82,1.96l.41-1.27,.41,1.27h1.32l-1.07,.79,.41,1.27-1.07-.79-1.07,.79,.41-1.27-1.09-.79h1.35Zm-3.36,3.39l.41-1.27,.41,1.27h1.32l-1.07,.79,.41,1.27-1.07-.79-1.09,.79,.43-1.27-1.09-.79h1.35Zm6.72,0l.41-1.27,.41,1.27h1.35l-1.09,.79,.41,1.27-1.07-.79-1.07,.79,.41-1.27-1.07-.79h1.32Z"/>
</svg>