<?xml version="1.0" encoding="UTF-8"?>
<svg id="Layer_1" data-name="Layer 1" xmlns="http://www.w3.org/2000/svg" viewBox="0 0 30 30">
  <defs>
    <style>
      .cls-1 {
        fill: #d13234;
      }

      .cls-1, .cls-2, .cls-3, .cls-4, .cls-5, .cls-6 {
        fill-rule: evenodd;
      }

      .cls-2 {
        fill: #f1b80d;
      }

      .cls-3 {
        fill: #2d7c4f;
      }

      .cls-4 {
        fill: #fefefe;
      }

      .cls-5 {
        fill: #2e3289;
      }

      .cls-6 {
        fill: #242121;
      }
    </style>
  </defs>
  <path class="cls-3" d="M14.71,29.31h.46c7.56-.13,13.72-6.31,13.85-13.87v-.41c-.13-7.56-6.29-13.75-13.85-13.87h-.48C7.15,1.28,.99,7.44,.86,15v.46c.13,7.56,6.29,13.72,13.85,13.85h0Z"/>
  <path class="cls-2" d="M11.99,15.23L2.42,21.62c-.97-1.86-1.53-3.95-1.55-6.16v-.46c.03-2.21,.59-4.33,1.55-6.19l9.57,6.41Z"/>
  <path class="cls-6" d="M8.63,15.23L1.65,10.57c-.48,1.4-.76,2.88-.79,4.43v.46c.03,1.53,.31,3.03,.79,4.43l6.97-4.66Z"/>
  <path class="cls-4" d="M5.95,4.41l11.94,7.99h10.82C27.41,6.09,21.84,1.28,15.17,1.15h-.48c-3.31,.05-6.36,1.27-8.73,3.26h0Z"/>
  <path class="cls-4" d="M5.95,26.02l11.94-7.99h10.84c-1.3,6.34-6.9,11.17-13.57,11.28h-.46c-3.31-.05-6.36-1.27-8.76-3.28h0Z"/>
  <path class="cls-5" d="M18.48,19.91h9.72c-1.93,5.4-7.05,9.29-13.03,9.39h-.46c-2.6-.05-5.07-.81-7.15-2.11l10.92-7.28Z"/>
  <path class="cls-1" d="M18.48,10.52h9.72C26.27,5.15,21.18,1.25,15.17,1.15h-.48c-2.6,.05-5.04,.81-7.1,2.09l10.89,7.28Z"/>
</svg>