<?xml version="1.0" encoding="UTF-8"?>
<svg id="Layer_1" data-name="Layer 1" xmlns="http://www.w3.org/2000/svg" viewBox="0 0 30 30">
  <defs>
    <style>
      .cls-1 {
        fill: #fff;
      }

      .cls-1, .cls-2, .cls-3, .cls-4 {
        fill-rule: evenodd;
      }

      .cls-2 {
        fill: #293b78;
      }

      .cls-3 {
        fill: #bc283c;
      }

      .cls-4 {
        fill: #242121;
      }
    </style>
  </defs>
  <path class="cls-1" d="M14.68,29.31h.43c7.59-.13,13.75-6.31,13.85-13.87v-.41c-.1-7.56-6.26-13.75-13.82-13.87h-.48C7.09,1.28,.93,7.44,.83,15v.46c.1,7.56,6.26,13.72,13.85,13.85h0Z"/>
  <path class="cls-3" d="M14.9,9.63c3.08,0,5.57,2.49,5.57,5.6,0,1.07-.31,2.06-.81,2.9h0c.2-.38,.33-.84,.33-1.32,0-1.55-1.25-2.8-2.8-2.8-.56,0-1.09,.15-1.53,.46-.53,.36-.59,.61-.97,1.02-.51,.61-1.27,.99-2.11,.99-1.55,0-2.8-1.27-2.8-2.8,0-.64,.2-1.2,.53-1.68,1.02-1.43,2.67-2.37,4.58-2.37h0Z"/>
  <path class="cls-2" d="M14.88,20.83c-3.08,0-5.57-2.52-5.57-5.6,0-1.07,.31-2.06,.81-2.9v-.03c-.2,.41-.33,.87-.33,1.35,0,1.55,1.25,2.8,2.8,2.8,.56,0,1.09-.15,1.53-.46,.53-.36,.59-.61,.97-1.04,.51-.59,1.27-.97,2.11-.97,1.55,0,2.8,1.25,2.8,2.8,0,.61-.2,1.2-.53,1.65-1.02,1.45-2.7,2.39-4.58,2.39h0Z"/>
  <path class="cls-4" d="M7.55,6.96l.76,.51-3.08,4.66-.79-.51,3.11-4.66Zm1.15,.76l.79,.53-3.11,4.63-.76-.51,3.08-4.66Zm-2.32-1.55l.79,.53-3.11,4.66-.76-.53,3.08-4.66Z"/>
  <path class="cls-4" d="M4.44,18.84l.79-.51,1.4,2.11-.76,.53-1.43-2.14Zm1.68,2.52l.79-.51,1.4,2.11-.76,.53-1.43-2.14Zm-.51-3.28l.76-.53,3.11,4.66-.79,.51-3.08-4.63Zm-2.32,1.55l.76-.53,3.11,4.66-.79,.51-3.08-4.63Z"/>
  <path class="cls-4" d="M21.47,22.97l1.4-2.11,.79,.51-1.43,2.14-.76-.53Zm1.15,.79l1.43-2.14,.79,.51-1.43,2.14-.79-.51Zm-.64-4.07l1.43-2.14,.76,.53-1.43,2.11-.76-.51Zm2.57-1.35l.79,.51-1.43,2.14-.76-.53,1.4-2.11Zm-.25,2.9l1.43-2.14,.76,.53-1.43,2.11-.76-.51Zm-4,.97l1.43-2.14,.76,.53-1.43,2.11-.76-.51Z"/>
  <path class="cls-4" d="M21.98,10.77l.76-.53,1.43,2.14-.76,.51-1.43-2.11Zm-.51-3.31l.76-.51,3.11,4.66-.79,.51-3.08-4.66Zm1.15-.76l.79-.53,1.43,2.14-.79,.51s-1.43-2.14-1.43-2.11h0Zm1.68,2.52l.76-.53,1.43,2.14-.76,.53-1.43-2.14Zm-4-.97l.76-.53,1.43,2.14-.76,.53-1.43-2.14Z"/>
</svg>