<?xml version="1.0" encoding="UTF-8"?>
<svg id="Layer_1" data-name="Layer 1" xmlns="http://www.w3.org/2000/svg" viewBox="0 0 30 30">
  <defs>
    <style>
      .cls-1 {
        fill: #2b783c;
      }

      .cls-1, .cls-2, .cls-3, .cls-4 {
        fill-rule: evenodd;
      }

      .cls-2 {
        fill: #c6263d;
      }

      .cls-3 {
        fill: #fefefe;
      }

      .cls-4 {
        fill: #242121;
      }
    </style>
  </defs>
  <path class="cls-2" d="M1.68,10.71H28.2C26.32,5.41,21.33,1.54,15.45,1.34h-1.04C8.55,1.54,3.56,5.41,1.68,10.71h0Z"/>
  <path class="cls-3" d="M1.68,20.08H28.2c.51-1.4,.79-2.9,.81-4.48v-.41c-.03-1.58-.31-3.08-.81-4.48H1.68c-.51,1.4-.79,2.9-.81,4.45v.46c.03,1.55,.31,3.05,.81,4.45h0Z"/>
  <path class="cls-4" d="M14.43,29.44h1.02c5.88-.2,10.87-4.07,12.75-9.37H1.68c1.88,5.29,6.87,9.16,12.75,9.37h0Z"/>
  <path class="cls-1" d="M14.74,15.39L3.61,7.04C1.93,9.33,.91,12.13,.86,15.16v.46c.05,3.03,1.07,5.83,2.77,8.12L14.74,15.39Z"/>
</svg>