<?xml version="1.0" encoding="UTF-8"?>
<svg id="Layer_1" data-name="Layer 1" xmlns="http://www.w3.org/2000/svg" viewBox="0 0 30 30">
  <defs>
    <style>
      .cls-1 {
        fill: #2b783c;
      }

      .cls-1, .cls-2, .cls-3, .cls-4 {
        fill-rule: evenodd;
      }

      .cls-2 {
        fill: #c6263d;
      }

      .cls-3 {
        fill: #fefefe;
      }

      .cls-4 {
        fill: #f6d40d;
      }
    </style>
  </defs>
  <path class="cls-1" d="M3.46,6.84H25.94c-2.55-3.36-6.54-5.57-11.02-5.63h-.46c-4.48,.05-8.48,2.27-11,5.63h0Z"/>
  <path class="cls-1" d="M14.46,29.34h.46c4.48-.08,8.48-2.27,11.02-5.63H3.46c2.52,3.36,6.52,5.55,11,5.63h0Z"/>
  <path class="cls-3" d="M1.81,9.64H27.59c-.46-.99-1.02-1.93-1.65-2.8H3.46c-.66,.87-1.22,1.81-1.65,2.8h0Z"/>
  <path class="cls-3" d="M3.46,23.72H25.94c.64-.87,1.2-1.81,1.65-2.83H1.81c.43,1.02,.99,1.96,1.65,2.83h0Z"/>
  <path class="cls-2" d="M1.81,20.89H27.59c.71-1.65,1.15-3.49,1.17-5.4v-.43c-.03-1.93-.46-3.74-1.17-5.42H1.81c-.74,1.68-1.15,3.51-1.2,5.42v.41c.03,1.93,.46,3.77,1.2,5.42h0Z"/>
  <polygon class="cls-4" points="14.69 10.05 15.98 14.04 20.18 14.04 16.8 16.51 18.07 20.51 14.69 18.04 11.28 20.51 12.57 16.51 9.19 14.04 13.39 14.04 14.69 10.05"/>
</svg>