<?xml version="1.0" encoding="UTF-8"?>
<svg id="Layer_1" data-name="Layer 1" xmlns="http://www.w3.org/2000/svg" viewBox="0 0 30 30">
  <defs>
    <style>
      .cls-1 {
        fill: #379d5d;
      }

      .cls-1, .cls-2, .cls-3, .cls-4 {
        fill-rule: evenodd;
      }

      .cls-2 {
        fill: #c12837;
      }

      .cls-3 {
        fill: #fefefe;
      }

      .cls-4 {
        fill: #242121;
      }
    </style>
  </defs>
  <path class="cls-2" d="M1.33,10.58H27.88C25.94,5.21,20.83,1.29,14.82,1.21h-.43c-6.01,.08-11.12,4-13.06,9.37h0Z"/>
  <path class="cls-3" d="M1.36,19.97H27.88c.48-1.43,.76-2.93,.79-4.51v-.41c-.03-1.55-.31-3.05-.79-4.48H1.33c-.48,1.4-.76,2.9-.79,4.48v.43c.03,1.58,.31,3.08,.81,4.48h0Z"/>
  <path class="cls-4" d="M14.39,29.34h.43c6.01-.1,11.12-4,13.06-9.37H1.36c1.91,5.37,7.03,9.27,13.03,9.37h0Z"/>
  <path class="cls-1" d="M20.47,12.52l.69,2.11h2.19l-1.78,1.3,.69,2.11-1.78-1.3-1.81,1.3,.69-2.11-1.78-1.3h2.21l.69-2.11Zm-11.71,0l.66,2.11h2.21l-1.78,1.3,.69,2.11-1.78-1.3-1.81,1.3,.69-2.11-1.78-1.3h2.21l.69-2.11Z"/>
</svg>