<?xml version="1.0" encoding="UTF-8"?>
<svg id="Layer_1" data-name="Layer 1" xmlns="http://www.w3.org/2000/svg" viewBox="0 0 30 30">
  <defs>
    <style>
      .cls-1 {
        fill: #d0262f;
      }

      .cls-1, .cls-2, .cls-3 {
        fill-rule: evenodd;
      }

      .cls-2 {
        fill: #fefefe;
      }

      .cls-3 {
        fill: #2d3477;
      }
    </style>
  </defs>
  <path class="cls-1" d="M4.51,5.9H25.44c-2.52-2.83-6.19-4.63-10.23-4.68h-.46c-4.05,.05-7.71,1.86-10.23,4.68h0Z"/>
  <path class="cls-2" d="M4.51,24.66H25.44c1.22-1.35,2.19-2.95,2.8-4.68H1.71c.61,1.73,1.58,3.33,2.8,4.68h0Z"/>
  <path class="cls-2" d="M1.71,10.58H28.24c-.61-1.73-1.58-3.33-2.8-4.68H4.51c-1.22,1.35-2.19,2.95-2.8,4.68h0Z"/>
  <path class="cls-1" d="M14.74,29.34h.46c4.05-.05,7.71-1.86,10.23-4.68H4.51c2.52,2.83,6.19,4.63,10.23,4.68h0Z"/>
  <path class="cls-3" d="M1.71,19.97H28.24c.51-1.43,.79-2.93,.81-4.51v-.41c-.03-1.55-.31-3.08-.81-4.48H1.71c-.51,1.4-.79,2.9-.81,4.48v.43c.03,1.55,.31,3.05,.81,4.48h0Z"/>
</svg>