<?xml version="1.0" encoding="UTF-8"?>
<svg id="Layer_1" data-name="Layer 1" xmlns="http://www.w3.org/2000/svg" viewBox="0 0 30 30">
  <defs>
    <style>
      .cls-1 {
        fill: #c12837;
      }

      .cls-1, .cls-2, .cls-3 {
        fill-rule: evenodd;
      }

      .cls-2 {
        fill: #fefefe;
      }

      .cls-3 {
        fill: #242121;
      }
    </style>
  </defs>
  <path class="cls-1" d="M14.68,29.4h.43c7.59-.13,13.75-6.29,13.85-13.85v-.46c-.1-7.56-6.26-13.72-13.82-13.85h-.48C7.09,1.38,.93,7.56,.83,15.12v.41c.1,7.56,6.29,13.75,13.85,13.87h0Z"/>
  <path class="cls-2" d="M7.83,3.16L28.09,20.24c-1.15,3.05-3.33,5.6-6.13,7.23L1.72,10.41c1.15-3.05,3.33-5.63,6.11-7.25h0Z"/>
  <path class="cls-3" d="M2.39,8.91L23.33,26.55c1.71-1.27,3.11-2.9,4.07-4.79L6.46,4.07c-1.71,1.27-3.11,2.93-4.07,4.84h0Z"/>
</svg>