<?xml version="1.0" encoding="UTF-8"?>
<svg id="Layer_1" data-name="Layer 1" xmlns="http://www.w3.org/2000/svg" viewBox="0 0 30 30">
  <defs>
    <style>
      .cls-1 {
        fill: #d5262d;
      }

      .cls-1, .cls-2 {
        fill-rule: evenodd;
      }

      .cls-2 {
        fill: #fefefe;
      }
    </style>
  </defs>
  <path class="cls-1" d="M14.46,29.4h.46c7.56-.13,13.72-6.29,13.85-13.85v-.46c-.13-7.56-6.29-13.72-13.85-13.85h-.46C6.9,1.38,.74,7.54,.61,15.12v.41c.13,7.56,6.29,13.75,13.85,13.87h0Z"/>
  <path class="cls-2" d="M14.69,22.35c3.87,0,7.03-3.16,7.03-7.03s-3.16-7.05-7.03-7.05-7,3.18-7,7.05,3.13,7.03,7,7.03h0Z"/>
  <path class="cls-1" d="M14.69,10.06c1.78,0,3.33,.87,4.28,2.21-.74-.71-1.76-1.17-2.88-1.17-2.32,0-4.2,1.88-4.2,4.23s1.88,4.2,4.2,4.2c1.12,0,2.14-.46,2.88-1.17-.94,1.35-2.49,2.21-4.28,2.21-2.9,0-5.24-2.34-5.24-5.24s2.34-5.27,5.24-5.27h0Z"/>
  <polygon class="cls-1" points="15.12 12.3 16.47 14.18 18.66 13.47 17.31 15.33 18.66 17.18 16.47 16.47 15.12 18.33 15.12 16.04 12.96 15.33 15.12 14.61 15.12 12.3"/>
</svg>