<?xml version="1.0" encoding="UTF-8"?>
<svg id="Layer_1" data-name="Layer 1" xmlns="http://www.w3.org/2000/svg" viewBox="0 0 30 30">
  <defs>
    <style>
      .cls-1 {
        fill: #c2283a;
      }

      .cls-1, .cls-2, .cls-3 {
        fill-rule: evenodd;
      }

      .cls-2 {
        fill: #fefefe;
      }

      .cls-3 {
        fill: #2d3477;
      }
    </style>
  </defs>
  <path class="cls-3" d="M14.97,29.4h.43c7.59-.13,13.75-6.31,13.85-13.87v-.41c-.1-7.56-6.26-13.75-13.82-13.87h-.48C7.38,1.38,1.22,7.54,1.12,15.1v.46c.1,7.56,6.29,13.72,13.85,13.85h0Z"/>
  <path class="cls-2" d="M4.23,6.52l7.43,4.2V1.71c1.07-.28,2.16-.43,3.28-.46h.48c1.27,.03,2.49,.23,3.67,.56V10.72l7.18-4.05c.99,1.3,1.78,2.75,2.29,4.33l-.74,.43h.89c.33,1.17,.53,2.42,.53,3.69v.41c-.03,1.48-.28,2.9-.71,4.25h-.71l.59,.33c-.56,1.55-1.4,2.98-2.44,4.23l-6.87-3.84v8.35c-1.17,.33-2.42,.53-3.69,.56h-.43c-1.15-.03-2.24-.18-3.31-.46v-8.45l-7.13,4.02c-1.04-1.25-1.91-2.67-2.49-4.2l.92-.53H1.83c-.43-1.35-.69-2.75-.71-4.23v-.46c.03-1.27,.2-2.49,.53-3.67h1.3l-1.09-.64c.53-1.55,1.35-3,2.37-4.28h0Z"/>
  <path class="cls-1" d="M25.91,19.78l2.14,1.2c-.2,.51-.46,.99-.74,1.45l-4.73-2.65h3.33ZM15.43,1.25c.74,.03,1.48,.08,2.19,.2V13.11h11.45c.13,.66,.18,1.32,.18,2.01v.41c0,.89-.1,1.76-.28,2.6h-11.35v11.05c-.71,.13-1.45,.2-2.21,.23h-.43c-.61-.03-1.22-.08-1.81-.15v-11.12H1.4c-.18-.84-.28-1.71-.28-2.57v-.46c0-.69,.08-1.35,.18-1.99H13.16V1.4c.59-.1,1.17-.13,1.78-.15h.48Zm11.48,6.31c.31,.46,.59,.92,.81,1.4l-4.38,2.47h-3.33l6.9-3.87ZM4.02,23.85c-.33-.43-.64-.89-.92-1.35l4.84-2.72h3.33l-7.25,4.07Zm-1.73-14.15c.23-.51,.48-.99,.74-1.45l5.68,3.18h-3.33l-3.08-1.73Z"/>
</svg>