<?xml version="1.0" encoding="UTF-8"?>
<svg id="Layer_1" data-name="Layer 1" xmlns="http://www.w3.org/2000/svg" viewBox="0 0 30 30">
  <defs>
    <style>
      .cls-1 {
        fill: #c12837;
      }

      .cls-1, .cls-2, .cls-3, .cls-4 {
        fill-rule: evenodd;
      }

      .cls-2 {
        fill: #48b040;
      }

      .cls-3 {
        fill: #fefefe;
      }

      .cls-4 {
        fill: #4497b4;
      }
    </style>
  </defs>
  <path class="cls-4" d="M1.84,10.26H28.08C26.07,5.07,21.06,1.35,15.2,1.25h-.48c-5.83,.1-10.84,3.82-12.88,9.01h0Z"/>
  <path class="cls-3" d="M1.64,19.81H28.31c.46-1.35,.71-2.77,.74-4.28v-.41c-.03-1.5-.28-2.95-.74-4.3H1.64c-.46,1.35-.71,2.77-.74,4.28v.46c.03,1.48,.28,2.93,.74,4.25h0Z"/>
  <path class="cls-2" d="M14.74,29.4h.46c5.85-.1,10.87-3.82,12.91-9.01H1.84c2.04,5.19,7.05,8.91,12.91,9.01h0Z"/>
  <path class="cls-1" d="M1.64,10.82H28.31c-.08-.2-.15-.38-.23-.56H1.84c-.05,.18-.13,.36-.2,.56h0Z"/>
  <path class="cls-1" d="M1.84,20.39H28.11c.05-.2,.13-.38,.2-.59H1.64c.08,.2,.15,.38,.2,.59h0Z"/>
  <path class="cls-3" d="M13.09,5.63l.13-.38,.13,.38h.41l-.33,.25,.13,.38-.33-.23-.36,.23,.15-.38-.36-.25h.43Zm-2.29,0l.13-.38,.13,.38h.41l-.33,.25,.13,.38-.33-.23-.33,.23,.13-.38-.33-.25h.41Zm2.29,2.29l.13-.38,.13,.38h.41l-.33,.25,.13,.41-.33-.25-.36,.25,.15-.41-.36-.25h.43Zm-4.61,0l.13-.38,.13,.38h.43l-.36,.25,.15,.41-.36-.25-.33,.25,.13-.41-.33-.25h.41ZM17.67,3.34l.13-.41,.13,.41h.43l-.36,.25,.13,.38-.33-.23-.33,.23,.13-.38-.33-.25h.41Zm0,2.29l.13-.38,.13,.38h.43l-.36,.25,.13,.38-.33-.23-.33,.23,.13-.38-.33-.25h.41Zm0,2.29l.13-.38,.13,.38h.43l-.36,.25,.13,.41-.33-.25-.33,.25,.13-.41-.33-.25h.41Zm-2.29-4.58l.13-.41,.13,.41h.41l-.33,.25,.13,.38-.33-.23-.33,.23,.13-.38-.33-.25h.41Zm0,2.29l.13-.38,.13,.38h.41l-.33,.25,.13,.38-.33-.23-.33,.23,.13-.38-.33-.25h.41Zm0,2.29l.13-.38,.13,.38h.41l-.33,.25,.13,.41-.33-.25-.33,.25,.13-.41-.33-.25h.41Zm-4.61,0l.15-.38,.1,.38h.43l-.33,.25,.13,.41-.33-.25-.36,.25,.13-.41-.33-.25h.41Zm2.32-4.58l.13-.41,.13,.41h.41l-.33,.25,.13,.38-.33-.23-.36,.23,.15-.38-.36-.25h.43Z"/>
  <path class="cls-3" d="M7.57,3.39h0Zm-2.7,2.16v.2c0,1.32,1.07,2.39,2.37,2.39,.13,0,.23,0,.33-.03-.46,.31-1.02,.51-1.6,.51-1.07,0-1.99-.59-2.47-1.43,.41-.59,.87-1.15,1.37-1.65h0Z"/>
</svg>