<?xml version="1.0" encoding="UTF-8"?>
<svg id="Layer_1" data-name="Layer 1" xmlns="http://www.w3.org/2000/svg" viewBox="0 0 30 30">
  <defs>
    <style>
      .cls-1 {
        fill: #c6263d;
      }

      .cls-1, .cls-2, .cls-3, .cls-4 {
        fill-rule: evenodd;
      }

      .cls-2 {
        fill: #f5d517;
      }

      .cls-3 {
        fill: #339544;
      }

      .cls-4 {
        fill: #242121;
      }
    </style>
  </defs>
  <path class="cls-4" d="M14.55,29.4h.43c7.59-.13,13.75-6.31,13.85-13.87v-.41c-.1-7.56-6.26-13.75-13.82-13.87h-.48C6.96,1.38,.8,7.54,.7,15.1v.46c.1,7.56,6.29,13.72,13.85,13.85h0Z"/>
  <path class="cls-1" d="M19.66,12.81L4.98,5.22C7.47,2.83,10.83,1.33,14.52,1.25h.48c6.77,.13,12.42,5.09,13.59,11.56h-8.93Z"/>
  <path class="cls-3" d="M19.66,17.85h8.93c-1.17,6.47-6.82,11.43-13.62,11.56h-.43c-3.72-.08-7.08-1.58-9.57-3.97l14.69-7.59Z"/>
  <path class="cls-2" d="M17.45,15.33L2.89,22.83c.25,.43,.56,.84,.87,1.22l15.48-7.99h9.6v-1.48h-9.6L3.75,6.57c-.31,.41-.61,.81-.87,1.22l14.56,7.53Z"/>
  <path class="cls-2" d="M5.15,18.02v1.6s2.55,.05,3.72-2.49c0,0,1.15-2.32-.36-4.58-1.09-1.45-3.16-1.99-4.86-1.04-.69,.41-1.81,1.3-1.73,3.08,0,0,0,.28,.1,.71,.23,.92,.69,1.58,1.73,1.99,.81,.31,1.68,.41,2.57-.13,.74-.48,1.15-1.27,.99-2.19,0,0-.08,1.48-1.71,1.83,0,0-1.32,.31-2.27-.87,0,0-1.07-1.3,.28-2.9,0,0,1.27-1.53,3.16-.23,0,0,1.76,1.2,.81,3.41,0,0-.64,1.76-2.44,1.81h0Z"/>
  <path class="cls-2" d="M6.4,15.55c-.05,0-.2-.05-.33-.1,0,0-.2-.08-.2-.18,0,0,.03-.05,.23,.05,0,0,.13,.05,.2,.1,0-.03-.03-.05-.05-.1-.05,0-.2-.08-.36-.15,0,0-.18-.1-.13-.15,0,0,.05-.05,.25,.08l.08,.05c-.03-.05-.05-.08-.08-.1-.05-.03-.23-.08-.38-.18,0,0-.15-.08-.13-.15,0,0,.03-.03,.23,.08l.15,.08c-.05-.05-.08-.1-.13-.15-.08,0-.2-.03-.38-.13,0,0-.15-.08-.13-.1,0,0,.03-.05,.2,0l.13,.03-.03-.03s-.05-.05-.08-.08c-.08,0-.23-.03-.38-.08,0,0-.18-.05-.15-.13,0,0,.03-.05,.25,.03l.1,.03s-.05-.08-.1-.1c-.08,0-.23,0-.33-.03,0,0-.2-.05-.2-.13,0,0,.03-.08,.25-.03l.1,.03s-.05-.05-.1-.08c-.03,0-.15,0-.31-.03,0,0-.18-.03-.15-.1,0,0,.03-.03,.2,0l.15,.03s-.08-.05-.1-.05c-.05,0-.2,0-.31-.03,0,0-.18-.03-.18-.1,0,0,.03-.05,.23,0l.15,.03c-.05-.03-.08-.05-.1-.08-.05,0-.23,0-.41-.05,0,0-.2-.05-.18-.1,0,0,.03-.08,.25,0,0,0,.08,.03,.18,.08,0-.03-.03-.03-.05-.03l-.03-.03s-.15-.08-.23-.15c0,0-.1-.1-.03-.15,0,0,.05-.05,.15,.13,0,0,.05,.05,.08,.1,.05,.03,.08,.05,.1,.08l-.05-.08s-.13-.15-.08-.18c0,0,.08-.03,.2,.15,0,0,.03,.05,.1,.2,.03,0,.03,.03,.05,.03l-.03-.08s-.15-.2-.08-.23c0,0,.08-.03,.2,.25,0,0,.03,.08,.05,.15,.03,.03,.05,.03,.08,.05-.03-.05-.05-.1-.08-.15,0,0-.05-.13,0-.15,0,0,.1-.03,.18,.2,0,0,.03,.08,.05,.23,.03,0,.05,.03,.08,.05-.03-.05-.05-.15-.08-.25,0,0-.05-.13,.05-.1,0,0,.1,.03,.15,.33l.03,.15s.05,.03,.08,.05l-.03-.08s-.1-.23,0-.23c0,0,.13,0,.15,.28v.15c.05,.03,.08,.05,.1,.08l-.03-.08s-.05-.28,.03-.25c0,0,.1,.03,.13,.33v.15l.08,.08v-.08s-.08-.31,.03-.28c0,0,.1,0,.1,.33v.18s.05,.05,.08,.08c0-.08-.03-.18-.03-.25,0,0-.03-.15,.05-.13,0,0,.13,0,.13,.33v.23s.05,.05,.08,.1v-.13s-.08-.33,.05-.31c0,0,.1,.03,.08,.36l-.03,.2s.05,.08,.08,.1c0-.08-.03-.23,0-.33,0,0,0-.18,.08-.13,0,0,.1,.05,.05,.36,0,0,0,.1-.03,.25,0,.03,.03,.05,.05,.08v-.13s-.05-.41,.08-.33c0,0,.15,.08,.1,.36,0,0-.05,.15-.08,.25,.05,.08,.1,.18,.18,.28l-.13,.08c-.03-.08-.08-.15-.1-.23l-.18-.05s-.36-.1-.36-.2c0,0,0-.1,.28,.03l.18,.1q-.03-.05-.05-.1h0Z"/>
  <path class="cls-2" d="M4.26,15.55c.05,0,.2-.05,.36-.1,0,0,.18-.08,.18-.18,0,0-.03-.05-.23,.05,0,0-.1,.05-.2,.1,.03-.03,.03-.05,.05-.1,.08,0,.23-.08,.36-.15,0,0,.18-.1,.13-.15,0,0-.05-.05-.25,.08l-.08,.05c.03-.05,.05-.08,.08-.1,.08-.03,.23-.08,.38-.18,0,0,.15-.08,.13-.15,0,0,0-.03-.23,.08l-.15,.08c.05-.05,.08-.1,.13-.15,.08,0,.23-.03,.38-.13,0,0,.15-.08,.13-.1,0,0-.03-.05-.2,0l-.13,.03,.03-.03s.05-.05,.08-.08c.08,0,.23-.03,.38-.08,0,0,.18-.05,.15-.13,0,0-.03-.05-.25,.03l-.1,.03s.08-.08,.1-.1c.08,0,.23,0,.33-.03,0,0,.2-.05,.2-.13,0,0-.03-.08-.25-.03l-.1,.03s.05-.05,.1-.08c.03,0,.15,0,.31-.03,0,0,.18-.03,.15-.1,0,0,0-.03-.2,0l-.15,.03c.05-.03,.08-.05,.1-.05,.05,0,.2,0,.31-.03,0,0,.18-.03,.18-.1,0,0-.03-.05-.23,0l-.15,.03c.05-.03,.08-.05,.1-.08,.08,0,.23,0,.41-.05,0,0,.23-.05,.2-.1,0,0-.05-.08-.28,0,0,0-.08,.03-.18,.08t.05-.03l.03-.03s.15-.08,.23-.15c0,0,.1-.1,.05-.15,0,0-.05-.05-.18,.13,0,0-.05,.05-.08,.1-.03,.03-.08,.05-.1,.08l.05-.08s.13-.15,.08-.18c0,0-.08-.03-.18,.15,0,0-.05,.05-.13,.2-.03,0-.05,.03-.05,.03l.03-.08s.15-.2,.1-.23c0,0-.13-.03-.2,.25,0,0-.05,.08-.08,.15-.03,.03-.05,.03-.08,.05,.03-.05,.05-.1,.08-.15,0,0,.05-.13,0-.15,0,0-.1-.03-.15,.2,0,0-.05,.08-.05,.23-.05,0-.08,.03-.1,.05,.03-.05,.05-.15,.08-.25,0,0,.05-.13-.05-.1,0,0-.1,.03-.15,.33v.15s-.08,.03-.1,.05l.03-.08s.1-.23,.03-.23c0,0-.15,0-.18,.28v.15s-.05,.05-.1,.08l.03-.08s.05-.28-.03-.25c0,0-.1,.03-.13,.33v.15l-.08,.08,.03-.08s.05-.31-.05-.28c0,0-.1,0-.1,.33v.18s-.05,.05-.08,.08c0-.08,.03-.18,.03-.25,0,0,.03-.15-.05-.13,0,0-.13,0-.13,.33v.23s-.05,.05-.08,.1l.03-.13s.05-.33-.05-.31c0,0-.1,.03-.1,.36l.03,.2s-.05,.08-.08,.1c.03-.08,.03-.23,.03-.33,0,0-.03-.18-.1-.13,0,0-.08,.05-.05,.36,0,0,0,.1,.03,.25-.03,.03-.03,.05-.05,.08v-.13s.03-.41-.08-.33c0,0-.15,.08-.08,.36,0,0,0,.15,.05,.25-.05,.08-.1,.18-.15,.28l.1,.08c.03-.08,.08-.15,.1-.23l.18-.05s.36-.1,.36-.2c0,0,0-.1-.25,.03l-.2,.1c.03-.05,.05-.05,.05-.1h0Z"/>
</svg>