<?xml version="1.0" encoding="UTF-8"?>
<svg id="Layer_1" data-name="Layer 1" xmlns="http://www.w3.org/2000/svg" viewBox="0 0 30 30">
  <defs>
    <style>
      .cls-1 {
        fill: #2f327f;
      }

      .cls-1, .cls-2, .cls-3, .cls-4 {
        fill-rule: evenodd;
      }

      .cls-2 {
        fill: #c12837;
      }

      .cls-3 {
        fill: #4a7d3b;
      }

      .cls-4 {
        fill: #fefefe;
      }
    </style>
  </defs>
  <path class="cls-2" d="M1.49,10.58H28.01C26.1,5.21,20.99,1.32,15.01,1.21h-.48c-5.98,.1-11.1,4-13.03,9.37h0Z"/>
  <path class="cls-4" d="M1.03,12.13H28.47c-.1-.51-.25-1.04-.46-1.55H1.49c-.18,.51-.33,1.04-.46,1.55h0Z"/>
  <path class="cls-1" d="M1.03,18.4H28.47c.23-.94,.36-1.91,.36-2.93v-.41c0-.99-.13-1.96-.36-2.93H1.03c-.2,.94-.33,1.93-.33,2.93v.43c0,.99,.13,1.96,.33,2.9h0Z"/>
  <path class="cls-4" d="M1.49,19.97H28.01c.2-.51,.36-1.04,.46-1.58H1.03c.13,.53,.28,1.07,.46,1.58h0Z"/>
  <path class="cls-3" d="M14.55,29.34h.43c6.01-.1,11.12-4,13.03-9.37H1.49c1.93,5.37,7.05,9.27,13.06,9.37h0Z"/>
</svg>