<?xml version="1.0" encoding="UTF-8"?>
<svg id="Layer_1" data-name="Layer 1" xmlns="http://www.w3.org/2000/svg" viewBox="0 0 30 30">
  <defs>
    <style>
      .cls-1 {
        fill: #f5d71c;
      }

      .cls-1, .cls-2, .cls-3, .cls-4 {
        fill-rule: evenodd;
      }

      .cls-2 {
        fill: #c12837;
      }

      .cls-3 {
        fill: #293a8a;
      }

      .cls-4 {
        fill: #fefefe;
      }
    </style>
  </defs>
  <path class="cls-3" d="M14.65,29.22h.48c7.56-.13,13.72-6.29,13.82-13.85v-.43c-.1-7.56-6.26-13.72-13.85-13.85h-.43C7.12,1.22,.93,7.38,.83,14.96v.41c.1,7.56,6.26,13.72,13.82,13.85h0Z"/>
  <path class="cls-2" d="M1.65,19.85H28.17c.25-.76,.46-1.55,.61-2.34H1.04c.13,.79,.33,1.58,.61,2.34h0Z"/>
  <path class="cls-4" d="M2.72,22.19H27.08c.43-.74,.79-1.53,1.09-2.34H1.65c.28,.81,.64,1.6,1.07,2.34h0Z"/>
  <path class="cls-4" d="M1.04,17.51H28.78c.1-.69,.18-1.4,.18-2.14v-.2H.83v.2c0,.71,.08,1.43,.2,2.14h0Z"/>
  <path class="cls-1" d="M13.2,12.54l.33-.97,.31,.97h1.02l-.81,.61,.31,.97-.81-.61-.84,.61,.31-.97-.81-.61h1.02ZM4.98,25.12c-.1-.1-.2-.2-.31-.31l.08-.28-.81-.61h1.02l.31-.97,.33,.97h1.02l-.81,.61,.31,.97-.84-.61-.28,.23Zm-2.57-3.51c-.08-.15-.15-.31-.23-.48l.03-.1-.13-.1c-.08-.18-.15-.33-.23-.51h.56l.31-.97,.33,.97h1.02l-.84,.61,.33,.97-.84-.61-.31,.23Zm3.18-9.06l-.33-.97-.31,.97h-1.02l.81,.61-.31,.97,.81-.61,.84,.61-.31-.97,.81-.61h-1.02Zm10.18,3.51l.31-.97,.31,.97h1.02l-.81,.61,.31,.97-.81-.61-.84,.61,.33-.97-.84-.61h1.04Zm-12.73,0l-.33-.97-.31,.97H1.39l.81,.61-.31,.97,.81-.61,.84,.61-.33-.97,.84-.61h-1.02Zm12.73,4.35l.31-.97,.31,.97h1.02l-.81,.61,.31,.97-.81-.61-.84,.61,.33-.97-.84-.61h1.04Zm-2.57,3.51l.33-.97,.31,.97h1.02l-.81,.61,.31,.97-.81-.61-.84,.61,.31-.97-.81-.61h1.02Zm-4.12,1.35l.31-.97,.33,.97h1.02l-.81,.61,.31,.97-.84-.61-.81,.61,.33-.97-.84-.61h1.02Zm0-14.08l.31-.97,.33,.97h1.02l-.81,.61,.31,.97-.84-.61-.81,.61,.33-.97-.84-.61h1.02Z"/>
</svg>