<?xml version="1.0" encoding="UTF-8"?>
<svg id="Layer_1" data-name="Layer 1" xmlns="http://www.w3.org/2000/svg" viewBox="0 0 30 30">
  <defs>
    <style>
      .cls-1 {
        fill: #c12837;
      }

      .cls-1, .cls-2 {
        fill-rule: evenodd;
      }

      .cls-2 {
        fill: #242121;
      }
    </style>
  </defs>
  <path class="cls-1" d="M15.56,.99h-.46C7.54,1.12,1.38,7.28,1.25,14.84v.43c.13,7.59,6.29,13.75,13.85,13.85h.46c7.56-.1,13.72-6.29,13.85-13.85v-.41c-.13-7.59-6.29-13.75-13.85-13.87h0Z"/>
  <path class="cls-2" d="M17.72,7.2s.05,.05,.33,.03c0,0,.25,0,.25-.13,0,0,0-.13-.13-.15,0,0-.2-.08-.23-.03,0,0-.03,.03,0,.1,0,0,0,.08-.05,.08,0,0-.03,.03-.1-.03,0,0-.1-.08-.1-.03,0,0-.03,.03,.03,.15h0Zm-4.81,0s-.05,.05-.31,.03c0,0-.25,0-.25-.13,0,0-.03-.13,.13-.15,0,0,.2-.08,.23-.03,0,0,.03,.03,0,.1,0,0-.03,.08,.05,.08,0,0,0,.03,.1-.03,0,0,.1-.08,.1-.03,0,0,0,.03-.05,.15h0Zm4.68,11.71c-.08,0-.1,0-.15-.13-.05-.13-.1-.23-.1-.23-.25-.59-.61-1.12-.61-1.12-.38-.69-.61-.64-.61-.64-.31,0-.2,.64-.2,.64,.23,1.25,.84,1.76,.84,1.76,.38,.43,1.15,.53,1.15,.53,.25,.05,.2,.15,.2,.15-.1,.25-.38,.33-.38,.33-.51,.13-.89-.18-.89-.18-.18-.15-.25-.08-.25-.08-.08,.1,.05,.36,.05,.36,.15,.28,.59,.31,.59,.31,.38,.03,.53,.13,.53,.13,.2,.13,.05,.31,.05,.31-.41,.43-.94,.13-.94,.13-.25-.13-.64-.51-.64-.51-.1-.08-.1,.13-.1,.13-.05,.71,.59,.89,.59,.89,.25,.03,.41,.13,.41,.13,.2,.13,.03,.25,.03,.25-.28,.28-.71,.15-.71,.15-.25-.05-.69-.56-.69-.56-.03-.13-.08-.1-.08-.1-.2,.2,.25,.79,.25,.79,.15,.18,.05,.46,.05,.46-.23,.61-.64,.92-.64,.92h0s-.43-.31-.64-.92c0,0-.1-.28,.05-.46,0,0,.43-.59,.25-.79,0,0-.05-.03-.1,.1,0,0-.41,.51-.69,.56,0,0-.41,.13-.71-.15,0,0-.15-.13,.05-.25,0,0,.13-.1,.38-.13,0,0,.66-.18,.61-.89,0,0,0-.2-.1-.13,0,0-.41,.38-.64,.51,0,0-.56,.31-.94-.13,0,0-.15-.18,.05-.31,0,0,.15-.1,.53-.13,0,0,.43-.03,.59-.31,0,0,.13-.25,.03-.36,0,0-.05-.08-.23,.08,0,0-.38,.31-.89,.18,0,0-.28-.08-.38-.33,0,0-.05-.1,.18-.15,0,0,.79-.1,1.17-.53,0,0,.59-.51,.81-1.76,0,0,.1-.64-.18-.64,0,0-.23-.05-.61,.64,0,0-.36,.53-.64,1.12,0,0-.03,.1-.08,.23-.05,.13-.08,.13-.18,.13-.48-.1-.74-.38-.74-.38,0,0-.71,.28-.97,.36-.23,.1-.43,.2-.51,.2s-.08,.03-.08,.03c.03,.08,.33,.2,.33,.2,.15,.08,.23,.03,.23,.03,.1-.05,.2-.03,.2-.03,.2,.08,.46,.36,.46,.36,.13,.2,.05,.48,.05,.48-.08-.08-.13-.15-.13-.15-.03-.05-.08-.08-.08-.08-.1-.1-.25-.05-.25-.05-.31,.1-.43-.13-.43-.13-.03-.08-.13-.15-.13-.15-.1-.05-.28-.13-.28-.13-.36-.18-.46-.18-.46-.18-.15,0-.64,.33-.64,.33-.2,.13-.25,.23-.25,.23-.05,.1-.08,.18-.08,.18-.15,.18-.43,.18-.43,.18-.15,0-.2,.1-.2,.1-.1,.1-.18,.36-.18,.36-.15-.31-.1-.46-.1-.46,.05-.15,.08-.28,.08-.28,.03-.41,.51-.38,.51-.38,.2,.03,.36-.05,.36-.05l.36-.2c.15-.08,.13-.08,.13-.08-.15-.03-.87,0-.87,0-.25,0-.36,.05-.36,.05-.15,.05-.31,.03-.31,.03-.15,.03-.33-.15-.33-.15-.05-.08-.25-.03-.25-.03-.13,.03-.33,.03-.33,.03,.1-.33,.51-.36,.51-.36,.13,0,.28-.08,.28-.08,.25-.1,.46,.08,.46,.08,.05,.08,.15,.08,.15,.08,.28,.08,.89,.1,.89,.1,.18,0,.18-.03,.18-.03,0-.03-.05-.05-.05-.05-.2-.15-.33-.23-.33-.23-.23-.15-.31-.13-.31-.13-.05,.03-.13,0-.13,0-.25-.03-.41-.23-.41-.23-.1-.1-.31-.13-.41-.1-.08,.03-.18,0-.18,0,.2-.43,.53-.31,.53-.31,.2,.05,.31,.03,.31,.03,.08-.05,.15-.03,.15-.03,.33,.05,.41,.31,.41,.31,.05,.1,.13,.15,.13,.15,.18,.18,.76,.53,.76,.53,1.22-.46,1.58-.69,1.58-.69-.1-.18-.31-.41-.31-.41,1.53-.71,1.83-1.76,1.83-1.76,.15-.38,.08-.41,.08-.41-.08,0-.2,.23-.2,.23-.25,.56-.59,.69-.59,.69-.33,.23-.46,.03-.46,.03-.1-.15,.13-.36,.13-.36,.2-.25,.28-.53,.28-.53,.1-.38-.05-.46-.05-.46-.2-.15-.36,.38-.36,.38-.36,.84-.66,1.2-.66,1.2-.46,.59-.87,.2-.87,.2-.18-.25,.08-.41,.08-.41,.28-.13,.48-.38,.48-.38,.59-.99,.33-1.2,.33-1.2-.13-.18-.46,.41-.46,.41-.81,1.22-1.58,1.73-1.58,1.73-1.22,.61-1.68-.15-1.68-.15-.18-.41,.31-.38,.31-.38,.33,.03,.64,.03,.64,.03,.79-.1,1.35-1.07,1.35-1.07,.51-.74,.53-1.09,.53-1.09,0-.13-.18,.05-.18,.05-.31,.31-.69,.66-.69,.66-.92,.81-1.53,.61-1.53,.61-.69-.15-.69-.56-.69-.56-.03-.33,.53-.23,.53-.23,.66,.05,.92-.05,.92-.05,.66-.31,1.17-1.09,1.17-1.09,.48-.61,.41-.76,.41-.76-.08-.1-.41,.23-.41,.23-.25,.23-.71,.53-.71,.53-.69,.53-1.32,.41-1.32,.41-.71-.13-.56-.76-.56-.76,.08-.31,.64-.13,.64-.13,.28,.1,.61,.08,.61,.08,.56,0,1.2-.74,1.2-.74,.51-.51,.33-.59,.33-.59-.1-.1-.99,.41-.99,.41-.74,.43-1.35,.23-1.35,.23-.66-.38-.46-.71-.46-.71,.2-.33,.66-.08,.66-.08,.1,.05,.28,.1,.28,.1,.53,.2,1.17-.18,1.17-.18,.87-.46,.76-.81,.76-.81-.08-.15-.43,.03-.43,.03-.53,.31-1.12,.28-1.12,.28-.92-.03-1.37-.61-1.37-.61-.15-.2,.1-.43,.1-.43,.18-.15,.53,.1,.53,.1,.43,.28,.97,.36,.97,.36,.76,.03,1.17-.53,1.17-.53,.33-.33,.2-.41,.2-.41-.03-.13-.59,.1-.59,.1-.43,.2-.97,.18-.97,.18-.89,.03-1.3-.64-1.3-.64-.31-.36-.13-.64-.13-.64,.23-.31,.48,0,.48,0,.23,.28,.59,.48,.59,.48,.46,.2,1.09,.18,1.09,.18,.61-.03,.66-.25,.66-.25,.08-.18-.05-.28-.05-.28-.13-.13-.48-.15-.48-.15-.76-.15-1.4-.51-1.4-.51-.53-.28-.89-.76-.89-.76-.33-.61,.08-.81,.08-.81,.38-.23,.56,.2,.56,.2,.18,.31,.38,.48,.38,.48,.81,.76,1.71,.94,1.71,.94,.2,.08,.25-.05,.25-.05l.1-.23c.05-.15,.41,.05,.41,.05l1.27,.51c.51,.2,.46,.84,.46,.84v.46c.03,.53,.66,.41,.66,.41,.46-.05,.38-.76,.38-.76-.15-1.17-.92-1.45-.92-1.45-.36-.28-1.15-.33-1.15-.33-.64-.1-.74-.36-.74-.36,.51,.13,.79-.08,.79-.08-.03-.03-.59-.03-.59-.03-.25,0-.41-.03-.41-.03-.23-.03-.41-.2-.41-.2-.23-.1-.31-.25-.31-.25-.08-.15,.05-.18,.05-.18,.18-.03,.28,.15,.28,.15l.15,.18c.13,.13,.2,.13,.2,.13,.46,.1,.66,.08,.66,.08,.15,0,.15-.1,.15-.1-.03-.13-.25-.18-.25-.18-.15,0-.48,.1-.48,.1,.03-.1,.08-.2,.08-.2,.13-.31,.71-.25,.71-.25,.28,0,.33-.08,.33-.08,.2-.2,.48-.15,.48-.15,.43,.05,.81,.23,.81,.23,.31,.18,.61,.13,.61,.13,.18,0,.51-.08,.51-.08,.2-.08,.1,.05,.1,.05-.18,.25-.38,.33-.38,.33-.13,.08-.13,.1-.13,.1,.03,.15,.36,.31,.36,.31,.18,.08,.23,.1,.23,.1,.05,.08-.08,.15-.08,.15-.05,0-.13,.05-.13,.05-.13,.08-.08,.13-.08,.13,.2,.23,.48,.28,.48,.28,.15,0,.13,.08,.13,.08-.03,.1-.23,.13-.23,.13-.08,.03-.05,.05-.05,.05,.05,.1,.15,.2,.15,.2,.13,.13,.28,.08,.28,.08,.13-.05,.1,.05,.1,.05,0,.05-.08,.15-.08,.15-.03,.05,0,.08,0,.08,.05,.08,.2,.1,.2,.1,0,0,.13-.03,.18-.1,0,0,.05-.03,0-.08,0,0-.05-.1-.08-.15,0,0,0-.1,.13-.05,0,0,.13,.05,.25-.08,0,0,.1-.1,.18-.2,0,0,.03-.03-.08-.05,0,0-.2-.03-.23-.13,0,0-.03-.08,.13-.08,0,0,.31-.05,.51-.28,0,0,.03-.05-.08-.13,0,0-.1-.05-.13-.05,0,0-.15-.08-.08-.15,0,0,.05-.03,.23-.1,0,0,.33-.15,.36-.31,0,0,0-.03-.13-.1,0,0-.2-.08-.41-.33,0,0-.1-.13,.13-.05,0,0,.31,.08,.48,.08,0,0,.33,.05,.64-.13,0,0,.38-.18,.81-.23,0,0,.28-.05,.48,.15,0,0,.05,.08,.33,.08,0,0,.56-.05,.69,.25,0,0,.05,.1,.1,.2,0,0-.36-.1-.48-.1,0,0-.25,.05-.28,.18,0,0,0,.1,.18,.1,0,0,.2,.03,.64-.08,0,0,.1,0,.2-.13l.15-.18s.13-.18,.28-.15c0,0,.15,.03,.08,.18,0,0-.1,.15-.31,.25,0,0-.2,.18-.41,.2,0,0-.18,.03-.43,.03,0,0-.56,0-.56,.03,0,0,.25,.2,.79,.08,0,0-.1,.25-.76,.36,0,0-.76,.05-1.15,.33,0,0-.74,.28-.92,1.45,0,0-.08,.71,.41,.76,0,0,.64,.13,.64-.41l.03-.46s-.05-.64,.43-.84l1.3-.51s.33-.2,.41-.05l.1,.23s.05,.13,.25,.05c0,0,.89-.18,1.71-.94,0,0,.2-.18,.36-.48,0,0,.2-.43,.56-.2,0,0,.41,.2,.1,.81,0,0-.36,.48-.92,.76,0,0-.61,.36-1.37,.51,0,0-.36,.03-.48,.15,0,0-.13,.1-.05,.28,0,0,.03,.23,.66,.25,0,0,.64,.03,1.07-.18,0,0,.38-.2,.59-.48,0,0,.28-.31,.48,0,0,0,.18,.28-.1,.64,0,0-.41,.66-1.32,.64,0,0-.51,.03-.94-.18,0,0-.56-.23-.59-.1,0,0-.15,.08,.18,.41,0,0,.43,.56,1.2,.53,0,0,.51-.08,.97-.36,0,0,.36-.25,.53-.1,0,0,.23,.23,.1,.43,0,0-.46,.59-1.37,.61,0,0-.59,.03-1.15-.28,0,0-.33-.18-.41-.03,0,0-.1,.36,.74,.81,0,0,.66,.38,1.2,.18,0,0,.15-.05,.25-.1,0,0,.48-.25,.69,.08,0,0,.2,.33-.46,.71,0,0-.61,.2-1.35-.23,0,0-.89-.51-.99-.41,0,0-.2,.08,.33,.59,0,0,.64,.74,1.2,.74,0,0,.31,.03,.59-.08,0,0,.59-.18,.66,.13,0,0,.15,.64-.59,.76,0,0-.61,.13-1.32-.41,0,0-.46-.31-.69-.53,0,0-.33-.33-.41-.23,0,0-.1,.15,.38,.76,0,0,.51,.79,1.17,1.09,0,0,.25,.1,.94,.05,0,0,.56-.1,.53,.23,0,0-.03,.41-.69,.56,0,0-.64,.2-1.53-.61,0,0-.41-.36-.69-.66,0,0-.2-.18-.2-.05,0,0,.05,.36,.53,1.09,0,0,.56,.97,1.37,1.07,0,0,.31,0,.61-.03,0,0,.48-.03,.31,.38,0,0-.43,.76-1.68,.15,0,0-.74-.51-1.58-1.73,0,0-.33-.59-.46-.41,0,0-.23,.2,.36,1.2,0,0,.2,.25,.46,.38,0,0,.28,.15,.1,.41,0,0-.43,.38-.87-.2,0,0-.31-.36-.66-1.2,0,0-.15-.53-.38-.38,0,0-.13,.08-.03,.46,0,0,.05,.28,.28,.53,0,0,.23,.2,.1,.36,0,0-.1,.2-.46-.03,0,0-.31-.13-.59-.69,0,0-.1-.23-.18-.23,0,0-.08,.03,.08,.41,0,0,.31,1.04,1.83,1.76,0,0-.23,.23-.31,.41,0,0,.33,.23,1.58,.69,0,0,.59-.36,.76-.53,0,0,.08-.05,.13-.15,0,0,.08-.25,.38-.31,0,0,.08-.03,.15,.03,0,0,.1,.03,.31-.03,0,0,.36-.13,.56,.31,0,0-.1,.03-.2,0-.08-.03-.31,0-.38,.1,0,0-.18,.2-.41,.23,0,0-.08,.03-.15,0,0,0-.08-.03-.28,.13,0,0-.15,.08-.33,.23,0,0-.08,.03-.05,.05,0,0,0,.03,.18,.03,0,0,.61-.03,.89-.1,0,0,.08,0,.15-.08,0,0,.18-.18,.43-.08,0,0,.18,.08,.31,.08,0,0,.41,.03,.48,.36,0,0-.18,0-.33-.03,0,0-.18-.05-.25,.03,0,0-.15,.18-.33,.15,0,0-.15,.03-.28-.03,0,0-.1-.05-.36-.05,0,0-.71-.03-.87,0,0,0-.05,0,.13,.08l.33,.2s.18,.08,.36,.05c0,0,.51-.03,.53,.38,0,0,.03,.13,.08,.28,0,0,.05,.15-.1,.46,0,0-.08-.25-.18-.36,0,0-.05-.1-.2-.1,0,0-.31,0-.43-.18,0,0-.05-.08-.1-.18,0,0-.03-.1-.23-.23,0,0-.48-.33-.66-.33,0,0-.1,0-.46,.18,0,0-.15,.08-.25,.13,0,0-.13,.08-.13,.15,0,0-.13,.23-.43,.13,0,0-.15-.05-.25,.05,0,0-.05,.03-.08,.08,0,0-.05,.08-.13,.15,0,0-.1-.28,.05-.48,0,0,.23-.28,.43-.36,0,0,.13-.03,.2,.03,0,0,.08,.05,.23-.03,0,0,.31-.13,.33-.2,0,0,.03-.03-.05-.03s-.28-.1-.53-.2c-.25-.08-.94-.36-.94-.36,0,0-.25,.28-.76,.38h0Z"/>
</svg>