<?xml version="1.0" encoding="UTF-8"?>
<svg id="Layer_1" data-name="Layer 1" xmlns="http://www.w3.org/2000/svg" viewBox="0 0 30 30">
  <defs>
    <style>
      .cls-1 {
        fill: #c12837;
      }

      .cls-1, .cls-2, .cls-3 {
        fill-rule: evenodd;
      }

      .cls-2 {
        fill: #f2db1b;
      }

      .cls-3 {
        fill: #242121;
      }
    </style>
  </defs>
  <path class="cls-1" d="M.41,15.07H28.54v-.23c-.1-7.56-6.26-13.72-13.85-13.85h-.43C6.67,1.12,.51,7.28,.41,14.87v.2Z"/>
  <path class="cls-3" d="M14.23,29.12h.48c7.56-.13,13.72-6.29,13.82-13.85v-.2H.41v.2c.1,7.56,6.26,13.72,13.82,13.85h0Z"/>
  <path class="cls-2" d="M19.94,21.74c.05,0,.1,.05,.1,.1s-.05,.1-.1,.1-.1-.05-.1-.1,.05-.1,.1-.1h0Zm.69,.61c.05,0,.1,.05,.1,.1s-.05,.08-.1,.08-.08-.03-.08-.08,.03-.1,.08-.1h0Zm.61,.64c.05,0,.1,.03,.1,.08s-.05,.1-.1,.1-.08-.05-.08-.1,.03-.08,.08-.08h0Zm-1.53-1.71s.28,.28,.81,.69c0,0,.66,.48,1.12,1.09,0,0,.38,.46,.13,.87,0,0-.2,.31-.59,.05,0,0-.18-.13-.46-.66,0,0-.56-.89-1.45-1.07,0,0-.15-.03-.2-.05,0,0-.1,.03-.05-.13l.69-.79Zm-8.3-7.18s0,.31,.48,.94c0,0,.89,1.25,3.97,3.51,0,0,1.86,1.37,3.72,2.67l-.23,.25-1.91-1.37s-1.63-1.15-2.34-1.68c0,0-.99-.76-1.6-1.3,0,0-.33-.28-.48-.46h-.05s-.03,.03,0,.05c0,0,.38,.33,.59,.51,0,0,.94,.81,1.43,1.17,0,0,1.15,.84,1.96,1.43l1.5,1.07,.87,.64-.36,.43s-1.43-.97-2.67-1.71c0,0-2.29-1.35-3.92-2.29,0,0-2.29-1.3-.94-3.87h0Zm-1.83,6.16s.48,.41,1.07,.74l-.25,.51s.64,.36,1.3,.56l.18-.56s.51,.18,1.3,.28l-.05,.56s.64,.08,1.43,0l-.05-.56s.48,0,1.27-.25l.18,.53s.33-.1,.66-.25l-.31-1.15-.69-.41s-2.88,1.07-5.24-.99l-.79,.99Zm4.81-10.64l.13-1.25s.56,.05,1.25,.25l.18-.56s.71,.2,1.32,.53l-.28,.53s.66,.36,1.09,.71l.38-.46s.59,.46,.99,1.02l-.43,.38s.41,.48,.74,1.09l.51-.28s.25,.46,.53,1.32l-.53,.18s.15,.46,.25,1.27l.56-.03s.1,.84,0,1.43l-.56-.05s-.03,.51-.25,1.3l.53,.15s-.18,.64-.53,1.32l-.51-.28s-.36,.71-.74,1.12l.43,.36s-.28,.38-.56,.61l-1.53-1.07s2.01-1.53,1.93-4.3c0,0,.08-2.37-1.91-4.02,0,0-1.25-1.15-3-1.3h0Zm-1.12,2.11l.56-1.76,.56,1.76h1.83l-1.48,1.09,.56,1.76-1.48-1.09-1.5,1.09,.59-1.76-1.5-1.09h1.86Z"/>
</svg>