<?xml version="1.0" encoding="UTF-8"?>
<svg id="Layer_1" data-name="Layer 1" xmlns="http://www.w3.org/2000/svg" viewBox="0 0 30 30">
  <defs>
    <style>
      .cls-1 {
        fill: #f5d71c;
      }

      .cls-1, .cls-2, .cls-3, .cls-4, .cls-5 {
        fill-rule: evenodd;
      }

      .cls-2 {
        fill: #c12837;
      }

      .cls-3 {
        fill: #242222;
      }

      .cls-4 {
        fill: #fefefe;
      }

      .cls-5 {
        fill: #426db3;
      }
    </style>
  </defs>
  <path class="cls-3" d="M1.32,12.01H28.79C27.39,5.78,21.86,1.09,15.27,.99h-.46C8.22,1.09,2.69,5.78,1.32,12.01h0Z"/>
  <path class="cls-5" d="M1.32,18.12H28.79c.2-.92,.31-1.86,.33-2.85v-.43c-.03-.97-.13-1.91-.33-2.83H1.32c-.23,.92-.33,1.86-.36,2.85v.41c.03,.97,.13,1.93,.36,2.85h0Z"/>
  <path class="cls-4" d="M14.81,29.12h.48c6.57-.1,12.09-4.79,13.49-11H1.32c1.37,6.21,6.9,10.89,13.49,11h0Z"/>
  <path class="cls-2" d="M15.04,29.12h-.23c-7.56-.13-13.72-6.29-13.85-13.85v-.41c.03-.69,.08-1.35,.18-1.99L15.04,29.12h.25c7.53-.13,13.69-6.29,13.82-13.85v-.43c-.03-.66-.08-1.32-.18-1.96L15.04,29.12Z"/>
  <polygon class="cls-1" points="5.9 12.01 10.46 11.1 6.59 8.5 11.15 9.39 8.57 5.5 12.44 8.12 11.55 3.51 14.12 7.41 15.04 2.83 15.96 7.41 18.55 3.51 17.64 8.12 21.51 5.5 18.93 9.39 23.49 8.5 19.62 11.1 24.2 12.01 5.9 12.01"/>
</svg>