<?xml version="1.0" encoding="UTF-8"?>
<svg id="Layer_1" data-name="Layer 1" xmlns="http://www.w3.org/2000/svg" viewBox="0 0 30 30">
  <defs>
    <style>
      .cls-1 {
        fill: #e32129;
      }

      .cls-1, .cls-2, .cls-3 {
        fill-rule: evenodd;
      }

      .cls-2 {
        fill: #322f8a;
      }

      .cls-3 {
        fill: #ef9d15;
      }
    </style>
  </defs>
  <path class="cls-1" d="M1.36,10.36H27.88C25.94,4.99,20.83,1.09,14.82,.99h-.43c-6.01,.1-11.12,4-13.03,9.37h0Z"/>
  <path class="cls-2" d="M1.36,19.75H27.88c.48-1.4,.76-2.93,.79-4.48v-.41c-.03-1.58-.31-3.08-.79-4.51H1.36c-.51,1.4-.79,2.93-.81,4.48v.43c.03,1.58,.31,3.08,.81,4.48h0Z"/>
  <path class="cls-3" d="M27.88,19.75H1.36c1.91,5.4,7.03,9.29,13.03,9.37h.43c6.01-.08,11.12-3.97,13.06-9.37h0Z"/>
</svg>