<?xml version="1.0" encoding="UTF-8"?>
<svg id="Layer_1" data-name="Layer 1" xmlns="http://www.w3.org/2000/svg" viewBox="0 0 30 30">
  <defs>
    <style>
      .cls-1 {
        fill: #e72e29;
      }

      .cls-1, .cls-2 {
        fill-rule: evenodd;
      }

      .cls-2 {
        fill: #fefefe;
      }
    </style>
  </defs>
  <path class="cls-1" d="M1.91,10.36H28.46C26.52,4.99,21.41,1.09,15.4,.99h-.43c-6.01,.1-11.12,4-13.06,9.37h0Z"/>
  <path class="cls-2" d="M1.91,19.75H28.46c.48-1.4,.76-2.93,.79-4.48v-.41c-.03-1.58-.31-3.08-.79-4.51H1.91c-.48,1.43-.76,2.93-.79,4.48v.43c.03,1.58,.31,3.08,.79,4.48h0Z"/>
  <path class="cls-1" d="M14.94,29.12h.48c5.98-.1,11.1-4,13.03-9.37H1.91c1.93,5.37,7.05,9.27,13.03,9.37h0Z"/>
</svg>