<?xml version="1.0" encoding="UTF-8"?>
<svg id="Layer_1" data-name="Layer 1" xmlns="http://www.w3.org/2000/svg" viewBox="0 0 30 30">
  <defs>
    <style>
      .cls-1 {
        fill: #e32129;
      }

      .cls-1, .cls-2, .cls-3 {
        fill-rule: evenodd;
      }

      .cls-2 {
        fill: #fff;
      }

      .cls-3 {
        fill: #2e2f7c;
      }
    </style>
  </defs>
  <path class="cls-3" d="M14.42,29.12h.48c7.56-.13,13.72-6.29,13.82-13.85v-.41c-.1-7.59-6.29-13.75-13.85-13.87h-.46C6.86,1.12,.7,7.28,.58,14.84v.43c.13,7.56,6.29,13.72,13.85,13.85h0Z"/>
  <polygon class="cls-2" points="8.82 17.41 9.49 19.47 11.5 18.71 10.33 20.52 12.16 21.61 10.02 21.79 10.33 23.93 8.82 22.37 7.35 23.93 7.63 21.79 5.49 21.61 7.35 20.52 6.15 18.71 8.16 19.47 8.82 17.41"/>
  <polygon class="cls-2" points="24.68 5.91 25.01 6.87 25.85 6.57 25.88 6.62 25.39 7.38 26.26 7.89 25.27 7.97 25.39 8.99 24.68 8.25 23.99 8.99 24.12 7.97 23.13 7.89 23.99 7.38 23.43 6.52 24.38 6.87 24.68 5.91"/>
  <polygon class="cls-2" points="28.5 12.57 28.19 12.55 28.47 12.4 28.5 12.57"/>
  <polygon class="cls-2" points="24.68 21.13 25.01 22.12 25.95 21.74 25.39 22.6 26.21 23.09 26.18 23.11 25.27 23.19 25.37 24.13 25.34 24.18 24.68 23.47 23.99 24.21 24.12 23.19 23.13 23.11 23.99 22.6 23.43 21.74 24.38 22.12 24.68 21.13"/>
  <polygon class="cls-2" points="26.72 15.76 26.97 15.15 27.23 15.76 27.86 15.81 27.38 16.21 27.53 16.88 26.97 16.52 26.41 16.88 26.57 16.21 26.08 15.81 26.72 15.76"/>
  <polygon class="cls-2" points="19.01 12.09 19.31 13.06 20.25 12.7 19.69 13.54 20.56 14.08 19.57 14.15 19.69 15.17 19.01 14.43 18.29 15.17 18.45 14.15 17.43 14.08 18.29 13.54 17.73 12.7 18.67 13.06 19.01 12.09"/>
  <path class="cls-2" d="M13.1,13.67h2.83v-1.4l-5.6-2.83h5.6V5.22h-5.63l5.63-2.8V1.04c-.36-.03-.71-.05-1.04-.05h-.46c-.51,0-1.04,.05-1.55,.1l-7.51,3.77v-.36c-1.96,1.76-3.44,4.02-4.2,6.59v2.57H5.36v-3.87l7.74,3.87Z"/>
  <path class="cls-1" d="M7.5,9.44h1.86l6.57,3.28v.94L7.5,9.44ZM14.88,.99c.31,0,.64,.03,.94,.05L7.5,5.22h-1.91L14.02,.99h.87ZM2,8.93c.64-1.35,1.5-2.55,2.52-3.61v.74H15.93v2.55H4.52v5.07H2v-4.73Z"/>
</svg>