<?xml version="1.0" encoding="UTF-8"?>
<svg id="Layer_1" data-name="Layer 1" xmlns="http://www.w3.org/2000/svg" viewBox="0 0 30 30">
  <defs>
    <style>
      .cls-1 {
        fill: #f4e640;
      }

      .cls-1, .cls-2, .cls-3 {
        fill-rule: evenodd;
      }

      .cls-2 {
        fill: #4faac8;
      }

      .cls-3 {
        fill: #242121;
      }
    </style>
  </defs>
  <path class="cls-2" d="M1.49,10.36H28.01C26.1,4.99,20.99,1.09,14.98,.99h-.43c-6.01,.1-11.12,4-13.06,9.37h0Z"/>
  <path class="cls-1" d="M1.49,19.75H28.01c.51-1.4,.79-2.93,.81-4.48v-.41c-.03-1.58-.31-3.08-.81-4.51H1.49c-.48,1.43-.76,2.93-.79,4.48v.43c.03,1.58,.31,3.08,.79,4.48h0Z"/>
  <path class="cls-2" d="M14.52,29.12h.48c5.98-.1,11.1-4,13.01-9.37H1.49c1.93,5.37,7.05,9.27,13.03,9.37h0Z"/>
  <path class="cls-3" d="M18.29,15.07L3.75,6.31C1.87,8.68,.75,11.63,.7,14.84v.43c.05,3.21,1.17,6.19,3.05,8.53l14.53-8.73Z"/>
</svg>