<?xml version="1.0" encoding="UTF-8"?>
<svg id="Layer_1" data-name="Layer 1" xmlns="http://www.w3.org/2000/svg" viewBox="0 0 30 30">
  <defs>
    <style>
      .cls-1 {
        fill: #f5cc28;
      }

      .cls-1, .cls-2, .cls-3 {
        fill-rule: evenodd;
      }

      .cls-2 {
        fill: #2d3478;
      }

      .cls-3 {
        fill: #242121;
      }
    </style>
  </defs>
  <path class="cls-2" d="M6.89,26.66V3.57C3.28,6.07,.91,10.22,.83,14.9v.41c.08,4.68,2.44,8.83,6.06,11.35h0Z"/>
  <path class="cls-1" d="M14.65,29.18h.48c2.88-.05,5.57-.97,7.79-2.52V3.57c-2.24-1.55-4.91-2.49-7.81-2.55h-.43c-2.9,.05-5.57,.99-7.79,2.55V26.66c2.21,1.55,4.89,2.47,7.76,2.52h0Z"/>
  <path class="cls-2" d="M28.96,15.33v-.46c-.05-4.66-2.44-8.81-6.03-11.3V26.66c3.59-2.52,5.98-6.64,6.03-11.33h0Z"/>
  <path class="cls-3" d="M14.91,7.32m0,0h0s.79,2.67,2.19,4.05c0,0-.76-.25-1.37-.2v5.98l1.68,.25s.08,0,.1-.18c0,0,.18-2.9,1.35-5.63,0,0,.23-.38,.05-.41,0,0-.08,0-.38,.1,0,0-.41,.15-.36,.08,0,0,1.35-1.53,3.49-1.81,0,0,.23-.05,.05,.18,0,0-1.78,2.57-2.62,5.78,0,0-.46,1.81-.46,3.54,0,0-.25,.03-1.6-.2,0,0-1.09-.2-1.3-.18v4.23h-1.65v-4.23c-.18-.03-1.3,.18-1.3,.18-1.35,.23-1.6,.2-1.6,.2,.03-1.73-.43-3.54-.43-3.54-.84-3.21-2.65-5.78-2.65-5.78-.15-.23,.05-.18,.05-.18,2.14,.28,3.51,1.81,3.51,1.81,.03,.08-.38-.08-.38-.08-.28-.1-.36-.1-.36-.1-.18,.03,.03,.41,.03,.41,1.17,2.72,1.37,5.63,1.37,5.63,0,.18,.08,.18,.08,.18l1.68-.25v-5.98c-.61-.05-1.35,.2-1.35,.2,1.37-1.37,2.19-4.02,2.19-4.05h0Z"/>
</svg>