<?xml version="1.0" encoding="UTF-8"?>
<svg id="Layer_1" data-name="Layer 1" xmlns="http://www.w3.org/2000/svg" viewBox="0 0 30 30">
  <defs>
    <style>
      .cls-1 {
        fill: #312f83;
      }

      .cls-1, .cls-2, .cls-3 {
        fill-rule: evenodd;
      }

      .cls-2 {
        fill: #fefefe;
      }

      .cls-3 {
        fill: #f6d40d;
      }
    </style>
  </defs>
  <path class="cls-1" d="M14.39,29.18h.43c7.59-.13,13.75-6.29,13.85-13.87v-.41c-.1-7.56-6.26-13.75-13.85-13.87h-.43C6.83,1.16,.64,7.32,.54,14.88v.46c.1,7.56,6.29,13.72,13.85,13.85h0Z"/>
  <path class="cls-3" d="M14.39,1.03h.43c4.3,.08,8.15,2.09,10.69,5.22V23.96c-.76,.97-1.68,1.81-2.67,2.55L3.24,6.83C5.76,3.4,9.81,1.1,14.39,1.03h0Z"/>
  <path class="cls-2" d="M20.96,27.65c-.74,.38-1.48,.69-2.27,.92l-.76-.56h1.93l.59-1.83,.51,1.48ZM1.15,11.01c.05-.18,.13-.38,.18-.56h.99l.59-1.83,.61,1.83h1.93l-1.58,1.15,.61,1.86-1.58-1.15-1.55,1.15,.61-1.86-.81-.59Zm4.68,2.95l.59-1.83,.61,1.83h1.93l-1.55,1.15,.59,1.83-1.58-1.12-1.55,1.12,.59-1.83-1.55-1.15h1.93Zm3.51,3.54l.59-1.86,.61,1.86h1.93l-1.58,1.12,.61,1.86-1.58-1.15-1.55,1.15,.59-1.86-1.55-1.12h1.93Zm3.49,3.49l.61-1.83,.59,1.83h1.93l-1.55,1.17,.59,1.83-1.55-1.15-1.58,1.15,.61-1.83-1.58-1.17h1.93Zm3.51,3.54l.61-1.86,.61,1.86h1.93l-1.58,1.12,.59,1.86-1.55-1.15-1.58,1.15,.61-1.86-1.58-1.12h1.93Z"/>
</svg>