<?xml version="1.0" encoding="UTF-8"?>
<svg id="Layer_1" data-name="Layer 1" xmlns="http://www.w3.org/2000/svg" viewBox="0 0 30 30">
  <defs>
    <style>
      .cls-1 {
        fill: #6ab9e7;
      }

      .cls-1, .cls-2, .cls-3 {
        fill-rule: evenodd;
      }

      .cls-2 {
        fill: #fefefe;
      }

      .cls-3 {
        fill: #242121;
      }
    </style>
  </defs>
  <path class="cls-1" d="M1.06,11.44H28.25C26.64,5.53,21.25,1.13,14.88,1.03h-.46C8.06,1.13,2.66,5.53,1.06,11.44h0Z"/>
  <path class="cls-1" d="M28.25,18.77H1.06c1.6,5.91,7,10.31,13.36,10.41h.46c6.36-.1,11.76-4.51,13.36-10.41h0Z"/>
  <path class="cls-2" d="M.81,12.56H28.5c-.08-.38-.15-.74-.25-1.12H1.06c-.1,.38-.18,.74-.25,1.12H.81Z"/>
  <path class="cls-2" d="M1.06,18.77H28.25c.1-.36,.18-.74,.25-1.12H.81c.08,.38,.15,.76,.25,1.12h0Z"/>
  <path class="cls-3" d="M.81,17.65H28.5c.13-.76,.2-1.55,.23-2.34v-.41c-.03-.79-.1-1.58-.23-2.34H.81c-.13,.76-.2,1.53-.23,2.32v.46c.03,.79,.1,1.55,.23,2.32H.81Z"/>
</svg>