<?xml version="1.0" encoding="UTF-8"?>
<svg id="Layer_1" data-name="Layer 1" xmlns="http://www.w3.org/2000/svg" viewBox="0 0 30 30">
  <defs>
    <style>
      .cls-1 {
        fill: #f5d61b;
      }

      .cls-1, .cls-2, .cls-3 {
        fill-rule: evenodd;
      }

      .cls-2 {
        fill: #c12837;
      }

      .cls-3 {
        fill: #2f7e60;
      }
    </style>
  </defs>
  <path class="cls-3" d="M9.53,28.11V2.1C4.49,4.18,.9,9.12,.83,14.88v.46c.08,5.75,3.67,10.69,8.71,12.78h0Z"/>
  <path class="cls-2" d="M14.65,29.18h.48c1.81-.03,3.51-.41,5.09-1.07V2.1c-1.58-.66-3.31-1.02-5.12-1.07h-.43c-1.81,.05-3.54,.41-5.14,1.07V28.11c1.58,.66,3.31,1.04,5.12,1.07h0Z"/>
  <path class="cls-1" d="M28.96,15.31v-.41c-.08-5.75-3.67-10.72-8.73-12.8V28.11c5.07-2.09,8.65-7.03,8.73-12.8h0Z"/>
  <polygon class="cls-1" points="13.94 13.78 14.88 10.8 15.85 13.78 18.95 13.78 16.43 15.61 17.4 18.57 14.88 16.76 12.38 18.57 13.33 15.61 10.81 13.78 13.94 13.78"/>
</svg>