<?xml version="1.0" encoding="UTF-8"?>
<svg id="Layer_1" data-name="Layer 1" xmlns="http://www.w3.org/2000/svg" viewBox="0 0 30 30">
  <defs>
    <style>
      .cls-1 {
        fill: #e32129;
      }

      .cls-1, .cls-2 {
        fill-rule: evenodd;
      }

      .cls-2 {
        fill: #fff;
      }
    </style>
  </defs>
  <path class="cls-1" d="M29.02,14.9v.41c-.08,4.43-2.21,8.4-5.5,10.92V3.98c3.28,2.55,5.42,6.49,5.5,10.92h0ZM6.36,26.23C3.08,23.71,.94,19.76,.86,15.33v-.46c.08-4.4,2.21-8.35,5.5-10.89V26.23Z"/>
  <path class="cls-2" d="M14.71,29.18h.46c3.13-.05,6.03-1.15,8.35-2.95V3.98c-2.32-1.81-5.22-2.9-8.35-2.95h-.46c-3.13,.05-6.03,1.15-8.35,2.95V26.23c2.32,1.81,5.22,2.9,8.35,2.95h0Z"/>
  <path class="cls-1" d="M14.63,23.28l.15-3.82s0-.18-.31-.23l-3.46,.41,.31-1.04s.1-.28-.15-.48l-3.46-2.95,.76-.38s.25-.05,.15-.41l-.64-2.32,1.99,.43s.31,.1,.41-.23l.25-.94,1.63,1.91s.18,.23,.41,.13c0,0,.2-.1,.1-.56l-.69-3.79,.94,.51s.43,.28,.64-.1l1.27-2.44,1.27,2.44s.1,.33,.51,.15l1.04-.56-.66,3.79s-.13,.46,.1,.56c0,0,.23,.15,.51-.25l1.53-1.78,.25,.94s.08,.31,.36,.23l2.01-.43-.61,2.34s-.13,.33,.2,.41l.71,.36-3.44,2.93s-.31,.2-.18,.61l.28,.94-3.39-.41s-.28-.08-.33,.23l.08,3.82h-.56Z"/>
</svg>