<?xml version="1.0" encoding="UTF-8"?>
<svg id="Layer_1" data-name="Layer 1" xmlns="http://www.w3.org/2000/svg" viewBox="0 0 30 30">
  <defs>
    <style>
      .cls-1 {
        fill: #c6263d;
      }

      .cls-1, .cls-2, .cls-3, .cls-4, .cls-5 {
        fill-rule: evenodd;
      }

      .cls-2 {
        fill: #419940;
      }

      .cls-3 {
        fill: #2a387d;
      }

      .cls-4 {
        fill: #fefefe;
      }

      .cls-5 {
        fill: #f6d40d;
      }
    </style>
  </defs>
  <path class="cls-3" d="M2.52,8.11H26.85C24.46,3.99,20.01,1.16,14.92,1.09h-.46c-5.07,.08-9.52,2.9-11.94,7.03h0Z"/>
  <path class="cls-4" d="M.61,15.16H28.76v-.23c-.05-2.47-.74-4.81-1.91-6.82H2.52c-1.17,2.01-1.86,4.35-1.91,6.85v.2Z"/>
  <path class="cls-2" d="M2.52,22.19H26.85c1.17-2.01,1.86-4.33,1.91-6.82v-.2H.61v.2c.05,2.47,.74,4.81,1.91,6.82h0Z"/>
  <path class="cls-5" d="M26.85,22.19H2.52c2.42,4.15,6.87,6.95,11.94,7.03h.46c5.09-.08,9.55-2.88,11.94-7.03h0Z"/>
  <path class="cls-1" d="M14.18,29.22h1.02c1.04-.03,2.04-.18,3-.43V1.52c-1.04-.25-2.16-.41-3.28-.43h-.46c-1.12,.03-2.21,.18-3.28,.43V28.78c.97,.25,1.99,.41,3,.43h0Z"/>
  <path class="cls-5" d="M6.67,3.61l.1,.33h2.29l-1.86,1.35,.71,2.19-1.86-1.35-1.86,1.35,.71-2.19-.13-.1c.59-.59,1.2-1.09,1.88-1.58h0Z"/>
</svg>