<?xml version="1.0" encoding="UTF-8"?>
<svg id="Layer_1" data-name="Layer 1" xmlns="http://www.w3.org/2000/svg" viewBox="0 0 30 30">
  <defs>
    <style>
      .cls-1 {
        fill: #cd282d;
      }

      .cls-1, .cls-2 {
        fill-rule: evenodd;
      }

      .cls-2 {
        fill: #f6e309;
      }
    </style>
  </defs>
  <path class="cls-1" d="M14.36,29.22h.48c7.56-.13,13.72-6.29,13.82-13.85v-.41c-.1-7.59-6.26-13.75-13.85-13.87h-.43C6.83,1.22,.64,7.38,.54,14.94v.43c.1,7.56,6.26,13.72,13.82,13.85h0Z"/>
  <path class="cls-2" d="M4.74,6.71l.74-2.24c.08-.08,.18-.15,.28-.23l.81,2.47h2.93l-2.37,1.76,.89,2.8-2.37-1.73-2.39,1.73,.89-2.8-1.32-.99c.18-.25,.36-.51,.53-.76h1.37Z"/>
  <polygon class="cls-2" points="11.51 2.87 12.5 3.33 13.22 2.54 13.09 3.61 14.06 4.07 13.01 4.27 12.89 5.34 12.35 4.4 11.31 4.6 12.05 3.81 11.51 2.87"/>
  <polygon class="cls-2" points="14.95 5.42 15.64 6.13 16.6 5.67 16.09 6.61 16.83 7.4 15.79 7.2 15.28 8.14 15.13 7.1 14.08 6.89 15.05 6.43 14.9 5.36 14.95 5.42"/>
  <polygon class="cls-2" points="15.46 9.51 15.81 10.53 16.88 10.53 16.02 11.17 16.35 12.19 15.46 11.58 14.59 12.19 14.92 11.17 14.06 10.53 15.15 10.53 15.46 9.51"/>
  <polygon class="cls-2" points="12.45 13.2 13.14 12.36 13.09 13.43 14.06 13.84 13.04 14.1 12.96 15.16 12.38 14.27 11.33 14.53 12.02 13.71 11.46 12.8 12.45 13.2"/>
</svg>