<?xml version="1.0" encoding="UTF-8"?>
<svg id="Layer_1" data-name="Layer 1" xmlns="http://www.w3.org/2000/svg" viewBox="0 0 30 30">
  <defs>
    <style>
      .cls-1 {
        fill: #2c377a;
      }

      .cls-1, .cls-2, .cls-3 {
        fill-rule: evenodd;
      }

      .cls-2 {
        fill: #c12837;
      }

      .cls-3 {
        fill: #fefefe;
      }
    </style>
  </defs>
  <path class="cls-1" d="M4.29,5.77H25.24c-2.55-2.83-6.19-4.63-10.26-4.68h-.43c-4.07,.05-7.71,1.86-10.26,4.68h0Z"/>
  <path class="cls-3" d="M4.29,24.53H25.24c1.2-1.35,2.16-2.95,2.77-4.68H1.49c.64,1.73,1.58,3.33,2.8,4.68h0Z"/>
  <path class="cls-3" d="M1.49,10.46H28.01c-.61-1.73-1.58-3.33-2.77-4.68H4.29c-1.22,1.35-2.16,2.95-2.8,4.68h0Z"/>
  <path class="cls-1" d="M14.52,29.22h.48c4.05-.05,7.69-1.86,10.23-4.68H4.29c2.55,2.83,6.19,4.63,10.23,4.68h0Z"/>
  <path class="cls-2" d="M1.49,19.85H28.01c.51-1.4,.79-2.93,.81-4.48v-.41c-.03-1.58-.31-3.08-.81-4.51H1.49c-.48,1.4-.76,2.93-.79,4.48v.43c.03,1.58,.31,3.08,.79,4.48h0Z"/>
</svg>