<?xml version="1.0" encoding="UTF-8"?>
<svg id="Layer_1" data-name="Layer 1" xmlns="http://www.w3.org/2000/svg" viewBox="0 0 30 30">
  <defs>
    <style>
      .cls-1 {
        fill: #e32129;
      }

      .cls-1, .cls-2, .cls-3, .cls-4 {
        fill-rule: evenodd;
      }

      .cls-2 {
        fill: #fefefe;
      }

      .cls-3 {
        fill: #8bb4df;
      }

      .cls-4 {
        fill: #41aa40;
      }
    </style>
  </defs>
  <path class="cls-3" d="M.83,15.2H28.96v-.23c-.1-7.48-6.16-13.62-13.64-13.82h-.84C6.99,1.35,.93,7.49,.83,15v.2Z"/>
  <path class="cls-4" d="M14.48,29.28h.84c7.48-.23,13.54-6.36,13.64-13.85v-.23H.83v.2c.1,7.51,6.16,13.64,13.64,13.87h0Z"/>
  <path class="cls-2" d="M17.58,15.2L3.45,7.03C1.85,9.29,.88,12.04,.83,15v.41c.05,2.95,1.02,5.7,2.62,7.97l14.13-8.17Z"/>
  <polygon class="cls-1" points="4.8 14.33 5.41 12.4 6.05 14.33 8.09 14.33 6.43 15.53 7.07 17.49 5.41 16.27 3.79 17.49 4.4 15.53 2.74 14.33 4.8 14.33"/>
</svg>