<?xml version="1.0" encoding="UTF-8"?>
<svg id="Layer_1" data-name="Layer 1" xmlns="http://www.w3.org/2000/svg" viewBox="0 0 30 30">
  <defs>
    <style>
      .cls-1 {
        fill: #293b7c;
      }

      .cls-1, .cls-2 {
        fill-rule: evenodd;
      }

      .cls-2 {
        fill: #fefefe;
      }
    </style>
  </defs>
  <path class="cls-2" d="M14.36,29.28h.48c7.56-.13,13.72-6.31,13.82-13.87v-.41c-.1-7.56-6.26-13.75-13.85-13.87h-.43C6.83,1.25,.64,7.41,.54,14.97v.46c.1,7.56,6.26,13.72,13.82,13.85h0Z"/>
  <path class="cls-1" d="M1.1,11.25h2.98V5.88C6.12,3.59,8.86,1.96,11.97,1.38V11.25H28.11c.36,1.2,.56,2.44,.56,3.74v.41c0,1.3-.2,2.57-.56,3.77H11.97v9.85c-3.11-.59-5.85-2.21-7.89-4.51v-5.35H1.1c-.36-1.2-.53-2.44-.56-3.74v-.46c.03-1.27,.2-2.55,.56-3.72h0Z"/>
</svg>