<?xml version="1.0" encoding="UTF-8"?>
<svg id="Layer_1" data-name="Layer 1" xmlns="http://www.w3.org/2000/svg" viewBox="0 0 30 30">
  <defs>
    <style>
      .cls-1 {
        fill: #fefefe;
      }

      .cls-1, .cls-2 {
        fill-rule: evenodd;
      }

      .cls-2 {
        fill: #d5253a;
      }
    </style>
  </defs>
  <path class="cls-1" d="M14.72,29.28h.48c7.59-.13,13.72-6.31,13.85-13.87v-.41c-.13-7.56-6.29-13.75-13.85-13.87h-.46C7.18,1.25,1.02,7.41,.9,14.97v.46c.13,7.56,6.29,13.72,13.82,13.85h0Z"/>
  <path class="cls-2" d="M14.74,1.12h.46c.89,.03,1.76,.13,2.6,.31V12.35h10.95c.18,.87,.28,1.76,.31,2.65v.41c-.03,.89-.13,1.78-.31,2.62h-10.95v10.97c-.84,.15-1.71,.25-2.6,.28h-.48c-.87-.03-1.73-.13-2.57-.28v-10.97H1.18c-.15-.84-.25-1.71-.28-2.6v-.46c.03-.89,.13-1.76,.31-2.62H12.15V1.43c.84-.18,1.71-.28,2.6-.31h0Z"/>
  <path class="cls-2" d="M23.14,4.03s.15,.03,.41,.05c.46,.36,.92,.74,1.32,1.15-.03,.25-.05,.53-.05,.81,0,0,.28,0,.76-.05,.43,.51,.84,1.04,1.22,1.63v.1s-.89-.18-1.99-.23c0,0,.05,1.22,.23,2.01,0,0-.97-.13-1.91,0,0,0,.2-1.02,.23-2.01,0,0-1.04,.03-2.01,.23,0,0,.15-.92,0-1.91,0,0,1.04,.2,2.01,.23,0,0-.03-.87-.23-2.01h0Zm3.67,18.76c-.38,.59-.79,1.12-1.22,1.65-.25-.03-.51-.05-.76-.08,0,0,.03,.36,.05,.81-.41,.41-.87,.79-1.32,1.17-.13,0-.28,0-.41,.03,0,0,.2-.99,.23-2.01,0,0-1.04,.05-2.01,.25,0,0,.15-.94,0-1.93,0,0,1.04,.2,2.01,.25,0,0-.03-.89-.23-2.04h0s.79,.15,1.91,0c0,0-.2,.99-.23,2.04,0,0,.87-.05,1.99-.25v.1Zm-20.41,3.56c-.46-.36-.89-.74-1.3-1.15,.03-.28,.05-.56,.05-.84,0,0-.33,.03-.79,.05-.43-.51-.84-1.04-1.22-1.6v-.13s1.02,.2,2.01,.25c0,0-.03-.89-.25-2.04h0s.81,.15,1.93,0c0,0-.23,.99-.23,2.04,0,0,.87-.05,1.99-.25,0,0-.13,1.09,0,1.93,0,0-.92-.2-1.99-.25,0,0,.05,1.22,.23,2.01,0,0-.18-.03-.43-.03h0ZM3.14,7.61c.38-.59,.79-1.12,1.22-1.63,.25,.03,.51,.05,.79,.05,0,0-.03-.31-.08-.81,.43-.41,.87-.79,1.32-1.15,.13-.03,.28-.03,.43-.05,0,0-.23,.99-.23,2.01,0,0,.87-.03,1.99-.23,0,0-.13,1.09,0,1.91,0,0-.92-.18-1.99-.23,0,0,.05,1.22,.23,2.01,0,0-.99-.13-1.93,0,0,0,.23-1.02,.25-2.01,0,0-1.07,.03-2.01,.23v-.1h0Z"/>
</svg>