<?xml version="1.0" encoding="UTF-8"?>
<svg id="Layer_1" data-name="Layer 1" xmlns="http://www.w3.org/2000/svg" viewBox="0 0 30 30">
  <defs>
    <style>
      .cls-1 {
        fill: #c12837;
      }

      .cls-1, .cls-2, .cls-3 {
        fill-rule: evenodd;
      }

      .cls-2 {
        fill: #f2db1b;
      }
    </style>
  </defs>
  <path class="cls-3" d="M1.49,10.52H28.04C26.1,5.12,20.99,1.23,14.98,1.12h-.43c-6.01,.1-11.12,4-13.06,9.39h0Z"/>
  <path class="cls-1" d="M1.49,19.88H28.04c.48-1.4,.76-2.9,.79-4.48v-.41c-.03-1.55-.31-3.08-.79-4.48H1.49c-.48,1.4-.76,2.9-.79,4.45v.46c.03,1.55,.31,3.05,.79,4.45h0Z"/>
  <path class="cls-2" d="M28.04,19.88H1.49c1.93,5.4,7.05,9.29,13.06,9.39h.43c6.01-.1,11.12-4,13.06-9.39h0Z"/>
</svg>