<?xml version="1.0" encoding="UTF-8"?>
<svg id="Layer_1" data-name="Layer 1" xmlns="http://www.w3.org/2000/svg" viewBox="0 0 30 30">
  <defs>
    <style>
      .cls-1 {
        fill: #2d7346;
      }

      .cls-1, .cls-2, .cls-3, .cls-4 {
        fill-rule: evenodd;
      }

      .cls-2 {
        fill: #f5d61b;
      }

      .cls-3 {
        fill: #c12837;
      }

      .cls-4 {
        fill: #242121;
      }
    </style>
  </defs>
  <path class="cls-3" d="M2.07,10.52H28.59C26.68,5.12,21.54,1.23,15.56,1.12h-.46c-6.01,.1-11.12,4-13.03,9.39h0Z"/>
  <path class="cls-2" d="M2.07,19.88H28.59c.51-1.4,.79-2.9,.81-4.48v-.41c-.03-1.55-.31-3.08-.81-4.48H2.07c-.51,1.4-.79,2.9-.81,4.45v.46c.03,1.55,.31,3.05,.81,4.45h0Z"/>
  <path class="cls-1" d="M15.07,29.28h.48c6.01-.1,11.12-4,13.03-9.39H2.07c1.91,5.4,7.03,9.29,13.01,9.39h0Z"/>
  <polygon class="cls-4" points="14.36 14.28 15.33 11.31 16.3 14.28 19.4 14.28 16.88 16.12 17.85 19.09 15.33 17.26 12.81 19.09 13.75 16.12 11.23 14.28 14.36 14.28"/>
</svg>