<?xml version="1.0" encoding="UTF-8"?>
<svg id="Layer_1" data-name="Layer 1" xmlns="http://www.w3.org/2000/svg" viewBox="0 0 30 30">
  <defs>
    <style>
      .cls-1 {
        fill: #1a1a1a;
      }

      .cls-1, .cls-2, .cls-3, .cls-4 {
        fill-rule: evenodd;
      }

      .cls-2 {
        fill: #f5d61b;
      }

      .cls-3 {
        fill: #c12837;
      }

      .cls-4 {
        fill: #3a9d45;
      }
    </style>
  </defs>
  <path class="cls-3" d="M11.22,28.83V1.67C5.31,3.27,.93,8.67,.83,15.06v.38c.1,6.39,4.48,11.79,10.39,13.39h0Z"/>
  <path class="cls-2" d="M11.22,15.26H28.96v-.23c-.1-7.56-6.26-13.75-13.85-13.85h-.43c-1.2,.03-2.34,.18-3.46,.48V15.26Z"/>
  <path class="cls-4" d="M14.65,29.31h.48c7.56-.13,13.72-6.29,13.82-13.85v-.2H11.22v13.57c1.09,.31,2.27,.48,3.44,.48h0Z"/>
  <polygon class="cls-1" points="4.7 13.96 5.62 11.09 6.56 13.96 9.59 13.96 7.15 15.74 8.06 18.62 5.62 16.84 3.17 18.62 4.12 15.74 1.67 13.96 4.7 13.96"/>
</svg>