<?xml version="1.0" encoding="UTF-8"?>
<svg id="Layer_1" data-name="Layer 1" xmlns="http://www.w3.org/2000/svg" viewBox="0 0 30 30">
  <defs>
    <style>
      .cls-1 {
        fill: #0d6ab4;
      }

      .cls-1, .cls-2 {
        fill-rule: evenodd;
      }

      .cls-2 {
        fill: #fefefe;
      }
    </style>
  </defs>
  <path class="cls-1" d="M1.78,10.55H28.3C26.39,5.18,21.28,1.29,15.27,1.18h-.46c-5.98,.1-11.12,4-13.03,9.37h0Z"/>
  <path class="cls-2" d="M1.78,19.94H28.3c.51-1.4,.79-2.9,.81-4.48v-.43c-.03-1.58-.31-3.08-.81-4.48H1.78c-.51,1.43-.79,2.93-.81,4.51v.38c.03,1.58,.31,3.08,.81,4.51h0Z"/>
  <path class="cls-1" d="M14.81,29.31h.48c5.98-.1,11.1-4,13.01-9.37H1.78c1.91,5.37,7.03,9.27,13.03,9.37h0Z"/>
  <path class="cls-1" d="M22.5,12.56l.36-1.07,.33,1.07h1.15l-.94,.69,.36,1.07-.89-.66-.94,.66,.36-1.07-.92-.69h1.15Zm-7.81,2.34l.36-1.07,.36,1.07h1.15l-.94,.69,.36,1.07-.92-.66-.92,.66,.36-1.07-.92-.69h1.12Zm-7.79,2.34l.36-1.07,.36,1.07h1.12l-.92,.69,.36,1.07-.92-.66-.92,.66,.33-1.07-.89-.69h1.12Zm15.6,0l.36-1.07,.33,1.07h1.15l-.94,.69,.36,1.07-.89-.66-.94,.66,.36-1.07-.92-.69h1.15ZM6.89,12.56l.36-1.07,.36,1.07h1.12l-.92,.69,.36,1.07-.92-.66-.92,.66,.33-1.07-.89-.69h1.12Z"/>
</svg>