<?xml version="1.0" encoding="UTF-8"?>
<svg id="Layer_1" data-name="Layer 1" xmlns="http://www.w3.org/2000/svg" viewBox="0 0 30 30">
  <defs>
    <style>
      .cls-1 {
        fill: #c82836;
      }

      .cls-1, .cls-2, .cls-3 {
        fill-rule: evenodd;
      }

      .cls-2 {
        fill: #fefefe;
      }

      .cls-3 {
        fill: #293a8b;
      }
    </style>
  </defs>
  <path class="cls-3" d="M14.42,29.31h.48c7.56-.13,13.72-6.29,13.82-13.87v-.38c-.1-7.59-6.29-13.77-13.85-13.87h-.46C6.86,1.29,.7,7.47,.58,15.03v.43c.13,7.56,6.29,13.72,13.85,13.85h0Z"/>
  <path class="cls-2" d="M9.51,2.15V12.13H28.37c.2,.94,.33,1.91,.36,2.93v.38c-.03,1.02-.15,1.99-.36,2.93H9.51v9.98c-2.52-.99-4.68-2.7-6.24-4.86v-5.12H.93c-.2-.92-.33-1.91-.36-2.9v-.43c.03-.99,.15-1.99,.36-2.9H3.27V7.01c1.55-2.16,3.72-3.87,6.24-4.86h0Z"/>
  <path class="cls-1" d="M.68,13.68H4.83V5.21c.94-.92,1.99-1.71,3.13-2.32V13.68H28.63c.05,.46,.1,.92,.1,1.37v.38c0,.46-.05,.92-.1,1.37H7.96v10.79c-1.15-.61-2.19-1.4-3.13-2.29v-8.5H.68c-.05-.43-.08-.89-.1-1.35v-.43c.03-.46,.05-.92,.1-1.35H.68Z"/>
</svg>