<?xml version="1.0" encoding="UTF-8"?>
<svg id="Layer_1" data-name="Layer 1" xmlns="http://www.w3.org/2000/svg" viewBox="0 0 30 30">
  <defs>
    <style>
      .cls-1 {
        fill: #40a041;
      }

      .cls-1, .cls-2, .cls-3 {
        fill-rule: evenodd;
      }

      .cls-2 {
        fill: #fefefe;
      }

      .cls-3 {
        fill: #cb282d;
      }
    </style>
  </defs>
  <path class="cls-2" d="M1.49,19.94H28.01c.51-1.43,.79-2.93,.81-4.51v-.38c-.03-1.58-.31-3.08-.81-4.51H1.49c-.48,1.4-.76,2.9-.79,4.48v.43c.03,1.58,.31,3.08,.79,4.48h0Z"/>
  <path class="cls-1" d="M1.49,10.55H28.01C26.1,5.18,20.99,1.29,14.98,1.18h-.43c-6.01,.1-11.12,4-13.06,9.37h0Z"/>
  <path class="cls-3" d="M14.52,29.31h.48c5.98-.1,11.1-4,13.01-9.37H1.49c1.93,5.37,7.05,9.27,13.03,9.37h0Z"/>
  <path class="cls-2" d="M27.38,9.02l.1,.2h-1.68v-.2h1.58Zm.2,.43c.08,.15,.13,.31,.2,.43v.23h-1.09v-.43h-.66v.43h-.23v-.66h1.09v.46h.66v-.23h-.43v-.23h.46Zm.41,.99c.05,.13,.08,.23,.13,.33h-.13v-.33Zm.13,9.27c-.05,.1-.08,.23-.13,.33v-.33h.13Zm-.25,.66l-.08,.2h-1.99v-.2h2.06Zm-.18,.43c-.05,.1-.08,.2-.13,.28v-.05h-.43v-.23h.56Zm-.2,.46l-.1,.23h-.69v-.46h-.66v.46h-.23v-.69h1.09v.46h.59Zm-25.33,.23l-.1-.23h.36v.23h-.25Zm-.18-.41c-.05-.08-.08-.18-.13-.28h.79v-.43h.2v.89h.23v-.89h.23v.89h.2v-.89h.23v1.12h-1.09v-.46h-.66v.05Zm-.23-.51c-.03-.05-.05-.13-.08-.2h.74v.2h-.66Zm-.2-.56c-.05-.1-.08-.2-.13-.31h.13v.31Zm-.13-9.24c.05-.1,.08-.2,.13-.31v.31h-.13Zm.33-.89c.08-.13,.13-.28,.2-.43h.69v-.43h.2v.89h.23v-.89h.23v.89h.2v-.89h.23v1.09h-1.09v-.43h-.66v.23h.43v.2h-.66v-.23Zm.31-.66c.03-.08,.08-.15,.1-.2h.25v.2h-.36Zm6.69,.69h.23v.2h-.23v-.2Zm-.43-.46h1.09v.46h.64v-.23h-.43v-.23h.66v.66h-1.09v-.43h-.66v.43h-.2v-.66Zm2.85,.46h-.46v-.23h.66v.43h1.09v-1.09h-.23v.89h-.2v-.89h-.23v.89h-.2v-.89h-.23v.43h-.87v.66h.66v-.2Zm15.09,0h.2v.2h-.2v-.2Zm-13.13,0h.2v.2h-.2v-.2Zm-.43-.46h1.09v.46h.64v-.23h-.43v-.23h.66v.66h-1.09v-.43h-.66v.43h-.2v-.66Zm2.85,.46h-.46v-.23h.66v.43h1.09v-1.09h-.23v.89h-.2v-.89h-.23v.89h-.2v-.89h-.23v.43h-.87v.66h.66v-.2Zm1.96,0h.2v.2h-.2v-.2Zm-.46-.46h1.09v.46h.66v-.23h-.43v-.23h.66v.66h-1.09v-.43h-.66v.43h-.23v-.66Zm2.85,.46h-.43v-.23h.66v.43h1.09v-1.09h-.23v.89h-.2v-.89h-.23v.89h-.23v-.89h-.2v.43h-.87v.66h.64v-.2Zm-15.5,0h.2v.2h-.2v-.2Zm-.46-.46h1.09v.46h.66v-.23h-.43v-.23h.64v.66h-1.07v-.43h-.66v.43h-.23v-.66Zm2.85,.46h-.43v-.23h.66v.43h1.09v-1.09h-.23v.89h-.23v-.89h-.2v.89h-.23v-.89h-.2v.43h-.89v.66h.66v-.2Zm15.09,0h.2v.2h-.2v-.2Zm-.46-.46h1.09v.46h.66v-.23h-.43v-.23h.66v.66h-1.09v-.43h-.66v.43h-.23v-.66Zm2.85,.46h-.43v-.23h.66v.43h1.07v-1.09h-.2v.89h-.23v-.89h-.2v.89h-.23v-.89h-.2v.43h-.89v.66h.66v-.2Zm-2.39,11.35h.2v.23h-.2v-.23Zm-.46-.46h1.09v.46h.66v-.23h-.43v-.23h.66v.69h-1.09v-.46h-.66v.46h-.23v-.69Zm2.85,.46h-.43v-.23h.66v.46h1.07v-1.12h-.2v.89h-.23v-.89h-.2v.89h-.23v-.89h-.2v.43h-.89v.69h.66v-.23Zm-2.85-.89h2.85v.2h-2.85v-.2Zm0-11.35h2.85v.2h-2.85v-.2Zm-17.49,0h2.85v.2H3.93v-.2Zm13.11,0h2.85v.2h-2.85v-.2Zm-4.35,0h2.85v.2h-2.85v-.2Zm-4.38,0h2.85v.2h-2.85v-.2Zm-3.92,12.24h.2v.23h-.2v-.23Zm-.46-.46h1.09v.46h.66v-.23h-.43v-.23h.64v.69h-1.07v-.46h-.66v.46h-.23v-.69Zm2.85,.46h-.43v-.23h.66v.46h1.09v-1.12h-.23v.89h-.23v-.89h-.2v.89h-.23v-.89h-.2v.43h-.89v.69h.66v-.23Zm-2.85-.89h2.85v.2H3.93v-.2Zm13.57,.89h.2v.23h-.2v-.23Zm-.46-.46h1.09v.46h.66v-.23h-.43v-.23h.66v.69h-1.09v-.46h-.66v.46h-.23v-.69Zm2.85,.46h-.43v-.23h.66v.46h1.09v-1.12h-.23v.89h-.2v-.89h-.23v.89h-.23v-.89h-.2v.43h-.87v.69h.64v-.23Zm-2.85-.89h2.85v.2h-2.85v-.2Zm-3.92,.89h.2v.23h-.2v-.23Zm-.43-.46h1.09v.46h.64v-.23h-.43v-.23h.66v.69h-1.09v-.46h-.66v.46h-.2v-.69Zm2.85,.46h-.46v-.23h.66v.46h1.09v-1.12h-.23v.89h-.2v-.89h-.23v.89h-.2v-.89h-.23v.43h-.87v.69h.66v-.23Zm-2.85-.89h2.85v.2h-2.85v-.2Zm13.57,.89h.2v.23h-.2v-.23Zm-17.51,0h.23v.23h-.23v-.23Zm-.43-.46h1.09v.46h.64v-.23h-.43v-.23h.66v.69h-1.09v-.46h-.66v.46h-.2v-.69Zm2.85,.46h-.46v-.23h.66v.46h1.09v-1.12h-.23v.89h-.2v-.89h-.23v.89h-.2v-.89h-.23v.43h-.87v.69h.66v-.23Zm-2.85-.89h2.85v.2h-2.85v-.2Zm6.57-10.03h1.96v.43h-1.96v-.43Zm-13.13,0h1.99v.43H1.74v-.43Zm21.87,0h1.96v.43h-1.96v-.43Zm-13.11,0h1.96v.43h-1.96v-.43Zm8.73,0h1.99v.43h-1.99v-.43Zm-13.11,0h1.96v.43h-1.96v-.43Zm19.68,0h1.99v.43h-1.99v-.43Zm-13.11,0h1.96v.43h-1.96v-.43Zm8.73,0h1.99v.43h-1.99v-.43Zm-13.11,0h1.96v.43h-1.96v-.43Zm8.73,0h1.99v.43h-1.99v-.43Zm-13.11,0h1.96v.43h-1.96v-.43Zm10.95,9.37h1.96v.43h-1.96v-.43Zm-13.13,0h1.99v.43H1.74v-.43Zm21.87,0h1.96v.43h-1.96v-.43Zm-13.11,0h1.96v.43h-1.96v-.43Zm8.73,0h1.99v.43h-1.99v-.43Zm-13.11,0h1.96v.43h-1.96v-.43Zm19.68,0h1.99v.43h-1.99v-.43Zm-13.11,0h1.96v.43h-1.96v-.43Zm8.73,0h1.99v.43h-1.99v-.43Zm-13.11,0h1.96v.43h-1.96v-.43Zm8.73,0h1.99v.43h-1.99v-.43Zm-13.11,0h1.96v.43h-1.96v-.43Z"/>
  <path class="cls-3" d="M13.02,11.95c-2.8,.81-3.39,4.53-.71,6.08-1.63-1.68-1.17-4.76,.71-6.08h0Zm1.73-.59h.03c.31,.25,.79,.13,.99-.2,.18,.53-.56,1.02-1.02,.56-.43,.46-1.17-.03-.99-.56,.2,.33,.69,.46,.99,.2h0Zm0,.51h0l.53,.41-.1,5.57s1.35-.84,1.6-2.67c0,0,.41-1.37-.74-3.11,0,0,1.88,1.35,1.32,3.92,0,0-.28,1.55-1.88,2.47,0,0,.81,.33,1.83,.2,0,0-1.02,.43-2.14,.2v.05l-.43,.48-.41-.48v-.05c-1.15,.23-2.14-.2-2.14-.2,.99,.13,1.83-.2,1.83-.2-1.63-.92-1.88-2.47-1.88-2.47-.59-2.57,1.32-3.92,1.32-3.92-1.17,1.73-.76,3.11-.76,3.11,.28,1.83,1.6,2.67,1.6,2.67l-.08-5.57,.51-.41Zm1.76,.08c2.8,.81,3.39,4.53,.71,6.08,1.63-1.68,1.17-4.76-.71-6.08h0Z"/>
</svg>