<?xml version="1.0" encoding="UTF-8"?>
<svg id="Layer_1" data-name="Layer 1" xmlns="http://www.w3.org/2000/svg" viewBox="0 0 30 30">
  <defs>
    <style>
      .cls-1 {
        fill: #c22837;
      }

      .cls-1, .cls-2, .cls-3, .cls-4 {
        fill-rule: evenodd;
      }

      .cls-2 {
        fill: #252424;
      }

      .cls-3 {
        fill: #fefefe;
      }

      .cls-4 {
        fill: #3b9c49;
      }
    </style>
  </defs>
  <path class="cls-1" d="M2.07,10.55H28.59C26.68,5.18,21.54,1.29,15.56,1.18h-.46c-6.01,.1-11.12,4-13.03,9.37h0Z"/>
  <path class="cls-3" d="M2.07,19.94H28.59c.51-1.43,.79-2.93,.81-4.51v-.38c-.03-1.58-.31-3.08-.81-4.51H2.07c-.51,1.4-.79,2.9-.81,4.48v.43c.03,1.58,.31,3.08,.81,4.48h0Z"/>
  <path class="cls-2" d="M15.07,29.31h.48c6.01-.1,11.12-4,13.03-9.37H2.07c1.91,5.37,7.03,9.27,13.01,9.37h0Z"/>
  <path class="cls-4" d="M18.99,16.15s-.05-.15,.18-.18c0,0,.18,.03,.13,.18,0,0-.03,.08-.15,.08,0,0-.13,0-.15-.08h0Zm2.21-2.7s.51-.38,.53-.53v4.33h-3.41s-.1-.92,.13-1.35c0,0,.2-.41,.84-.28v-.38s0-.03-.05-.03c0,0-.05,.03-.05-.03l.66-.61,.03,1.6h.41v-1.93l.53-.48v2.42h.38v-2.72Zm-1.07-.25s.2,.15,.36,.15c0,0,.1-.03,.2-.25,0,0-.03-.08,.05-.05,0,0,.13,.18,0,.38,0,0-.13,.18-.41,.08l-.08-.03s-.1-.05-.18,0c0,0-.1,.13-.31,.13,0,0-.23,0-.41-.15,0,0-.05-.05-.05-.08l.1,.03s.33,.13,.53-.05c0,0,.1-.1,.18-.15h0Zm-4.02,3.05s.2,.05,.38-.05c0,0,.18-.15,.2-.18,0,0,.03,.28,.15,.61,0,0,.18,.43,.18,.61h-1.5v-4.48s.08,.05,.41,.23c0,0,.2,.15,.38,.18,0,0-.03,.05-.15,.2,0,0-.03,.05-.05,.13v2.75Zm-2.98-3.46s0,.1,.13,.28c0,0,.13,.2,.23,.23,0,0-.03,.03-.18,.05,0,0-.03,0-.08,.03-.03,.03-2.14,2.19-2.14,2.19l2.44-.05s-.05-.38,.48-.61c0,0,.25-.08,.36-.15,0,0,.1,.13,.33,.25,0,0,.38,.18,.36,.53v1.71h-6.82s-.2,.97-1.27,.76c0,0,.76-.31,.71-.79,0,0,.03-.53-.43-1.22,0,0,.46-.18,.71-.38,0,0-.23,.53,.41,.61,0,0,.38,.08,.87,.03,0,0,.08-.56-.18-.59,0,0,.33-.13,.69-.46v.99l4.71-.03,.03-.46s0-.33-.18-.33c0,0-.13,0-.13,.31,0,0,.03,.31-.05,.33h-3.67v-.64l2.67-2.6Zm-4.07,4.76c.13,0,.23,.08,.23,.2,0,.1-.1,.2-.23,.2-.1,0-.2-.1-.2-.2,0-.13,.1-.2,.2-.2h0Zm13.19-4.79s.13,.05,.38,.23c0,0,.25,.15,.41,.18,0,0,.03,.03-.13,.18,0,0-.03,.03-.05,.13v2.77s.23,.08,.41-.08c0,0,.15-.15,.18-.15,0,0,.03,.31,.2,.71,0,0,.13,.33,.1,.51h-1.5v-4.48Z"/>
</svg>