<?xml version="1.0" encoding="UTF-8"?>
<svg id="Layer_1" data-name="Layer 1" xmlns="http://www.w3.org/2000/svg" viewBox="0 0 30 30">
  <defs>
    <style>
      .cls-1 {
        fill: #468e3f;
      }

      .cls-1, .cls-2, .cls-3 {
        fill-rule: evenodd;
      }

      .cls-2 {
        fill: #f4df0c;
      }

      .cls-3 {
        fill: #242121;
      }
    </style>
  </defs>
  <path class="cls-2" d="M14.69,29.31h.48c7.56-.13,13.72-6.29,13.85-13.87v-.38c-.13-7.59-6.29-13.77-13.85-13.87h-.46C7.15,1.29,.99,7.47,.86,15.03v.43c.13,7.56,6.29,13.72,13.82,13.85h0Z"/>
  <path class="cls-3" d="M18.73,15.26l8.88-6.11c.87,1.78,1.35,3.79,1.4,5.91v.38c-.05,2.11-.53,4.12-1.4,5.91l-8.88-6.08ZM2.26,21.34c-.87-1.78-1.37-3.77-1.4-5.88v-.43c.03-2.11,.53-4.1,1.4-5.88l8.86,6.11L2.26,21.34Z"/>
  <path class="cls-1" d="M14.94,12.61l10.21-7.03c-2.52-2.67-6.06-4.35-9.98-4.4h-.46c-3.92,.05-7.46,1.73-9.98,4.4l10.21,7.03Zm10.21,12.29c-2.52,2.65-6.06,4.35-9.98,4.4h-.48c-3.89-.05-7.43-1.76-9.95-4.4l10.21-7.03,10.21,7.03Z"/>
</svg>