<?xml version="1.0" encoding="UTF-8"?>
<svg id="Layer_1" data-name="Layer 1" xmlns="http://www.w3.org/2000/svg" viewBox="0 0 30 30">
  <defs>
    <style>
      .cls-1 {
        fill: #fdfdfd;
      }

      .cls-1, .cls-2, .cls-3, .cls-4 {
        fill-rule: evenodd;
      }

      .cls-2 {
        fill: #232121;
      }

      .cls-3 {
        fill: #b3282b;
      }

      .cls-4 {
        fill: #2d6e3a;
      }
    </style>
  </defs>
  <path class="cls-2" d="M2,9.67H27.79C25.63,4.78,20.76,1.32,15.11,1.22h-.43c-5.65,.1-10.51,3.56-12.68,8.45h0Z"/>
  <path class="cls-3" d="M1.47,19.52H28.32c.41-1.27,.64-2.62,.64-4v-.46c0-1.37-.23-2.72-.64-4H1.47c-.38,1.27-.61,2.62-.64,4.02v.41c.03,1.4,.25,2.75,.64,4.02h0Z"/>
  <path class="cls-4" d="M14.68,29.37h.43c5.65-.1,10.51-3.56,12.68-8.45H2c2.16,4.89,7.03,8.35,12.68,8.45h0Z"/>
  <path class="cls-1" d="M1.47,11.07H28.32c-.15-.48-.33-.94-.53-1.4H2c-.2,.46-.38,.92-.53,1.4h0Z"/>
  <path class="cls-1" d="M2,20.92H27.79c.2-.46,.38-.92,.53-1.4H1.47c.15,.48,.33,.94,.53,1.4h0Z"/>
  <path class="cls-1" d="M9.23,6.11c.23,.03,2.88,2.85,2.49,3.95l8.2,14.23-.33,.23L11.42,10.23c-.92-.23-1.99-2.9-2.19-4.12h0Z"/>
  <path class="cls-1" d="M20.56,6.11c-.2,.03-2.85,2.85-2.47,3.95l-8.22,14.23,.33,.23,8.2-14.28c.92-.23,1.96-2.9,2.16-4.12h0Z"/>
  <path class="cls-3" d="M14.91,24.38c-.97,.03-2.44-2.37-2.88-3.28-.46-.92-1.37-3.08-1.32-5.17-.05-2.06,.87-4.25,1.32-5.17,.43-.89,1.91-3.31,2.88-3.28,.97-.03,2.44,2.39,2.88,3.28,.46,.92,1.37,3.11,1.32,5.17,.05,2.09-.87,4.25-1.32,5.17-.43,.92-1.91,3.31-2.88,3.28h0Z"/>
  <path class="cls-2" d="M18.24,11.78c.43,1.09,.89,2.65,.87,4.15,.03,1.5-.43,3.05-.87,4.15-.43-1.09-.92-2.65-.87-4.15-.05-1.5,.43-3.05,.87-4.15h0Z"/>
  <path class="cls-2" d="M11.57,20.08c-.43-1.09-.89-2.65-.87-4.15-.03-1.5,.43-3.05,.87-4.15,.43,1.09,.89,2.65,.87,4.15,.03,1.5-.43,3.05-.87,4.15h0Z"/>
  <path class="cls-1" d="M15.09,7.53v7.38c.38-.99,.71-2.09,.69-3.69,0-1.27-.23-2.49-.69-3.69h0Z"/>
  <path class="cls-1" d="M15.09,16.98v7.38c.38-.99,.71-2.06,.69-3.69,0-1.25-.23-2.47-.69-3.69h0Z"/>
  <path class="cls-1" d="M14.73,7.53v7.38c-.38-.99-.71-2.09-.71-3.69,0-1.27,.23-2.49,.71-3.69h0Z"/>
  <path class="cls-1" d="M14.73,16.98v7.38c-.38-.99-.71-2.06-.71-3.69,0-1.25,.23-2.47,.71-3.69h0Z"/>
  <path class="cls-1" d="M14.91,17c.38,0,.71-.48,.71-1.07s-.33-1.04-.71-1.04-.71,.48-.71,1.04,.33,1.07,.71,1.07h0Z"/>
</svg>