<?xml version="1.0" encoding="UTF-8"?>
<svg id="Layer_1" data-name="Layer 1" xmlns="http://www.w3.org/2000/svg" viewBox="0 0 30 30">
  <defs>
    <style>
      .cls-1 {
        fill: #fefefe;
      }

      .cls-1, .cls-2 {
        fill-rule: evenodd;
      }

      .cls-2 {
        fill: #900d11;
      }
    </style>
  </defs>
  <path class="cls-2" d="M.86,12.5H28.45C27.15,6.16,21.58,1.35,14.91,1.22h-.48C7.73,1.35,2.15,6.16,.86,12.5H.86Z"/>
  <path class="cls-2" d="M14.42,29.37h.46c6.67-.1,12.27-4.94,13.57-11.28H.86c1.3,6.34,6.9,11.17,13.57,11.28h0Z"/>
  <path class="cls-1" d="M.86,18.1H28.45c.18-.84,.25-1.71,.28-2.6v-.41c-.03-.89-.1-1.76-.28-2.6H.86c-.15,.84-.25,1.71-.28,2.57v.46c.03,.87,.13,1.73,.28,2.57H.86Z"/>
</svg>