<?xml version="1.0" encoding="UTF-8"?>
<svg id="Layer_1" data-name="Layer 1" xmlns="http://www.w3.org/2000/svg" viewBox="0 0 30 30">
  <defs>
    <style>
      .cls-1 {
        fill: #389e41;
      }

      .cls-1, .cls-2, .cls-3 {
        fill-rule: evenodd;
      }

      .cls-2 {
        fill: #e23b33;
      }

      .cls-3 {
        fill: #fefefe;
      }
    </style>
  </defs>
  <path class="cls-2" d="M3,8.27H27.36c-2.42-4.15-6.85-6.95-11.94-7.05h-.48c-5.09,.1-9.52,2.9-11.94,7.05h0Z"/>
  <path class="cls-3" d="M3,22.32H27.36c1.17-2.01,1.86-4.35,1.88-6.82v-.41c-.03-2.47-.71-4.81-1.88-6.82H3c-1.17,2.01-1.86,4.33-1.88,6.8v.46c.03,2.47,.71,4.79,1.88,6.8h0Z"/>
  <path class="cls-2" d="M14.97,29.37h.43c5.09-.08,9.55-2.9,11.96-7.05H3c2.42,4.15,6.87,6.97,11.96,7.05h0Z"/>
  <path class="cls-1" d="M18.79,16.82s.31-.28,.46-.28c0,0,.13,0,.33,.2,0,0,.08,.05,.05,.13,0,0-.08,.13-.25,.28,0,0-.1,.15-.18,.15l-.38-.08s-.2-.03-.23-.15c0,0,0-.1,.2-.25h0Zm-1.22-.41s.41-.23,.69-.08c0,0,.28,.15-.1,.46,0,0-.33,.25-.69,.08,0,0-.18-.08-.23-.18-.03-.13,.33-.28,.33-.28h0Zm-2.83,.66s.36-.03,.59,.13c0,0-.18,.36-.41,.61,0,0-.25-.74-.18-.74h0Zm-.79,.33s-.1-.15-.05-.18c0,0,.2-.05,.33,.13,0,0,.08,.08,.03,.31,0,0-.03,.13-.15,.03,0,0-.1-.08-.15-.28h0Zm-1.02-.43s.03-.05,.1-.03c0,0,.25-.03,.33,.18,0,0,.13,.28,.03,.56,0,0-.05,.2-.18,.1,0,0-.15-.05-.23-.46,0,0-.1-.31-.05-.36h0Zm2.9-1.71s-.03-.23,.1-.2c0,0,.13,0,.15,.25,0,0,.03,.2-.1,.18,0,0-.13,0-.15-.23h0Zm-.69-.38s.1-.28,.23-.18c0,0,.25,.28,.25,.59,0,0,.03,.23-.2,.13,0,0-.25-.08-.33-.28,0,0-.03-.08,.05-.25h0Zm-.66-.18v-.03s-.03-.18,.13-.2c0,0,.18-.05,.18,.13,0,0,0,.25-.15,.31,0,0-.1,.03-.15-.2h0Zm-.97,0s.03-.15,.28,.03c0,0,.25,.15,.2,.28,0,0-.08,.15-.33-.05,0,0-.2-.15-.15-.25h0Zm-1.99,.76s.59-.08,.89-.03c0,0,.25,.05,.28,.15,0,0,.03,.15-.43,.36,0,0-.33,.15-.66,.18,0,0-.15,.08-.28-.18l-.13-.33s-.1-.13,.33-.15h0Zm1.37-2.49s.2-.1,.48-.03c0,0,.18,.03,.08,.18,0,0-.1,.18-.33,.36,0,0-.13,.15-.18,0,0,0-.08-.1-.15-.31,0,0-.03-.15,.1-.2h0Zm-.18,.71l-.36,.1s-.15,.1-.28-.08c0,0-.18-.23-.23-.38,0,0-.08-.2,.15-.23,0,0,.33-.1,.48,.15l.23,.43Zm4.94,.43s.18-.25,.46-.08c0,0,.23,.13,.05,.41,0,0-.15,.18-.43,0,0,0-.25-.1-.08-.33h0Zm-1.17-1.09s.18-.28,.61-.13c0,0,.33,.05,.2,.38,0,0-.03,.25-.31,.2,0,0-.36-.05-.48-.13,0,0-.23-.05-.03-.33h0Zm-.84-.15s.23-.38,.38-.25c0,0,.13,.15,0,.38,0,0-.08,.1-.31,.1,0,0-.13,.03-.15-.05,0,0,0-.05,.08-.18h0Zm-1.07,0s.56-.33,.69-.2c0,0,.28,.15-.23,.33l-.46-.13Zm1.71-1.45s0-.18,.28-.2c0,0,.25-.05,.2,.18,0,0-.03,.23-.23,.28,0,0-.38,.1-.25-.25h0Zm-.61-.25s.2-.05,.31,.13c0,0,.08,.18-.1,.2,0,0-.31,.03-.36-.05,0,0-.08-.08,.03-.2,0,0,0-.05,.13-.08h0Zm-.89,.15s.31-.18,.41-.08c0,0,.08,.1,0,.31,0,0-.03,.13-.31,.18,0,0-.28,.08-.46,.08,0,0-.1,0-.08-.15,0,0,0-.15,.43-.33h0Zm-1.27,.64s.36-.33,.56-.25c0,0,.15,.08-.1,.41,0,0-.1,.2-.43,.31,0,0-.31,.1-.31-.03,0,0,0-.15,.28-.43h0Zm-.28-.81c0-.13,.03-.2,.15-.2,.08-.03,.23-.03,.28,.05,0,0,.03,.08-.15,.23,0,0-.15,.13-.2,.15-.08,.05-.08-.18-.08-.23h0Zm1.76-2.88s.28,1.04,1.12,1.37c0,0,.94,.15,1.27,.38,.33,.2,.41,.28,1.25,.92,0,0-.94-.08-.94,.03,0,0,.46,.59,1.55,.99,0,0-.81,.05-1.17-.13,0,0-.59-.33-.81,0,0,0-.08,.18,.36,.33,0,0,.41,.2,1.02,.81,0,0,.59,.53,1.27,.87,0,0,.76,.38,.61,.48,0,0-.05,.05-.64-.03,0,0-.97-.23-.99,0,0,0-.08,.2,.41,.31,0,0,.66,.15,1.17,.31,0,0,.59,.18,.56,.31,0,0,0,.13-.74,.15,0,0-1.4,0-1.4,.28,0,0-.08,.15,.43,.15,0,0,.48-.05,.92,.43,0,0,.48,.56,1.48,1.27,0,0-.43,.1-.56,.08,0,0-.31-.08-.76-.36,0,0-.25-.2-.51,0,0,0-.25,.13-.31,.23,0,0-.18,.18,.46,.53,0,0,.99,.51,1.71,1.02,0,0,.46,.33,.46,.59,0,0,0,.23-.28,.2,0,0-.23-.03-.53-.25,0,0-.41-.31-.79-.51,0,0-.28-.2-.56-.2,0,0-.28-.03-.71,0,0,0-.89,0-1.15-.05,0,0-.23-.03-.71-.28,0,0-.38-.25-.59-.03,0,0-.31,.13-.28,.74,0,0-.15,1.17,.41,1.73,0,0,.33,.38,1.02,.92,0,0,.23,.2,.31,.31,0,0,.13,.08-.05,.15,0,0-.2,.1-.43-.15l-.36-.41s-.15-.18-.46-.2c0,0-.61-.1-.89-.08,0,0-.13-.05-.05,.15,0,0,.03,.08,.15,.28,0,0,.1,.2-.03,.18,0,0-.1-.03-.28-.2,0,0-.25-.25-.53-.41,0,0-.23-.15-.25-.33,0,0,.03-.2-.15-.23,0,0-.1-.03-.33,.05,0,0-.2,.1-.43-.03,0,0-.25-.2-.64,.05,0,0-.1,.03-.33,.23,0,0-.36,.33-.76,.46,0,0-.23,.1-.66,.13,0,0-.48,.03-.76,.33,0,0-.1,.13-.18,.18,0,0-.13,.05-.15-.03,0,0-.03-.13,.31-.41,0,0,.23-.23,.69-.33,0,0,.84-.08,1.58-1.65,0,0,.41-.79-.28-1.15,0,0-.28-.36-1.04,.08,0,0-1.65,.81-2.27,.76,0,0-.69,.05-.76-.23,0,0-.05-.1,.18-.18,0,0,1.6-.46,1.93-.69,0,0,.66-.31,.56-.61,0,0-.31-.43-.94,0,0,0-.66,.48-1.78,.74,0,0-.51,.15-.74-.28,0,0-.03-.05,.08-.03,0,0,.25,.08,.41-.03,0,0,.33-.18,.59-.48,0,0,.69-.69,1.4-1.02,0,0,.48-.18,.46-.46,0,0,0-.31-.28-.48,0,0-.1-.1-.38,.13,0,0-.64,.48-.92,.36,0,0-.31-.13-.31-.25h.05s.13-.03,.23-.15c0,0,.43-.41,.69-.66,0,0,.33-.31,.69-.38,0,0,.38-.03,.76-.61,0,0,.31-.31,.08-.59,0,0-.08-.41-.46-.18,0,0-.61,.2-.87,.08,0,0-.18-.08,.08-.25,0,0,.53-.43,1.22-.76,0,0,.31-.1,.38-.38,0,0,.13-.38,.69-.51,0,0,.33,.05,.28-.18,0,0-.05-.31-.33-.23,0,0-.33,.08-.31-.05,0,0,0-.1,.46-.41,0,0,.66-.25,.81-.46,0,0,.41-.31,.2-.36,0,0-.05-.03-.2,.05,0,0-.33,.15-.46,.15,0,0,.28-.43,1.09-1.04,0,0,.43-.31,.69-.89h0Z"/>
</svg>