<?xml version="1.0" encoding="UTF-8"?>
<svg id="Layer_1" data-name="Layer 1" xmlns="http://www.w3.org/2000/svg" viewBox="0 0 30 30">
  <defs>
    <style>
      .cls-1 {
        fill: #fefefe;
      }

      .cls-1, .cls-2, .cls-3, .cls-4 {
        fill-rule: evenodd;
      }

      .cls-2 {
        fill: #339544;
      }

      .cls-3 {
        fill: #2e3289;
      }

      .cls-4 {
        fill: #242121;
      }
    </style>
  </defs>
  <path class="cls-3" d="M2.09,9.67H27.85C25.72,4.78,20.85,1.32,15.2,1.22h-.46c-5.65,.1-10.51,3.56-12.65,8.45h0Z"/>
  <path class="cls-2" d="M27.85,20.92H2.09c2.14,4.89,7,8.35,12.65,8.45h.46c5.65-.1,10.51-3.56,12.65-8.45h0Z"/>
  <path class="cls-1" d="M2.09,20.92H27.85c.74-1.65,1.17-3.49,1.2-5.42v-.41c-.03-1.93-.46-3.77-1.2-5.42H2.09c-.74,1.65-1.17,3.49-1.2,5.4v.46c.03,1.91,.46,3.74,1.2,5.4h0Z"/>
  <path class="cls-4" d="M18.61,18.63l.18,.41-.41,.15-.03-.2,.25-.36Zm-.81-.2l.56-.23,.13,.18-.33,.48-.36-.43Zm-.1,.53l.31,.43-.66,.15-.13-.23,.48-.36Zm-.92-.2l.64-.2,.18,.18-.51,.41-.31-.38Zm-.81,.76l.61-.31,.36,.43-.79,.13-.18-.25Zm-.38-.64l.71-.08,.15,.23-.59,.28-.28-.43Zm-.99,.69l.74-.25,.36,.51-.94,.05-.15-.31Zm-.43-.71l.97,.05,.08,.2-.76,.28-.28-.53Zm-.79,.64l.53-.18,.36,.51-.81-.1-.08-.23Zm-.36-.81l.61,.13,.15,.28-.53,.2-.23-.61Zm-.28,.38l-.51,.15,.08,.25,.71,.2-.28-.61Zm-.84-.69l.61,.18,.15,.28-.53,.18-.23-.64Zm-.61,.74l.43-.15,.08,.36-.51-.2Zm.18-.76l.15,.43-.41,.1,.25-.53Zm3.16-7.66s-1.25,.05-1.17,1.93c0,0,.03,.74,.56,1.96l.43-.59,.03-1.12h-.48l.64-.64v-1.55Zm.64,0s1.25,.05,1.17,1.93c0,0-.03,.74-.56,1.96l-.41-.59-.05-1.12h.51l-.66-.64v-1.55Zm-.66-.31s.25-.43,.66-.05v.15s.79,.08,1.12,.74c0,0,.46,.81,.2,1.93,0,0-.13,.64-.53,1.6l2.29,3.05,.36-.15,.79,1.55s-1.37,1.12-4.58,1.2c0,0-2.19,.1-4.43-1.09l.74-1.63,.43,.15,2.24-3.03s-.64-1.3-.66-2.39c0,0-.05-1.71,1.4-1.93l-.03-.1h0Z"/>
</svg>