<?xml version="1.0" encoding="UTF-8"?>
<svg id="Layer_1" data-name="Layer 1" xmlns="http://www.w3.org/2000/svg" viewBox="0 0 30 30">
  <defs>
    <style>
      .cls-1 {
        fill: #293469;
      }

      .cls-1, .cls-2, .cls-3 {
        fill-rule: evenodd;
      }

      .cls-2 {
        fill: #b4283c;
      }

      .cls-3 {
        fill: #fefefe;
      }
    </style>
  </defs>
  <path class="cls-2" d="M6.68,3.79H22.85c-2.24-1.58-4.94-2.52-7.87-2.57h-.43c-2.93,.05-5.63,.99-7.87,2.57h0Z"/>
  <path class="cls-3" d="M3.93,6.34H25.59c-.79-.97-1.73-1.83-2.75-2.55H6.68c-1.02,.71-1.96,1.58-2.75,2.55h0Z"/>
  <path class="cls-2" d="M2.23,8.91H27.27c-.46-.92-1.02-1.78-1.68-2.57H3.93c-.66,.79-1.22,1.65-1.71,2.57h0Z"/>
  <path class="cls-3" d="M1.23,11.45H28.29c-.25-.89-.59-1.73-1.02-2.55H2.23c-.41,.81-.74,1.65-.99,2.55h0Z"/>
  <path class="cls-2" d="M.75,14.02H28.78c-.08-.89-.23-1.73-.48-2.57H1.23c-.25,.84-.41,1.68-.48,2.57H.75Z"/>
  <path class="cls-3" d="M.75,16.57H28.78c.03-.36,.05-.71,.05-1.07v-.41c0-.36-.03-.71-.05-1.07H.75c-.03,.33-.05,.69-.05,1.04v.46c0,.36,.03,.71,.05,1.04H.75Z"/>
  <path class="cls-2" d="M1.23,19.14H28.29c.25-.84,.41-1.68,.48-2.57H.75c.08,.89,.23,1.73,.48,2.57h0Z"/>
  <path class="cls-3" d="M2.23,21.69H27.27c.43-.81,.76-1.65,1.02-2.55H1.23c.25,.89,.59,1.73,.99,2.55h0Z"/>
  <path class="cls-2" d="M3.93,24.26H25.59c.66-.79,1.22-1.65,1.68-2.57H2.23c.48,.92,1.04,1.78,1.71,2.57h0Z"/>
  <path class="cls-3" d="M6.68,26.8H22.85c1.02-.71,1.96-1.58,2.75-2.55H3.93c.79,.97,1.73,1.83,2.75,2.55h0Z"/>
  <path class="cls-2" d="M22.85,26.8H6.68c2.24,1.58,4.94,2.52,7.87,2.57h.43c2.93-.05,5.63-.99,7.87-2.57h0Z"/>
  <path class="cls-1" d="M.75,14.02H13.45V1.3C6.73,1.91,1.36,7.3,.75,14.02H.75Z"/>
  <path class="cls-3" d="M6.22,6.44l.84-2.65,.87,2.65h2.8l-2.27,1.65,.87,2.65-2.27-1.65-2.24,1.65,.87-2.65-1.99-1.45c.05-.08,.1-.13,.15-.2h2.37Z"/>
</svg>