<?xml version="1.0" encoding="UTF-8"?>
<svg id="Layer_1" data-name="Layer 1" xmlns="http://www.w3.org/2000/svg" viewBox="0 0 30 30">
  <defs>
    <style>
      .cls-1 {
        fill: #2d704a;
      }

      .cls-1, .cls-2, .cls-3 {
        fill-rule: evenodd;
      }

      .cls-2 {
        fill: #f1be16;
      }

      .cls-3 {
        fill: #b6283a;
      }
    </style>
  </defs>
  <path class="cls-2" d="M1.62,10.61H28.14C26.23,5.22,21.12,1.32,15.13,1.22h-.48c-6.01,.1-11.1,4-13.03,9.39h0Z"/>
  <path class="cls-1" d="M1.62,19.98H28.14c.51-1.4,.79-2.9,.81-4.48v-.41c-.03-1.58-.31-3.08-.81-4.48H1.62c-.48,1.4-.76,2.9-.79,4.45v.46c.03,1.55,.31,3.05,.79,4.45h0Z"/>
  <path class="cls-3" d="M14.68,29.37h.43c6.01-.1,11.12-4,13.03-9.39H1.62c1.93,5.4,7.05,9.29,13.06,9.39h0Z"/>
</svg>