<?xml version="1.0" encoding="UTF-8"?>
<svg id="Layer_1" data-name="Layer 1" xmlns="http://www.w3.org/2000/svg" viewBox="0 0 30 30">
  <defs>
    <style>
      .cls-1 {
        fill: #c6282d;
      }

      .cls-1, .cls-2 {
        fill-rule: evenodd;
      }

      .cls-2 {
        fill: #f8eb02;
      }
    </style>
  </defs>
  <path class="cls-1" d="M14.74,29.47h.46c7.56-.13,13.72-6.31,13.85-13.87v-.41c-.13-7.56-6.29-13.75-13.85-13.87h-.46C7.18,1.44,1.02,7.6,.9,15.16v.46c.13,7.56,6.29,13.72,13.85,13.85h0Z"/>
  <path class="cls-2" d="M2.83,8.29l12.14,7.1L1,17.02c-.05-.46-.08-.94-.1-1.4v-.46c.03-.46,.05-.94,.1-1.4l13.97,1.63L4.18,24.4c-.48-.59-.94-1.25-1.35-1.91l12.14-7.1,2.37,13.87c-.69,.13-1.43,.18-2.14,.2h-.46c-.71-.03-1.45-.08-2.14-.2l2.37-13.87,12.14,7.1c-.41,.66-.87,1.3-1.35,1.91L14.97,15.39l13.97,1.63c.05-.46,.08-.94,.1-1.43v-.41c-.03-.48-.05-.97-.1-1.43l-13.97,1.63L25.77,6.38c.48,.61,.94,1.25,1.35,1.91l-12.14,7.1L12.61,1.52c.69-.13,1.43-.18,2.14-.2h.46c.71,.03,1.45,.08,2.14,.2l-2.37,13.87L4.18,6.38c-.48,.59-.94,1.25-1.35,1.91h0Z"/>
  <path class="cls-1" d="M14.97,20.41c2.75,0,4.99-2.27,4.99-5.01s-2.24-5.01-4.99-5.01-4.99,2.24-4.99,5.01,2.24,5.01,4.99,5.01h0Z"/>
  <path class="cls-2" d="M14.97,19.41c2.21,0,4-1.81,4-4.02s-1.78-4.02-4-4.02-4.02,1.81-4.02,4.02,1.81,4.02,4.02,4.02h0Z"/>
</svg>