<?xml version="1.0" encoding="UTF-8"?>
<svg id="Layer_1" data-name="Layer 1" xmlns="http://www.w3.org/2000/svg" viewBox="0 0 30 30">
  <defs>
    <style>
      .cls-1 {
        fill: #313c90;
      }

      .cls-1, .cls-2, .cls-3, .cls-4 {
        fill-rule: evenodd;
      }

      .cls-2 {
        fill: #f5d616;
      }

      .cls-3 {
        fill: #fefefe;
      }

      .cls-4 {
        fill: #d82534;
      }
    </style>
  </defs>
  <path class="cls-4" d="M7.26,3.29h14.46c-2.06-1.25-4.45-1.99-7.03-2.01h-.43c-2.55,.03-4.96,.76-7,2.01h0Z"/>
  <path class="cls-3" d="M4.66,5.3H24.31c-.79-.76-1.65-1.45-2.6-2.01H7.26c-.94,.56-1.83,1.25-2.6,2.01h0Z"/>
  <path class="cls-4" d="M2.96,7.31H26.02c-.51-.74-1.09-1.4-1.71-2.01H4.66c-.64,.61-1.2,1.27-1.71,2.01h0Z"/>
  <path class="cls-3" d="M1.79,9.32H27.19c-.33-.71-.74-1.4-1.17-2.01H2.96c-.46,.61-.84,1.3-1.17,2.01h0Z"/>
  <path class="cls-4" d="M1,11.33H27.95c-.2-.71-.46-1.37-.76-2.01H1.79c-.33,.64-.59,1.3-.79,2.01H1Z"/>
  <path class="cls-3" d="M.54,13.35H28.41c-.1-.69-.25-1.37-.46-2.01H1c-.2,.64-.36,1.32-.46,2.01H.54Z"/>
  <path class="cls-4" d="M.41,15.36H28.54v-.23c0-.61-.05-1.2-.13-1.78H.54c-.08,.59-.13,1.2-.13,1.81v.2Z"/>
  <path class="cls-3" d="M.54,17.34H28.41c.08-.59,.13-1.17,.13-1.78v-.2H.41v.18c0,.61,.05,1.22,.13,1.81H.54Z"/>
  <path class="cls-4" d="M1,19.35H27.95c.2-.64,.36-1.32,.46-2.01H.54c.1,.69,.25,1.37,.46,2.01H1Z"/>
  <path class="cls-3" d="M1.79,21.36H27.19c.31-.64,.56-1.3,.76-2.01H1c.2,.71,.46,1.37,.79,2.01h0Z"/>
  <path class="cls-4" d="M2.96,23.37H26.02c.43-.61,.84-1.3,1.17-2.01H1.79c.33,.71,.71,1.4,1.17,2.01h0Z"/>
  <path class="cls-3" d="M4.66,25.39H24.29c.64-.61,1.22-1.27,1.73-2.01H2.96c.51,.74,1.07,1.4,1.71,2.01h0Z"/>
  <path class="cls-4" d="M7.26,27.4h14.46c.94-.56,1.81-1.25,2.57-2.01H4.66c.79,.76,1.65,1.45,2.6,2.01h0Z"/>
  <path class="cls-3" d="M14.26,29.41h.43c2.57-.03,4.96-.76,7.03-2.01H7.26c2.04,1.25,4.45,1.99,7,2.01h0Z"/>
  <path class="cls-1" d="M.54,17.34H19.58V2.25c-1.5-.61-3.16-.94-4.89-.97h-.43C6.67,1.38,.51,7.57,.41,15.15v.38c0,.61,.05,1.22,.13,1.81H.54Z"/>
  <path class="cls-2" d="M7.23,3.29c1.48,.03,2.8,.56,3.82,1.45-.79-.46-1.71-.71-2.67-.71-2.9,0-5.27,2.37-5.27,5.29s2.37,5.27,5.27,5.27c.97,0,1.88-.25,2.67-.71-1.07,.92-2.42,1.48-3.92,1.48-2.9,0-5.32-2.06-5.88-4.81,1.12-3.03,3.26-5.6,5.98-7.25h0Z"/>
  <polygon class="cls-2" points="11.99 7.75 11.08 4.79 12.81 7.34 13.24 4.28 13.7 7.34 15.43 4.79 14.51 7.75 17.16 6.19 15.07 8.43 18.13 8.2 15.25 9.32 18.13 10.44 15.07 10.19 17.16 12.45 14.51 10.88 15.43 13.83 13.73 11.33 13.24 14.34 12.81 11.26 11.08 13.83 11.99 10.88 9.32 12.45 11.43 10.19 8.35 10.44 11.26 9.32 8.35 8.2 11.43 8.43 9.32 6.19 11.99 7.75"/>
</svg>