<?xml version="1.0" encoding="UTF-8"?>
<svg id="Layer_1" data-name="Layer 1" xmlns="http://www.w3.org/2000/svg" viewBox="0 0 30 30">
  <defs>
    <style>
      .cls-1 {
        fill: #c12837;
      }

      .cls-1, .cls-2, .cls-3 {
        fill-rule: evenodd;
      }

      .cls-2 {
        fill: #4a9e40;
      }

      .cls-3 {
        fill: #242121;
      }
    </style>
  </defs>
  <path class="cls-3" d="M1.42,10.65H27.95C26.04,5.28,20.92,1.38,14.94,1.28h-.48c-6.01,.1-11.12,4-13.03,9.37h0Z"/>
  <path class="cls-1" d="M1.42,20.04H27.95c.51-1.4,.79-2.9,.81-4.48v-.43c-.03-1.58-.31-3.08-.81-4.48H1.42c-.51,1.43-.79,2.93-.81,4.51v.38c.03,1.58,.31,3.08,.81,4.51h0Z"/>
  <path class="cls-2" d="M14.46,29.41h.46c6.01-.08,11.12-4,13.03-9.37H1.42c1.93,5.37,7.05,9.29,13.03,9.37h0Z"/>
  <path class="cls-1" d="M6.06,9.96c-.28-.08-.64-.23-.59-.46,0,0,.05-.33,.94-.03,.38,.13,.79,.31,1.17,.48h-1.53Zm4.3-3.16c-.48-.41-1.02-.84-1.45-1.27-.18-.2-.59-.69-.36-.89,0,0,.23-.25,.79,.51,.36,.51,.74,1.09,1.02,1.65h0Zm-1.2,1.3c-.56-.25-1.17-.53-1.71-.87-.23-.13-.76-.51-.61-.76,0,0,.18-.28,.92,.28,.48,.41,.99,.87,1.4,1.35h0Zm3.21-2.47c-.31-.56-.64-1.15-.89-1.71-.1-.25-.36-.84-.05-.94,0,0,.31-.18,.56,.74,.18,.61,.33,1.27,.38,1.91h0Zm-4.02,4.05c-.61-.1-1.27-.23-1.88-.41-.25-.08-.87-.28-.76-.56,0,0,.08-.33,.94,.05,.59,.23,1.2,.56,1.71,.92h0Zm2.47-3.23c-.46-.43-.94-.92-1.32-1.4-.15-.2-.53-.74-.28-.92,0,0,.23-.23,.74,.59,.33,.53,.64,1.15,.87,1.73h0Zm-1.3,1.2c-.53-.31-1.12-.66-1.63-1.02-.2-.15-.71-.56-.51-.79,0,0,.18-.31,.87,.36,.46,.43,.92,.94,1.27,1.45h0Zm3.41-2.19c-.28-.56-.56-1.17-.74-1.78-.1-.23-.28-.87,.03-.94,0,0,.31-.13,.51,.81,.1,.61,.2,1.27,.2,1.91h0Zm-4.35,3.67c-.61-.15-1.27-.33-1.83-.56-.25-.1-.84-.36-.71-.64,0,0,.1-.33,.94,.13,.53,.31,1.12,.66,1.6,1.07h0Zm2.72-3c-.41-.46-.81-.99-1.17-1.5-.15-.23-.48-.79-.23-.92,0,0,.28-.23,.69,.64,.28,.56,.56,1.2,.71,1.78h0Zm-1.37,1.09c-.53-.36-1.07-.74-1.55-1.17-.18-.15-.66-.61-.43-.84,0,0,.2-.25,.81,.46,.43,.46,.84,.99,1.17,1.55h0Zm3.59-1.88c-.23-.59-.46-1.22-.61-1.83-.05-.25-.18-.89,.13-.94,0,0,.33-.1,.41,.84,.1,.61,.1,1.3,.08,1.93h0Zm-4.66,3.26c-.59-.2-1.22-.43-1.78-.71-.23-.1-.81-.41-.66-.69,0,0,.13-.31,.92,.2,.53,.36,1.07,.76,1.53,1.2h0Zm2.98-2.75c-.36-.48-.76-1.04-1.07-1.6-.1-.23-.41-.81-.13-.94,0,0,.31-.18,.64,.71,.23,.59,.43,1.22,.56,1.83h0Zm2.27-.59c-.18-.61-.36-1.25-.43-1.88-.05-.25-.13-.89,.18-.92,0,0,.33-.08,.36,.87,.03,.64,0,1.32-.1,1.93h0Zm9.21,4.71c.28-.08,.66-.23,.59-.46,0,0-.05-.33-.94-.03-.38,.13-.79,.31-1.17,.48h1.53Zm-4.3-3.16c.48-.41,1.02-.84,1.45-1.27,.18-.2,.59-.69,.36-.89,0,0-.23-.25-.79,.51-.36,.51-.74,1.09-1.02,1.65h0Zm1.2,1.3c.56-.25,1.17-.53,1.71-.87,.23-.13,.79-.51,.61-.76,0,0-.18-.28-.89,.28-.51,.41-1.02,.87-1.43,1.35h0Zm-3.21-2.47c.31-.56,.66-1.15,.89-1.71,.13-.25,.36-.84,.05-.94,0,0-.31-.18-.56,.74-.18,.61-.33,1.27-.38,1.91h0Zm4.02,4.05c.61-.1,1.27-.23,1.88-.41,.25-.08,.87-.28,.76-.56,0,0-.08-.33-.94,.05-.59,.23-1.2,.56-1.71,.92h0Zm-2.47-3.23c.46-.43,.94-.92,1.32-1.4,.15-.2,.53-.74,.28-.92,0,0-.23-.23-.74,.59-.33,.53-.64,1.15-.87,1.73h0Zm1.3,1.2c.53-.31,1.12-.66,1.63-1.02,.2-.15,.71-.56,.51-.79,0,0-.18-.31-.87,.36-.46,.43-.92,.94-1.27,1.45h0Zm-3.41-2.19c.28-.56,.56-1.17,.74-1.78,.1-.23,.28-.87-.03-.94,0,0-.31-.13-.51,.81-.1,.61-.2,1.27-.2,1.91h0Zm4.35,3.67c.61-.15,1.27-.33,1.83-.56,.25-.1,.84-.36,.71-.64,0,0-.1-.33-.92,.13-.56,.31-1.15,.66-1.63,1.07h0Zm-2.72-3c.41-.46,.84-.99,1.17-1.5,.15-.23,.48-.79,.23-.92,0,0-.28-.23-.69,.64-.28,.56-.56,1.2-.71,1.78h0Zm1.37,1.09c.53-.36,1.07-.74,1.55-1.17,.18-.15,.66-.61,.43-.84,0,0-.2-.25-.81,.46-.43,.46-.84,.99-1.17,1.55h0Zm-3.59-1.88c.23-.59,.46-1.22,.61-1.83,.05-.25,.18-.89-.13-.94,0,0-.31-.1-.41,.84-.08,.61-.1,1.3-.08,1.93h0Zm4.66,3.26c.61-.2,1.22-.43,1.78-.71,.25-.1,.81-.41,.66-.69,0,0-.13-.31-.92,.2-.53,.36-1.07,.76-1.53,1.2h0Zm-2.98-2.75c.36-.48,.76-1.04,1.07-1.6,.1-.23,.41-.81,.13-.94,0,0-.31-.18-.64,.71-.23,.59-.43,1.22-.56,1.83h0Zm-2.27-.59c.18-.61,.36-1.25,.46-1.88,.03-.25,.1-.89-.2-.92,0,0-.33-.08-.36,.87-.03,.64,0,1.32,.1,1.93h0Zm-.59-.03c.13-.61,.25-1.27,.28-1.91,.03-.25,.03-.92-.28-.92,0,0-.33-.05-.28,.92,.05,.61,.13,1.3,.28,1.91h0Zm0,.69c-2.6,0-4.81,1.68-5.68,4.05h11.35c-.87-2.37-3.08-4.05-5.68-4.05h0Z"/>
</svg>