<?xml version="1.0" encoding="UTF-8"?>
<svg id="Layer_1" data-name="Layer 1" xmlns="http://www.w3.org/2000/svg" viewBox="0 0 30 30">
  <defs>
    <style>
      .cls-1 {
        fill: #b6283a;
      }

      .cls-1, .cls-2 {
        fill-rule: evenodd;
      }

      .cls-2 {
        fill: #296b3f;
      }
    </style>
  </defs>
  <path class="cls-1" d="M14.68,29.41h.43c7.59-.1,13.75-6.29,13.85-13.87v-.38c-.1-7.59-6.26-13.77-13.85-13.87h-.43C7.09,1.38,.93,7.57,.83,15.13v.43c.1,7.56,6.26,13.75,13.85,13.85h0Z"/>
  <path class="cls-2" d="M14.9,17.67l1.63-1.25-.64-2.01h-2.01l-.64,2.01,1.65,1.25Zm1.02,.84l1.02-.76,.59,1.96s-1.58-1.22-1.6-1.2h0Zm-3.08-.76l.99,.74-1.58,1.22,.59-1.96Zm4.38-3.33h1.93l-1.58,1.2-.36-1.2Zm-4.66,0h-1.93l1.58,1.2,.36-1.2Zm2.34-3.28l.59,1.96h-1.2l.61-1.96Zm-1.93,1.96l1.93-6.21,1.91,6.21h6.19l-5.07,3.69,1.96,6.36-4.99-3.84-5.01,3.84,1.91-6.21-5.01-3.84h6.19Z"/>
</svg>