<?xml version="1.0" encoding="UTF-8"?>
<svg id="Layer_1" data-name="Layer 1" xmlns="http://www.w3.org/2000/svg" viewBox="0 0 30 30">
  <defs>
    <style>
      .cls-1 {
        fill: #2c377a;
      }

      .cls-1, .cls-2, .cls-3 {
        fill-rule: evenodd;
      }

      .cls-2 {
        fill: #fefefe;
      }

      .cls-3 {
        fill: #f6cc1f;
      }
    </style>
  </defs>
  <path class="cls-1" d="M.88,14.22H28.93c-.61-7.13-6.57-12.78-13.8-12.91h-.48C7.43,1.44,1.47,7.09,.88,14.22H.88Z"/>
  <path class="cls-3" d="M.88,16.56H28.93c.03-.31,.03-.64,.03-.94v-.46c0-.31,0-.64-.03-.94H.88c-.03,.33-.05,.64-.05,.97v.41c0,.33,.03,.64,.05,.97H.88Z"/>
  <path class="cls-1" d="M14.68,29.47h.43c7.25-.13,13.21-5.78,13.82-12.91H.88c.59,7.13,6.54,12.78,13.8,12.91h0Z"/>
  <path class="cls-2" d="M6.25,18.98l.59-2.42,.61,2.42,1.73-1.78-.69,2.39,2.42-.69-1.81,1.73,2.42,.61-2.42,.61,1.81,1.73-2.42-.66,.69,2.39-1.73-1.81-.61,2.44-.59-2.44-1.53,1.58-.13-.13,.59-2.04-1.81,.51c-.05-.08-.13-.15-.18-.23l1.4-1.35-2.42-.61,2.42-.61-1.81-1.73,2.39,.69-.69-2.39,1.76,1.78Z"/>
</svg>