<?xml version="1.0" encoding="UTF-8"?>
<svg id="Layer_1" data-name="Layer 1" xmlns="http://www.w3.org/2000/svg" viewBox="0 0 30 30">
  <defs>
    <style>
      .cls-1 {
        fill: #fff;
      }

      .cls-1, .cls-2, .cls-3, .cls-4 {
        fill-rule: evenodd;
      }

      .cls-2 {
        fill: #c2283a;
      }

      .cls-3 {
        fill: #fefefe;
      }

      .cls-4 {
        fill: #2d3477;
      }
    </style>
  </defs>
  <path class="cls-4" d="M14.81,29.47h.46c7.56-.13,13.72-6.29,13.85-13.85v-.46c-.13-7.56-6.29-13.72-13.82-13.85h-.48C7.25,1.44,1.09,7.63,.96,15.19v.41c.13,7.56,6.29,13.75,13.85,13.87h0Z"/>
  <path class="cls-3" d="M6.39,4.32L11.4,1.8c1.09-.28,2.24-.46,3.41-.48h.23l.03,1.35-5.35,2.67h5.35v4.02h-5.35l5.35,2.67v1.43h-2.55l-7.51-3.74v3.74H1.09c.53-3.69,2.49-6.95,5.29-9.14h0Z"/>
  <path class="cls-2" d="M7.02,9.36h1.81l6.24,3.13v.89L7.02,9.36Zm-5.22,1.25c.61-1.65,1.5-3.16,2.65-4.45H15.07v2.42H4.22v4.89H1.8v-2.85ZM12.93,1.47c.61-.08,1.25-.13,1.88-.15h.23L7.02,5.34h-1.78L12.93,1.47Z"/>
  <polygon class="cls-1" points="18.25 16 19.42 16 18.48 16.69 18.83 17.78 17.89 17.1 16.95 17.78 17.31 16.69 16.36 16 17.53 16 17.89 14.88 18.25 16"/>
  <polygon class="cls-2" points="17.89 15.44 18.12 16.18 18.91 16.18 18.27 16.61 18.5 17.35 17.89 16.89 17.25 17.35 17.51 16.61 16.9 16.18 17.64 16.18 17.89 15.44"/>
  <polygon class="cls-1" points="26.83 14.83 27.87 14.83 27.06 15.44 27.36 16.44 26.52 15.82 25.68 16.44 26.01 15.44 25.17 14.83 26.19 14.83 26.52 13.84 26.83 14.83"/>
  <polygon class="cls-2" points="26.52 14.35 26.72 14.98 27.41 14.98 26.88 15.39 27.08 16.05 26.52 15.65 25.96 16.05 26.19 15.39 25.63 14.98 26.32 14.98 26.52 14.35"/>
  <polygon class="cls-1" points="22.88 11.32 24.05 11.32 23.11 12.01 23.47 13.1 22.52 12.41 21.61 13.1 21.96 12.01 21.02 11.32 22.17 11.32 22.52 10.22 22.88 11.32"/>
  <polygon class="cls-2" points="22.52 10.76 22.78 11.5 23.54 11.5 22.91 11.93 23.16 12.67 22.52 12.21 21.91 12.67 22.14 11.93 21.53 11.5 22.29 11.5 22.52 10.76"/>
  <polygon class="cls-1" points="22.96 23.33 24.23 23.33 23.19 24.1 23.59 25.32 22.55 24.56 21.51 25.32 21.91 24.1 20.84 23.33 22.14 23.33 22.55 22.09 22.96 23.33"/>
  <polygon class="cls-2" points="22.55 22.7 22.8 23.51 23.67 23.51 22.98 24.02 23.24 24.84 22.55 24.33 21.84 24.84 22.12 24.02 21.43 23.51 22.27 23.51 22.55 22.7"/>
</svg>