<?xml version="1.0" encoding="UTF-8"?>
<svg id="Layer_1" data-name="Layer 1" xmlns="http://www.w3.org/2000/svg" viewBox="0 0 30 30">
  <defs>
    <style>
      .cls-1 {
        fill: #2d8953;
      }

      .cls-1, .cls-2 {
        fill-rule: evenodd;
      }

      .cls-2 {
        fill: #fefefe;
      }
    </style>
  </defs>
  <path class="cls-1" d="M9.97,28.65V2.13C4.57,4.04,.68,9.16,.58,15.14v.48c.1,6.01,4,11.12,9.39,13.03h0Z"/>
  <path class="cls-2" d="M14.42,29.47h.46c1.55-.03,3.05-.31,4.45-.81V2.13c-1.4-.51-2.88-.79-4.43-.81h-.48c-1.58,.03-3.05,.31-4.45,.81V28.65c1.4,.51,2.9,.79,4.45,.81h0Z"/>
  <path class="cls-1" d="M28.73,15.62v-.46c-.1-5.98-4-11.12-9.39-13.03V28.65c5.4-1.91,9.29-7.05,9.39-13.03h0Z"/>
</svg>