<?xml version="1.0" encoding="UTF-8"?>
<svg id="Layer_1" data-name="Layer 1" xmlns="http://www.w3.org/2000/svg" viewBox="0 0 30 30">
  <defs>
    <style>
      .cls-1 {
        fill: #d92534;
      }

      .cls-1, .cls-2, .cls-3 {
        fill-rule: evenodd;
      }

      .cls-2 {
        fill: #fefefe;
      }

      .cls-3 {
        fill: #2d4698;
      }
    </style>
  </defs>
  <path class="cls-3" d="M4.71,6.02H25.66c-2.55-2.83-6.19-4.63-10.26-4.71h-.43c-4.07,.08-7.71,1.88-10.26,4.71h0Z"/>
  <path class="cls-3" d="M14.97,29.47h.43c4.05-.08,7.71-1.86,10.26-4.68H4.74c2.52,2.83,6.19,4.61,10.23,4.68h0Z"/>
  <path class="cls-2" d="M4.07,6.79H26.3c-.2-.25-.41-.53-.64-.76H4.71c-.23,.23-.43,.51-.64,.76h0Z"/>
  <path class="cls-2" d="M4.74,24.78H25.66c.2-.25,.43-.51,.64-.79H4.07c.2,.28,.43,.53,.66,.79h0Z"/>
  <path class="cls-1" d="M4.07,24H26.3c1.81-2.34,2.9-5.24,2.95-8.4v-.41c-.05-3.16-1.15-6.06-2.95-8.4H4.07c-1.81,2.34-2.9,5.24-2.95,8.37v.46c.05,3.13,1.15,6.06,2.95,8.37h0Z"/>
  <path class="cls-2" d="M9.83,21.65c3.44,0,6.24-2.8,6.24-6.26s-2.8-6.24-6.24-6.24-6.24,2.8-6.24,6.24,2.8,6.26,6.24,6.26h0Z"/>
  <polygon class="cls-1" points="4.1 13.51 8.48 13.51 9.85 9.33 11.2 13.51 15.58 13.51 12.04 16.1 13.39 20.3 9.85 17.71 6.29 20.3 7.64 16.1 4.1 13.51"/>
</svg>