<?xml version="1.0" encoding="UTF-8"?>
<svg id="Layer_1" data-name="Layer 1" xmlns="http://www.w3.org/2000/svg" viewBox="0 0 30 30">
  <defs>
    <style>
      .cls-1 {
        fill: #293469;
      }

      .cls-1, .cls-2, .cls-3 {
        fill-rule: evenodd;
      }

      .cls-2 {
        fill: #fefefe;
      }

      .cls-3 {
        fill: #da2437;
      }
    </style>
  </defs>
  <path class="cls-3" d="M14.55,29.47h.43c7.59-.13,13.75-6.31,13.85-13.87v-.41c-.1-7.56-6.26-13.75-13.82-13.87h-.48C6.96,1.44,.8,7.6,.7,15.16v.46c.1,7.56,6.29,13.72,13.85,13.85h0Z"/>
  <path class="cls-2" d="M1.13,11.88H3.86V6.51c1.81-2.19,4.25-3.84,7.03-4.63V11.88H28.39c.28,1.07,.43,2.16,.43,3.31v.41c0,1.15-.15,2.24-.43,3.31H10.88v10c-2.77-.79-5.22-2.44-7.03-4.63v-5.37H1.13c-.28-1.04-.43-2.16-.43-3.28v-.46c0-1.12,.15-2.24,.43-3.28h0Z"/>
  <path class="cls-1" d="M9.13,2.51V13.64H28.73c.05,.51,.1,1.02,.1,1.55v.41c0,.53-.05,1.04-.1,1.55H9.13v11.12c-1.27-.56-2.44-1.3-3.49-2.19v-8.93H.8c-.08-.51-.1-1.02-.1-1.53v-.46c0-.51,.03-1.02,.1-1.53H5.64V4.7c1.04-.89,2.21-1.63,3.49-2.19h0Z"/>
</svg>