<?xml version="1.0" encoding="UTF-8"?>
<svg id="Layer_1" data-name="Layer 1" xmlns="http://www.w3.org/2000/svg" viewBox="0 0 30 30">
  <defs>
    <style>
      .cls-1 {
        fill: #2e6f3a;
      }

      .cls-1, .cls-2 {
        fill-rule: evenodd;
      }

      .cls-2 {
        fill: #fefefe;
      }
    </style>
  </defs>
  <path class="cls-2" d="M6.95,26.69V4.09C3.57,6.61,1.33,10.66,1.25,15.16v.46c.08,4.51,2.32,8.53,5.7,11.07h0Z"/>
  <path class="cls-1" d="M15.1,29.47h.46c7.56-.13,13.72-6.31,13.85-13.87v-.41c-.13-7.56-6.29-13.75-13.85-13.87h-.46c-3.03,.05-5.85,1.07-8.15,2.77V26.69c2.29,1.71,5.12,2.72,8.15,2.77h0Z"/>
  <path class="cls-2" d="M21.92,9.08l1.35,1.53,1.86-.81-1.02,1.76,1.35,1.53-1.99-.43-1.02,1.76-.2-2.04-1.99-.43,1.86-.81-.2-2.04Zm4.66,9.65c-1.27,3-4.25,5.12-7.71,5.12-4.66,0-8.43-3.79-8.43-8.48,0-3.82,2.52-7.05,5.96-8.09-1.88,1.4-3.13,3.67-3.13,6.21,0,4.28,3.44,7.74,7.66,7.74,2.24,0,4.25-.97,5.65-2.49h0Z"/>
</svg>