<?xml version="1.0" encoding="UTF-8"?>
<svg id="Layer_1" data-name="Layer 1" xmlns="http://www.w3.org/2000/svg" viewBox="0 0 30 30">
  <defs>
    <style>
      .cls-1 {
        fill: #f5d61b;
      }

      .cls-1, .cls-2, .cls-3, .cls-4 {
        fill-rule: evenodd;
      }

      .cls-2 {
        fill: #fff;
      }

      .cls-3 {
        fill: #c12837;
      }

      .cls-4 {
        fill: #242121;
      }
    </style>
  </defs>
  <path class="cls-4" d="M4.01,6.29L25.78,24.08c-2.52,3.11-6.36,5.12-10.67,5.17h-.43c-7.56-.1-13.75-6.29-13.85-13.87v-.38c.05-3.31,1.22-6.31,3.18-8.71h0Z"/>
  <path class="cls-3" d="M4.01,6.29L25.78,24.08c1.96-2.39,3.13-5.4,3.18-8.68v-.43c-.1-7.56-6.26-13.75-13.85-13.85h-.43c-4.28,.05-8.12,2.06-10.67,5.17h0Z"/>
  <path class="cls-2" d="M7.91,23.16l.38,1.25h1.25l-.99,.76,.36,1.22-.99-.76-.99,.74,.38-1.2-.99-.76h1.22l.38-1.25Zm1.73-2.67l.18,.64h.61l-.48,.38,.18,.61-.48-.38-.51,.36,.18-.59-.48-.38h.61l.2-.64Zm2.09-4.3l.36,1.25h1.25l-.99,.79,.38,1.2-.99-.76-.99,.74,.36-1.17-.99-.79h1.22l.41-1.25Zm-7.64,.36l.38,1.25h1.25l-.99,.76,.36,1.22-.99-.76-.99,.74,.36-1.2-.99-.76h1.25l.38-1.25Zm3.82-4.89l.38,1.25h1.25l-.99,.76,.36,1.22-.99-.76-.99,.74,.38-1.2-.99-.76h1.22l.38-1.25Z"/>
  <path class="cls-1" d="M15.47,6.77h.13l.76,.1s.13,.03,.2,0c0,0,.41-.1,.64-.15,0,0,.31-.05,.51,.23,0,0,.18,.23,.56,.43,0,0,.41,.31,.59,.15,0,0,.15-.13,.23-.59,0,0,.03-.08-.05-.41,0,0-.25-1.02,.41-1.83,0,0,.64-.87,1.71-1.35,0,0,.18-.1,.08,.13,0,0-.13,.25-.28,.56,0,0-.08,.13-.05,.13,0,0,.2-.08,.25-.05,0,0,.05,0,.05,.03,0,0,.03,.08-.08,.31,0,0-.08,.13-.05,.15h0s.05-.05,.2-.03c0,0,.13,.03,.15,.08,0,0,.03,.05-.08,.2l-.15,.18s-.08,.1-.08,.18h.18s.13,.03,.2,.1c0,0,0,.1-.28,.31,0,0-.13,.05-.13,.1,0,0-.03,.03,.13,.13,0,0,.13,.08,.13,.13,0,0,0,.1-.31,.38,0,0-.43,.38-.38,.41,0,0,1.25-.84,2.85,0,0,0-.56,.2-.56,.25,0,0,0,.03,.05,.03,0,0,.05-.05,.66,.41,0,0,.76,.59,.69,.61,0,0-.18,0-.33,.05h-.03s0,.03,.05,.03c0,0,.05,0,.15,.08,0,0,.64,.71,.97,1.45,0,0-.23-.1-.28-.1,0,0,.13,.05,.36,.74,0,0,.28,.71,.18,.74,0,0-.13-.08-.41-.31,0,0-.23-.18-.28-.15,0,0-.05,0,.08,.23,0,0,.1,.25,.05,.33,0,0-.05,.03-.25-.15,0,0-.13-.13-.13-.08,0,0-.03,.1,.23,.41,0,0,.46,.56,.51,1.73,0,0,1.2,1.48,.64,2.98,0,0-.31,1.15-1.55,1.32,0,0-.81,.15-1.27-.23,0,0,1.17,.18,1.88-.43,0,0,.64-.53,.59-1.58,0,0,0-.69-.31-1.3,0,0-.13,1.37-1.55,1.78,0,0-.97,.38-1.83-.51,0,0,1.27,.59,2.24-.28,0,0,.84-.76,.79-1.65,0,0-.74-1.09-2.11-2.14,0,0,0,.2-.08,.23,0,0-.05,0-.23-.1l-.53-.28s-.18-.13-.2-.08c0,0-.05,.08,.08,.41,0,0,.18,.41,.1,.41,0,0-.03,0-.15-.08,0,0-.1-.05-.1,.03,0,0-.05,.08,.18,.38l.59,.74s-.03,.05-.15,0c0,0-.08-.03-.18-.03,0,0-.05,.13,.31,.59,0,0,.38,.48,.36,.53,0,0-.05,.03-.51-.15,0,0,.33,.59,.33,.64,0,0-1.25-.31-2.49-1.63,0,0-.05-.05-.03,.15,0,0,.05,.23-.03,.23,0,0-.15,0-.76-.61,0,0-.05,0,0,.23,0,0,.03,.28-.05,.31,0,0-.69-.41-1.45-1.32,0,0-.33-.46-.33-1.37,0,0-.48,.69-.71,.87,0,0-.03,.05,.03-.36,0,0,.05-.36-.08-.33,0,0-.15,.1-.43,.41,0,0-.18,.18-.31,.28,0,0-.05,0,0-.18,0,0,.1-.41,.03-.41,0,0-.1,0-.38,.31,0,0-.28,.31-.38,.33,0,0-.08-.08,0-.28,0,0,.1-.25,.08-.33,0,0-.18,.1-.38,.28,0,0-.15,.18-.18,.13,0,0-.05-.1,.03-.31,0,0,.05-.1,.03-.15,0,0-.13,0-.41,.2,0,0-.31,.25-.36,.2-.03-.05,.05-.18,.05-.18,0,0,.13-.2,.08-.31,0,0-.1,.05-.25,.23,0,0-.28,.31-.33,.28,0,0-.05,0,.03-.13,0,0,.31-.84,1.02-1.81,0,0,.79-1.17,1.86-.81,0,0,.28,.08,.79,.33,0,0,.38,.2,.51,0,0,0,.18-.23,0-.41,0,0-.18-.25-.69-.43,0,0-.2-.08-.31-.15,0,0-.08-.05-.15-.18,0,0-.08-.13-.46-.25,0,0-.38-.15-.51-.2,0,0-.13-.05-.1-.1h0Z"/>
</svg>