<?xml version="1.0" encoding="UTF-8"?>
<svg id="Layer_1" data-name="Layer 1" xmlns="http://www.w3.org/2000/svg" viewBox="0 0 30 30">
  <defs>
    <style>
      .cls-1 {
        fill: #bf282d;
      }

      .cls-1, .cls-2 {
        fill-rule: evenodd;
      }

      .cls-2 {
        fill: #fefefe;
      }
    </style>
  </defs>
  <path class="cls-1" d="M10,28.43V1.91C4.61,3.84,.71,8.96,.61,14.97v.43c.1,6.01,4,11.12,9.39,13.03h0Z"/>
  <path class="cls-2" d="M14.46,29.25h.46c1.55-.03,3.05-.31,4.45-.81V1.91c-1.37-.48-2.88-.76-4.43-.79h-.48c-1.55,.03-3.05,.31-4.45,.79V28.43c1.4,.51,2.9,.79,4.45,.81h0Z"/>
  <path class="cls-1" d="M28.76,15.42v-.48c-.1-6.01-4-11.1-9.39-13.03V28.43c5.4-1.91,9.29-7.03,9.39-13.01h0Z"/>
</svg>