<?xml version="1.0" encoding="UTF-8"?>
<svg id="Layer_1" data-name="Layer 1" xmlns="http://www.w3.org/2000/svg" viewBox="0 0 30 30">
  <defs>
    <style>
      .cls-1 {
        fill: #313c90;
      }

      .cls-1, .cls-2, .cls-3, .cls-4 {
        fill-rule: evenodd;
      }

      .cls-2 {
        fill: #f5d61b;
      }

      .cls-3 {
        fill: #c12837;
      }

      .cls-4 {
        fill: #fefefe;
      }
    </style>
  </defs>
  <path class="cls-1" d="M.41,15.17H28.54v-.2c-.1-7.56-6.26-13.72-13.82-13.85h-.48C6.67,1.25,.51,7.41,.41,14.99v.18Z"/>
  <path class="cls-3" d="M14.26,29.25h.43c7.59-.1,13.75-6.29,13.85-13.85v-.23H.41v.2c.1,7.59,6.26,13.77,13.85,13.87h0Z"/>
  <path class="cls-4" d="M19.96,15.17L3.9,5.93C1.76,8.37,.46,11.53,.41,14.99v.38c.05,3.46,1.35,6.62,3.49,9.06L19.96,15.17Z"/>
  <polygon class="cls-2" points="13.8 14.18 15 14.56 15.74 13.54 15.74 14.79 16.93 15.17 15.74 15.55 15.74 16.82 15 15.81 13.83 16.19 14.57 15.19 13.8 14.18"/>
  <path class="cls-2" d="M6.83,12.57c.05,.03,.13,.03,.18,.03h0l.33-1.86,.31,.36-.43,1.55h0c.25,.08,.51,.18,.74,.33v-.03l.79-1.32,.48-.08-1.12,1.53c.05,.03,.1,.08,.15,.13h0l1.32-1.63,.74-.03,.03,.69-1.73,1.32c.05,.05,.08,.1,.1,.15h0l1.58-1.04-.05,.46-1.4,.76c.1,.2,.2,.43,.25,.66h0l1.5-.43,.38,.31-1.83,.33v.18h0l2.06-.25,.59,.51-.48,.51-2.16-.25c0,.08,0,.13-.03,.18l1.88,.36-.38,.28-1.55-.41c-.05,.23-.13,.43-.25,.64h0l1.37,.79,.05,.46-1.55-1.07h0c-.03,.05-.08,.1-.1,.15h0l1.65,1.27,.05,.74-.69,.05-1.37-1.68v-.03c-.05,.05-.1,.1-.15,.13h0l1.09,1.55-.46-.05-.79-1.4c-.23,.15-.46,.23-.71,.31l.41,1.53-.28,.36-.33-1.83c-.05,0-.13,0-.2,.03l.28,2.04-.48,.61-.51-.48,.2-2.16c-.05-.03-.13-.03-.18-.03h0l-.31,1.88-.28-.43,.41-1.5c-.25-.05-.51-.15-.71-.31l-.81,1.37-.46,.05,1.07-1.53h.03c-.05-.03-.1-.08-.15-.13l-1.3,1.65-.74,.05-.03-.69,1.68-1.37c-.03-.05-.05-.1-.1-.15h0l-1.55,1.09,.05-.46,1.4-.81c-.13-.2-.23-.43-.28-.66h0l-1.5,.43-.38-.31,1.83-.33c0-.05-.03-.13-.03-.18l-2.04,.25-.59-.48,.46-.51,2.16,.23c0-.08,.03-.13,.03-.18h0l-1.86-.33,.36-.31,1.55,.41c.05-.25,.15-.46,.28-.66h0l-1.37-.79-.05-.46,1.53,1.04c.05-.05,.08-.1,.13-.13h0c.05-.08-1.63-1.27-1.63-1.27l-.08-.76,.69-.03,1.37,1.68c.05-.03,.1-.08,.15-.1h0l-1.09-1.55,.46,.05,.81,1.37c.2-.13,.46-.23,.69-.28h0l-.41-1.53,.31-.36,.33,1.83c.05,0,.1-.03,.18-.03h0l-.25-2.06,.51-.56,.48,.46-.23,2.16Z"/>
</svg>