<?xml version="1.0" encoding="UTF-8"?>
<svg id="Layer_1" data-name="Layer 1" xmlns="http://www.w3.org/2000/svg" viewBox="0 0 30 30">
  <defs>
    <style>
      .cls-1 {
        fill: #fefefe;
      }

      .cls-1, .cls-2 {
        fill-rule: evenodd;
      }

      .cls-2 {
        fill: #940325;
      }
    </style>
  </defs>
  <path class="cls-1" d="M14.39,29.25h.43c7.59-.1,13.75-6.29,13.85-13.87v-.38c-.1-7.59-6.26-13.75-13.82-13.87h-.48C6.8,1.25,.64,7.41,.54,14.97v.43c.1,7.56,6.29,13.75,13.85,13.85h0Z"/>
  <path class="cls-2" d="M8.89,2.34l1.12,.33-3.61,1.12c-.31,.2-.59,.41-.84,.64l4.45,1.37-5.12,1.55,5.12,1.58-5.12,1.55,5.12,1.58-5.12,1.55,5.12,1.55-5.12,1.58,5.12,1.55-5.12,1.58,5.12,1.55-5.12,1.58,5.12,1.55-4.48,1.35c.28,.23,.56,.46,.84,.66l3.64,1.12-1.12,.33c1.68,.76,3.54,1.2,5.5,1.22h.43c7.59-.1,13.75-6.29,13.85-13.87v-.38c-.1-7.59-6.26-13.75-13.82-13.87h-.48c-1.93,.03-3.79,.46-5.47,1.22h0Z"/>
</svg>