<?xml version="1.0" encoding="UTF-8"?>
<svg id="Layer_1" data-name="Layer 1" xmlns="http://www.w3.org/2000/svg" viewBox="0 0 30 30">
  <defs>
    <style>
      .cls-1 {
        fill: #f5d61b;
      }

      .cls-1, .cls-2, .cls-3 {
        fill-rule: evenodd;
      }

      .cls-2 {
        fill: #c12837;
      }

      .cls-3 {
        fill: #2b3779;
      }
    </style>
  </defs>
  <path class="cls-3" d="M9.78,28.43V1.9C4.41,3.81,.49,8.95,.41,14.96v.41c.08,6.01,4,11.12,9.37,13.06h0Z"/>
  <path class="cls-1" d="M14.23,29.22h.48c1.55-.03,3.05-.31,4.45-.79V1.9c-1.4-.51-2.9-.79-4.48-.81h-.43c-1.55,.03-3.08,.31-4.48,.81V28.43c1.4,.48,2.9,.76,4.45,.79h0Z"/>
  <path class="cls-2" d="M28.54,15.37v-.43c-.08-6.01-4-11.12-9.37-13.03V28.43c5.37-1.93,9.29-7.05,9.37-13.06h0Z"/>
</svg>