<?xml version="1.0" encoding="UTF-8"?>
<svg id="Layer_1" data-name="Layer 1" xmlns="http://www.w3.org/2000/svg" viewBox="0 0 30 30">
  <defs>
    <style>
      .cls-1 {
        fill: #f5d61b;
      }

      .cls-1, .cls-2, .cls-3, .cls-4, .cls-5 {
        fill-rule: evenodd;
      }

      .cls-2 {
        fill: #c12837;
      }

      .cls-3 {
        fill: #fefefe;
      }

      .cls-4 {
        fill: #3a9d45;
      }

      .cls-5 {
        fill: #242121;
      }
    </style>
  </defs>
  <path class="cls-1" d="M14.55,29.25h.43c7.59-.1,13.75-6.29,13.85-13.87v-.38c-.1-7.59-6.26-13.75-13.82-13.87h-.48C6.96,1.25,.8,7.41,.7,14.97v.43c.1,7.56,6.29,13.75,13.85,13.85h0Z"/>
  <path class="cls-4" d="M.75,16.42L21.27,2.72c-1.88-.99-4-1.58-6.26-1.6h-.48C6.96,1.25,.8,7.41,.7,14.97v.43c0,.36,.03,.69,.05,1.02H.75Z"/>
  <path class="cls-5" d="M28.42,11.83L6.45,26.52c-2.62-1.93-4.56-4.76-5.37-7.99L23.07,3.84c2.62,1.93,4.56,4.73,5.35,7.99h0Z"/>
  <path class="cls-2" d="M28.78,13.92L8.26,27.64c1.88,.99,4.02,1.58,6.29,1.6h.43c7.59-.1,13.75-6.29,13.85-13.87v-.38c0-.36-.03-.71-.05-1.07h0Z"/>
  <path class="cls-3" d="M6.2,17l1.88,1.5,2.01-1.35-.84,2.27,1.88,1.5-2.42-.1-.81,2.24-.66-2.32-2.39-.08,2.01-1.35-.66-2.32Zm13.44-8.96l1.88,1.48,1.99-1.32-.84,2.27,1.88,1.48-2.39-.1-.81,2.27-.66-2.32-2.39-.1,1.99-1.32-.64-2.32Z"/>
</svg>