<?xml version="1.0" encoding="UTF-8"?>
<svg id="Layer_1" data-name="Layer 1" xmlns="http://www.w3.org/2000/svg" viewBox="0 0 30 30">
  <defs>
    <style>
      .cls-1 {
        fill: #379d5d;
      }

      .cls-1, .cls-2, .cls-3 {
        fill-rule: evenodd;
      }

      .cls-2 {
        fill: #f5d61b;
      }

      .cls-3 {
        fill: #416db3;
      }
    </style>
  </defs>
  <path class="cls-3" d="M7.85,27.36V3C3.73,5.42,.9,9.85,.83,14.94v.48c.08,5.09,2.9,9.52,7.03,11.94h0Z"/>
  <path class="cls-2" d="M14.68,29.25h.43c2.47-.03,4.81-.71,6.82-1.88V3c-2.01-1.17-4.33-1.86-6.8-1.88h-.48c-2.47,.03-4.79,.71-6.8,1.88V27.36c2.01,1.17,4.33,1.86,6.82,1.88h0Z"/>
  <path class="cls-1" d="M28.96,15.4v-.43c-.08-5.09-2.9-9.55-7.03-11.96V27.36c4.12-2.42,6.95-6.87,7.03-11.96h0Z"/>
  <path class="cls-1" d="M17.88,10.66l2.39,4.81-2.39,4.79-2.39-4.79,2.39-4.81Zm-3,6.01l2.42,4.79-2.42,4.81-2.39-4.81,2.39-4.79Zm-2.98-6.01l2.39,4.81-2.39,4.79-2.39-4.79,2.39-4.81Z"/>
</svg>