<?xml version="1.0" encoding="UTF-8"?>
<svg id="Layer_1" data-name="Layer 1" xmlns="http://www.w3.org/2000/svg" viewBox="0 0 30 30">
  <defs>
    <style>
      .cls-1 {
        fill: #48b040;
      }

      .cls-1, .cls-2, .cls-3 {
        fill-rule: evenodd;
      }

      .cls-2 {
        fill: #fefefe;
      }

      .cls-3 {
        fill: #416db3;
      }
    </style>
  </defs>
  <path class="cls-1" d="M1.36,10.55H27.88C25.94,5.15,20.83,1.25,14.82,1.15h-.43c-6.01,.1-11.12,4-13.03,9.39h0Z"/>
  <path class="cls-2" d="M1.36,19.91H27.88c.48-1.4,.76-2.9,.79-4.48v-.41c-.03-1.58-.31-3.08-.79-4.48H1.36c-.51,1.4-.79,2.9-.81,4.45v.46c.03,1.55,.31,3.05,.81,4.45h0Z"/>
  <path class="cls-3" d="M14.39,29.31h.43c6.01-.1,11.12-4,13.06-9.39H1.36c1.91,5.4,7.03,9.29,13.03,9.39h0Z"/>
</svg>