<?xml version="1.0" encoding="UTF-8"?>
<svg id="Layer_1" data-name="Layer 1" xmlns="http://www.w3.org/2000/svg" viewBox="0 0 30 30">
  <defs>
    <style>
      .cls-1 {
        fill: #fff;
      }

      .cls-1, .cls-2 {
        fill-rule: evenodd;
      }

      .cls-2 {
        fill: #da2440;
      }
    </style>
  </defs>
  <path class="cls-2" d="M.58,15.23H28.73v-.2c-.1-7.59-6.29-13.75-13.85-13.87h-.46C6.86,1.28,.7,7.44,.58,15v.23Z"/>
  <path class="cls-1" d="M14.42,29.31h.46c7.56-.13,13.75-6.31,13.85-13.87v-.2H.58v.23c.13,7.56,6.29,13.72,13.85,13.85h0Z"/>
  <path class="cls-1" d="M9.28,4.79h.89l.25-.89,.28,.89h.89l-.71,.56,.28,.87-.74-.53-.71,.53,.28-.87-.71-.56Zm-6.87,3.51c1.3-2.27,3.18-4.12,5.47-5.4,.53,.03,1.04,.1,1.53,.28-2.65,.13-4.79,2.32-4.79,4.99s2.14,4.89,4.79,5.01c-.53,.18-1.09,.28-1.68,.28-2.9,0-5.24-2.29-5.32-5.17h0Zm5.09,1.91l.92,.03,.25-.89,.28,.89,.89-.03-.74,.56,.28,.89-.71-.56-.71,.56,.28-.89-.74-.56Zm4.58-3.33h.89l.28-.89,.28,.89h.87l-.71,.56,.28,.87-.71-.53-.74,.53,.28-.87-.71-.56Zm-1.04,3.33l.89,.03,.25-.89,.28,.89,.89-.03-.71,.56,.25,.89-.71-.56-.71,.56,.28-.89-.71-.56Zm-4.58-3.33h.89l.25-.89,.28,.89h.89l-.71,.56,.28,.87-.74-.53-.71,.53,.28-.87-.71-.56Z"/>
</svg>