<?xml version="1.0" encoding="UTF-8"?>
<svg id="Layer_1" data-name="Layer 1" xmlns="http://www.w3.org/2000/svg" viewBox="0 0 30 30">
  <defs>
    <style>
      .cls-1 {
        fill: #e32129;
      }

      .cls-1, .cls-2, .cls-3, .cls-4 {
        fill-rule: evenodd;
      }

      .cls-2 {
        fill: #4a59a5;
      }

      .cls-3 {
        fill: #fefefe;
      }

      .cls-4 {
        fill: #f7eb01;
      }
    </style>
  </defs>
  <path class="cls-1" d="M14.74,29.31h.46c5.98-.1,11.12-4,13.03-9.39H1.71c1.91,5.4,7.03,9.29,13.03,9.39h0Z"/>
  <path class="cls-2" d="M1.71,19.91H28.24c.51-1.4,.79-2.93,.81-4.48v-.41c-.03-1.58-.31-3.08-.81-4.48H1.71c-.51,1.4-.79,2.9-.81,4.45v.46c.03,1.55,.31,3.05,.81,4.45h0Z"/>
  <path class="cls-3" d="M1.71,10.55H28.24C26.33,5.15,21.21,1.25,15.2,1.15h-.48c-5.98,.1-11.1,4-13.01,9.39h0Z"/>
  <path class="cls-1" d="M4.16,6.7l.2,3.28,.08,1.07s.05,.94,.51,1.78c0,0,.76,1.73,2.88,2.39,0,0,1.93-.48,2.85-2.37,0,0,.46-.84,.53-1.91l.08-1.37,.2-2.88s-1.76-.94-3.92-.84c0,0-1.76,.03-3.41,.84h0Z"/>
  <path class="cls-2" d="M7.82,14.95s1.6-.36,2.65-2.27c0,0,.46-.81,.48-1.91l.28-4.2c-.56-.25-1.99-.79-3.67-.71,0,0-1.58,.03-3.16,.71h0l.23,3.41,.03,.69s.03,1.25,.56,2.11c0,0,.66,1.55,2.6,2.16h0Z"/>
  <path class="cls-3" d="M5.4,12.56s.13,.28,.2,.36c0,0,.28,.18,.64,.05,0,0,.15-.05,.31-.13,0,0,.36-.18,.74,.03,0,0,.23,.15,.53,.15,0,0,.28,0,.59-.18,0,0,.28-.15,.64-.03,0,0,.05,.05,.18,.1,0,0,.38,.2,.81,0l.2-.36s-.36,.23-.64,.18c0,0-.23,0-.41-.1,0,0-.28-.2-.64-.13,0,0-.2,.05-.38,.18,0,0-.25,.13-.59,.03,0,0-.2-.05-.36-.15,0,0-.36-.15-.74,.05,0,0-.28,.15-.53,.13,0,0-.31,0-.56-.18h0Zm-.33-.99s-.05,.48,.43,.79c0,0,.43,.31,.99-.03,0,0,.33-.23,.84,.03,0,0,.48,.31,.94,0,0,0,.48-.28,.97,.03,0,0,.53,.31,1.02-.15,0,0,.33-.28,.31-.66l-1.37-1.83-.56,.74-.81-1.65-.84,1.65-.53-.74-1.37,1.83Zm.76,1.71s.74,1.04,1.99,1.4c0,0,1.25-.36,1.96-1.4,0,0-.2,.05-.51-.08,0,0-.38-.25-.81-.13,0,0-.1,.03-.28,.13,0,0-.33,.18-.76,0,0,0-.05-.05-.18-.1,0,0-.33-.15-.66,0,0,0-.08,.03-.2,.1,0,0-.2,.13-.53,.08h0Z"/>
  <path class="cls-4" d="M8.69,6.42l.1-.23,.1,.23,.25-.03-.15,.2,.15,.23-.25-.05-.1,.23-.1-.23-.25,.05,.15-.23-.15-.2,.25,.03Zm-1.93,0l.1-.23,.1,.23,.25-.03-.15,.2,.15,.2-.25-.03-.1,.23-.1-.23-.25,.03,.15-.2-.15-.2,.25,.03Zm.97,1.3l.1-.25,.1,.25,.25-.03-.15,.2,.15,.2-.25-.03-.1,.23-.1-.23-.25,.03,.15-.2-.15-.2,.25,.03Z"/>
</svg>