<?xml version="1.0" encoding="UTF-8"?>
<svg id="Layer_1" data-name="Layer 1" xmlns="http://www.w3.org/2000/svg" viewBox="0 0 30 30">
  <defs>
    <style>
      .cls-1 {
        fill: #294899;
      }

      .cls-1, .cls-2, .cls-3, .cls-4, .cls-5, .cls-6 {
        fill-rule: evenodd;
      }

      .cls-2 {
        fill: #da252b;
      }

      .cls-3 {
        fill: #f7ec00;
      }

      .cls-4 {
        fill: #098a44;
      }

      .cls-5 {
        fill: #242222;
      }

      .cls-6 {
        fill: #fefefe;
      }
    </style>
  </defs>
  <path class="cls-5" d="M2.08,9.49H27.71C25.52,4.68,20.71,1.29,15.11,1.21h-.43c-5.57,.08-10.41,3.46-12.6,8.27h0Z"/>
  <path class="cls-2" d="M1.44,19.41H28.35c.38-1.25,.61-2.57,.61-3.92v-.43c0-1.37-.23-2.67-.61-3.92H1.44c-.38,1.25-.59,2.57-.61,3.92v.41c.03,1.37,.23,2.7,.61,3.95h0Z"/>
  <path class="cls-4" d="M14.68,29.34h.43c5.6-.08,10.41-3.46,12.6-8.27H2.08c2.19,4.81,7.03,8.2,12.6,8.27h0Z"/>
  <path class="cls-6" d="M1.44,11.14H28.35c-.18-.59-.38-1.12-.64-1.65H2.08c-.23,.53-.46,1.07-.64,1.65h0Z"/>
  <path class="cls-6" d="M2.08,21.07H27.71c.25-.53,.46-1.09,.64-1.65H1.44c.18,.56,.41,1.12,.64,1.65h0Z"/>
  <path class="cls-1" d="M16.26,15.26L3.68,23.77c-1.76-2.32-2.8-5.19-2.85-8.3v-.41c.05-3.08,1.09-5.96,2.85-8.27l12.57,8.48Z"/>
  <polygon class="cls-3" points="2.13 15.14 4.83 13.99 4.57 11.12 6.48 13.3 9.18 12.18 7.65 14.63 9.54 16.82 6.69 16.16 5.19 18.62 4.96 15.77 2.13 15.14"/>
</svg>