<?xml version="1.0" encoding="UTF-8"?>
<svg id="Layer_1" data-name="Layer 1" xmlns="http://www.w3.org/2000/svg" viewBox="0 0 30 30">
  <defs>
    <style>
      .cls-1 {
        fill: #f5d61b;
      }

      .cls-1, .cls-2 {
        fill-rule: evenodd;
      }

      .cls-2 {
        fill: #2d5895;
      }
    </style>
  </defs>
  <path class="cls-2" d="M14.26,29.34h.43c7.59-.13,13.75-6.29,13.85-13.85v-.43c-.1-7.56-6.26-13.72-13.82-13.85h-.48C6.67,1.34,.51,7.5,.41,15.06v.41c.1,7.59,6.26,13.75,13.85,13.87h0Z"/>
  <path class="cls-1" d="M12.33,1.37V12.46h15.93c.18,.84,.28,1.71,.28,2.6v.43c0,.89-.1,1.76-.28,2.6H12.33v11.1c-2.06-.33-3.97-1.09-5.63-2.21v-8.88H.69c-.18-.84-.28-1.73-.28-2.62v-.41c0-.89,.1-1.76,.28-2.6H6.7V3.56c1.65-1.09,3.56-1.86,5.63-2.19h0Z"/>
</svg>