<?xml version="1.0" encoding="UTF-8"?>
<svg id="Layer_1" data-name="Layer 1" xmlns="http://www.w3.org/2000/svg" viewBox="0 0 30 30">
  <defs>
    <style>
      .cls-1 {
        fill: #d3bc14;
      }

      .cls-1, .cls-2, .cls-3, .cls-4 {
        fill-rule: evenodd;
      }

      .cls-2 {
        fill: #e42041;
      }

      .cls-3 {
        fill: #52b044;
      }

      .cls-4 {
        fill: #fefefe;
      }
    </style>
  </defs>
  <path class="cls-2" d="M1.95,9.23H27.35C25.11,4.55,20.35,1.29,14.88,1.21h-.46c-5.47,.08-10.23,3.33-12.47,8.02h0Z"/>
  <path class="cls-3" d="M14.42,29.34h.46c5.47-.08,10.23-3.36,12.47-8.02H1.95c2.24,4.66,7,7.94,12.47,8.02h0Z"/>
  <path class="cls-4" d="M1.95,21.32H27.35c.84-1.78,1.35-3.77,1.37-5.85v-.41c-.03-2.06-.53-4.05-1.37-5.83H1.95c-.84,1.78-1.32,3.74-1.37,5.83v.43c.05,2.09,.53,4.05,1.37,5.83h0Z"/>
  <path class="cls-1" d="M10.02,13.66l.2-.64,.2,.64h.66l-.53,.38,.2,.64-.53-.41-.53,.41,.2-.64-.51-.38h.64Zm1.88-1.88l.2-.64,.2,.64h.64l-.51,.38,.18,.64-.51-.38-.53,.38,.2-.64-.53-.38h.66Zm2.55-.69l.2-.64,.2,.64h.66l-.53,.38,.2,.64-.53-.41-.53,.41,.2-.64-.53-.38h.66Zm2.55,.69l.23-.64,.2,.64h.64l-.53,.38,.2,.64-.51-.38-.53,.38,.2-.64-.53-.38h.64Zm1.88,1.88l.2-.64,.2,.64h.66l-.53,.38,.2,.64-.53-.41-.53,.41,.2-.64-.51-.38h.64Zm.69,2.55l.2-.61,.2,.61h.66l-.53,.38,.2,.64-.53-.38-.53,.38,.2-.64-.53-.38h.66Zm-5.83-2.14s.53,.15,.87,.69c0,0,.25-.46,.89-.69,0,0-.33-.53-.94-.48,0,0-.46-.03-.81,.48h0Zm-.61-.08c-.05-.41,1.07-.97,1.5-.94,.41,0,1.45,.46,1.48,.94l-1.15,1.15-.03,2.29s.23,.23,.69,.31c0,0,.51,.1,.79-.15,0,0,.28,.46,.84,.76,0,0,.48,.28,1.02,.31,0,0-.46,.38-1.12,.2,0,0-.59-.15-.71-.51,0,0-.38,.23-.94,.15,0,0-.56-.03-.87-.36,0,0-.2,.28-.87,.36,0,0-.46,.08-.94-.15,0,0-.13,.31-.61,.48,0,0-.64,.25-1.22-.18,0,0,.64-.05,1.2-.43,0,0,.33-.18,.64-.64,0,0,.28,.28,.81,.15,0,0,.38-.05,.66-.31v-2.29l-1.17-1.15Zm-.92,5.78l.31,.33s.59-.71,1.81-.79c0,0,1.07-.08,1.78,.31,0,0,.46,.25,.61,.48l.31-.33s-.13-.18-.46-.43c0,0-.23-.18-.28-.48,0,0-.05-.23,.1-.46,0,0-.28,.38-1.02,.41,0,0-.43,0-.74-.51,0,0-.31,.51-.76,.51,0,0-.64,0-1.02-.41,0,0,.33,.41-.1,.89,0,0-.38,.31-.53,.48h0Zm-2.88-3.56l.2-.61,.2,.61h.66l-.53,.38,.2,.64-.53-.38-.53,.38,.2-.64-.51-.38h.64Z"/>
</svg>