<?xml version="1.0" encoding="UTF-8"?>
<svg id="Layer_1" data-name="Layer 1" xmlns="http://www.w3.org/2000/svg" viewBox="0 0 30 30">
  <defs>
    <style>
      .cls-1 {
        fill: #5294d0;
      }

      .cls-1, .cls-2, .cls-3, .cls-4 {
        fill-rule: evenodd;
      }

      .cls-2 {
        fill: #37a046;
      }

      .cls-3 {
        fill: #ecc705;
      }

      .cls-4 {
        fill: #242121;
      }
    </style>
  </defs>
  <path class="cls-3" d="M14.97,29.34h.43c7.59-.13,13.75-6.29,13.85-13.87v-.41c-.1-7.56-6.26-13.72-13.82-13.85h-.48C7.38,1.34,1.22,7.5,1.12,15.06v.43c.1,7.56,6.29,13.72,13.85,13.85h0Z"/>
  <path class="cls-2" d="M1.2,16.72L23.32,3.81c-2.24-1.6-4.96-2.55-7.89-2.6h-.48C7.38,1.34,1.22,7.5,1.12,15.06v.43c0,.41,.03,.81,.08,1.22h0Z"/>
  <path class="cls-4" d="M5.52,25.47L28.84,11.88c-.66-2.65-2.09-4.99-4-6.82L1.53,18.68c.66,2.62,2.06,4.99,4,6.8h0Z"/>
  <path class="cls-1" d="M14.97,29.34h.43c7.59-.13,13.75-6.29,13.85-13.87v-.41c0-.41-.03-.81-.08-1.22L7.05,26.72c2.24,1.63,4.96,2.57,7.92,2.62h0Z"/>
</svg>