<?xml version="1.0" encoding="UTF-8"?>
<svg id="Layer_1" data-name="Layer 1" xmlns="http://www.w3.org/2000/svg" viewBox="0 0 30 30">
  <defs>
    <style>
      .cls-1 {
        fill: #c6263d;
      }

      .cls-1, .cls-2, .cls-3, .cls-4 {
        fill-rule: evenodd;
      }

      .cls-2 {
        fill: #2d7053;
      }

      .cls-3 {
        fill: #fefefe;
      }

      .cls-4 {
        fill: #f6d40d;
      }
    </style>
  </defs>
  <path class="cls-2" d="M3.65,6.84H26.13c-2.55-3.36-6.54-5.57-11.02-5.63h-.43c-4.51,.05-8.5,2.27-11.02,5.63h0Z"/>
  <path class="cls-4" d="M1.11,12.46H28.68c-.43-2.09-1.32-4-2.55-5.63H3.65c-1.25,1.63-2.14,3.54-2.55,5.63h0Z"/>
  <path class="cls-2" d="M1.11,18.09H28.68c.18-.84,.28-1.73,.28-2.62v-.41c0-.89-.1-1.76-.28-2.6H1.11c-.18,.84-.28,1.71-.28,2.6v.43c0,.89,.1,1.76,.28,2.6h0Z"/>
  <path class="cls-4" d="M3.65,23.72H26.13c1.22-1.63,2.11-3.56,2.55-5.63H1.11c.41,2.06,1.3,4,2.55,5.63h0Z"/>
  <path class="cls-2" d="M14.68,29.34h.43c4.48-.08,8.48-2.27,11.02-5.63H3.65c2.52,3.36,6.52,5.55,11.02,5.63h0Z"/>
  <path class="cls-1" d="M1.11,18.09H17.65V1.47c-.81-.15-1.68-.25-2.55-.25h-.43C7.09,1.32,.93,7.48,.83,15.06v.43c0,.89,.1,1.76,.28,2.6h0Z"/>
  <polygon class="cls-3" points="8.06 7.98 9.23 4.29 10.45 7.98 14.32 7.98 11.19 10.28 12.38 13.97 9.23 11.7 6.1 13.97 7.29 10.28 4.16 7.98 8.06 7.98"/>
</svg>