<?xml version="1.0" encoding="UTF-8"?>
<svg id="Layer_1" data-name="Layer 1" xmlns="http://www.w3.org/2000/svg" viewBox="0 0 30 30">
  <defs>
    <style>
      .cls-1 {
        fill: #fefefe;
      }

      .cls-1, .cls-2 {
        fill-rule: evenodd;
      }

      .cls-2 {
        fill: #b7292d;
      }
    </style>
  </defs>
  <path class="cls-2" d="M14.71,29.34h.46c7.56-.13,13.72-6.29,13.85-13.87v-.41c-.13-7.56-6.29-13.72-13.85-13.85h-.48C7.15,1.34,.99,7.5,.86,15.06v.43c.13,7.56,6.29,13.72,13.85,13.85h0Z"/>
  <path class="cls-1" d="M.86,15.26h15.53V1.29c-.41-.05-.81-.08-1.22-.08h-.48C7.15,1.34,.99,7.5,.86,15.06v.2Z"/>
  <path class="cls-2" d="M8.14,2.97h2.34v3.51h3.51v3.51h-3.51v3.51h-3.51v-3.51H3.46v-2.85c.18-.23,.33-.46,.51-.66h3V3.68c.38-.25,.76-.51,1.17-.71h0Z"/>
</svg>