<?xml version="1.0" encoding="UTF-8"?>
<svg id="Layer_1" data-name="Layer 1" xmlns="http://www.w3.org/2000/svg" viewBox="0 0 30 30">
  <defs>
    <style>
      .cls-1 {
        fill: #fff;
      }

      .cls-1, .cls-2 {
        fill-rule: evenodd;
      }

      .cls-2 {
        fill: #d3252e;
      }
    </style>
  </defs>
  <path class="cls-2" d="M14.26,29.4h.43c7.59-.13,13.75-6.29,13.85-13.85v-.46c-.1-7.56-6.26-13.72-13.85-13.85h-.43C6.67,1.38,.51,7.54,.41,15.12v.41c.1,7.56,6.26,13.75,13.85,13.87h0Z"/>
  <path class="cls-1" d="M9.73,8.27c2.55,0,4.79,1.37,6.01,3.39-1.02-1.2-2.55-1.96-4.25-1.96-3.11,0-5.63,2.52-5.63,5.63s2.52,5.6,5.63,5.6c1.71,0,3.23-.76,4.25-1.96-1.22,2.04-3.46,3.39-6.01,3.39-3.87,0-7.03-3.16-7.03-7.03s3.16-7.05,7.03-7.05h0Zm8.35,3.69l1.5,2.06,2.42-.76-1.5,2.06,1.5,2.06-2.42-.79-1.5,2.06v-2.55l-2.42-.79,2.42-.79v-2.57Z"/>
</svg>