<?xml version="1.0" encoding="UTF-8"?>
<svg id="Layer_1" data-name="Layer 1" xmlns="http://www.w3.org/2000/svg" viewBox="0 0 30 30">
  <defs>
    <style>
      .cls-1 {
        fill: #c6273e;
      }

      .cls-1, .cls-2, .cls-3, .cls-4, .cls-5 {
        fill-rule: evenodd;
      }

      .cls-2 {
        fill: #f5d71c;
      }

      .cls-3 {
        fill: #fefefe;
      }

      .cls-4 {
        fill: #8aabd9;
      }

      .cls-5 {
        fill: #2d3579;
      }
    </style>
  </defs>
  <path class="cls-4" d="M14.81,29.4h.46c7.56-.13,13.72-6.29,13.85-13.85v-.46c-.13-7.56-6.29-13.72-13.82-13.85h-.48C7.25,1.38,1.09,7.56,.96,15.12v.41c.13,7.56,6.29,13.75,13.85,13.87h0Z"/>
  <path class="cls-2" d="M20.82,20.06h1.35l.41-1.2,.43,1.2h1.32l-1.07,.76,.41,1.2-1.09-.74-1.07,.74,.41-1.2-1.09-.76Zm3.36-2.16h1.35l.41-1.2,.43,1.2h1.32l-1.07,.74,.41,1.2-1.09-.74-1.07,.74,.41-1.2-1.09-.74Zm0-7.43h1.35l.41-1.2,.43,1.2h1.32l-1.07,.74,.41,1.22-1.09-.74-1.07,.74,.41-1.22-1.09-.74Zm-3.31,4.05h1.32l.43,1.2,.41-1.2h1.35l-1.09-.76,.41-1.2-1.07,.76-1.09-.76,.41,1.2-1.07,.76Zm-3.33,1.15l1.35-.03,.41,1.22,.43-1.22,1.32,.03-1.07-.76,.41-1.2-1.09,.74-1.07-.74,.41,1.2-1.09,.76Zm-3.95,5.5h1.32l.43,1.2,.41-1.2h1.35l-1.09-.74,.41-1.22-1.07,.76-1.09-.76,.41,1.22-1.07,.74Zm3.95,2.85h1.35l.41,1.2,.43-1.2h1.32l-1.07-.74,.41-1.22-1.09,.74-1.07-.74,.41,1.22-1.09,.74Zm-3.95,.97h1.35l.41,1.2,.41-1.2h1.35l-1.09-.74,.41-1.22-1.07,.76-1.09-.76,.43,1.22-1.09,.74Zm-3.87-.13l1.32,.03,.43-1.22,.41,1.22,1.35-.03-1.09,.76,.41,1.2-1.07-.74-1.09,.74,.41-1.2-1.07-.76Z"/>
  <path class="cls-5" d="M1.12,13.31H15.04V1.25h-.23C7.86,1.38,2.08,6.59,1.12,13.31h0Z"/>
  <path class="cls-3" d="M15.04,1.25h-.23c-1.2,.03-2.34,.18-3.44,.48l-4.99,2.49C3.61,6.42,1.65,9.65,1.12,13.31h3.89v-3.69l7.33,3.69h2.7v-1.35l-5.35-2.67h5.35V5.27h-5.32l5.32-2.67V1.25Z"/>
  <path class="cls-1" d="M7.02,9.29h1.81l6.21,3.11v.92L7.02,9.29Zm-5.22,1.25c.61-1.65,1.5-3.16,2.65-4.45H15.04v2.39H4.22v4.84H1.8v-2.77ZM12.93,1.4c.61-.08,1.25-.13,1.88-.15h.23L7.02,5.27h-1.78L12.93,1.4Z"/>
</svg>