<?xml version="1.0" encoding="UTF-8"?>
<svg id="Layer_1" data-name="Layer 1" xmlns="http://www.w3.org/2000/svg" viewBox="0 0 30 30">
  <defs>
    <style>
      .cls-1 {
        fill: #2e3c66;
      }

      .cls-1, .cls-2, .cls-3 {
        fill-rule: evenodd;
      }

      .cls-2 {
        fill: #fefefe;
      }

      .cls-3 {
        fill: #d0262b;
      }
    </style>
  </defs>
  <path class="cls-3" d="M7.43,3.16h14.97c-2.11-1.32-4.61-2.11-7.28-2.16h-.43c-2.65,.05-5.14,.84-7.25,2.16h0Z"/>
  <path class="cls-2" d="M4.78,5.32H25.04c-.79-.81-1.68-1.55-2.65-2.16H7.43c-.97,.61-1.86,1.35-2.65,2.16h0Z"/>
  <path class="cls-3" d="M3.05,7.48H26.75c-.51-.76-1.07-1.5-1.71-2.16H4.78c-.64,.66-1.22,1.4-1.73,2.16h0Z"/>
  <path class="cls-2" d="M1.93,9.65H27.89c-.33-.76-.71-1.48-1.15-2.16H3.05c-.43,.69-.81,1.4-1.12,2.16h0Z"/>
  <path class="cls-3" d="M1.21,11.81H28.6c-.18-.74-.43-1.48-.71-2.16H1.93c-.31,.69-.53,1.43-.71,2.16h0Z"/>
  <path class="cls-2" d="M.88,13.97H28.93c-.05-.74-.18-1.45-.33-2.16H1.21c-.18,.71-.28,1.43-.33,2.16H.88Z"/>
  <path class="cls-3" d="M.86,16.14H28.93c.03-.28,.03-.56,.03-.87v-.43c0-.28,0-.59-.03-.87H.88c-.03,.31-.05,.59-.05,.89v.41c0,.28,.03,.59,.03,.87H.86Z"/>
  <path class="cls-2" d="M1.21,18.3H28.6c.15-.69,.28-1.43,.33-2.16H.86c.08,.74,.18,1.48,.36,2.16h0Z"/>
  <path class="cls-3" d="M1.93,20.47H27.89c.28-.69,.53-1.4,.71-2.16H1.21c.18,.76,.41,1.48,.71,2.16h0Z"/>
  <path class="cls-2" d="M3.07,22.63H26.75c.43-.66,.81-1.4,1.15-2.16H1.93c.31,.76,.69,1.5,1.15,2.16h0Z"/>
  <path class="cls-3" d="M4.78,24.79H25.04c.64-.66,1.2-1.37,1.71-2.16H3.07c.48,.79,1.07,1.5,1.71,2.16h0Z"/>
  <path class="cls-2" d="M7.43,26.96h14.97c.97-.61,1.86-1.32,2.65-2.16H4.78c.79,.84,1.68,1.55,2.65,2.16h0Z"/>
  <path class="cls-3" d="M14.65,29.12h.48c2.65-.03,5.14-.81,7.25-2.16H7.43c2.11,1.35,4.58,2.14,7.23,2.16h0Z"/>
  <path class="cls-1" d="M.86,16.14H15.04V.99h-.36C7.12,1.12,.93,7.28,.83,14.87v.41c0,.28,.03,.59,.03,.87H.86Z"/>
  <path class="cls-2" d="M10.17,7.1h.59l.2-.59,.18,.59h.61l-.51,.36,.2,.59-.48-.36-.51,.36,.2-.59-.48-.36ZM1.47,10.92l.03-.1h.43l.2-.59,.18,.59h.59l-.48,.36,.2,.59-.48-.36-.51,.36,.2-.59-.36-.25Zm.76-1.96c.1-.23,.23-.46,.33-.66h.33l-.48,.36,.2,.56-.38-.25Zm1.02-1.76l.08-.1h.36l.18-.59,.2,.59h.61l-.51,.36,.2,.59-.51-.36-.48,.36,.2-.59-.33-.25Zm2.83-3.08l.05-.03,.03,.05-.08-.03Zm4.1,.46h.59l.2-.59,.18,.59h.61l-.51,.36,.2,.56-.48-.36-.51,.36,.2-.56-.48-.36Zm-3.54,0h.59l.2-.59,.18,.59h.61l-.51,.36,.2,.56-.48-.36-.51,.36,.2-.56-.48-.36Zm0,2.52h.59l.2-.59,.18,.59h.61l-.51,.36,.2,.59-.48-.36-.51,.36,.2-.59-.48-.36Zm3.54,2.52h.59l.2-.56,.18,.56h.61l-.51,.36,.2,.59-.48-.36-.51,.36,.2-.59-.48-.36Zm-3.54,0h.59l.2-.56,.18,.56h.61l-.51,.36,.2,.59-.48-.36-.51,.36,.2-.59-.48-.36Zm-3.54,0h.59l.18-.56,.2,.56h.61l-.51,.36,.2,.59-.51-.36-.48,.36,.2-.59-.48-.36Zm7.08,2.52h.59l.2-.56,.18,.56h.61l-.51,.38,.2,.56-.48-.36-.51,.36,.2-.56-.48-.38Zm-3.54,0h.59l.2-.56,.18,.56h.61l-.51,.38,.2,.56-.48-.36-.51,.36,.2-.56-.48-.38Zm-3.54,0h.59l.18-.56,.2,.56h.61l-.51,.38,.2,.56-.51-.36-.48,.36,.2-.56-.48-.38ZM11.93,3.23h.61l.2-.56,.18,.56h.59l-.48,.36,.18,.56-.46-.33-.51,.33,.2-.56-.51-.36Zm-3.51,0h.59l.18-.56,.2,.56h.61l-.51,.36,.2,.56-.51-.33-.48,.33,.2-.56-.48-.36Zm3.51,2.55h.61l.2-.59,.18,.59h.59l-.48,.36,.18,.56-.46-.36-.51,.36,.2-.56-.51-.36Zm-3.51,0h.59l.18-.59,.2,.59h.61l-.51,.36,.2,.56-.51-.36-.48,.36,.2-.56-.48-.36Zm-3.54,0h.59l.2-.59,.18,.59h.59l-.48,.36,.2,.56-.48-.36-.51,.36,.2-.56-.48-.36Zm7.05,2.52h.61l.2-.59,.18,.59h.59l-.48,.36,.18,.56-.46-.36-.51,.36,.2-.56-.51-.36Zm-3.51,0h.59l.18-.59,.2,.59h.61l-.51,.36,.2,.56-.51-.36-.48,.36,.2-.56-.48-.36Zm-3.54,0h.59l.2-.59,.18,.59h.59l-.48,.36,.2,.56-.48-.36-.51,.36,.2-.56-.48-.36Zm7.05,2.52h.61l.2-.59,.18,.59h.59l-.48,.36,.18,.59-.46-.36-.51,.36,.2-.59-.51-.36Zm-3.51,0h.59l.18-.59,.2,.59h.61l-.51,.36,.2,.59-.51-.36-.48,.36,.2-.59-.48-.36Zm-3.54,0h.59l.2-.59,.18,.59h.59l-.48,.36,.2,.59-.48-.36-.51,.36,.2-.59-.48-.36Zm7.05,2.52h.61l.2-.56,.18,.56h.59l-.48,.36,.18,.59-.46-.36-.51,.36,.2-.59-.51-.36Zm-3.51,0h.59l.18-.56,.2,.56h.61l-.51,.36,.2,.59-.51-.36-.48,.36,.2-.59-.48-.36Zm-3.54,0h.59l.2-.56,.18,.56h.59l-.48,.36,.2,.59-.48-.36-.51,.36,.2-.59-.48-.36Zm-3.54,0h.59l.2-.56,.18,.56h.59l-.48,.36,.2,.59-.48-.36-.51,.36,.2-.59-.48-.36Z"/>
</svg>