<?xml version="1.0" encoding="UTF-8"?>
<svg id="Layer_1" data-name="Layer 1" xmlns="http://www.w3.org/2000/svg" viewBox="0 0 30 30">
  <defs>
    <style>
      .cls-1 {
        fill: #fff;
      }

      .cls-1, .cls-2, .cls-3, .cls-4 {
        fill-rule: evenodd;
      }

      .cls-2 {
        fill: #c2283a;
      }

      .cls-3 {
        fill: #f1d818;
      }

      .cls-4 {
        fill: #2e3c90;
      }
    </style>
  </defs>
  <path class="cls-3" d="M2.07,10.64H28.59C26.68,5.25,21.54,1.35,15.56,1.25h-.46c-6.01,.1-11.12,4-13.03,9.39h0Z"/>
  <path class="cls-4" d="M2.07,20.01H28.59c.51-1.4,.79-2.93,.81-4.48v-.41c-.03-1.58-.31-3.08-.81-4.48H2.07c-.51,1.4-.79,2.9-.81,4.45v.46c.03,1.55,.31,3.05,.81,4.45h0Z"/>
  <path class="cls-2" d="M15.1,29.4h.46c5.98-.1,11.12-4,13.03-9.39H2.07c1.91,5.4,7.03,9.29,13.03,9.39h0Z"/>
  <path class="cls-1" d="M24.62,17.67l-1.02,.05-.36-.97-.28,.99-1.04,.03,.87,.59-.28,.99,.81-.64,.84,.59-.36-.97,.81-.66Zm-16.34-2.09l-.53-.89,.94,.41,.66-.81-.05,1.04,.94,.38-.99,.25-.08,1.02-.56-.87-.99,.25,.66-.79Zm14.08,0l.56-.89-.97,.41-.66-.81,.08,1.04-.94,.38,.99,.25,.08,1.02,.53-.87,.99,.25-.66-.79Zm-11.23-2.42l.89-.51-.41,.94,.76,.69-1.02-.1-.43,.94-.2-1.02-1.02-.1,.89-.51-.2-1.02,.74,.69Zm8.37,0l-.89-.51,.43,.94-.76,.69,1.02-.1,.41,.94,.23-1.02,1.02-.1-.89-.51,.2-1.02-.76,.69Zm-6.03-.84l-1.02,.18,.92,.46-.13,1.02,.71-.74,.92,.43-.48-.89,.71-.74-1.02,.18-.48-.92-.13,1.02Zm3.72,0l.99,.18-.89,.46,.13,1.02-.71-.74-.92,.43,.48-.89-.71-.74,.99,.18,.48-.92,.15,1.02Zm-11.17,5.35l1.04,.05,.33-.97,.28,.99,1.04,.03-.84,.59,.28,.99-.81-.64-.84,.59,.33-.97-.81-.66Z"/>
</svg>