<?xml version="1.0" encoding="UTF-8"?>
<svg id="Layer_1" data-name="Layer 1" xmlns="http://www.w3.org/2000/svg" viewBox="0 0 30 30">
  <defs>
    <style>
      .cls-1 {
        fill: #c12837;
      }

      .cls-1, .cls-2, .cls-3 {
        fill-rule: evenodd;
      }

      .cls-2 {
        fill: #fefefe;
      }

      .cls-3 {
        fill: #242121;
      }
    </style>
  </defs>
  <path class="cls-1" d="M1.68,10.62H28.2C26.27,5.25,21.15,1.35,15.17,1.25h-.46c-6.01,.1-11.12,4-13.03,9.37h0Z"/>
  <path class="cls-2" d="M1.68,20.01H28.2c.51-1.4,.79-2.93,.81-4.48v-.41c-.03-1.58-.31-3.08-.81-4.51H1.68c-.51,1.43-.79,2.93-.81,4.48v.46c.03,1.55,.31,3.05,.81,4.45h0Z"/>
  <path class="cls-3" d="M14.71,29.4h.46c5.98-.1,11.1-4,13.03-9.39H1.68c1.91,5.4,7.03,9.29,13.03,9.39h0Z"/>
</svg>