<svg width="61" height="61" viewBox="0 0 61 61" fill="none" xmlns="http://www.w3.org/2000/svg">
<path d="M30.6453 60.3335C47.1291 60.3335 60.4919 46.945 60.4919 30.4295C60.4919 13.9139 47.1291 0.525391 30.6453 0.525391C14.1616 0.525391 0.798828 13.9139 0.798828 30.4295C0.798828 46.945 14.1616 60.3335 30.6453 60.3335Z" fill="#9C7C4D"/>
<path d="M15.7315 56.3314C8.82853 52.4459 3.74889 45.972 1.61 38.3339C-0.528893 30.6959 0.44818 22.5194 4.32627 15.6031C8.20436 8.68688 14.6658 3.59744 22.2891 1.45442C29.9125 -0.688592 38.0733 0.290365 44.9762 4.17594C45.2801 4.35256 45.6084 4.52614 45.9032 4.71189" fill="#B39262"/>
<path d="M30.6452 53.695C26.0526 53.704 21.5604 52.3484 17.7368 49.7994C13.9132 47.2505 10.9298 43.6228 9.16397 39.375C7.39813 35.1273 6.92912 30.4503 7.81625 25.9355C8.70338 21.4207 10.9068 17.2708 14.1479 14.0107C17.389 10.7506 21.5222 8.52663 26.0248 7.62007C30.5274 6.71351 35.1972 7.16505 39.4436 8.91761C43.6901 10.6702 47.3225 13.645 49.8816 17.466C52.4406 21.2869 53.8113 25.7824 53.8203 30.3838V30.4843C53.7987 36.6351 51.3498 42.5276 47.008 46.876C42.6662 51.2244 36.7841 53.6758 30.6452 53.695ZM30.6452 11.3451C26.8772 11.3451 23.1938 12.4647 20.0609 14.5621C16.9279 16.6596 14.4861 19.6409 13.0443 23.1288C11.6025 26.6168 11.2254 30.4548 11.9607 34.1575C12.6961 37.8601 14.5108 41.2612 17.1754 43.9305C19.84 46.5998 23.2347 48.4175 26.9304 49.1536C30.6261 49.8898 34.4567 49.5113 37.9377 48.0662C41.4187 46.621 44.3938 44.1741 46.4867 41.0348C48.5797 37.8955 49.6965 34.2048 49.6959 30.4295C49.6959 27.9231 49.2031 25.4412 48.2457 23.1255C47.2882 20.8099 45.8849 18.7059 44.1159 16.9337C42.3468 15.1615 40.2467 13.7559 37.9353 12.797C35.624 11.8381 33.1468 11.3447 30.6452 11.3451Z" fill="#FFDFAE"/>
<path d="M28.7275 19.686H32.8975V40.6372H28.7275V19.686Z" fill="#FFDFAE"/>
</svg>
