<svg width="56" height="57" viewBox="0 0 56 57" fill="none" xmlns="http://www.w3.org/2000/svg">
<path d="M48.7079 33.8229C47.7161 34.4198 46.559 34.5283 45.6774 34.04C44.5754 33.3888 43.9142 31.9237 43.9142 29.9159V23.7841C43.9142 20.8539 42.7572 18.7376 40.7736 18.195C37.4125 17.2182 34.8779 21.288 33.9412 22.8074L27.9905 32.195V20.6369C27.9354 17.9779 27.0538 16.4043 25.4008 15.9159C24.2988 15.5904 22.6459 15.7531 21.048 18.1407L7.76902 39.0865C6.00584 35.7764 5.06915 32.0865 5.06915 28.3423C5.06915 15.6989 15.3727 5.44306 27.9905 5.44306C40.6083 5.44306 50.9119 15.6989 50.9119 28.3423V28.3966V28.4508C51.0221 30.8927 50.2507 32.8462 48.7079 33.8229ZM55.981 28.3423V28.288V28.2338C55.9259 12.8772 43.3632 0.342285 27.9905 0.342285C12.5627 0.342285 0 12.8772 0 28.3423C0 43.7531 12.5627 56.3423 27.9905 56.3423C35.0983 56.3423 41.8205 53.6834 46.9998 48.8539C48.0467 47.8772 48.1018 46.3035 47.11 45.2725C46.1733 44.2415 44.5754 44.1872 43.5285 45.1097C43.5285 45.1097 43.5285 45.1097 43.4734 45.164C39.2859 49.071 33.6658 51.2958 27.8803 51.2958C21.1031 51.2958 15.0421 48.3655 10.8546 43.6989L22.8112 24.8152V33.5516C22.8112 37.7299 24.4641 39.0865 25.8416 39.4663C27.2191 39.8462 29.3129 39.5748 31.572 36.0477L38.1288 25.5748C38.3492 25.2493 38.5145 24.9237 38.7349 24.7066V30.0245C38.7349 33.9314 40.3328 37.0787 43.0878 38.5981C45.5672 40.0089 48.7079 39.8462 51.2976 38.2725C54.4933 36.2105 56.2014 32.6291 55.981 28.3423Z" fill="white"/>
</svg>
