<svg width="98" height="98" viewBox="0 0 98 98" fill="none" xmlns="http://www.w3.org/2000/svg">
<path d="M49.0001 98.0001C39.3088 98.0001 29.8351 95.1263 21.7771 89.7421C13.7191 84.3579 7.43863 76.7052 3.72993 67.7516C0.0212314 58.798 -0.949133 48.9457 0.941544 39.4406C2.83222 29.9356 7.49902 21.2046 14.3518 14.3518C21.2046 7.49902 29.9356 2.83222 39.4406 0.941544C48.9457 -0.949133 58.798 0.0212314 67.7516 3.72993C76.7052 7.43863 84.3579 13.7191 89.7421 21.7771C95.1263 29.8351 98.0001 39.3088 98.0001 49.0001C97.9854 61.9912 92.8182 74.446 83.6321 83.6321C74.446 92.8182 61.9912 97.9854 49.0001 98.0001ZM49.0001 3.26669C39.9549 3.26669 31.1128 5.94891 23.592 10.9742C16.0711 15.9994 10.2094 23.142 6.74794 31.4987C3.28649 39.8553 2.38081 49.0508 4.14545 57.9222C5.91008 66.7936 10.2658 74.9425 16.6617 81.3384C23.0576 87.7344 31.2065 92.09 40.0779 93.8547C48.9493 95.6193 58.1448 94.7136 66.5015 91.2522C74.8582 87.7907 82.0007 81.929 87.026 74.4082C92.0512 66.8874 94.7334 58.0453 94.7334 49.0001C94.7196 36.8751 89.8968 25.2506 81.3232 16.677C72.7495 8.10329 61.1251 3.28053 49.0001 3.26669Z" fill="white"/>
<path d="M48.9998 91.4667C40.6007 91.4667 32.3902 88.9761 25.4065 84.3098C18.4229 79.6435 12.9799 73.0111 9.76566 65.2513C6.55145 57.4916 5.71047 48.9529 7.34906 40.7152C8.98764 32.4775 13.0322 24.9106 18.9713 18.9715C24.9104 13.0325 32.4772 8.9879 40.7149 7.34931C48.9527 5.71073 57.4913 6.55171 65.2511 9.76591C73.0108 12.9801 79.6432 18.4232 84.3095 25.4068C88.9758 32.3904 91.4665 40.6009 91.4665 49C91.4535 60.2589 86.9752 71.053 79.0139 79.0142C71.0527 86.9754 60.2587 91.4538 48.9998 91.4667ZM48.9998 9.8C41.2467 9.8 33.6678 12.099 27.2214 16.4064C20.775 20.7137 15.7506 26.836 12.7837 33.9988C9.81671 41.1617 9.04041 49.0435 10.553 56.6476C12.0655 64.2516 15.7989 71.2364 21.2812 76.7186C26.7634 82.2009 33.7482 85.9343 41.3522 87.4468C48.9563 88.9594 56.8381 88.1831 64.001 85.2161C71.1638 82.2492 77.286 77.2248 81.5934 70.7784C85.9008 64.332 88.1998 56.7531 88.1998 49C88.1877 38.6073 84.0538 28.6436 76.705 21.2948C69.3562 13.946 59.3926 9.8121 48.9998 9.8Z" fill="white"/>
<path d="M49 77.0379C48.7132 77.0385 48.4314 76.963 48.1834 76.819L25.3167 63.6168C25.0684 63.4734 24.8622 63.2673 24.7188 63.019C24.5755 62.7707 24.5 62.489 24.5 62.2023V35.7978C24.5 35.5111 24.5755 35.2295 24.7188 34.9812C24.8622 34.7329 25.0684 34.5267 25.3167 34.3834L48.1834 21.1811C48.4317 21.0378 48.7133 20.9623 49 20.9623C49.2867 20.9623 49.5684 21.0378 49.8167 21.1811L72.6834 34.3834C72.9317 34.5267 73.1379 34.7329 73.2812 34.9812C73.4246 35.2295 73.5 35.5111 73.5 35.7978V62.2023C73.5 62.489 73.4246 62.7707 73.2812 63.019C73.1379 63.2673 72.9317 63.4734 72.6834 63.6168L49.8167 76.819C49.5686 76.963 49.2868 77.0385 49 77.0379ZM27.7667 61.2599L49 73.5181L70.2334 61.2599V36.7403L49 24.4903L27.7667 36.7403V61.2599Z" fill="white"/>
<path d="M48.9997 69.4935C48.7132 69.494 48.4315 69.4191 48.1831 69.2763L31.8497 59.8454C31.6012 59.7019 31.3948 59.4955 31.2515 59.2469C31.1081 58.9983 31.0328 58.7163 31.0331 58.4293V39.5708C31.0328 39.2838 31.1081 39.0018 31.2515 38.7532C31.3948 38.5046 31.6012 38.2982 31.8497 38.1547L48.1831 28.7238C48.4314 28.5805 48.713 28.505 48.9997 28.505C49.2864 28.505 49.5681 28.5805 49.8164 28.7238L66.1497 38.1547C66.3983 38.2982 66.6046 38.5046 66.748 38.7532C66.8914 39.0018 66.9667 39.2838 66.9664 39.5708V58.4293C66.9667 58.7163 66.8914 58.9983 66.748 59.2469C66.6046 59.4955 66.3983 59.7019 66.1497 59.8454L49.8164 69.2763C49.5679 69.4191 49.2863 69.494 48.9997 69.4935ZM34.2997 57.4934L48.9997 65.9867L63.6997 57.4934V40.5067L48.9997 32.0134L34.2997 40.5067V57.4934Z" fill="white"/>
</svg>
