<svg width="28" height="34" viewBox="0 0 28 34" fill="none" xmlns="http://www.w3.org/2000/svg">
<path d="M24.9004 7.07697L16.6818 1.8167L13.8461 0L13.0834 0.491404L11.0141 1.8167L10.3171 2.26344L8.17484 3.63714L5.16036 5.56552L3.01812 6.93923L0 8.86761V22.8838L0.00729896 22.8875V25.1286L11.0251 32.1833L13.8607 34L16.6927 32.1833L27.8638 25.0281V8.97557L24.9004 7.07697ZM24.9004 23.3007L13.8607 30.3703L3.01447 23.4273V10.5689L5.15672 9.19894V22.5153L8.17119 24.4436V7.26682L10.3134 5.89685V25.8173L13.3279 27.7457V3.96474L13.8461 3.63342L14.5833 4.1062V27.5298L15.9227 26.7629L17.5978 25.6907V18.5803H24.8968V23.3007H24.9004ZM24.9004 15.5053H17.6014V6.0346L24.9004 10.7066V15.5053Z" fill="#EDEEF6"/>
</svg>
