<svg width="32" height="32" viewBox="0 0 32 32" fill="none" xmlns="http://www.w3.org/2000/svg">
<path d="M22.27 10.3945H21.88C21.55 8.47062 19.99 7 18.12 7H8.29C7.03 7 6 8.108 6 9.45775C6 9.54841 6.02 9.62899 6.03 9.71965C6.02 9.75994 6 9.80023 6 9.85059V21.2328C6 23.3078 7.68 25 9.73 25H22.27C24.32 25 26 23.3078 26 21.2328V14.1517C26 12.0767 24.32 10.3945 22.27 10.3945ZM21.71 18.9664C21.02 18.9664 20.45 18.4024 20.45 17.6973C20.45 16.9922 21.02 16.418 21.71 16.418C22.41 16.418 22.98 16.9922 22.98 17.6973C22.98 18.4024 22.41 18.9664 21.71 18.9664ZM8.29 8.51091H18.12C19.17 8.51091 20.05 9.30666 20.34 10.3945H8.29C7.85 10.3945 7.5 9.97146 7.5 9.45775C7.5 8.93397 7.85 8.51091 8.29 8.51091Z" fill="#EDEEF6"/>
</svg>
