<svg width="106" height="104" viewBox="0 0 106 104" fill="none" xmlns="http://www.w3.org/2000/svg">
<g filter="url(#filter0_di_78_552)">
<path d="M87.8327 44.5079C93.8961 47.4086 93.8962 56.0406 87.8327 58.9413L25.1438 88.9314C19.8339 91.4716 13.6914 87.6009 13.6914 81.7147V21.7345C13.6914 15.8483 19.8339 11.9776 25.1438 14.5178L87.8327 44.5079Z" fill="url(#paint0_linear_78_552)" shape-rendering="crispEdges"/>
<path d="M87.617 58.4903L24.9281 88.4803C19.95 90.8618 14.1914 87.233 14.1914 81.7147V21.7345C14.1914 16.2162 19.95 12.5874 24.9281 14.9689L87.6169 44.9589C93.3014 47.6784 93.3014 55.7708 87.617 58.4903Z" stroke="url(#paint1_linear_78_552)" shape-rendering="crispEdges"/>
</g>
<defs>
<filter id="filter0_di_78_552" x="0.358072" y="0.391397" width="105.356" height="102.666" filterUnits="userSpaceOnUse" color-interpolation-filters="sRGB">
<feFlood flood-opacity="0" result="BackgroundImageFix"/>
<feColorMatrix in="SourceAlpha" type="matrix" values="0 0 0 0 0 0 0 0 0 0 0 0 0 0 0 0 0 0 127 0" result="hardAlpha"/>
<feOffset/>
<feGaussianBlur stdDeviation="6.66667"/>
<feComposite in2="hardAlpha" operator="out"/>
<feColorMatrix type="matrix" values="0 0 0 0 0.231373 0 0 0 0 0.407843 0 0 0 0 1 0 0 0 0.1 0"/>
<feBlend mode="normal" in2="BackgroundImageFix" result="effect1_dropShadow_78_552"/>
<feBlend mode="normal" in="SourceGraphic" in2="effect1_dropShadow_78_552" result="shape"/>
<feColorMatrix in="SourceAlpha" type="matrix" values="0 0 0 0 0 0 0 0 0 0 0 0 0 0 0 0 0 0 127 0" result="hardAlpha"/>
<feOffset/>
<feGaussianBlur stdDeviation="5"/>
<feComposite in2="hardAlpha" operator="arithmetic" k2="-1" k3="1"/>
<feColorMatrix type="matrix" values="0 0 0 0 0.231373 0 0 0 0 0.407843 0 0 0 0 1 0 0 0 0.38 0"/>
<feBlend mode="normal" in2="shape" result="effect2_innerShadow_78_552"/>
</filter>
<linearGradient id="paint0_linear_78_552" x1="138.609" y1="-18.7065" x2="-1.41232" y2="145.377" gradientUnits="userSpaceOnUse">
<stop stop-color="#344EA6" stop-opacity="0.26"/>
<stop offset="0.505208" stop-color="#839FFF" stop-opacity="0.39"/>
<stop offset="1" stop-color="#829EFF" stop-opacity="0.04"/>
</linearGradient>
<linearGradient id="paint1_linear_78_552" x1="89.534" y1="11.1733" x2="25.997" y2="88.6474" gradientUnits="userSpaceOnUse">
<stop stop-color="white" stop-opacity="0.15"/>
<stop offset="1" stop-color="white" stop-opacity="0.44"/>
</linearGradient>
</defs>
</svg>
