<svg width="80" height="80" viewBox="0 0 80 80" fill="none" xmlns="http://www.w3.org/2000/svg">
<mask id="path-1-inside-1_78_686" fill="white">
<path d="M66.6673 34.7224C66.6673 52.8151 45.334 71.6668 40.0007 71.6668C34.6673 71.6668 13.334 52.8151 13.334 34.7224C13.334 20.1482 25.2731 8.3335 40.0007 8.3335C54.7282 8.3335 66.6673 20.1482 66.6673 34.7224Z"/>
</mask>
<g filter="url(#filter0_i_78_686)">
<path d="M66.6673 34.7224C66.6673 52.8151 45.334 71.6668 40.0007 71.6668C34.6673 71.6668 13.334 52.8151 13.334 34.7224C13.334 20.1482 25.2731 8.3335 40.0007 8.3335C54.7282 8.3335 66.6673 20.1482 66.6673 34.7224Z" fill="url(#paint0_linear_78_686)"/>
</g>
<path d="M65.834 34.7224C65.834 43.4714 60.6548 52.5166 54.7022 59.4359C51.7384 62.8812 48.6159 65.7602 45.9193 67.7704C44.5702 68.7761 43.3411 69.5543 42.3029 70.0772C41.2384 70.6133 40.4659 70.8335 40.0007 70.8335V72.5002C40.8687 72.5002 41.9296 72.1313 43.0526 71.5657C44.2018 70.987 45.5145 70.151 46.9154 69.1067C49.7188 67.0168 52.9296 64.0521 55.9657 60.5228C62.0132 53.4931 67.5007 44.0661 67.5007 34.7224H65.834ZM40.0007 70.8335C39.5354 70.8335 38.7629 70.6133 37.6984 70.0772C36.6602 69.5543 35.4311 68.7761 34.082 67.7704C31.3854 65.7602 28.2629 62.8812 25.2991 59.4359C19.3465 52.5166 14.1673 43.4714 14.1673 34.7224H12.5007C12.5007 44.0661 17.9881 53.4931 24.0356 60.5228C27.0717 64.0521 30.2826 67.0168 33.0859 69.1067C34.4868 70.151 35.7995 70.987 36.9487 71.5657C38.0717 72.1313 39.1326 72.5002 40.0007 72.5002V70.8335ZM14.1673 34.7224C14.1673 20.6166 25.725 9.16683 40.0007 9.16683V7.50016C24.8211 7.50016 12.5007 19.6798 12.5007 34.7224H14.1673ZM40.0007 9.16683C54.2763 9.16683 65.834 20.6166 65.834 34.7224H67.5007C67.5007 19.6798 55.1802 7.50016 40.0007 7.50016V9.16683Z" fill="url(#paint1_linear_78_686)" fill-opacity="0.7" mask="url(#path-1-inside-1_78_686)"/>
<g filter="url(#filter1_d_78_686)">
<circle r="10" transform="matrix(-1 0 0 1 40.001 33.3335)" fill="#EDEEF6"/>
</g>
<defs>
<filter id="filter0_i_78_686" x="13.334" y="8.3335" width="53.3335" height="63.3333" filterUnits="userSpaceOnUse" color-interpolation-filters="sRGB">
<feFlood flood-opacity="0" result="BackgroundImageFix"/>
<feBlend mode="normal" in="SourceGraphic" in2="BackgroundImageFix" result="shape"/>
<feColorMatrix in="SourceAlpha" type="matrix" values="0 0 0 0 0 0 0 0 0 0 0 0 0 0 0 0 0 0 127 0" result="hardAlpha"/>
<feOffset/>
<feGaussianBlur stdDeviation="5"/>
<feComposite in2="hardAlpha" operator="arithmetic" k2="-1" k3="1"/>
<feColorMatrix type="matrix" values="0 0 0 0 0.231373 0 0 0 0 0.407843 0 0 0 0 1 0 0 0 0.38 0"/>
<feBlend mode="normal" in2="shape" result="effect1_innerShadow_78_686"/>
</filter>
<filter id="filter1_d_78_686" x="23.3343" y="16.6668" width="33.3333" height="33.3333" filterUnits="userSpaceOnUse" color-interpolation-filters="sRGB">
<feFlood flood-opacity="0" result="BackgroundImageFix"/>
<feColorMatrix in="SourceAlpha" type="matrix" values="0 0 0 0 0 0 0 0 0 0 0 0 0 0 0 0 0 0 127 0" result="hardAlpha"/>
<feOffset/>
<feGaussianBlur stdDeviation="3.33333"/>
<feComposite in2="hardAlpha" operator="out"/>
<feColorMatrix type="matrix" values="0 0 0 0 0.231373 0 0 0 0 0.407843 0 0 0 0 1 0 0 0 0.35 0"/>
<feBlend mode="normal" in2="BackgroundImageFix" result="effect1_dropShadow_78_686"/>
<feBlend mode="normal" in="SourceGraphic" in2="effect1_dropShadow_78_686" result="shape"/>
</filter>
<linearGradient id="paint0_linear_78_686" x1="-3.99935" y1="-16.9998" x2="109.263" y2="68.0674" gradientUnits="userSpaceOnUse">
<stop stop-color="#344EA6" stop-opacity="0.26"/>
<stop offset="0.505208" stop-color="#587EFF" stop-opacity="0.12"/>
<stop offset="1" stop-color="#829EFF" stop-opacity="0.04"/>
</linearGradient>
<linearGradient id="paint1_linear_78_686" x1="14.6673" y1="17.8335" x2="67.8904" y2="56.2501" gradientUnits="userSpaceOnUse">
<stop stop-color="white" stop-opacity="0.15"/>
<stop offset="1" stop-color="white" stop-opacity="0.44"/>
</linearGradient>
</defs>
</svg>
