<svg width="1088" height="646" viewBox="0 0 1088 646" fill="none" xmlns="http://www.w3.org/2000/svg">
<g filter="url(#filter0_f_122_31)">
<path d="M707.372 516.16L193.43 219.327V265.447L707.372 562.284V516.16Z" fill="#040918"/>
</g>
<path d="M707.372 516.16L193.43 219.327L573.168 0L1087.11 296.837L707.372 516.16Z" fill="url(#paint0_linear_122_31)"/>
<path d="M297.65 600.916L4 431.317L220.97 306L514.62 475.604L297.65 600.916Z" fill="url(#paint1_linear_122_31)"/>
<g filter="url(#filter1_f_122_31)">
<path d="M297.65 600.916L4 431.317V472.255L297.65 641.855V600.916Z" fill="#040918"/>
</g>
<g filter="url(#filter2_f_122_31)">
<path d="M514.62 516.542L297.65 641.855V600.916L514.62 475.604V516.542Z" fill="#040918"/>
</g>
<defs>
<filter id="filter0_f_122_31" x="183.43" y="209.327" width="533.942" height="362.957" filterUnits="userSpaceOnUse" color-interpolation-filters="sRGB">
<feFlood flood-opacity="0" result="BackgroundImageFix"/>
<feBlend mode="normal" in="SourceGraphic" in2="BackgroundImageFix" result="shape"/>
<feGaussianBlur stdDeviation="5" result="effect1_foregroundBlur_122_31"/>
</filter>
<filter id="filter1_f_122_31" x="0" y="427.317" width="301.65" height="218.537" filterUnits="userSpaceOnUse" color-interpolation-filters="sRGB">
<feFlood flood-opacity="0" result="BackgroundImageFix"/>
<feBlend mode="normal" in="SourceGraphic" in2="BackgroundImageFix" result="shape"/>
<feGaussianBlur stdDeviation="2" result="effect1_foregroundBlur_122_31"/>
</filter>
<filter id="filter2_f_122_31" x="293.65" y="471.604" width="224.97" height="174.251" filterUnits="userSpaceOnUse" color-interpolation-filters="sRGB">
<feFlood flood-opacity="0" result="BackgroundImageFix"/>
<feBlend mode="normal" in="SourceGraphic" in2="BackgroundImageFix" result="shape"/>
<feGaussianBlur stdDeviation="2" result="effect1_foregroundBlur_122_31"/>
</filter>
<linearGradient id="paint0_linear_122_31" x1="442" y1="383" x2="954" y2="-8.99998" gradientUnits="userSpaceOnUse">
<stop stop-color="#060B1C"/>
<stop offset="0.489583" stop-color="#0F1527" stop-opacity="0.473958"/>
<stop offset="1" stop-color="#060B1C"/>
</linearGradient>
<linearGradient id="paint1_linear_122_31" x1="12.8889" y1="417.667" x2="560.948" y2="466.834" gradientUnits="userSpaceOnUse">
<stop stop-color="#060B1C"/>
<stop offset="0.489583" stop-color="#151A2D" stop-opacity="0.473958"/>
<stop offset="1" stop-color="#060B1C"/>
</linearGradient>
</defs>
</svg>
