<svg width="531" height="97" viewBox="0 0 531 97" fill="none" xmlns="http://www.w3.org/2000/svg">
<line x1="211" y1="54.5" x2="109" y2="54.5" stroke="#585B70" stroke-dasharray="6 6"/>
<line x1="426" y1="54.5" x2="324" y2="54.5" stroke="#585B70" stroke-dasharray="6 6"/>
<path d="M80.4324 88.5H15.5676C7.22542 88.5 0.5 81.8282 0.5 73.5714V32.4286C0.5 24.1718 7.22542 17.5 15.5676 17.5H80.4324C88.7746 17.5 95.5 24.1718 95.5 32.4286V73.5714C95.5 81.8282 88.7746 88.5 80.4324 88.5Z" fill="#D9D9D9" fill-opacity="0.05" stroke="#585B70"/>
<path d="M48.5 66C55.9558 66 62 59.9558 62 52.5C62 45.0442 55.9558 39 48.5 39C41.0442 39 35 45.0442 35 52.5C35 59.9558 41.0442 66 48.5 66Z" stroke="#F3C211" stroke-linecap="round" stroke-linejoin="round"/>
<path d="M15 58C17.7614 58 20 55.7614 20 53C20 50.2386 17.7614 48 15 48C12.2386 48 10 50.2386 10 53C10 55.7614 12.2386 58 15 58Z" fill="#585B70"/>
<path d="M79 58C81.7614 58 84 55.7614 84 53C84 50.2386 81.7614 48 79 48C76.2386 48 74 50.2386 74 53C74 55.7614 76.2386 58 79 58Z" fill="#585B70"/>
<path d="M515 20.2273V18.8253C515 9.61056 506.56 2.70562 497.528 4.5309L452.973 13.535C446.045 14.9349 441.119 21.1005 441.282 28.166L441.74 48" stroke="#585B70"/>
<path d="M485.5 28C492.956 28 499 21.9558 499 14.5C499 7.04418 492.956 1 485.5 1C478.044 1 472 7.04418 472 14.5C472 21.9558 478.044 28 485.5 28Z" fill="#06081C" stroke="#F3C211" stroke-linecap="round" stroke-linejoin="round"/>
<rect x="441.5" y="19.5" width="85" height="67" rx="13.5" fill="#111225" stroke="#585B70"/>
<path d="M457 67H482" stroke="#585B70" stroke-linecap="round" stroke-linejoin="round"/>
<path d="M500 53.5C500 47.701 504.701 43 510.5 43H530V64H510.5C504.701 64 500 59.299 500 53.5Z" fill="#111225" stroke="#585B70"/>
<path d="M511 53H512" stroke="#585B70" stroke-width="3" stroke-linecap="round" stroke-linejoin="round"/>
<circle cx="266" cy="54" r="42.5" fill="#D9D9D9" fill-opacity="0.05" stroke="#585B70"/>
<path d="M266.434 23.6368L291.301 40.1154V68.7613L266.434 84.3725L240.701 68.7563V40.1204L266.434 23.6368Z" stroke="#F3C211"/>
<path d="M252.445 33.6548L252.445 69.0376" stroke="#F3C211"/>
<path d="M262.943 26.5784L262.943 74.3452" stroke="#F3C211"/>
<path d="M269.938 26.5784L269.938 74.3452" stroke="#F3C211"/>
<path d="M290.928 49.5769H269.938" stroke="#F3C211"/>
</svg>
