<svg width="2346" height="1535" viewBox="0 0 2346 1535" fill="none" xmlns="http://www.w3.org/2000/svg">
<g opacity="0.5" filter="url(#filter0_f_81_2085)">
<path d="M1446.72 1417.87C973.778 1282.42 1072.38 1100.51 1180.8 1026.49C1635.72 661.496 2552.15 951.732 2178.55 1039.68C1804.94 1127.63 2037.89 1587.17 1446.72 1417.87Z" fill="url(#paint0_radial_81_2085)"/>
</g>
<g opacity="0.5" filter="url(#filter1_f_81_2085)">
<path d="M842.799 105.807C532.401 68.7558 446.36 54.5889 381.013 183.18C315.667 311.771 387.548 680.107 442.004 637.607C496.46 595.106 594.48 516.644 740.422 585.298C886.363 653.953 1261.02 499.208 1109.63 414.207C958.245 329.207 1153.2 142.859 842.799 105.807Z" fill="url(#paint1_radial_81_2085)"/>
</g>
<defs>
<filter id="filter0_f_81_2085" x="1011" y="767" width="1335" height="768" filterUnits="userSpaceOnUse" color-interpolation-filters="sRGB">
<feFlood flood-opacity="0" result="BackgroundImageFix"/>
<feBlend mode="normal" in="SourceGraphic" in2="BackgroundImageFix" result="shape"/>
<feGaussianBlur stdDeviation="40" result="effect1_foregroundBlur_81_2085"/>
</filter>
<filter id="filter1_f_81_2085" x="275" y="0" width="950" height="721" filterUnits="userSpaceOnUse" color-interpolation-filters="sRGB">
<feFlood flood-opacity="0" result="BackgroundImageFix"/>
<feBlend mode="normal" in="SourceGraphic" in2="BackgroundImageFix" result="shape"/>
<feGaussianBlur stdDeviation="40" result="effect1_foregroundBlur_81_2085"/>
</filter>
<radialGradient id="paint0_radial_81_2085" cx="0" cy="0" r="1" gradientUnits="userSpaceOnUse" gradientTransform="translate(1711.94 1112.94) rotate(90) scale(265.941 611.682)">
<stop stop-color="#525F8C"/>
<stop offset="0.557292" stop-color="#1D254E"/>
<stop offset="1" stop-color="#06081C"/>
</radialGradient>
<radialGradient id="paint1_radial_81_2085" cx="0" cy="0" r="1" gradientUnits="userSpaceOnUse" gradientTransform="translate(772.481 325.383) rotate(90) scale(245.383 411.259)">
<stop stop-color="#525F8C"/>
<stop offset="0.557292" stop-color="#1D254E"/>
<stop offset="1" stop-color="#06081C"/>
</radialGradient>
</defs>
</svg>
