<svg width="135" height="40" viewBox="0 0 135 40" fill="none" xmlns="http://www.w3.org/2000/svg">
<g clip-path="url(#clip0_80_127)">
<path d="M130 40H5C2.25 40 0 37.75 0 35V5C0 2.25 2.25 0 5 0H130C132.75 0 135 2.25 135 5V35C135 37.75 132.75 40 130 40Z" fill="black"/>
<path d="M130 0H5C2.25 0 0 2.25 0 5V35C0 37.75 2.25 40 5 40H130C132.75 40 135 37.75 135 35V5C135 2.25 132.75 0 130 0ZM130 0.8C132.316 0.8 134.2 2.6844 134.2 5V35C134.2 37.316 132.316 39.2004 130 39.2004H5C2.6844 39.2004 0.800004 37.316 0.800004 35V5C0.800004 2.6844 2.6844 0.8 5 0.8H130Z" fill="#A6A6A6"/>
<path d="M106.936 30.0001H108.802V17.4989H106.936V30.0001ZM123.743 22.0021L121.604 27.4219H121.54L119.32 22.0021H117.311L120.64 29.5774L118.741 33.791H120.688L125.818 22.0021H123.743ZM113.161 28.5802C112.549 28.5802 111.698 28.2746 111.698 27.5185C111.698 26.5535 112.759 26.1837 113.675 26.1837C114.496 26.1837 114.881 26.3606 115.38 26.6021C115.235 27.7598 114.238 28.5802 113.161 28.5802ZM113.386 21.7286C112.035 21.7286 110.636 22.3238 110.057 23.6426L111.713 24.3341C112.067 23.6426 112.726 23.4173 113.418 23.4173C114.384 23.4173 115.364 23.9966 115.38 25.0258V25.1543C115.042 24.9614 114.32 24.6719 113.434 24.6719C111.649 24.6719 109.831 25.6527 109.831 27.4863C109.831 29.159 111.295 30.2367 112.935 30.2367C114.19 30.2367 114.881 29.6738 115.316 29.0146H115.38V29.9794H117.181V25.1863C117.181 22.9673 115.525 21.7286 113.386 21.7286ZM101.854 23.5238H99.2003V19.2387H101.854C103.25 19.2387 104.042 20.3938 104.042 21.3813C104.042 22.3501 103.25 23.5238 101.854 23.5238ZM101.806 17.4989H97.3353V30.0001H99.2003V25.2638H101.806C103.875 25.2638 105.907 23.7665 105.907 21.3813C105.907 18.9962 103.875 17.4989 101.806 17.4989ZM77.4252 28.5825C76.1361 28.5825 75.0568 27.5031 75.0568 26.0207C75.0568 24.5227 76.1361 23.427 77.4252 23.427C78.6982 23.427 79.6971 24.5227 79.6971 26.0207C79.6971 27.5031 78.6982 28.5825 77.4252 28.5825ZM79.5676 22.7021H79.5036C79.0845 22.2027 78.2784 21.7517 77.2639 21.7517C75.1373 21.7517 73.1881 23.6203 73.1881 26.0207C73.1881 28.4051 75.1373 30.2578 77.2639 30.2578C78.2784 30.2578 79.0845 29.8066 79.5036 29.2914H79.5676V29.9035C79.5676 31.531 78.6982 32.4009 77.2963 32.4009C76.1525 32.4009 75.4436 31.579 75.1533 30.8863L73.5264 31.563C73.9936 32.6906 75.2342 34.0762 77.2963 34.0762C79.4872 34.0762 81.3397 32.7871 81.3397 29.6458V22.0094H79.5676V22.7021ZM82.6289 30.0001H84.4978V17.4985H82.6289V30.0001ZM87.2524 25.8758C87.204 24.2325 88.5252 23.395 89.4756 23.395C90.217 23.395 90.8451 23.7653 91.0543 24.2974L87.2524 25.8758ZM93.052 24.4582C92.6985 23.5074 91.6185 21.7517 89.4109 21.7517C87.2204 21.7517 85.3999 23.4754 85.3999 26.0047C85.3999 28.3891 87.204 30.2578 89.6208 30.2578C91.5701 30.2578 92.6985 29.0657 93.1651 28.373L91.7152 27.4062C91.2322 28.1153 90.5712 28.5825 89.6208 28.5825C88.6703 28.5825 87.9937 28.1474 87.5583 27.2938L93.2455 24.9414L93.052 24.4582ZM47.744 23.0566V24.861H52.0615C51.9326 25.8758 51.5943 26.6169 51.0787 27.1325C50.4506 27.761 49.4678 28.4535 47.744 28.4535C45.0858 28.4535 43.0076 26.311 43.0076 23.6527C43.0076 20.9946 45.0858 18.8517 47.744 18.8517C49.1779 18.8517 50.2248 19.4157 50.9982 20.1406L52.271 18.8681C51.1917 17.8367 49.7576 17.0474 47.744 17.0474C44.1029 17.0474 41.042 20.0118 41.042 23.6527C41.042 27.2938 44.1029 30.2578 47.744 30.2578C49.7096 30.2578 51.1916 29.6138 52.3514 28.4051C53.5436 27.213 53.9143 25.5375 53.9143 24.1845C53.9143 23.7653 53.8822 23.379 53.8174 23.0566H47.744ZM58.8229 28.5825C57.5338 28.5825 56.4221 27.5191 56.4221 26.0047C56.4221 24.4742 57.5338 23.427 58.8229 23.427C60.1115 23.427 61.2232 24.4742 61.2232 26.0047C61.2232 27.5191 60.1115 28.5825 58.8229 28.5825ZM58.8229 21.7517C56.4705 21.7517 54.5533 23.5398 54.5533 26.0047C54.5533 28.4535 56.4705 30.2578 58.8229 30.2578C61.1748 30.2578 63.092 28.4535 63.092 26.0047C63.092 23.5398 61.1748 21.7517 58.8229 21.7517ZM68.1361 28.5825C66.8475 28.5825 65.7358 27.5191 65.7358 26.0047C65.7358 24.4742 66.8475 23.427 68.1361 23.427C69.4248 23.427 70.5365 24.4742 70.5365 26.0047C70.5365 27.5191 69.4248 28.5825 68.1361 28.5825ZM68.1361 21.7517C65.7838 21.7517 63.8671 23.5398 63.8671 26.0047C63.8671 28.4535 65.7838 30.2578 68.1361 30.2578C70.4881 30.2578 72.4053 28.4535 72.4053 26.0047C72.4053 23.5398 70.4881 21.7517 68.1361 21.7517Z" fill="white"/>
<path d="M10.5098 32.3895L10.4355 32.3184C10.1444 32.0105 9.97269 31.5324 9.97269 30.9133V31.059V8.94301C9.97269 8.94101 9.97269 8.93949 9.97269 8.93789C9.97269 8.93981 9.97269 8.94141 9.97269 8.94341V9.08949C9.97269 8.41909 10.173 7.91413 10.5086 7.61133L22.8984 20.0008L10.5098 32.3895ZM9.97269 8.93669C9.97269 8.88165 9.97417 8.82813 9.97698 8.77541C9.97417 8.82773 9.97269 8.88165 9.97269 8.93669ZM9.97698 8.77301C9.97698 8.77229 9.97698 8.77149 9.97729 8.77069C9.97698 8.77149 9.97698 8.77229 9.97698 8.77301ZM9.97729 8.76605C9.97729 8.76565 9.97729 8.76525 9.97729 8.76485C9.97729 8.76525 9.97729 8.76565 9.97729 8.76605Z" fill="url(#paint0_linear_80_127)"/>
<path d="M27.028 24.2785L27.1222 24.225L32.0151 21.4449C32.4815 21.1797 32.7925 20.8582 32.9476 20.5179C32.7929 20.8582 32.4819 21.1801 32.0151 21.4453L27.1222 24.2254L27.028 24.2785ZM27.0292 24.1319L22.8987 20.0007L27.0288 15.8702L32.0151 18.703C32.6483 19.0629 33.0038 19.5266 33.0632 20.0003C33.0632 20.0007 33.0632 20.0015 33.0632 20.0022C33.0038 20.475 32.6483 20.939 32.0151 21.2987L27.0292 24.1319Z" fill="url(#paint1_linear_80_127)"/>
<path d="M11.3936 32.8615C11.0475 32.8615 10.7455 32.749 10.51 32.5364L10.5104 32.536C10.7459 32.7486 11.0483 32.8615 11.3944 32.8615C11.4244 32.8615 11.4549 32.8607 11.4858 32.8591C11.4545 32.8607 11.4236 32.8615 11.3936 32.8615ZM11.394 32.715C11.0479 32.7154 10.7459 32.6024 10.5104 32.3899V32.3896L22.8991 20.001L27.0295 24.1322L12.5143 32.3795C12.1127 32.6071 11.7322 32.715 11.394 32.715ZM10.5069 32.5338C10.485 32.5139 10.4635 32.4927 10.4424 32.4708L10.5069 32.5338Z" fill="url(#paint2_linear_80_127)"/>
<path d="M22.8986 20.0007L10.5088 7.6112C10.7443 7.3991 11.0459 7.2866 11.3916 7.2866C11.7307 7.2866 12.1115 7.3948 12.5139 7.6229L27.0287 15.8702L22.8986 20.0007ZM27.1221 15.7769L12.5139 7.4769C12.1115 7.2487 11.7307 7.1405 11.3916 7.1405C11.39 7.1405 11.3889 7.1405 11.3873 7.1405C11.3893 7.1405 11.3908 7.1405 11.3932 7.1405C11.7315 7.1405 12.1119 7.24829 12.5139 7.47649L27.1221 15.7769Z" fill="url(#paint3_linear_80_127)"/>
<path d="M11.4853 32.8589C11.7997 32.8409 12.1478 32.7328 12.5138 32.5253L27.0278 24.2784L12.5138 32.5253C12.1481 32.7332 11.7997 32.8409 11.4853 32.8589ZM10.5095 32.5363L10.5064 32.5336C10.5075 32.5344 10.5087 32.5355 10.5095 32.5363ZM10.4419 32.4707L10.4356 32.4644V32.464C10.438 32.4664 10.4399 32.4687 10.4419 32.4707Z" fill="black"/>
<path d="M27.0283 24.2785L27.1234 24.2246L27.0283 24.2785Z" fill="url(#paint4_linear_80_127)"/>
<path d="M11.3939 32.8612C11.0478 32.8612 10.7455 32.7484 10.5099 32.5358L10.5095 32.5362C10.5087 32.5354 10.5075 32.5344 10.5064 32.5336L10.4419 32.4706C10.4399 32.4686 10.438 32.4664 10.4356 32.464L10.5099 32.3897C10.7455 32.6022 11.0474 32.7152 11.3935 32.7148C11.7317 32.7148 12.1122 32.6069 12.5138 32.3792L27.029 24.132L27.122 24.2249L27.0278 24.2784L12.5138 32.5253C12.1478 32.7328 11.7997 32.8409 11.4853 32.8589C11.4544 32.8604 11.4239 32.8612 11.3939 32.8612Z" fill="url(#paint5_linear_80_127)"/>
<path d="M10.4349 32.4646C10.1442 32.1567 9.97269 31.6786 9.97269 31.0595V31.0591C9.97269 31.6786 10.1442 32.1563 10.4349 32.4642V32.4646Z" fill="black"/>
<path d="M10.4349 32.464C10.1442 32.1561 9.97269 31.6784 9.97269 31.0589V30.9132C9.97269 31.5323 10.1442 32.0104 10.4349 32.3183L10.509 32.3895L10.4349 32.464Z" fill="url(#paint6_linear_80_127)"/>
<path d="M10.4356 32.464L10.5104 32.3892V32.3894L10.4356 32.464Z" fill="url(#paint7_linear_80_127)"/>
<path d="M32.9473 20.5179C33.0246 20.3491 33.0635 20.1756 33.0635 20.0021C33.0635 20.0019 33.0635 20.0015 33.0635 20.0015C33.0635 20.1752 33.0246 20.3487 32.9473 20.5179Z" fill="black"/>
<path d="M27.1223 24.2247L27.0293 24.1316L32.0152 21.2984C32.6484 20.9388 33.0039 20.4747 33.0633 20.002C33.0633 20.1755 33.0246 20.3488 32.9477 20.5176C32.7926 20.8579 32.4817 21.1794 32.0152 21.4446L27.1223 24.2247Z" fill="url(#paint8_linear_80_127)"/>
<path d="M33.0635 20.0007V20.0003C33.063 19.4772 32.7134 18.9542 32.0153 18.5573L27.1225 15.7772H27.1221L27.1225 15.7769L32.0153 18.5569C32.7143 18.9538 33.0643 19.4776 33.0635 20.0007Z" fill="#404040"/>
<path d="M33.0627 20.0005C33.0034 19.5266 32.6478 19.0629 32.0147 18.7032L27.0283 15.8704L27.1213 15.7773H27.1217L32.0147 18.5574C32.7128 18.9544 33.0624 19.4773 33.0627 20.0005Z" fill="url(#paint9_linear_80_127)"/>
<path d="M9.97269 8.93795C9.97269 8.93755 9.97269 8.93715 9.97269 8.93675C9.97269 8.93715 9.97269 8.93755 9.97269 8.93795ZM9.97698 8.77539C9.97698 8.77459 9.97698 8.77379 9.97698 8.77299C9.97698 8.77379 9.97698 8.77459 9.97698 8.77539ZM9.97729 8.77075C9.97729 8.76915 9.97729 8.76763 9.97729 8.76603C9.97729 8.76763 9.97729 8.76915 9.97729 8.77075ZM9.97729 8.76483C10.0352 7.73753 10.5938 7.14412 11.3839 7.14062C11.0414 7.14263 10.743 7.25512 10.5094 7.46563V7.46522L10.5066 7.46802C10.4819 7.49022 10.4586 7.51372 10.4355 7.53792C10.173 7.81563 10.0074 8.23163 9.97729 8.76483Z" fill="#404040"/>
<path d="M9.97269 9.08942V8.94326C9.97269 8.94126 9.97269 8.93966 9.97269 8.93782C9.97269 8.93742 9.97269 8.93702 9.97269 8.93662C9.97269 8.8815 9.97417 8.82758 9.97698 8.77526C9.97698 8.77446 9.97698 8.77366 9.97698 8.77286C9.97698 8.77222 9.97698 8.77142 9.97729 8.77062C9.97729 8.76902 9.97729 8.7675 9.97729 8.7659C9.97729 8.7655 9.97729 8.7651 9.97729 8.7647C10.0073 8.2315 10.1727 7.81549 10.4349 7.53779L10.5078 7.61119C10.1727 7.91399 9.97269 8.41902 9.97269 9.08942ZM10.5058 7.46789L10.5086 7.46509C10.5078 7.46629 10.5067 7.46709 10.5058 7.46789Z" fill="url(#paint10_linear_80_127)"/>
<path d="M27.0286 15.8702L12.5138 7.62291C12.1114 7.39481 11.7306 7.28661 11.3915 7.28661C11.0458 7.28661 10.7442 7.3991 10.5087 7.61121L10.4356 7.53781C10.4587 7.51361 10.4821 7.4901 10.5067 7.4679C10.5075 7.4671 10.5087 7.4663 10.5095 7.4655C10.7431 7.25501 11.0415 7.1425 11.3841 7.1405C11.3849 7.1405 11.386 7.1405 11.3872 7.1405C11.3888 7.1405 11.3899 7.1405 11.3915 7.1405C11.7306 7.1405 12.1114 7.2487 12.5138 7.4769L27.122 15.7769L27.1216 15.7772L27.0286 15.8702Z" fill="url(#paint11_linear_80_127)"/>
<path d="M43.4969 9.96684C43.5085 10.916 43.3184 11.6816 42.9277 12.2629H45.9609V7.7371H43.4969V9.96684ZM42.1141 14.2734H41.377V12.2629H41.9637C42.4832 11.8152 42.7371 11.0504 42.7266 9.96684V7H46.7324V12.2629H47.4024V14.2734H46.6649V13H42.1141V14.2734Z" fill="white"/>
<path d="M43.4963 9.96671L43.3963 9.96791L43.397 10.0487C43.3966 10.9468 43.2092 11.664 42.8439 12.2069L42.7393 12.3628H46.0603V7.63701H43.3963V9.96751V9.96791L43.4963 9.96671H43.5963V7.83701H45.8603V12.1628H42.9271V12.2628L43.01 12.3183C43.4033 11.7331 43.597 10.9737 43.597 10.0487L43.5963 9.96551L43.4963 9.96671H43.5963H43.4963ZM42.1134 14.2733V14.1733H41.4764V12.3628H41.9631H42.0001L42.0283 12.3386C42.5689 11.8722 42.8264 11.0952 42.8264 10.0323L42.826 9.96591V9.96671V7.0999H46.6318V12.3628H47.3018V14.1733H46.7643V12.9999V12.8999H42.0135V14.2733H42.1134V14.1733V14.2733H42.2135V13.0999H46.5643V14.2733V14.3733H47.4018H47.5017V12.1628H46.8318V6.8999H42.626V9.96711V9.96751L42.6264 10.0323C42.626 11.0671 42.3752 11.7769 41.8978 12.1866L41.9631 12.2628V12.1628H41.3764H41.2764V14.3733H42.1134H42.2135V14.2733H42.1134Z" fill="white"/>
<path d="M49.5839 11.7224C50.0284 12.172 50.5715 12.3966 51.2141 12.3966C51.8565 12.3966 52.4004 12.172 52.8437 11.7224C53.2882 11.2728 53.5109 10.6981 53.5109 10.0001C53.5109 9.30211 53.2882 8.72739 52.8437 8.27779C52.4004 7.82823 51.8565 7.60363 51.2141 7.60363C50.5715 7.60363 50.0284 7.82823 49.5839 8.27779C49.1406 8.72739 48.918 9.30211 48.918 10.0001C48.918 10.6981 49.1406 11.2728 49.5839 11.7224ZM53.414 12.2248C52.8242 12.8313 52.091 13.1341 51.2141 13.1341C50.3371 13.1341 49.6035 12.8313 49.0148 12.2248C48.425 11.6188 48.1309 10.8772 48.1309 10.0001C48.1309 9.12315 48.425 8.38131 49.0148 7.77552C49.6035 7.16883 50.3371 6.86572 51.2141 6.86572C52.0859 6.86572 52.8175 7.17043 53.4101 7.77943C54.0019 8.38843 54.2979 9.12859 54.2979 10.0001C54.2979 10.8772 54.003 11.6188 53.414 12.2248Z" fill="white"/>
<path d="M49.5844 11.722L49.5133 11.7924C49.9738 12.26 50.5485 12.4975 51.2146 12.4963C51.8801 12.4975 52.4559 12.26 52.9153 11.7924C53.3789 11.3244 53.6122 10.7188 53.6113 9.99981C53.6122 9.28069 53.3789 8.67517 52.9153 8.20717C52.4559 7.73958 51.8801 7.50208 51.2146 7.50328C50.5485 7.50208 49.9738 7.73958 49.5133 8.20717C49.0508 8.67517 48.8176 9.28069 48.8184 9.99981C48.8176 10.7188 49.0508 11.3244 49.5133 11.7924L49.5844 11.722L49.656 11.6518C49.2316 11.22 49.0195 10.6771 49.0184 9.99981C49.0195 9.32245 49.2316 8.77949 49.656 8.34781H49.6556C50.0837 7.91618 50.595 7.70448 51.2146 7.70328C51.8337 7.70448 52.3461 7.91618 52.7731 8.34781L52.7746 8.34941L52.7731 8.34781C53.1984 8.77949 53.4102 9.32245 53.4113 9.99981C53.4102 10.6771 53.1984 11.22 52.7731 11.6518C52.3461 12.0834 51.8337 12.2951 51.2146 12.2963C50.595 12.2951 50.0837 12.0834 49.6556 11.6518L49.5844 11.722ZM53.4145 12.2244L53.343 12.1548C52.77 12.7424 52.0684 13.0326 51.2146 13.0338C50.3602 13.0326 49.659 12.7424 49.0867 12.1548C48.5149 11.5654 48.2325 10.8544 48.2314 9.99981C48.2325 9.14509 48.5149 8.43421 49.0867 7.84468C49.659 7.25718 50.3602 6.96658 51.2146 6.96538C52.0633 6.96658 52.7629 7.25838 53.3391 7.84898C53.9133 8.44117 54.1974 9.15101 54.1985 9.99981C54.1974 10.8544 53.9142 11.5654 53.343 12.1548L53.4145 12.2244L53.4864 12.2939C54.0926 11.6712 54.3992 10.899 54.3985 9.99981C54.3992 9.10565 54.0919 8.33501 53.4825 7.70958C52.873 7.08178 52.1099 6.76428 51.2146 6.76538C50.3146 6.76428 49.5488 7.08028 48.9434 7.70568V7.70528C48.3359 8.32829 48.0305 9.10061 48.0314 9.99981C48.0305 10.899 48.3359 11.6712 48.9434 12.2943V12.2939C49.5488 12.9192 50.3146 13.2346 51.2146 13.2338C52.1141 13.2346 52.8797 12.9192 53.4864 12.2939L53.4145 12.2244Z" fill="white"/>
<path d="M58.1797 13.134C57.2969 13.134 56.5566 12.8352 55.959 12.2371C55.3601 11.6395 55.0624 10.8937 55.0624 9.99999C55.0624 9.10623 55.3601 8.36047 55.959 7.7629C56.5566 7.1648 57.2969 6.8656 58.1797 6.8656C59.084 6.8656 59.8191 7.1926 60.3835 7.8461L59.8464 8.36599C59.4395 7.8574 58.8828 7.6035 58.1797 7.6035C57.5254 7.6035 56.9734 7.8242 56.5242 8.26559C56.0742 8.70703 55.8496 9.28519 55.8496 9.99999C55.8496 10.7148 56.0742 11.2934 56.5242 11.7344C56.9734 12.1758 57.5254 12.3965 58.1797 12.3965C58.9003 12.3965 59.5145 12.1062 60.0233 11.5254L60.5594 12.0613C60.2851 12.391 59.9422 12.6523 59.5281 12.8445C59.1152 13.0375 58.6648 13.134 58.1797 13.134Z" fill="white"/>
<path d="M58.1791 13.1338V13.0338C57.3186 13.0326 56.6096 12.7455 56.0291 12.1662C55.4489 11.586 55.1626 10.8712 55.1619 9.99981C55.1626 9.12829 55.4489 8.41349 56.0291 7.83338C56.6096 7.25368 57.3186 6.96658 58.1791 6.96538C59.0596 6.96698 59.7596 7.27868 60.3072 7.91108L60.383 7.84588L60.3135 7.77398L59.7764 8.29429L59.8459 8.36581L59.924 8.30325C59.4998 7.77128 58.9056 7.50178 58.1791 7.50328C57.502 7.50248 56.9197 7.73498 56.4536 8.19389C55.9829 8.65445 55.7477 9.26461 55.749 9.99981C55.7477 10.735 55.9829 11.3459 56.4536 11.8056C56.9197 12.2646 57.502 12.4971 58.1791 12.4963C58.9271 12.4975 59.5752 12.1904 60.0978 11.5912L60.0228 11.5252L59.9521 11.5959L60.488 12.1318L60.5588 12.0611L60.4818 11.9975C60.2169 12.3154 59.8872 12.567 59.4853 12.7536C59.0857 12.9404 58.6514 13.0334 58.1791 13.0338V13.1338V13.2338C58.6775 13.2338 59.1432 13.1346 59.5696 12.935C59.9963 12.7372 60.3518 12.4666 60.6357 12.1252L60.6939 12.0552L60.0936 11.4544L60.0178 11.3787L59.9475 11.4592C59.4529 12.022 58.8725 12.2951 58.1791 12.2963C57.5471 12.2951 57.0263 12.0864 56.5939 11.6627H56.5936C56.1639 11.2408 55.9498 10.6943 55.949 9.99981C55.9498 9.30525 56.1639 8.75957 56.5936 8.33685H56.5939C57.0263 7.91308 57.5471 7.70448 58.1791 7.70328C58.8584 7.70488 59.3774 7.94318 59.7678 8.42829L59.8364 8.51429L60.4525 7.91778L60.5205 7.85208L60.4588 7.78068C59.8779 7.10568 59.1072 6.76428 58.1791 6.76538C57.2736 6.76458 56.5021 7.07598 55.8877 7.69198C55.2701 8.30677 54.9607 9.08421 54.9619 9.99981C54.9607 10.9154 55.2701 11.6928 55.8877 12.308C56.5021 12.9236 57.2736 13.2346 58.1791 13.2338V13.1338Z" fill="white"/>
<path d="M63.6777 13H62.9063V7.7371H61.2305V7H65.3535V7.7371H63.6777V13Z" fill="white"/>
<path d="M63.6771 12.9999V12.8999H63.0057V7.63701H61.3299V7.0999H65.2528V7.63701H63.577V12.9999H63.6771V12.8999V12.9999H63.7771V7.83701H65.4528V6.9999V6.8999H61.1299V7.73701V7.83701H62.8057V13.0999H63.6771H63.7771V12.9999H63.6771Z" fill="white"/>
<path d="M70.6469 7L68.3766 12.0613C68.0629 12.7766 67.5977 13.134 66.9774 13.134C66.793 13.134 66.5945 13.0895 66.3817 13L66.5828 12.2875C66.7117 12.3605 66.8457 12.3965 66.9852 12.3965C67.1641 12.3965 67.3027 12.3617 67.4004 12.2922C67.4981 12.2223 67.5887 12.0945 67.6727 11.9105L67.8906 11.4324L65.8711 7H66.7762L68.2594 10.4441H68.2926L69.7414 7H70.6469Z" fill="white"/>
<path d="M70.6462 6.9999L70.5547 6.9589L68.2844 12.0206L68.2841 12.0214C67.9754 12.7147 67.554 13.0304 66.9767 13.0339C66.8083 13.0339 66.623 12.9933 66.4196 12.9077L66.3809 12.9999L66.4773 13.0272L66.6781 12.3147L66.582 12.2874L66.5333 12.3745C66.6755 12.455 66.8273 12.4968 66.9845 12.4964C67.1754 12.4964 67.3355 12.4601 67.4578 12.3733C67.5782 12.2862 67.6746 12.1444 67.7629 11.9522L67.981 11.4741L67.9996 11.4323L66.0258 7.0999H66.7099L68.1926 10.544H68.2919H68.3583L69.8071 7.0999H70.6462V6.9999V6.8999H69.7407H69.6742L68.1992 10.4054L68.2919 10.444V10.344H68.2586V10.444L68.3505 10.4046L66.8414 6.8999H65.8704H65.7148L67.7797 11.4323L67.581 11.869C67.5016 12.0444 67.4165 12.1577 67.3415 12.2104C67.2684 12.2632 67.1508 12.2968 66.9845 12.2964C66.8621 12.2964 66.7469 12.2655 66.6312 12.2003L66.5203 12.1378L66.2848 12.9726L66.2605 13.0577L66.3422 13.0921C66.5644 13.1854 66.7758 13.2339 66.9767 13.2339C67.6394 13.237 68.1488 12.8378 68.4672 12.1015L68.4668 12.1022L70.8004 6.8999H70.6462V6.9999Z" fill="white"/>
<path d="M71.5195 12.9999V6.99988H75.8605V12.9999H75.0891V7.73697H72.2898V12.9999H71.5195Z" fill="white"/>
<path d="M71.5189 12.9999H71.6189V7.0999H75.7596V12.8999H75.1885V7.63701H72.1892V12.8999H71.5189V12.9999H71.6189H71.5189V13.0999H72.2892H72.3892V7.83701H74.9885V13.0999H75.8599H75.9599V6.8999H71.4189V13.0999H71.5189V12.9999Z" fill="white"/>
<path d="M77.2345 12.9999V6.99988H78.0052V9.57218H81.0054V6.99988H81.7764V12.9999H81.0054V10.2929H78.0052V12.9999H77.2345Z" fill="white"/>
<path d="M77.2347 13.0001H77.3347V7.10002H77.9054V9.6723H81.1053V7.10002H81.6766V12.9001H81.1053V10.193H77.9054V12.9001H77.2347V13.0001H77.3347H77.2347V13.1001H78.0054H78.1057V10.393H80.9056V13.1001H81.7772H81.8771V6.90002H81.0055H80.9056V9.4723H78.1057V6.90002H77.2347H77.1347V13.1001H77.2347V13.0001Z" fill="white"/>
<path d="M84.2275 11.7223C84.6723 12.1719 85.2147 12.3965 85.8577 12.3965C86.4999 12.3965 87.0438 12.1719 87.487 11.7223C87.9318 11.2727 88.1542 10.698 88.1542 9.99999C88.1542 9.30199 87.9318 8.72727 87.487 8.27767C87.0438 7.8281 86.4999 7.6035 85.8577 7.6035C85.2147 7.6035 84.6723 7.8281 84.2275 8.27767C83.7843 8.72727 83.5611 9.30199 83.5611 9.99999C83.5611 10.698 83.7843 11.2727 84.2275 11.7223ZM88.0575 12.2246C87.4683 12.8312 86.7348 13.134 85.8577 13.134C84.9805 13.134 84.247 12.8312 83.6586 12.2246C83.0687 11.6187 82.7745 10.877 82.7745 9.99999C82.7745 9.12303 83.0687 8.38119 83.6586 7.7754C84.247 7.1687 84.9805 6.8656 85.8577 6.8656C86.7301 6.8656 87.4613 7.1703 88.0536 7.7793C88.6451 8.38831 88.9416 9.12847 88.9416 9.99999C88.9416 10.877 88.6466 11.6187 88.0575 12.2246Z" fill="white"/>
<path d="M84.2275 11.722L84.1565 11.7924C84.6169 12.26 85.1912 12.4975 85.8576 12.4963C86.5233 12.4975 87.0984 12.26 87.5588 11.7924C88.0215 11.3244 88.2549 10.7188 88.2541 9.99981C88.2549 9.28069 88.0215 8.67517 87.5588 8.20717C87.0984 7.73958 86.5233 7.50208 85.8576 7.50328C85.1912 7.50208 84.6169 7.73958 84.1565 8.20717C83.6937 8.67517 83.4604 9.28069 83.4612 9.99981C83.4604 10.7188 83.6937 11.3244 84.1565 11.7924L84.2275 11.722L84.2985 11.6518C83.8748 11.22 83.6625 10.6771 83.661 9.99981C83.6625 9.32245 83.8748 8.77949 84.2985 8.34781C84.7261 7.91618 85.2381 7.70448 85.8576 7.70328C86.4765 7.70448 86.9892 7.91618 87.416 8.34781L87.4191 8.35101L87.416 8.34781C87.8413 8.77949 88.0535 9.32245 88.0543 9.99981C88.0535 10.6771 87.8413 11.22 87.416 11.6518C86.9892 12.0834 86.4765 12.2951 85.8576 12.2963C85.2381 12.2951 84.7261 12.0834 84.2985 11.6518L84.2275 11.722ZM88.0574 12.2244L87.9856 12.1548C87.4129 12.7424 86.7113 13.0326 85.8576 13.0338C85.0032 13.0326 84.3016 12.7424 83.7296 12.1548L83.7265 12.1518L83.7296 12.1548C83.1576 11.5654 82.8752 10.8544 82.8744 9.99981C82.8752 9.14509 83.1576 8.43421 83.7296 7.84468C84.3016 7.25718 85.0032 6.96658 85.8576 6.96538C86.7059 6.96658 87.4059 7.25838 87.9818 7.84898C88.5561 8.44117 88.8401 9.15101 88.8409 9.99981C88.8401 10.8544 88.5569 11.5654 87.9856 12.1548L88.0574 12.2244L88.1292 12.2939C88.7356 11.6712 89.0422 10.899 89.0415 9.99981C89.0422 9.10565 88.7348 8.33501 88.1253 7.70958C87.5159 7.08178 86.7527 6.76428 85.8576 6.76538C84.9571 6.76428 84.1924 7.08028 83.5861 7.70568V7.70528C82.9789 8.32829 82.673 9.10061 82.6738 9.99981C82.673 10.899 82.9789 11.6712 83.5861 12.2943V12.2939C84.1924 12.9192 84.9571 13.2346 85.8576 13.2338C86.7574 13.2346 87.5229 12.9192 88.1292 12.2939L88.0574 12.2244Z" fill="white"/>
<path d="M92.8632 12.2629H94.4145C94.7103 12.2629 94.9506 12.1594 95.1355 11.952C95.3197 11.7461 95.4118 11.5195 95.4118 11.2734C95.4118 11.0277 95.3166 10.8031 95.1262 10.5992C94.9373 10.3953 94.6876 10.293 94.3802 10.293H92.8632V12.2629ZM92.8632 9.5723H94.2631C94.5542 9.5723 94.7875 9.47662 94.9631 9.28318C95.1394 9.09062 95.2276 8.88006 95.2276 8.65078C95.2276 8.4219 95.1426 8.21166 94.9717 8.0227C94.8016 7.83239 94.5768 7.7371 94.2975 7.7371H92.8632V9.5723ZM92.0938 13V7H94.2631C94.7321 7 95.1394 7.1555 95.4828 7.4648C95.8262 7.7754 95.9986 8.16478 95.9986 8.63398C95.9986 8.9187 95.9245 9.1703 95.7754 9.3883C95.6287 9.60622 95.4313 9.7711 95.1855 9.88278V9.91598C95.4805 10.0164 95.7247 10.1898 95.9143 10.4355C96.1032 10.6816 96.1992 10.9668 96.1992 11.2906C96.1992 11.782 96.0197 12.1898 95.6584 12.5137C95.2986 12.8379 94.8726 13 94.3802 13H92.0938Z" fill="white"/>
<path d="M92.8644 12.2629V12.3629H94.415C94.7341 12.3641 95.0088 12.2469 95.2101 12.0187C95.4083 11.7989 95.5129 11.5449 95.5121 11.2734C95.5129 11.0017 95.4044 10.7489 95.2 10.5309C94.9932 10.3062 94.7099 10.1918 94.3814 10.193H92.7637V12.3629H92.8644V12.2629H92.9643V10.393H94.3814C94.667 10.3941 94.8824 10.4849 95.0541 10.6673C95.2304 10.8578 95.3108 11.0543 95.3124 11.2734C95.3108 11.4941 95.232 11.6934 95.0611 11.8855C94.8941 12.0715 94.6881 12.1613 94.415 12.1629H92.8644V12.2629H92.9643H92.8644ZM92.8644 9.5723V9.6723H94.2643C94.5757 9.67342 94.8442 9.56566 95.0385 9.35046V9.35086C95.2273 9.14454 95.328 8.90622 95.328 8.65086C95.328 8.39694 95.2312 8.15942 95.0463 7.95552V7.95592C94.859 7.74412 94.5991 7.63592 94.2979 7.63712H92.7637V9.6723H92.8644V9.5723H92.9643V7.83712H94.2979C94.5554 7.83872 94.745 7.92072 94.8972 8.0891L94.898 8.08982L94.8972 8.0895C95.0541 8.26454 95.1274 8.44734 95.1282 8.65086C95.1274 8.8535 95.0517 9.0371 94.8902 9.21566V9.21606C94.7318 9.3875 94.5328 9.4711 94.2643 9.4723H92.8644V9.5723H92.9643H92.8644ZM92.0942 13.0001H92.1941V7.10003H94.2643C94.7107 7.10083 95.0892 7.24532 95.4161 7.53912C95.7408 7.83363 95.8984 8.1895 95.8992 8.63406C95.8992 8.90166 95.8297 9.13094 95.6939 9.33206C95.5558 9.53526 95.3748 9.6867 95.1438 9.79182L95.0861 9.81846V9.91606V9.9875L95.1532 10.0105C95.4317 10.1059 95.6573 10.2661 95.836 10.4969L95.8368 10.4981L95.836 10.4965C96.0123 10.7262 96.0997 10.9863 96.0997 11.2906C96.0989 11.7578 95.9327 12.1317 95.5917 12.4395C95.2484 12.7477 94.8512 12.8993 94.3814 12.9001H92.0942V13.0001H92.1941H92.0942V13.1001H94.3814C94.8949 13.1009 95.349 12.9281 95.7259 12.5879C96.106 12.2485 96.3011 11.8066 96.3003 11.2906C96.3011 10.9473 96.1973 10.6371 95.9944 10.3746L95.9928 10.3734L95.9944 10.3742C95.7931 10.1141 95.5309 9.92734 95.2179 9.8215L95.1859 9.91606H95.2858V9.88286H95.1859L95.2273 9.97382C95.4879 9.8555 95.7018 9.67774 95.8594 9.44414V9.44454C96.0194 9.20982 96.0989 8.9359 96.0989 8.63406C96.0997 8.14062 95.914 7.71723 95.5504 7.39063L95.548 7.38872L95.5504 7.39063C95.1898 7.06523 94.7552 6.89923 94.2643 6.90003H91.9943V13.1001H92.0942V13.0001Z" fill="white"/>
</g>
<defs>
<linearGradient id="paint0_linear_80_127" x1="21.7998" y1="8.70973" x2="5.01728" y2="25.4922" gradientUnits="userSpaceOnUse">
<stop stop-color="#00A0FF"/>
<stop offset="0.00657445" stop-color="#00A1FF"/>
<stop offset="0.2601" stop-color="#00BEFF"/>
<stop offset="0.5122" stop-color="#00D2FF"/>
<stop offset="0.7604" stop-color="#00DFFF"/>
<stop offset="1" stop-color="#00E3FF"/>
</linearGradient>
<linearGradient id="paint1_linear_80_127" x1="33.8347" y1="20.0014" x2="9.63767" y2="20.0014" gradientUnits="userSpaceOnUse">
<stop stop-color="#FFE000"/>
<stop offset="0.4087" stop-color="#FFBD00"/>
<stop offset="0.7754" stop-color="#FFA500"/>
<stop offset="1" stop-color="#FF9C00"/>
</linearGradient>
<linearGradient id="paint2_linear_80_127" x1="24.8276" y1="22.2963" x2="2.06932" y2="45.0545" gradientUnits="userSpaceOnUse">
<stop stop-color="#FF3A44"/>
<stop offset="1" stop-color="#C31162"/>
</linearGradient>
<linearGradient id="paint3_linear_80_127" x1="7.29749" y1="0.1761" x2="17.46" y2="10.3386" gradientUnits="userSpaceOnUse">
<stop stop-color="#32A071"/>
<stop offset="0.0685" stop-color="#2DA771"/>
<stop offset="0.4762" stop-color="#15CF74"/>
<stop offset="0.8009" stop-color="#06E775"/>
<stop offset="1" stop-color="#00F076"/>
</linearGradient>
<linearGradient id="paint4_linear_80_127" x1="33.8999" y1="19.9705" x2="9.47221" y2="19.9705" gradientUnits="userSpaceOnUse">
<stop stop-color="#CCB300"/>
<stop offset="0.4087" stop-color="#CC9700"/>
<stop offset="0.7754" stop-color="#CC8400"/>
<stop offset="1" stop-color="#CC7D00"/>
</linearGradient>
<linearGradient id="paint5_linear_80_127" x1="24.8271" y1="22.296" x2="2.06882" y2="45.0543" gradientUnits="userSpaceOnUse">
<stop stop-color="#CC2E36"/>
<stop offset="1" stop-color="#9C0E4E"/>
</linearGradient>
<linearGradient id="paint6_linear_80_127" x1="21.7839" y1="8.70957" x2="5.00133" y2="25.4695" gradientUnits="userSpaceOnUse">
<stop stop-color="#008DE0"/>
<stop offset="0.00657445" stop-color="#008DE0"/>
<stop offset="0.2601" stop-color="#00A7E0"/>
<stop offset="0.5122" stop-color="#00B8E0"/>
<stop offset="0.7604" stop-color="#00C4E0"/>
<stop offset="1" stop-color="#00C7E0"/>
</linearGradient>
<linearGradient id="paint7_linear_80_127" x1="24.9222" y1="22.2525" x2="2.06634" y2="45.161" gradientUnits="userSpaceOnUse">
<stop stop-color="#E0333C"/>
<stop offset="1" stop-color="#AB0F56"/>
</linearGradient>
<linearGradient id="paint8_linear_80_127" x1="33.8348" y1="20.0011" x2="9.63778" y2="20.0011" gradientUnits="userSpaceOnUse">
<stop stop-color="#E0C500"/>
<stop offset="0.4087" stop-color="#E0A600"/>
<stop offset="0.7754" stop-color="#E09100"/>
<stop offset="1" stop-color="#E08900"/>
</linearGradient>
<linearGradient id="paint9_linear_80_127" x1="33.8343" y1="20.0014" x2="9.63719" y2="20.0014" gradientUnits="userSpaceOnUse">
<stop stop-color="#FFE840"/>
<stop offset="0.4087" stop-color="#FFCE40"/>
<stop offset="0.7754" stop-color="#FFBC40"/>
<stop offset="1" stop-color="#FFB540"/>
</linearGradient>
<linearGradient id="paint10_linear_80_127" x1="21.7839" y1="8.70958" x2="5.00137" y2="25.4695" gradientUnits="userSpaceOnUse">
<stop stop-color="#40B8FF"/>
<stop offset="0.00657445" stop-color="#40B9FF"/>
<stop offset="0.2601" stop-color="#40CEFF"/>
<stop offset="0.5122" stop-color="#40DDFF"/>
<stop offset="0.7604" stop-color="#40E7FF"/>
<stop offset="1" stop-color="#40EAFF"/>
</linearGradient>
<linearGradient id="paint11_linear_80_127" x1="7.29741" y1="0.176106" x2="17.4599" y2="10.3386" gradientUnits="userSpaceOnUse">
<stop stop-color="#65B895"/>
<stop offset="0.0685" stop-color="#62BD95"/>
<stop offset="0.4762" stop-color="#50DB97"/>
<stop offset="0.8009" stop-color="#44ED98"/>
<stop offset="1" stop-color="#40F498"/>
</linearGradient>
<clipPath id="clip0_80_127">
<rect width="135" height="40" fill="white"/>
</clipPath>
</defs>
</svg>
