<svg width="24" height="24" viewBox="0 0 24 24" fill="none" xmlns="http://www.w3.org/2000/svg">
<path fill-rule="evenodd" clip-rule="evenodd" d="M12 1.25C6.06294 1.25 1.25 6.06294 1.25 12C1.25 17.9371 6.06294 22.75 12 22.75C17.9371 22.75 22.75 17.9371 22.75 12C22.75 6.06294 17.9371 1.25 12 1.25Z" fill="#EDEEF6"/>
<path d="M12 6.16699L12 7.91699" stroke="#06081C" stroke-width="1.5" stroke-linecap="round" stroke-linejoin="round"/>
<path opacity="0.4" d="M12 16.084L12 17.834" stroke="#06081C" stroke-width="1.5" stroke-linecap="round" stroke-linejoin="round"/>
<path opacity="0.7" d="M17.832 12L16.082 12" stroke="#06081C" stroke-width="1.5" stroke-linecap="round" stroke-linejoin="round"/>
<path opacity="0.2" d="M7.91602 12.0005L6.16602 12.0005" stroke="#06081C" stroke-width="1.5" stroke-linecap="round" stroke-linejoin="round"/>
<path opacity="0.8" d="M16.1242 7.87536L14.8867 9.11279" stroke="#06081C" stroke-width="1.5" stroke-linecap="round" stroke-linejoin="round"/>
<path opacity="0.3" d="M9.11244 14.8876L7.875 16.125" stroke="#06081C" stroke-width="1.5" stroke-linecap="round" stroke-linejoin="round"/>
<path d="M7.87389 7.87584L9.11133 9.11328" stroke="#06081C" stroke-width="1.5" stroke-linecap="round" stroke-linejoin="round"/>
<path opacity="0.5" d="M14.8876 14.8876L16.125 16.125" stroke="#06081C" stroke-width="1.5" stroke-linecap="round" stroke-linejoin="round"/>
</svg>
