<svg width="168" height="39" viewBox="0 0 168 39" fill="none" xmlns="http://www.w3.org/2000/svg">
<path d="M68.3414 29.2057V9.8295H63.5964L58.0379 23.5661H57.9294L52.371 9.8295H47.626V29.2057H51.2729V16.1271H51.3813L56.6957 29.0177H59.2716L64.586 16.1271H64.6945V29.2057H68.3414Z" fill="#EDEEF6"/>
<path d="M76.5435 26.6007C75.2013 26.6007 74.3065 25.9294 74.3065 24.8551C74.3065 23.8346 75.1471 23.1767 76.6248 23.0692L79.6887 22.8813V23.9286C79.6887 25.4862 78.2652 26.6007 76.5435 26.6007ZM75.242 29.434C77.0587 29.434 78.8618 28.5343 79.6752 27.0036H79.7565V29.2057H83.5797V19.3095C83.5797 16.4091 81.1529 14.5023 77.4247 14.5023C73.5745 14.5023 71.1748 16.4225 71.0257 19.2155H74.6455C74.8353 18.1547 75.7707 17.4296 77.2485 17.4296C78.7397 17.4296 79.6887 18.2084 79.6887 19.5512V20.5045L76.0283 20.7194C72.4085 20.9342 70.375 22.4516 70.375 25.07C70.375 27.6615 72.4763 29.434 75.242 29.434Z" fill="#EDEEF6"/>
<path d="M86.142 29.2057H90.1007V21.1625C90.1007 19.1349 91.2395 17.9533 93.1917 17.9533C93.7611 17.9533 94.3034 18.0473 94.6288 18.1815V14.7306C94.3576 14.6501 93.9645 14.5829 93.5035 14.5829C91.7953 14.5829 90.5616 15.5766 90.0464 17.4027H89.9651V14.8112H86.142V29.2057Z" fill="#EDEEF6"/>
<path d="M101.516 26.6007C100.174 26.6007 99.2789 25.9294 99.2789 24.8551C99.2789 23.8346 100.119 23.1767 101.597 23.0692L104.661 22.8813V23.9286C104.661 25.4862 103.238 26.6007 101.516 26.6007ZM100.214 29.434C102.031 29.434 103.834 28.5343 104.648 27.0036H104.729V29.2057H108.552V19.3095C108.552 16.4091 106.125 14.5023 102.397 14.5023C98.5468 14.5023 96.1472 16.4225 95.9981 19.2155H99.6178C99.8076 18.1547 100.743 17.4296 102.221 17.4296C103.712 17.4296 104.661 18.2084 104.661 19.5512V20.5045L101.001 20.7194C97.3809 20.9342 95.3473 22.4516 95.3473 25.07C95.3473 27.6615 97.4487 29.434 100.214 29.434Z" fill="#EDEEF6"/>
<path d="M111.114 29.2057H115.073V20.9477C115.073 19.0812 116.198 17.7921 117.974 17.7921C119.75 17.7921 120.645 18.8664 120.645 20.7462V29.2057H124.604V19.9272C124.604 16.5568 122.787 14.5426 119.56 14.5426C117.324 14.5426 115.792 15.59 115.019 17.3759H114.937V14.8112H111.114V29.2057Z" fill="#EDEEF6"/>
<path d="M136.114 29.2057C140.289 29.2057 142.879 27.0707 142.879 23.6601C142.879 21.0954 140.927 19.1752 138.269 18.9738V18.8664C140.344 18.5575 141.943 16.7851 141.943 14.6635C141.943 11.696 139.639 9.8295 135.965 9.8295H127.451V29.2057H136.114ZM131.545 12.8507H134.907C136.819 12.8507 137.917 13.737 137.917 15.2946C137.917 16.9328 136.67 17.8861 134.487 17.8861H131.545V12.8507ZM131.545 26.1845V20.5583H134.975C137.388 20.5583 138.703 21.5251 138.703 23.3378C138.703 25.1908 137.429 26.1845 135.07 26.1845H131.545Z" fill="#EDEEF6"/>
<path d="M151.393 17.4027C153.155 17.4027 154.362 18.6649 154.443 20.5045H148.275C148.41 18.7052 149.657 17.4027 151.393 17.4027ZM154.497 24.8014C154.131 25.9025 153.02 26.6142 151.569 26.6142C149.549 26.6142 148.234 25.2043 148.234 23.1498V22.9081H158.253V21.713C158.253 17.3356 155.582 14.5023 151.352 14.5023C147.054 14.5023 144.343 17.4833 144.343 22.0756C144.343 26.6813 147.027 29.5146 151.501 29.5146C155.094 29.5146 157.697 27.6212 158.131 24.8014H154.497Z" fill="#EDEEF6"/>
<path d="M161.357 11.4945V14.8112H159.31V17.7653H161.357V25.3251C161.357 28.1315 162.686 29.2594 166.102 29.2594C166.902 29.2594 167.58 29.1923 167.987 29.0983V26.2113C167.743 26.2516 167.377 26.2785 167.024 26.2785C165.858 26.2785 165.316 25.7548 165.316 24.6537V17.7653H168V14.8112H165.316V11.4945H161.357Z" fill="#EDEEF6"/>
<path d="M29.6686 8.1177L19.8762 2.08387L16.4975 0L15.5888 0.56367L13.1232 2.08387L12.2927 2.59629L9.74023 4.17201L6.14852 6.38398L3.59606 7.9597L0 10.1717V26.2491L0.00869663 26.2533V28.824L13.1362 36.9161L16.5149 39L19.8892 36.9161L33.1994 28.7087V10.2955L29.6686 8.1177ZM29.6686 26.7273L16.5149 34.8365L3.59171 26.8725V12.1232L6.14417 10.5517V25.8263L9.73588 28.0383V8.33547L12.2883 6.76404V29.614L15.8801 31.8259V4.54778L16.4975 4.16774L17.3759 4.71005V31.5783L18.9717 30.6986L20.9675 29.4688V21.3127H29.6642V26.7273H29.6686ZM29.6686 17.7855H20.9719V6.92204L29.6686 12.2811V17.7855Z" fill="#EDEEF6"/>
</svg>
