<svg width="100" height="100" viewBox="0 0 100 100" fill="none" xmlns="http://www.w3.org/2000/svg">
<circle cx="50" cy="50" r="49.5" fill="#06081C" stroke="#383B54"/>
<g filter="url(#filter0_bdi_129_90)">
<path fill-rule="evenodd" clip-rule="evenodd" d="M30.833 35.333C30.833 36.7137 31.9523 37.833 33.333 37.833L73.333 37.833C74.7137 37.833 75.833 36.7137 75.833 35.333C75.833 33.9523 74.7137 32.833 73.333 32.833L33.333 32.833C31.9523 32.833 30.833 33.9523 30.833 35.333Z" fill="url(#paint0_linear_129_90)" shape-rendering="crispEdges"/>
<path d="M31.2497 35.333C31.2497 36.4836 32.1824 37.4163 33.333 37.4163L73.333 37.4163C74.4836 37.4163 75.4163 36.4836 75.4163 35.333C75.4163 34.1824 74.4836 33.2497 73.333 33.2497L33.333 33.2497C32.1824 33.2497 31.2497 34.1824 31.2497 35.333Z" stroke="url(#paint1_linear_129_90)" stroke-opacity="0.7" stroke-width="0.833333" stroke-linecap="round" shape-rendering="crispEdges"/>
</g>
<g filter="url(#filter1_d_129_90)">
<path d="M66.666 25.333L74.309 32.976C75.6107 34.2777 75.6107 36.3883 74.309 37.69L66.666 45.333" stroke="#EDEEF6" stroke-width="5" stroke-linecap="round"/>
</g>
<g filter="url(#filter2_bdi_129_90)">
<path fill-rule="evenodd" clip-rule="evenodd" d="M27.499 65.333C27.499 66.7137 28.6183 67.833 29.999 67.833L69.999 67.833C71.3797 67.833 72.499 66.7137 72.499 65.333C72.499 63.9523 71.3797 62.833 69.999 62.833L29.999 62.833C28.6183 62.833 27.499 63.9523 27.499 65.333Z" fill="url(#paint2_linear_129_90)" shape-rendering="crispEdges"/>
<path d="M27.9157 65.333C27.9157 66.4836 28.8484 67.4163 29.999 67.4163L69.999 67.4163C71.1496 67.4163 72.0824 66.4836 72.0824 65.333C72.0824 64.1824 71.1496 63.2497 69.999 63.2497L29.999 63.2497C28.8484 63.2497 27.9157 64.1824 27.9157 65.333Z" stroke="url(#paint3_linear_129_90)" stroke-opacity="0.7" stroke-width="0.833333" stroke-linecap="round" shape-rendering="crispEdges"/>
</g>
<g filter="url(#filter3_d_129_90)">
<path d="M36.666 55.333L29.023 62.976C27.7213 64.2777 27.7213 66.3883 29.023 67.69L36.666 75.333" stroke="#EDEEF6" stroke-width="5" stroke-linecap="round"/>
</g>
<defs>
<filter id="filter0_bdi_129_90" x="17.4997" y="19.4997" width="71.6667" height="31.6667" filterUnits="userSpaceOnUse" color-interpolation-filters="sRGB">
<feFlood flood-opacity="0" result="BackgroundImageFix"/>
<feGaussianBlur in="BackgroundImage" stdDeviation="3.33333"/>
<feComposite in2="SourceAlpha" operator="in" result="effect1_backgroundBlur_129_90"/>
<feColorMatrix in="SourceAlpha" type="matrix" values="0 0 0 0 0 0 0 0 0 0 0 0 0 0 0 0 0 0 127 0" result="hardAlpha"/>
<feOffset/>
<feGaussianBlur stdDeviation="6.66667"/>
<feComposite in2="hardAlpha" operator="out"/>
<feColorMatrix type="matrix" values="0 0 0 0 0.231373 0 0 0 0 0.407843 0 0 0 0 1 0 0 0 0.1 0"/>
<feBlend mode="normal" in2="effect1_backgroundBlur_129_90" result="effect2_dropShadow_129_90"/>
<feBlend mode="normal" in="SourceGraphic" in2="effect2_dropShadow_129_90" result="shape"/>
<feColorMatrix in="SourceAlpha" type="matrix" values="0 0 0 0 0 0 0 0 0 0 0 0 0 0 0 0 0 0 127 0" result="hardAlpha"/>
<feOffset/>
<feGaussianBlur stdDeviation="5"/>
<feComposite in2="hardAlpha" operator="arithmetic" k2="-1" k3="1"/>
<feColorMatrix type="matrix" values="0 0 0 0 0.231373 0 0 0 0 0.407843 0 0 0 0 1 0 0 0 0.38 0"/>
<feBlend mode="normal" in2="shape" result="effect3_innerShadow_129_90"/>
</filter>
<filter id="filter1_d_129_90" x="57.4993" y="16.1663" width="26.9525" height="38.3333" filterUnits="userSpaceOnUse" color-interpolation-filters="sRGB">
<feFlood flood-opacity="0" result="BackgroundImageFix"/>
<feColorMatrix in="SourceAlpha" type="matrix" values="0 0 0 0 0 0 0 0 0 0 0 0 0 0 0 0 0 0 127 0" result="hardAlpha"/>
<feOffset/>
<feGaussianBlur stdDeviation="3.33333"/>
<feComposite in2="hardAlpha" operator="out"/>
<feColorMatrix type="matrix" values="0 0 0 0 0.231373 0 0 0 0 0.407843 0 0 0 0 1 0 0 0 0.35 0"/>
<feBlend mode="normal" in2="BackgroundImageFix" result="effect1_dropShadow_129_90"/>
<feBlend mode="normal" in="SourceGraphic" in2="effect1_dropShadow_129_90" result="shape"/>
</filter>
<filter id="filter2_bdi_129_90" x="14.1657" y="49.4997" width="71.6667" height="31.6667" filterUnits="userSpaceOnUse" color-interpolation-filters="sRGB">
<feFlood flood-opacity="0" result="BackgroundImageFix"/>
<feGaussianBlur in="BackgroundImage" stdDeviation="3.33333"/>
<feComposite in2="SourceAlpha" operator="in" result="effect1_backgroundBlur_129_90"/>
<feColorMatrix in="SourceAlpha" type="matrix" values="0 0 0 0 0 0 0 0 0 0 0 0 0 0 0 0 0 0 127 0" result="hardAlpha"/>
<feOffset/>
<feGaussianBlur stdDeviation="6.66667"/>
<feComposite in2="hardAlpha" operator="out"/>
<feColorMatrix type="matrix" values="0 0 0 0 0.231373 0 0 0 0 0.407843 0 0 0 0 1 0 0 0 0.1 0"/>
<feBlend mode="normal" in2="effect1_backgroundBlur_129_90" result="effect2_dropShadow_129_90"/>
<feBlend mode="normal" in="SourceGraphic" in2="effect2_dropShadow_129_90" result="shape"/>
<feColorMatrix in="SourceAlpha" type="matrix" values="0 0 0 0 0 0 0 0 0 0 0 0 0 0 0 0 0 0 127 0" result="hardAlpha"/>
<feOffset/>
<feGaussianBlur stdDeviation="5"/>
<feComposite in2="hardAlpha" operator="arithmetic" k2="-1" k3="1"/>
<feColorMatrix type="matrix" values="0 0 0 0 0.231373 0 0 0 0 0.407843 0 0 0 0 1 0 0 0 0.38 0"/>
<feBlend mode="normal" in2="shape" result="effect3_innerShadow_129_90"/>
</filter>
<filter id="filter3_d_129_90" x="18.8802" y="46.1663" width="26.9525" height="38.3333" filterUnits="userSpaceOnUse" color-interpolation-filters="sRGB">
<feFlood flood-opacity="0" result="BackgroundImageFix"/>
<feColorMatrix in="SourceAlpha" type="matrix" values="0 0 0 0 0 0 0 0 0 0 0 0 0 0 0 0 0 0 127 0" result="hardAlpha"/>
<feOffset/>
<feGaussianBlur stdDeviation="3.33333"/>
<feComposite in2="hardAlpha" operator="out"/>
<feColorMatrix type="matrix" values="0 0 0 0 0.231373 0 0 0 0 0.407843 0 0 0 0 1 0 0 0 0.35 0"/>
<feBlend mode="normal" in2="BackgroundImageFix" result="effect1_dropShadow_129_90"/>
<feBlend mode="normal" in="SourceGraphic" in2="effect1_dropShadow_129_90" result="shape"/>
</filter>
<linearGradient id="paint0_linear_129_90" x1="12.833" y1="31.208" x2="14.4628" y2="47.6546" gradientUnits="userSpaceOnUse">
<stop stop-color="#344EA6" stop-opacity="0.26"/>
<stop offset="0.505208" stop-color="#587EFF" stop-opacity="0.12"/>
<stop offset="1" stop-color="#829EFF" stop-opacity="0.04"/>
</linearGradient>
<linearGradient id="paint1_linear_129_90" x1="37.583" y1="32.958" x2="38.2993" y2="40.4791" gradientUnits="userSpaceOnUse">
<stop stop-color="white" stop-opacity="0.15"/>
<stop offset="1" stop-color="white" stop-opacity="0.44"/>
</linearGradient>
<linearGradient id="paint2_linear_129_90" x1="9.49902" y1="61.208" x2="11.1289" y2="77.6546" gradientUnits="userSpaceOnUse">
<stop stop-color="#344EA6" stop-opacity="0.26"/>
<stop offset="0.505208" stop-color="#587EFF" stop-opacity="0.12"/>
<stop offset="1" stop-color="#829EFF" stop-opacity="0.04"/>
</linearGradient>
<linearGradient id="paint3_linear_129_90" x1="34.249" y1="62.958" x2="34.9653" y2="70.4791" gradientUnits="userSpaceOnUse">
<stop stop-color="white" stop-opacity="0.15"/>
<stop offset="1" stop-color="white" stop-opacity="0.44"/>
</linearGradient>
</defs>
</svg>
