<svg width="100" height="100" viewBox="0 0 100 100" fill="none" xmlns="http://www.w3.org/2000/svg">
<circle cx="50" cy="50" r="49.5" fill="#06081C" stroke="#383B54"/>
<path d="M50 80C66.5685 80 80 66.5685 80 50C80 33.4315 66.5685 20 50 20C33.4315 20 20 33.4315 20 50C20 66.5685 33.4315 80 50 80Z" fill="#9C7C4D"/>
<path d="M35.0966 77C28.2549 73.0444 23.2202 66.4537 21.1002 58.6778C18.9802 50.9019 19.9486 42.5778 23.7922 35.5366C27.6358 28.4955 34.0398 23.3141 41.5955 21.1323C49.1512 18.9505 57.2396 19.9471 64.0813 23.9027C64.3937 24.0823 64.706 24.262 65 24.451" fill="#B39262"/>
<path d="M50.0479 74C45.297 74.0094 40.6503 72.6087 36.6962 69.9752C32.7421 67.3417 29.6585 63.5939 27.8361 59.2065C26.0136 54.8191 25.5343 49.9896 26.4588 45.3296C27.3833 40.6696 29.6701 36.3888 33.0294 33.0294C36.3888 29.6701 40.6696 27.3834 45.3296 26.4588C49.9896 25.5343 54.8191 26.0136 59.2065 27.8361C63.5939 29.6585 67.3417 32.7421 69.9752 36.6962C72.6087 40.6503 74.0094 45.297 74 50.0479C73.9797 56.3941 71.4497 62.4747 66.9622 66.9622C62.4747 71.4497 56.3941 73.9797 50.0479 74V74ZM50.0479 30.3113C46.1538 30.3113 42.3472 31.4661 39.1095 33.6295C35.8717 35.7929 33.3481 38.8678 31.8579 42.4654C30.3678 46.0631 29.9779 50.0218 30.7376 53.841C31.4972 57.6602 33.3724 61.1684 36.1259 63.9219C38.8794 66.6754 42.3876 68.5506 46.2068 69.3103C50.026 70.07 53.9847 69.6801 57.5824 68.1899C61.18 66.6997 64.2549 64.1761 66.4184 60.9384C68.5818 57.7006 69.7365 53.894 69.7365 50C69.7314 44.7798 67.6555 39.7748 63.9642 36.0836C60.273 32.3924 55.2681 30.3164 50.0479 30.3113V30.3113Z" fill="#FFDFAE"/>
<path d="M53 41H47V59H53V41Z" fill="#FFDFAE"/>
</svg>
