<svg xmlns="http://www.w3.org/2000/svg" xml:space="preserve" width="71.34" height="71.34" style="shape-rendering:geometricPrecision;text-rendering:geometricPrecision;image-rendering:optimizeQuality;fill-rule:evenodd;clip-rule:evenodd" viewBox="0 0 25.02 25.02"><path d="M4.73 15.16a7.36 7.36 0 0 0 5.22 2.16c4.08 0 7.37-3.3 7.37-7.37 0-1.89-.72-3.78-2.16-5.21a7.353 7.353 0 0 0-5.21-2.16c-1.89 0-3.78.72-5.22 2.16a7.36 7.36 0 0 0-2.16 5.22c0 1.89.72 3.78 2.16 5.21zm13.1.85 6.81 6.81c.5.5.5 1.32 0 1.82s-1.32.5-1.82 0l-6.81-6.81a9.887 9.887 0 0 1-6.06 2.06A9.936 9.936 0 0 1 .01 9.95c0-2.54.97-5.09 2.91-7.03A9.953 9.953 0 0 1 9.96 0c2.54 0 5.09.97 7.03 2.91a9.925 9.925 0 0 1 2.91 7.04c0 2.14-.69 4.28-2.06 6.06z" style="fill:#edeef6;fill-rule:nonzero"/></svg>